G04 #@! TF.GenerationSoftware,KiCad,Pcbnew,(5.1.5-0-10_14)*
G04 #@! TF.CreationDate,2020-03-08T20:48:31+01:00*
G04 #@! TF.ProjectId,sensorHead,73656e73-6f72-4486-9561-642e6b696361,rev?*
G04 #@! TF.SameCoordinates,Original*
G04 #@! TF.FileFunction,Legend,Top*
G04 #@! TF.FilePolarity,Positive*
%FSLAX46Y46*%
G04 Gerber Fmt 4.6, Leading zero omitted, Abs format (unit mm)*
G04 Created by KiCad (PCBNEW (5.1.5-0-10_14)) date 2020-03-08 20:48:31*
%MOMM*%
%LPD*%
G04 APERTURE LIST*
%ADD10C,0.120000*%
%ADD11C,0.200000*%
G04 APERTURE END LIST*
D10*
X52334200Y-108800000D02*
X54554200Y-108800000D01*
X55834200Y-108800000D02*
X56244200Y-108800000D01*
X50844200Y-108300000D02*
X50644200Y-108300000D01*
X54344200Y-108300000D02*
X52594200Y-108300000D01*
X56244200Y-108800000D02*
X56244200Y-108300000D01*
X50644200Y-108800000D02*
X51054200Y-108800000D01*
X50644200Y-108300000D02*
X50644200Y-108800000D01*
X56244200Y-108300000D02*
X56044200Y-108300000D01*
X55094200Y-109020000D02*
X55094200Y-108890000D01*
X55344200Y-109020000D02*
X55094200Y-109020000D01*
X51544200Y-109020000D02*
X51544200Y-108890000D01*
X51794200Y-109020000D02*
X51544200Y-109020000D01*
X55344200Y-109020000D02*
X55344200Y-108890000D01*
X51794200Y-109020000D02*
X51794200Y-108890000D01*
X62289361Y-101738748D02*
X62289361Y-102261252D01*
X63709361Y-101738748D02*
X63709361Y-102261252D01*
D11*
X56949361Y-81575000D02*
X56949361Y-69135800D01*
X53049361Y-69199600D02*
X53049361Y-81575000D01*
X53049361Y-69185000D02*
X53049361Y-69165000D01*
X61049361Y-69185000D02*
X61049361Y-69165000D01*
X61049361Y-69199600D02*
X61049361Y-81575000D01*
X64949361Y-81575000D02*
X64949361Y-69135800D01*
X53049361Y-51185000D02*
X53049361Y-51165000D01*
X53049361Y-51199600D02*
X53049361Y-63575000D01*
X56949361Y-63575000D02*
X56949361Y-51135800D01*
X60949361Y-63575000D02*
X60949361Y-51135800D01*
X57049361Y-51199600D02*
X57049361Y-63575000D01*
X57049361Y-51185000D02*
X57049361Y-51165000D01*
X64949361Y-63575000D02*
X64949361Y-51135800D01*
X61049361Y-51199600D02*
X61049361Y-63575000D01*
X61049361Y-51185000D02*
X61049361Y-51165000D01*
X60949361Y-81575000D02*
X60949361Y-69135800D01*
X57049361Y-69199600D02*
X57049361Y-81575000D01*
X57049361Y-69185000D02*
X57049361Y-69165000D01*
D10*
X61100000Y-106865000D02*
X57040000Y-106865000D01*
X57040000Y-106865000D02*
X57040000Y-109135000D01*
X57040000Y-109135000D02*
X61100000Y-109135000D01*
X65861000Y-101738748D02*
X65861000Y-102261252D01*
X64441000Y-101738748D02*
X64441000Y-102261252D01*
X54289361Y-102261252D02*
X54289361Y-101738748D01*
X55709361Y-102261252D02*
X55709361Y-101738748D01*
X66000000Y-107040000D02*
X63140000Y-107040000D01*
X63140000Y-107040000D02*
X63140000Y-108960000D01*
X63140000Y-108960000D02*
X66000000Y-108960000D01*
M02*
