G04 #@! TF.GenerationSoftware,KiCad,Pcbnew,(5.1.5-0-10_14)*
G04 #@! TF.CreationDate,2020-03-08T20:48:31+01:00*
G04 #@! TF.ProjectId,sensorHead,73656e73-6f72-4486-9561-642e6b696361,rev?*
G04 #@! TF.SameCoordinates,Original*
G04 #@! TF.FileFunction,Copper,L2,Bot*
G04 #@! TF.FilePolarity,Positive*
%FSLAX46Y46*%
G04 Gerber Fmt 4.6, Leading zero omitted, Abs format (unit mm)*
G04 Created by KiCad (PCBNEW (5.1.5-0-10_14)) date 2020-03-08 20:48:31*
%MOMM*%
%LPD*%
G04 APERTURE LIST*
%ADD10C,1.600000*%
%ADD11C,0.800000*%
%ADD12C,0.250000*%
%ADD13C,0.300000*%
G04 APERTURE END LIST*
D10*
X51694200Y-108000000D03*
X55194200Y-108000000D03*
D11*
X53644800Y-106273600D03*
X55016400Y-64846200D03*
X63042800Y-94843600D03*
X63042800Y-64820800D03*
X62992000Y-99136200D03*
X59004200Y-64820800D03*
D12*
X55016400Y-83134200D02*
X55016400Y-66370200D01*
D13*
X55016400Y-83134200D02*
X55016400Y-84353400D01*
X55016400Y-84353400D02*
X51104800Y-88265000D01*
X51104800Y-103733600D02*
X53644800Y-106273600D01*
X51104800Y-88265000D02*
X51104800Y-103733600D01*
X55016400Y-66370200D02*
X55016400Y-64846200D01*
D12*
X63017400Y-94818200D02*
X63042800Y-94843600D01*
X63017400Y-66751200D02*
X63017400Y-84124800D01*
X63017400Y-84124800D02*
X66725800Y-87833200D01*
X63042800Y-94843600D02*
X64135000Y-94843600D01*
X66725800Y-92252800D02*
X66725800Y-87833200D01*
X64135000Y-94843600D02*
X66725800Y-92252800D01*
X63017400Y-64846200D02*
X63042800Y-64820800D01*
X63017400Y-66751200D02*
X63017400Y-64846200D01*
X62992000Y-99136200D02*
X59004200Y-95148400D01*
X59004200Y-95148400D02*
X59004200Y-66395600D01*
X59004200Y-66395600D02*
X59004200Y-64820800D01*
M02*
