; NON-PLATED HOLES START AT T1
; THROUGH (PLATED) HOLES START AT T100
M48
INCH
T100C0.040000
T101C0.035000
T102C0.060020
T103C0.027559
T104C0.042000
T105C0.038000
%
T100
X016104Y001569
X009104Y001569
X028104Y006569
X002104Y001569
X028104Y010569
X019104Y001569
X021104Y001569
X004104Y001569
X028104Y008569
X014104Y001569
X023104Y001569
X007104Y001569
X028104Y004569
T101
X008104Y013569
X024104Y010569
X012104Y013569
X020104Y010569
T102
X026964Y013829
X029504Y014769
X028224Y016689
X026414Y012839
X025274Y016489
T103
X014104Y006569
X013104Y006569
T104
X016104Y011569
X015104Y011569
X014104Y011569
T105
X003104Y018569
X001104Y018569
X008104Y018569
X006104Y018569
X004104Y018569
X002104Y018569
X011104Y007569
X009104Y018569
X007104Y018569
X005104Y018569
X010104Y007569
X013104Y018569
X011104Y018569
X029504Y014769
X016104Y018569
X018104Y018569
X014104Y018569
X012104Y018569
X010104Y018569
X017104Y018569
X019104Y018569
X013104Y016569
X016104Y016569
X014104Y016569
X021104Y018569
X023104Y018569
X026420Y012837
X017104Y016569
X015104Y016569
X004104Y012569
X006104Y012569
X008104Y012569
X020104Y018569
X022104Y018569
X024104Y018569
X026104Y018569
X028104Y018569
X005104Y012569
X007104Y012569
X009104Y012569
X025104Y018569
X027104Y018569
X029104Y018569
X011104Y012569
X010104Y012569
X013104Y017569
X028220Y016684
X004104Y007569
X006104Y007569
X008104Y007569
X016104Y017569
X014104Y017569
X005104Y007569
X007104Y007569
X009104Y007569
X017104Y017569
X015104Y017569
T00
M30
