G04 MADE WITH FRITZING*
G04 WWW.FRITZING.ORG*
G04 DOUBLE SIDED*
G04 HOLES PLATED*
G04 CONTOUR ON CENTER OF CONTOUR VECTOR*
%ASAXBY*%
%FSLAX23Y23*%
%MOIN*%
%OFA0B0*%
%SFA1.0B1.0*%
%ADD10C,0.075000*%
%ADD11C,0.090020*%
%ADD12C,0.078000*%
%ADD13C,0.065000*%
%ADD14C,0.080000*%
%ADD15C,0.082000*%
%ADD16R,0.080000X0.080000*%
%ADD17R,0.082000X0.082000*%
%ADD18C,0.024000*%
%ADD19R,0.001000X0.001000*%
%LNCOPPER0*%
G90*
G70*
G54D10*
X2907Y1738D03*
G54D11*
X2641Y1284D03*
X2696Y1383D03*
X2527Y1649D03*
X2822Y1669D03*
X2950Y1477D03*
G54D12*
X1310Y1757D03*
X1410Y1757D03*
X1510Y1757D03*
X1610Y1757D03*
X1710Y1757D03*
X1310Y1657D03*
X1410Y1657D03*
X1510Y1657D03*
X1610Y1657D03*
X1710Y1657D03*
G54D13*
X1310Y657D03*
X1410Y657D03*
G54D10*
X810Y1357D03*
X1210Y1357D03*
G54D12*
X110Y1857D03*
X210Y1857D03*
X310Y1857D03*
X410Y1857D03*
X510Y1857D03*
X610Y1857D03*
X710Y1857D03*
X810Y1857D03*
X910Y1857D03*
X1010Y1857D03*
X1110Y1857D03*
X1210Y1857D03*
X1310Y1857D03*
X1410Y1857D03*
X2950Y1477D03*
X2822Y1668D03*
X2642Y1284D03*
X1110Y1257D03*
X1010Y1257D03*
X910Y1257D03*
X810Y1257D03*
X710Y1257D03*
X610Y1257D03*
X510Y1257D03*
X410Y1257D03*
X1110Y757D03*
X1010Y757D03*
X910Y757D03*
X810Y757D03*
X710Y757D03*
X610Y757D03*
X510Y757D03*
X410Y757D03*
X2910Y1857D03*
X2810Y1857D03*
X2710Y1857D03*
X2610Y1857D03*
X2510Y1857D03*
X2410Y1857D03*
X2310Y1857D03*
X2210Y1857D03*
X2110Y1857D03*
X2010Y1857D03*
X1910Y1857D03*
X1810Y1857D03*
X1710Y1857D03*
X1610Y1857D03*
G54D14*
X1910Y157D03*
X2110Y157D03*
X2310Y157D03*
X2810Y457D03*
X2810Y657D03*
X2810Y857D03*
X2810Y1057D03*
X1410Y157D03*
X1610Y157D03*
X210Y157D03*
X410Y157D03*
X710Y157D03*
X910Y157D03*
G54D15*
X1410Y1157D03*
X1510Y1157D03*
X1610Y1157D03*
G54D10*
X2010Y1057D03*
X2410Y1057D03*
G54D16*
X1910Y157D03*
X2810Y457D03*
X1410Y157D03*
X210Y157D03*
X710Y157D03*
G54D17*
X1410Y1157D03*
G54D18*
X2410Y658D02*
X2031Y1037D01*
D02*
X2779Y657D02*
X2410Y658D01*
D02*
X2010Y1636D02*
X1735Y1839D01*
D02*
X2010Y1086D02*
X2010Y1636D01*
D02*
X1785Y461D02*
X2779Y457D01*
D02*
X1210Y1036D02*
X1785Y461D01*
D02*
X1210Y1328D02*
X1210Y1036D01*
D02*
X2516Y1462D02*
X2889Y1836D01*
D02*
X2516Y1067D02*
X2516Y1462D01*
D02*
X2785Y875D02*
X2516Y1067D01*
G36*
X40Y1889D02*
X40Y1807D01*
X106Y1807D01*
X106Y1809D01*
X98Y1809D01*
X98Y1811D01*
X92Y1811D01*
X92Y1813D01*
X90Y1813D01*
X90Y1815D01*
X86Y1815D01*
X86Y1817D01*
X82Y1817D01*
X82Y1819D01*
X80Y1819D01*
X80Y1821D01*
X78Y1821D01*
X78Y1823D01*
X76Y1823D01*
X76Y1825D01*
X74Y1825D01*
X74Y1827D01*
X72Y1827D01*
X72Y1831D01*
X70Y1831D01*
X70Y1833D01*
X68Y1833D01*
X68Y1837D01*
X66Y1837D01*
X66Y1841D01*
X64Y1841D01*
X64Y1847D01*
X62Y1847D01*
X62Y1867D01*
X64Y1867D01*
X64Y1889D01*
X40Y1889D01*
G37*
D02*
G36*
X2956Y1889D02*
X2956Y1869D01*
X2958Y1869D01*
X2958Y1863D01*
X2960Y1863D01*
X2960Y1851D01*
X2958Y1851D01*
X2958Y1843D01*
X2956Y1843D01*
X2956Y1839D01*
X2954Y1839D01*
X2954Y1835D01*
X2952Y1835D01*
X2952Y1831D01*
X2950Y1831D01*
X2950Y1829D01*
X2948Y1829D01*
X2948Y1827D01*
X2946Y1827D01*
X2946Y1825D01*
X2944Y1825D01*
X2944Y1823D01*
X2942Y1823D01*
X2942Y1821D01*
X2940Y1821D01*
X2940Y1819D01*
X2938Y1819D01*
X2938Y1817D01*
X2936Y1817D01*
X2936Y1815D01*
X2932Y1815D01*
X2932Y1813D01*
X2928Y1813D01*
X2928Y1811D01*
X2922Y1811D01*
X2922Y1809D01*
X2914Y1809D01*
X2914Y1807D01*
X2890Y1807D01*
X2890Y1805D01*
X2888Y1805D01*
X2888Y1803D01*
X2886Y1803D01*
X2886Y1801D01*
X2884Y1801D01*
X2884Y1799D01*
X2882Y1799D01*
X2882Y1797D01*
X2880Y1797D01*
X2880Y1795D01*
X2878Y1795D01*
X2878Y1793D01*
X2876Y1793D01*
X2876Y1791D01*
X2874Y1791D01*
X2874Y1789D01*
X2872Y1789D01*
X2872Y1787D01*
X2870Y1787D01*
X2870Y1785D01*
X2868Y1785D01*
X2868Y1783D01*
X2866Y1783D01*
X2866Y1781D01*
X2864Y1781D01*
X2864Y1779D01*
X2862Y1779D01*
X2862Y1777D01*
X2860Y1777D01*
X2860Y1775D01*
X2858Y1775D01*
X2858Y1773D01*
X2856Y1773D01*
X2856Y1771D01*
X2854Y1771D01*
X2854Y1769D01*
X2852Y1769D01*
X2852Y1767D01*
X2850Y1767D01*
X2850Y1765D01*
X2848Y1765D01*
X2848Y1763D01*
X2846Y1763D01*
X2846Y1761D01*
X2844Y1761D01*
X2844Y1759D01*
X2842Y1759D01*
X2842Y1757D01*
X2840Y1757D01*
X2840Y1755D01*
X2838Y1755D01*
X2838Y1753D01*
X2836Y1753D01*
X2836Y1751D01*
X2834Y1751D01*
X2834Y1749D01*
X2832Y1749D01*
X2832Y1747D01*
X2830Y1747D01*
X2830Y1745D01*
X2828Y1745D01*
X2828Y1743D01*
X2826Y1743D01*
X2826Y1723D01*
X2834Y1723D01*
X2834Y1721D01*
X2840Y1721D01*
X2840Y1719D01*
X2844Y1719D01*
X2844Y1717D01*
X2848Y1717D01*
X2848Y1715D01*
X2852Y1715D01*
X2852Y1713D01*
X2854Y1713D01*
X2854Y1711D01*
X2856Y1711D01*
X2856Y1709D01*
X2858Y1709D01*
X2858Y1707D01*
X2862Y1707D01*
X2862Y1703D01*
X2864Y1703D01*
X2864Y1701D01*
X2866Y1701D01*
X2866Y1699D01*
X2868Y1699D01*
X2868Y1695D01*
X2870Y1695D01*
X2870Y1693D01*
X2872Y1693D01*
X2872Y1689D01*
X2874Y1689D01*
X2874Y1683D01*
X2876Y1683D01*
X2876Y1675D01*
X2878Y1675D01*
X2878Y1663D01*
X2876Y1663D01*
X2876Y1655D01*
X2874Y1655D01*
X2874Y1649D01*
X2872Y1649D01*
X2872Y1645D01*
X2870Y1645D01*
X2870Y1641D01*
X2868Y1641D01*
X2868Y1639D01*
X2866Y1639D01*
X2866Y1637D01*
X2864Y1637D01*
X2864Y1633D01*
X2862Y1633D01*
X2862Y1631D01*
X2860Y1631D01*
X2860Y1629D01*
X2858Y1629D01*
X2858Y1627D01*
X2854Y1627D01*
X2854Y1625D01*
X2852Y1625D01*
X2852Y1623D01*
X2848Y1623D01*
X2848Y1621D01*
X2846Y1621D01*
X2846Y1619D01*
X2842Y1619D01*
X2842Y1617D01*
X2836Y1617D01*
X2836Y1615D01*
X2826Y1615D01*
X2826Y1613D01*
X2986Y1613D01*
X2986Y1889D01*
X2956Y1889D01*
G37*
D02*
G36*
X150Y1831D02*
X150Y1829D01*
X148Y1829D01*
X148Y1827D01*
X146Y1827D01*
X146Y1825D01*
X144Y1825D01*
X144Y1823D01*
X142Y1823D01*
X142Y1821D01*
X140Y1821D01*
X140Y1819D01*
X138Y1819D01*
X138Y1817D01*
X136Y1817D01*
X136Y1815D01*
X132Y1815D01*
X132Y1813D01*
X128Y1813D01*
X128Y1811D01*
X122Y1811D01*
X122Y1809D01*
X114Y1809D01*
X114Y1807D01*
X206Y1807D01*
X206Y1809D01*
X198Y1809D01*
X198Y1811D01*
X192Y1811D01*
X192Y1813D01*
X190Y1813D01*
X190Y1815D01*
X186Y1815D01*
X186Y1817D01*
X182Y1817D01*
X182Y1819D01*
X180Y1819D01*
X180Y1821D01*
X178Y1821D01*
X178Y1823D01*
X176Y1823D01*
X176Y1825D01*
X174Y1825D01*
X174Y1827D01*
X172Y1827D01*
X172Y1831D01*
X150Y1831D01*
G37*
D02*
G36*
X250Y1831D02*
X250Y1829D01*
X248Y1829D01*
X248Y1827D01*
X246Y1827D01*
X246Y1825D01*
X244Y1825D01*
X244Y1823D01*
X242Y1823D01*
X242Y1821D01*
X240Y1821D01*
X240Y1819D01*
X238Y1819D01*
X238Y1817D01*
X236Y1817D01*
X236Y1815D01*
X232Y1815D01*
X232Y1813D01*
X228Y1813D01*
X228Y1811D01*
X222Y1811D01*
X222Y1809D01*
X214Y1809D01*
X214Y1807D01*
X306Y1807D01*
X306Y1809D01*
X298Y1809D01*
X298Y1811D01*
X292Y1811D01*
X292Y1813D01*
X290Y1813D01*
X290Y1815D01*
X286Y1815D01*
X286Y1817D01*
X282Y1817D01*
X282Y1819D01*
X280Y1819D01*
X280Y1821D01*
X278Y1821D01*
X278Y1823D01*
X276Y1823D01*
X276Y1825D01*
X274Y1825D01*
X274Y1827D01*
X272Y1827D01*
X272Y1831D01*
X250Y1831D01*
G37*
D02*
G36*
X350Y1831D02*
X350Y1829D01*
X348Y1829D01*
X348Y1827D01*
X346Y1827D01*
X346Y1825D01*
X344Y1825D01*
X344Y1823D01*
X342Y1823D01*
X342Y1821D01*
X340Y1821D01*
X340Y1819D01*
X338Y1819D01*
X338Y1817D01*
X336Y1817D01*
X336Y1815D01*
X332Y1815D01*
X332Y1813D01*
X328Y1813D01*
X328Y1811D01*
X322Y1811D01*
X322Y1809D01*
X314Y1809D01*
X314Y1807D01*
X406Y1807D01*
X406Y1809D01*
X398Y1809D01*
X398Y1811D01*
X392Y1811D01*
X392Y1813D01*
X390Y1813D01*
X390Y1815D01*
X386Y1815D01*
X386Y1817D01*
X382Y1817D01*
X382Y1819D01*
X380Y1819D01*
X380Y1821D01*
X378Y1821D01*
X378Y1823D01*
X376Y1823D01*
X376Y1825D01*
X374Y1825D01*
X374Y1827D01*
X372Y1827D01*
X372Y1831D01*
X350Y1831D01*
G37*
D02*
G36*
X450Y1831D02*
X450Y1829D01*
X448Y1829D01*
X448Y1827D01*
X446Y1827D01*
X446Y1825D01*
X444Y1825D01*
X444Y1823D01*
X442Y1823D01*
X442Y1821D01*
X440Y1821D01*
X440Y1819D01*
X438Y1819D01*
X438Y1817D01*
X436Y1817D01*
X436Y1815D01*
X432Y1815D01*
X432Y1813D01*
X428Y1813D01*
X428Y1811D01*
X422Y1811D01*
X422Y1809D01*
X414Y1809D01*
X414Y1807D01*
X506Y1807D01*
X506Y1809D01*
X498Y1809D01*
X498Y1811D01*
X492Y1811D01*
X492Y1813D01*
X490Y1813D01*
X490Y1815D01*
X486Y1815D01*
X486Y1817D01*
X482Y1817D01*
X482Y1819D01*
X480Y1819D01*
X480Y1821D01*
X478Y1821D01*
X478Y1823D01*
X476Y1823D01*
X476Y1825D01*
X474Y1825D01*
X474Y1827D01*
X472Y1827D01*
X472Y1831D01*
X450Y1831D01*
G37*
D02*
G36*
X550Y1831D02*
X550Y1829D01*
X548Y1829D01*
X548Y1827D01*
X546Y1827D01*
X546Y1825D01*
X544Y1825D01*
X544Y1823D01*
X542Y1823D01*
X542Y1821D01*
X540Y1821D01*
X540Y1819D01*
X538Y1819D01*
X538Y1817D01*
X536Y1817D01*
X536Y1815D01*
X532Y1815D01*
X532Y1813D01*
X528Y1813D01*
X528Y1811D01*
X522Y1811D01*
X522Y1809D01*
X514Y1809D01*
X514Y1807D01*
X606Y1807D01*
X606Y1809D01*
X598Y1809D01*
X598Y1811D01*
X592Y1811D01*
X592Y1813D01*
X590Y1813D01*
X590Y1815D01*
X586Y1815D01*
X586Y1817D01*
X582Y1817D01*
X582Y1819D01*
X580Y1819D01*
X580Y1821D01*
X578Y1821D01*
X578Y1823D01*
X576Y1823D01*
X576Y1825D01*
X574Y1825D01*
X574Y1827D01*
X572Y1827D01*
X572Y1831D01*
X550Y1831D01*
G37*
D02*
G36*
X650Y1831D02*
X650Y1829D01*
X648Y1829D01*
X648Y1827D01*
X646Y1827D01*
X646Y1825D01*
X644Y1825D01*
X644Y1823D01*
X642Y1823D01*
X642Y1821D01*
X640Y1821D01*
X640Y1819D01*
X638Y1819D01*
X638Y1817D01*
X636Y1817D01*
X636Y1815D01*
X632Y1815D01*
X632Y1813D01*
X628Y1813D01*
X628Y1811D01*
X622Y1811D01*
X622Y1809D01*
X614Y1809D01*
X614Y1807D01*
X706Y1807D01*
X706Y1809D01*
X698Y1809D01*
X698Y1811D01*
X692Y1811D01*
X692Y1813D01*
X690Y1813D01*
X690Y1815D01*
X686Y1815D01*
X686Y1817D01*
X682Y1817D01*
X682Y1819D01*
X680Y1819D01*
X680Y1821D01*
X678Y1821D01*
X678Y1823D01*
X676Y1823D01*
X676Y1825D01*
X674Y1825D01*
X674Y1827D01*
X672Y1827D01*
X672Y1831D01*
X650Y1831D01*
G37*
D02*
G36*
X750Y1831D02*
X750Y1829D01*
X748Y1829D01*
X748Y1827D01*
X746Y1827D01*
X746Y1825D01*
X744Y1825D01*
X744Y1823D01*
X742Y1823D01*
X742Y1821D01*
X740Y1821D01*
X740Y1819D01*
X738Y1819D01*
X738Y1817D01*
X736Y1817D01*
X736Y1815D01*
X732Y1815D01*
X732Y1813D01*
X728Y1813D01*
X728Y1811D01*
X722Y1811D01*
X722Y1809D01*
X714Y1809D01*
X714Y1807D01*
X806Y1807D01*
X806Y1809D01*
X798Y1809D01*
X798Y1811D01*
X792Y1811D01*
X792Y1813D01*
X790Y1813D01*
X790Y1815D01*
X786Y1815D01*
X786Y1817D01*
X782Y1817D01*
X782Y1819D01*
X780Y1819D01*
X780Y1821D01*
X778Y1821D01*
X778Y1823D01*
X776Y1823D01*
X776Y1825D01*
X774Y1825D01*
X774Y1827D01*
X772Y1827D01*
X772Y1831D01*
X750Y1831D01*
G37*
D02*
G36*
X850Y1831D02*
X850Y1829D01*
X848Y1829D01*
X848Y1827D01*
X846Y1827D01*
X846Y1825D01*
X844Y1825D01*
X844Y1823D01*
X842Y1823D01*
X842Y1821D01*
X840Y1821D01*
X840Y1819D01*
X838Y1819D01*
X838Y1817D01*
X836Y1817D01*
X836Y1815D01*
X832Y1815D01*
X832Y1813D01*
X828Y1813D01*
X828Y1811D01*
X822Y1811D01*
X822Y1809D01*
X814Y1809D01*
X814Y1807D01*
X906Y1807D01*
X906Y1809D01*
X898Y1809D01*
X898Y1811D01*
X892Y1811D01*
X892Y1813D01*
X890Y1813D01*
X890Y1815D01*
X886Y1815D01*
X886Y1817D01*
X882Y1817D01*
X882Y1819D01*
X880Y1819D01*
X880Y1821D01*
X878Y1821D01*
X878Y1823D01*
X876Y1823D01*
X876Y1825D01*
X874Y1825D01*
X874Y1827D01*
X872Y1827D01*
X872Y1831D01*
X850Y1831D01*
G37*
D02*
G36*
X950Y1831D02*
X950Y1829D01*
X948Y1829D01*
X948Y1827D01*
X946Y1827D01*
X946Y1825D01*
X944Y1825D01*
X944Y1823D01*
X942Y1823D01*
X942Y1821D01*
X940Y1821D01*
X940Y1819D01*
X938Y1819D01*
X938Y1817D01*
X936Y1817D01*
X936Y1815D01*
X932Y1815D01*
X932Y1813D01*
X928Y1813D01*
X928Y1811D01*
X922Y1811D01*
X922Y1809D01*
X914Y1809D01*
X914Y1807D01*
X1006Y1807D01*
X1006Y1809D01*
X998Y1809D01*
X998Y1811D01*
X992Y1811D01*
X992Y1813D01*
X990Y1813D01*
X990Y1815D01*
X986Y1815D01*
X986Y1817D01*
X982Y1817D01*
X982Y1819D01*
X980Y1819D01*
X980Y1821D01*
X978Y1821D01*
X978Y1823D01*
X976Y1823D01*
X976Y1825D01*
X974Y1825D01*
X974Y1827D01*
X972Y1827D01*
X972Y1831D01*
X950Y1831D01*
G37*
D02*
G36*
X1050Y1831D02*
X1050Y1829D01*
X1048Y1829D01*
X1048Y1827D01*
X1046Y1827D01*
X1046Y1825D01*
X1044Y1825D01*
X1044Y1823D01*
X1042Y1823D01*
X1042Y1821D01*
X1040Y1821D01*
X1040Y1819D01*
X1038Y1819D01*
X1038Y1817D01*
X1036Y1817D01*
X1036Y1815D01*
X1032Y1815D01*
X1032Y1813D01*
X1028Y1813D01*
X1028Y1811D01*
X1022Y1811D01*
X1022Y1809D01*
X1014Y1809D01*
X1014Y1807D01*
X1106Y1807D01*
X1106Y1809D01*
X1098Y1809D01*
X1098Y1811D01*
X1092Y1811D01*
X1092Y1813D01*
X1090Y1813D01*
X1090Y1815D01*
X1086Y1815D01*
X1086Y1817D01*
X1082Y1817D01*
X1082Y1819D01*
X1080Y1819D01*
X1080Y1821D01*
X1078Y1821D01*
X1078Y1823D01*
X1076Y1823D01*
X1076Y1825D01*
X1074Y1825D01*
X1074Y1827D01*
X1072Y1827D01*
X1072Y1831D01*
X1050Y1831D01*
G37*
D02*
G36*
X1150Y1831D02*
X1150Y1829D01*
X1148Y1829D01*
X1148Y1827D01*
X1146Y1827D01*
X1146Y1825D01*
X1144Y1825D01*
X1144Y1823D01*
X1142Y1823D01*
X1142Y1821D01*
X1140Y1821D01*
X1140Y1819D01*
X1138Y1819D01*
X1138Y1817D01*
X1136Y1817D01*
X1136Y1815D01*
X1132Y1815D01*
X1132Y1813D01*
X1128Y1813D01*
X1128Y1811D01*
X1122Y1811D01*
X1122Y1809D01*
X1114Y1809D01*
X1114Y1807D01*
X1206Y1807D01*
X1206Y1809D01*
X1198Y1809D01*
X1198Y1811D01*
X1192Y1811D01*
X1192Y1813D01*
X1190Y1813D01*
X1190Y1815D01*
X1186Y1815D01*
X1186Y1817D01*
X1182Y1817D01*
X1182Y1819D01*
X1180Y1819D01*
X1180Y1821D01*
X1178Y1821D01*
X1178Y1823D01*
X1176Y1823D01*
X1176Y1825D01*
X1174Y1825D01*
X1174Y1827D01*
X1172Y1827D01*
X1172Y1831D01*
X1150Y1831D01*
G37*
D02*
G36*
X1250Y1831D02*
X1250Y1829D01*
X1248Y1829D01*
X1248Y1827D01*
X1246Y1827D01*
X1246Y1825D01*
X1244Y1825D01*
X1244Y1823D01*
X1242Y1823D01*
X1242Y1821D01*
X1240Y1821D01*
X1240Y1819D01*
X1238Y1819D01*
X1238Y1817D01*
X1236Y1817D01*
X1236Y1815D01*
X1232Y1815D01*
X1232Y1813D01*
X1228Y1813D01*
X1228Y1811D01*
X1222Y1811D01*
X1222Y1809D01*
X1214Y1809D01*
X1214Y1807D01*
X1286Y1807D01*
X1286Y1817D01*
X1282Y1817D01*
X1282Y1819D01*
X1280Y1819D01*
X1280Y1821D01*
X1278Y1821D01*
X1278Y1823D01*
X1276Y1823D01*
X1276Y1825D01*
X1274Y1825D01*
X1274Y1827D01*
X1272Y1827D01*
X1272Y1831D01*
X1250Y1831D01*
G37*
D02*
G36*
X1850Y1831D02*
X1850Y1829D01*
X1848Y1829D01*
X1848Y1827D01*
X1846Y1827D01*
X1846Y1825D01*
X1844Y1825D01*
X1844Y1823D01*
X1842Y1823D01*
X1842Y1821D01*
X1840Y1821D01*
X1840Y1819D01*
X1838Y1819D01*
X1838Y1817D01*
X1836Y1817D01*
X1836Y1815D01*
X1832Y1815D01*
X1832Y1807D01*
X1906Y1807D01*
X1906Y1809D01*
X1898Y1809D01*
X1898Y1811D01*
X1892Y1811D01*
X1892Y1813D01*
X1890Y1813D01*
X1890Y1815D01*
X1886Y1815D01*
X1886Y1817D01*
X1882Y1817D01*
X1882Y1819D01*
X1880Y1819D01*
X1880Y1821D01*
X1878Y1821D01*
X1878Y1823D01*
X1876Y1823D01*
X1876Y1825D01*
X1874Y1825D01*
X1874Y1827D01*
X1872Y1827D01*
X1872Y1831D01*
X1850Y1831D01*
G37*
D02*
G36*
X1950Y1831D02*
X1950Y1829D01*
X1948Y1829D01*
X1948Y1827D01*
X1946Y1827D01*
X1946Y1825D01*
X1944Y1825D01*
X1944Y1823D01*
X1942Y1823D01*
X1942Y1821D01*
X1940Y1821D01*
X1940Y1819D01*
X1938Y1819D01*
X1938Y1817D01*
X1936Y1817D01*
X1936Y1815D01*
X1932Y1815D01*
X1932Y1813D01*
X1928Y1813D01*
X1928Y1811D01*
X1922Y1811D01*
X1922Y1809D01*
X1914Y1809D01*
X1914Y1807D01*
X2006Y1807D01*
X2006Y1809D01*
X1998Y1809D01*
X1998Y1811D01*
X1992Y1811D01*
X1992Y1813D01*
X1990Y1813D01*
X1990Y1815D01*
X1986Y1815D01*
X1986Y1817D01*
X1982Y1817D01*
X1982Y1819D01*
X1980Y1819D01*
X1980Y1821D01*
X1978Y1821D01*
X1978Y1823D01*
X1976Y1823D01*
X1976Y1825D01*
X1974Y1825D01*
X1974Y1827D01*
X1972Y1827D01*
X1972Y1831D01*
X1950Y1831D01*
G37*
D02*
G36*
X2050Y1831D02*
X2050Y1829D01*
X2048Y1829D01*
X2048Y1827D01*
X2046Y1827D01*
X2046Y1825D01*
X2044Y1825D01*
X2044Y1823D01*
X2042Y1823D01*
X2042Y1821D01*
X2040Y1821D01*
X2040Y1819D01*
X2038Y1819D01*
X2038Y1817D01*
X2036Y1817D01*
X2036Y1815D01*
X2032Y1815D01*
X2032Y1813D01*
X2028Y1813D01*
X2028Y1811D01*
X2022Y1811D01*
X2022Y1809D01*
X2014Y1809D01*
X2014Y1807D01*
X2106Y1807D01*
X2106Y1809D01*
X2098Y1809D01*
X2098Y1811D01*
X2092Y1811D01*
X2092Y1813D01*
X2090Y1813D01*
X2090Y1815D01*
X2086Y1815D01*
X2086Y1817D01*
X2082Y1817D01*
X2082Y1819D01*
X2080Y1819D01*
X2080Y1821D01*
X2078Y1821D01*
X2078Y1823D01*
X2076Y1823D01*
X2076Y1825D01*
X2074Y1825D01*
X2074Y1827D01*
X2072Y1827D01*
X2072Y1831D01*
X2050Y1831D01*
G37*
D02*
G36*
X2150Y1831D02*
X2150Y1829D01*
X2148Y1829D01*
X2148Y1827D01*
X2146Y1827D01*
X2146Y1825D01*
X2144Y1825D01*
X2144Y1823D01*
X2142Y1823D01*
X2142Y1821D01*
X2140Y1821D01*
X2140Y1819D01*
X2138Y1819D01*
X2138Y1817D01*
X2136Y1817D01*
X2136Y1815D01*
X2132Y1815D01*
X2132Y1813D01*
X2128Y1813D01*
X2128Y1811D01*
X2122Y1811D01*
X2122Y1809D01*
X2114Y1809D01*
X2114Y1807D01*
X2206Y1807D01*
X2206Y1809D01*
X2198Y1809D01*
X2198Y1811D01*
X2192Y1811D01*
X2192Y1813D01*
X2190Y1813D01*
X2190Y1815D01*
X2186Y1815D01*
X2186Y1817D01*
X2182Y1817D01*
X2182Y1819D01*
X2180Y1819D01*
X2180Y1821D01*
X2178Y1821D01*
X2178Y1823D01*
X2176Y1823D01*
X2176Y1825D01*
X2174Y1825D01*
X2174Y1827D01*
X2172Y1827D01*
X2172Y1831D01*
X2150Y1831D01*
G37*
D02*
G36*
X2250Y1831D02*
X2250Y1829D01*
X2248Y1829D01*
X2248Y1827D01*
X2246Y1827D01*
X2246Y1825D01*
X2244Y1825D01*
X2244Y1823D01*
X2242Y1823D01*
X2242Y1821D01*
X2240Y1821D01*
X2240Y1819D01*
X2238Y1819D01*
X2238Y1817D01*
X2236Y1817D01*
X2236Y1815D01*
X2232Y1815D01*
X2232Y1813D01*
X2228Y1813D01*
X2228Y1811D01*
X2222Y1811D01*
X2222Y1809D01*
X2214Y1809D01*
X2214Y1807D01*
X2306Y1807D01*
X2306Y1809D01*
X2298Y1809D01*
X2298Y1811D01*
X2292Y1811D01*
X2292Y1813D01*
X2290Y1813D01*
X2290Y1815D01*
X2286Y1815D01*
X2286Y1817D01*
X2282Y1817D01*
X2282Y1819D01*
X2280Y1819D01*
X2280Y1821D01*
X2278Y1821D01*
X2278Y1823D01*
X2276Y1823D01*
X2276Y1825D01*
X2274Y1825D01*
X2274Y1827D01*
X2272Y1827D01*
X2272Y1831D01*
X2250Y1831D01*
G37*
D02*
G36*
X2350Y1831D02*
X2350Y1829D01*
X2348Y1829D01*
X2348Y1827D01*
X2346Y1827D01*
X2346Y1825D01*
X2344Y1825D01*
X2344Y1823D01*
X2342Y1823D01*
X2342Y1821D01*
X2340Y1821D01*
X2340Y1819D01*
X2338Y1819D01*
X2338Y1817D01*
X2336Y1817D01*
X2336Y1815D01*
X2332Y1815D01*
X2332Y1813D01*
X2328Y1813D01*
X2328Y1811D01*
X2322Y1811D01*
X2322Y1809D01*
X2314Y1809D01*
X2314Y1807D01*
X2406Y1807D01*
X2406Y1809D01*
X2398Y1809D01*
X2398Y1811D01*
X2392Y1811D01*
X2392Y1813D01*
X2390Y1813D01*
X2390Y1815D01*
X2386Y1815D01*
X2386Y1817D01*
X2382Y1817D01*
X2382Y1819D01*
X2380Y1819D01*
X2380Y1821D01*
X2378Y1821D01*
X2378Y1823D01*
X2376Y1823D01*
X2376Y1825D01*
X2374Y1825D01*
X2374Y1827D01*
X2372Y1827D01*
X2372Y1831D01*
X2350Y1831D01*
G37*
D02*
G36*
X2450Y1831D02*
X2450Y1829D01*
X2448Y1829D01*
X2448Y1827D01*
X2446Y1827D01*
X2446Y1825D01*
X2444Y1825D01*
X2444Y1823D01*
X2442Y1823D01*
X2442Y1821D01*
X2440Y1821D01*
X2440Y1819D01*
X2438Y1819D01*
X2438Y1817D01*
X2436Y1817D01*
X2436Y1815D01*
X2432Y1815D01*
X2432Y1813D01*
X2428Y1813D01*
X2428Y1811D01*
X2422Y1811D01*
X2422Y1809D01*
X2414Y1809D01*
X2414Y1807D01*
X2506Y1807D01*
X2506Y1809D01*
X2498Y1809D01*
X2498Y1811D01*
X2492Y1811D01*
X2492Y1813D01*
X2490Y1813D01*
X2490Y1815D01*
X2486Y1815D01*
X2486Y1817D01*
X2482Y1817D01*
X2482Y1819D01*
X2480Y1819D01*
X2480Y1821D01*
X2478Y1821D01*
X2478Y1823D01*
X2476Y1823D01*
X2476Y1825D01*
X2474Y1825D01*
X2474Y1827D01*
X2472Y1827D01*
X2472Y1831D01*
X2450Y1831D01*
G37*
D02*
G36*
X2550Y1831D02*
X2550Y1829D01*
X2548Y1829D01*
X2548Y1827D01*
X2546Y1827D01*
X2546Y1825D01*
X2544Y1825D01*
X2544Y1823D01*
X2542Y1823D01*
X2542Y1821D01*
X2540Y1821D01*
X2540Y1819D01*
X2538Y1819D01*
X2538Y1817D01*
X2536Y1817D01*
X2536Y1815D01*
X2532Y1815D01*
X2532Y1813D01*
X2528Y1813D01*
X2528Y1811D01*
X2522Y1811D01*
X2522Y1809D01*
X2514Y1809D01*
X2514Y1807D01*
X2606Y1807D01*
X2606Y1809D01*
X2598Y1809D01*
X2598Y1811D01*
X2592Y1811D01*
X2592Y1813D01*
X2590Y1813D01*
X2590Y1815D01*
X2586Y1815D01*
X2586Y1817D01*
X2582Y1817D01*
X2582Y1819D01*
X2580Y1819D01*
X2580Y1821D01*
X2578Y1821D01*
X2578Y1823D01*
X2576Y1823D01*
X2576Y1825D01*
X2574Y1825D01*
X2574Y1827D01*
X2572Y1827D01*
X2572Y1831D01*
X2550Y1831D01*
G37*
D02*
G36*
X2650Y1831D02*
X2650Y1829D01*
X2648Y1829D01*
X2648Y1827D01*
X2646Y1827D01*
X2646Y1825D01*
X2644Y1825D01*
X2644Y1823D01*
X2642Y1823D01*
X2642Y1821D01*
X2640Y1821D01*
X2640Y1819D01*
X2638Y1819D01*
X2638Y1817D01*
X2636Y1817D01*
X2636Y1815D01*
X2632Y1815D01*
X2632Y1813D01*
X2628Y1813D01*
X2628Y1811D01*
X2622Y1811D01*
X2622Y1809D01*
X2614Y1809D01*
X2614Y1807D01*
X2706Y1807D01*
X2706Y1809D01*
X2698Y1809D01*
X2698Y1811D01*
X2692Y1811D01*
X2692Y1813D01*
X2690Y1813D01*
X2690Y1815D01*
X2686Y1815D01*
X2686Y1817D01*
X2682Y1817D01*
X2682Y1819D01*
X2680Y1819D01*
X2680Y1821D01*
X2678Y1821D01*
X2678Y1823D01*
X2676Y1823D01*
X2676Y1825D01*
X2674Y1825D01*
X2674Y1827D01*
X2672Y1827D01*
X2672Y1831D01*
X2650Y1831D01*
G37*
D02*
G36*
X2750Y1831D02*
X2750Y1829D01*
X2748Y1829D01*
X2748Y1827D01*
X2746Y1827D01*
X2746Y1825D01*
X2744Y1825D01*
X2744Y1823D01*
X2742Y1823D01*
X2742Y1821D01*
X2740Y1821D01*
X2740Y1819D01*
X2738Y1819D01*
X2738Y1817D01*
X2736Y1817D01*
X2736Y1815D01*
X2732Y1815D01*
X2732Y1813D01*
X2728Y1813D01*
X2728Y1811D01*
X2722Y1811D01*
X2722Y1809D01*
X2714Y1809D01*
X2714Y1807D01*
X2806Y1807D01*
X2806Y1809D01*
X2798Y1809D01*
X2798Y1811D01*
X2792Y1811D01*
X2792Y1813D01*
X2790Y1813D01*
X2790Y1815D01*
X2786Y1815D01*
X2786Y1817D01*
X2782Y1817D01*
X2782Y1819D01*
X2780Y1819D01*
X2780Y1821D01*
X2778Y1821D01*
X2778Y1823D01*
X2776Y1823D01*
X2776Y1825D01*
X2774Y1825D01*
X2774Y1827D01*
X2772Y1827D01*
X2772Y1831D01*
X2750Y1831D01*
G37*
D02*
G36*
X40Y1807D02*
X40Y1805D01*
X1286Y1805D01*
X1286Y1807D01*
X40Y1807D01*
G37*
D02*
G36*
X40Y1807D02*
X40Y1805D01*
X1286Y1805D01*
X1286Y1807D01*
X40Y1807D01*
G37*
D02*
G36*
X40Y1807D02*
X40Y1805D01*
X1286Y1805D01*
X1286Y1807D01*
X40Y1807D01*
G37*
D02*
G36*
X40Y1807D02*
X40Y1805D01*
X1286Y1805D01*
X1286Y1807D01*
X40Y1807D01*
G37*
D02*
G36*
X40Y1807D02*
X40Y1805D01*
X1286Y1805D01*
X1286Y1807D01*
X40Y1807D01*
G37*
D02*
G36*
X40Y1807D02*
X40Y1805D01*
X1286Y1805D01*
X1286Y1807D01*
X40Y1807D01*
G37*
D02*
G36*
X40Y1807D02*
X40Y1805D01*
X1286Y1805D01*
X1286Y1807D01*
X40Y1807D01*
G37*
D02*
G36*
X40Y1807D02*
X40Y1805D01*
X1286Y1805D01*
X1286Y1807D01*
X40Y1807D01*
G37*
D02*
G36*
X40Y1807D02*
X40Y1805D01*
X1286Y1805D01*
X1286Y1807D01*
X40Y1807D01*
G37*
D02*
G36*
X40Y1807D02*
X40Y1805D01*
X1286Y1805D01*
X1286Y1807D01*
X40Y1807D01*
G37*
D02*
G36*
X40Y1807D02*
X40Y1805D01*
X1286Y1805D01*
X1286Y1807D01*
X40Y1807D01*
G37*
D02*
G36*
X40Y1807D02*
X40Y1805D01*
X1286Y1805D01*
X1286Y1807D01*
X40Y1807D01*
G37*
D02*
G36*
X40Y1807D02*
X40Y1805D01*
X1286Y1805D01*
X1286Y1807D01*
X40Y1807D01*
G37*
D02*
G36*
X1832Y1807D02*
X1832Y1805D01*
X2810Y1805D01*
X2810Y1807D01*
X1832Y1807D01*
G37*
D02*
G36*
X1832Y1807D02*
X1832Y1805D01*
X2810Y1805D01*
X2810Y1807D01*
X1832Y1807D01*
G37*
D02*
G36*
X1832Y1807D02*
X1832Y1805D01*
X2810Y1805D01*
X2810Y1807D01*
X1832Y1807D01*
G37*
D02*
G36*
X1832Y1807D02*
X1832Y1805D01*
X2810Y1805D01*
X2810Y1807D01*
X1832Y1807D01*
G37*
D02*
G36*
X1832Y1807D02*
X1832Y1805D01*
X2810Y1805D01*
X2810Y1807D01*
X1832Y1807D01*
G37*
D02*
G36*
X1832Y1807D02*
X1832Y1805D01*
X2810Y1805D01*
X2810Y1807D01*
X1832Y1807D01*
G37*
D02*
G36*
X1832Y1807D02*
X1832Y1805D01*
X2810Y1805D01*
X2810Y1807D01*
X1832Y1807D01*
G37*
D02*
G36*
X1832Y1807D02*
X1832Y1805D01*
X2810Y1805D01*
X2810Y1807D01*
X1832Y1807D01*
G37*
D02*
G36*
X1832Y1807D02*
X1832Y1805D01*
X2810Y1805D01*
X2810Y1807D01*
X1832Y1807D01*
G37*
D02*
G36*
X1832Y1807D02*
X1832Y1805D01*
X2810Y1805D01*
X2810Y1807D01*
X1832Y1807D01*
G37*
D02*
G36*
X40Y1805D02*
X40Y1607D01*
X1306Y1607D01*
X1306Y1609D01*
X1298Y1609D01*
X1298Y1611D01*
X1292Y1611D01*
X1292Y1613D01*
X1290Y1613D01*
X1290Y1615D01*
X1286Y1615D01*
X1286Y1617D01*
X1282Y1617D01*
X1282Y1619D01*
X1280Y1619D01*
X1280Y1621D01*
X1278Y1621D01*
X1278Y1623D01*
X1276Y1623D01*
X1276Y1625D01*
X1274Y1625D01*
X1274Y1627D01*
X1272Y1627D01*
X1272Y1631D01*
X1270Y1631D01*
X1270Y1633D01*
X1268Y1633D01*
X1268Y1637D01*
X1266Y1637D01*
X1266Y1641D01*
X1264Y1641D01*
X1264Y1647D01*
X1262Y1647D01*
X1262Y1667D01*
X1264Y1667D01*
X1264Y1673D01*
X1266Y1673D01*
X1266Y1677D01*
X1268Y1677D01*
X1268Y1681D01*
X1270Y1681D01*
X1270Y1683D01*
X1272Y1683D01*
X1272Y1685D01*
X1274Y1685D01*
X1274Y1689D01*
X1276Y1689D01*
X1276Y1691D01*
X1278Y1691D01*
X1278Y1693D01*
X1282Y1693D01*
X1282Y1695D01*
X1284Y1695D01*
X1284Y1697D01*
X1286Y1697D01*
X1286Y1717D01*
X1282Y1717D01*
X1282Y1719D01*
X1280Y1719D01*
X1280Y1721D01*
X1278Y1721D01*
X1278Y1723D01*
X1276Y1723D01*
X1276Y1725D01*
X1274Y1725D01*
X1274Y1727D01*
X1272Y1727D01*
X1272Y1731D01*
X1270Y1731D01*
X1270Y1733D01*
X1268Y1733D01*
X1268Y1737D01*
X1266Y1737D01*
X1266Y1741D01*
X1264Y1741D01*
X1264Y1747D01*
X1262Y1747D01*
X1262Y1767D01*
X1264Y1767D01*
X1264Y1773D01*
X1266Y1773D01*
X1266Y1777D01*
X1268Y1777D01*
X1268Y1781D01*
X1270Y1781D01*
X1270Y1783D01*
X1272Y1783D01*
X1272Y1785D01*
X1274Y1785D01*
X1274Y1789D01*
X1276Y1789D01*
X1276Y1791D01*
X1278Y1791D01*
X1278Y1793D01*
X1282Y1793D01*
X1282Y1795D01*
X1284Y1795D01*
X1284Y1797D01*
X1286Y1797D01*
X1286Y1805D01*
X40Y1805D01*
G37*
D02*
G36*
X1832Y1805D02*
X1832Y1793D01*
X1836Y1793D01*
X1836Y1791D01*
X1838Y1791D01*
X1838Y1789D01*
X1840Y1789D01*
X1840Y1787D01*
X1844Y1787D01*
X1844Y1785D01*
X1846Y1785D01*
X1846Y1783D01*
X1848Y1783D01*
X1848Y1781D01*
X1852Y1781D01*
X1852Y1779D01*
X1854Y1779D01*
X1854Y1777D01*
X1858Y1777D01*
X1858Y1775D01*
X1860Y1775D01*
X1860Y1773D01*
X1862Y1773D01*
X1862Y1771D01*
X1866Y1771D01*
X1866Y1769D01*
X1868Y1769D01*
X1868Y1767D01*
X1870Y1767D01*
X1870Y1765D01*
X1874Y1765D01*
X1874Y1763D01*
X1876Y1763D01*
X1876Y1761D01*
X1878Y1761D01*
X1878Y1759D01*
X1882Y1759D01*
X1882Y1757D01*
X1884Y1757D01*
X1884Y1755D01*
X1886Y1755D01*
X1886Y1753D01*
X1890Y1753D01*
X1890Y1751D01*
X1892Y1751D01*
X1892Y1749D01*
X1896Y1749D01*
X1896Y1747D01*
X1898Y1747D01*
X1898Y1745D01*
X1900Y1745D01*
X1900Y1743D01*
X1904Y1743D01*
X1904Y1741D01*
X1906Y1741D01*
X1906Y1739D01*
X1908Y1739D01*
X1908Y1737D01*
X1912Y1737D01*
X1912Y1735D01*
X1914Y1735D01*
X1914Y1733D01*
X1916Y1733D01*
X1916Y1731D01*
X1920Y1731D01*
X1920Y1729D01*
X1922Y1729D01*
X1922Y1727D01*
X1924Y1727D01*
X1924Y1725D01*
X1928Y1725D01*
X1928Y1723D01*
X1930Y1723D01*
X1930Y1721D01*
X1934Y1721D01*
X1934Y1719D01*
X1936Y1719D01*
X1936Y1717D01*
X1938Y1717D01*
X1938Y1715D01*
X1942Y1715D01*
X1942Y1713D01*
X1944Y1713D01*
X1944Y1711D01*
X1946Y1711D01*
X1946Y1709D01*
X1950Y1709D01*
X1950Y1707D01*
X1952Y1707D01*
X1952Y1705D01*
X1954Y1705D01*
X1954Y1703D01*
X2540Y1703D01*
X2540Y1701D01*
X2546Y1701D01*
X2546Y1699D01*
X2550Y1699D01*
X2550Y1697D01*
X2554Y1697D01*
X2554Y1695D01*
X2556Y1695D01*
X2556Y1693D01*
X2560Y1693D01*
X2560Y1691D01*
X2562Y1691D01*
X2562Y1689D01*
X2564Y1689D01*
X2564Y1687D01*
X2566Y1687D01*
X2566Y1685D01*
X2568Y1685D01*
X2568Y1683D01*
X2570Y1683D01*
X2570Y1681D01*
X2572Y1681D01*
X2572Y1677D01*
X2574Y1677D01*
X2574Y1673D01*
X2576Y1673D01*
X2576Y1671D01*
X2578Y1671D01*
X2578Y1667D01*
X2580Y1667D01*
X2580Y1659D01*
X2582Y1659D01*
X2582Y1637D01*
X2580Y1637D01*
X2580Y1631D01*
X2578Y1631D01*
X2578Y1627D01*
X2576Y1627D01*
X2576Y1623D01*
X2574Y1623D01*
X2574Y1621D01*
X2572Y1621D01*
X2572Y1617D01*
X2570Y1617D01*
X2570Y1615D01*
X2568Y1615D01*
X2568Y1613D01*
X2566Y1613D01*
X2566Y1611D01*
X2564Y1611D01*
X2564Y1609D01*
X2562Y1609D01*
X2562Y1607D01*
X2560Y1607D01*
X2560Y1605D01*
X2558Y1605D01*
X2558Y1603D01*
X2554Y1603D01*
X2554Y1601D01*
X2550Y1601D01*
X2550Y1599D01*
X2546Y1599D01*
X2546Y1597D01*
X2542Y1597D01*
X2542Y1595D01*
X2532Y1595D01*
X2532Y1593D01*
X2616Y1593D01*
X2616Y1595D01*
X2618Y1595D01*
X2618Y1597D01*
X2620Y1597D01*
X2620Y1599D01*
X2622Y1599D01*
X2622Y1601D01*
X2624Y1601D01*
X2624Y1603D01*
X2626Y1603D01*
X2626Y1605D01*
X2628Y1605D01*
X2628Y1607D01*
X2630Y1607D01*
X2630Y1609D01*
X2632Y1609D01*
X2632Y1611D01*
X2634Y1611D01*
X2634Y1613D01*
X2636Y1613D01*
X2636Y1615D01*
X2638Y1615D01*
X2638Y1617D01*
X2640Y1617D01*
X2640Y1619D01*
X2642Y1619D01*
X2642Y1621D01*
X2644Y1621D01*
X2644Y1623D01*
X2646Y1623D01*
X2646Y1625D01*
X2648Y1625D01*
X2648Y1627D01*
X2650Y1627D01*
X2650Y1629D01*
X2652Y1629D01*
X2652Y1631D01*
X2654Y1631D01*
X2654Y1633D01*
X2656Y1633D01*
X2656Y1635D01*
X2658Y1635D01*
X2658Y1637D01*
X2660Y1637D01*
X2660Y1639D01*
X2662Y1639D01*
X2662Y1641D01*
X2664Y1641D01*
X2664Y1643D01*
X2666Y1643D01*
X2666Y1645D01*
X2668Y1645D01*
X2668Y1647D01*
X2670Y1647D01*
X2670Y1649D01*
X2672Y1649D01*
X2672Y1651D01*
X2674Y1651D01*
X2674Y1653D01*
X2676Y1653D01*
X2676Y1655D01*
X2678Y1655D01*
X2678Y1657D01*
X2680Y1657D01*
X2680Y1659D01*
X2682Y1659D01*
X2682Y1661D01*
X2684Y1661D01*
X2684Y1663D01*
X2686Y1663D01*
X2686Y1665D01*
X2688Y1665D01*
X2688Y1667D01*
X2690Y1667D01*
X2690Y1669D01*
X2692Y1669D01*
X2692Y1671D01*
X2694Y1671D01*
X2694Y1673D01*
X2696Y1673D01*
X2696Y1675D01*
X2698Y1675D01*
X2698Y1677D01*
X2700Y1677D01*
X2700Y1679D01*
X2702Y1679D01*
X2702Y1681D01*
X2704Y1681D01*
X2704Y1683D01*
X2706Y1683D01*
X2706Y1685D01*
X2708Y1685D01*
X2708Y1687D01*
X2710Y1687D01*
X2710Y1689D01*
X2712Y1689D01*
X2712Y1691D01*
X2714Y1691D01*
X2714Y1693D01*
X2716Y1693D01*
X2716Y1695D01*
X2718Y1695D01*
X2718Y1697D01*
X2720Y1697D01*
X2720Y1699D01*
X2722Y1699D01*
X2722Y1701D01*
X2724Y1701D01*
X2724Y1703D01*
X2726Y1703D01*
X2726Y1705D01*
X2728Y1705D01*
X2728Y1707D01*
X2730Y1707D01*
X2730Y1709D01*
X2732Y1709D01*
X2732Y1711D01*
X2734Y1711D01*
X2734Y1713D01*
X2736Y1713D01*
X2736Y1715D01*
X2738Y1715D01*
X2738Y1717D01*
X2740Y1717D01*
X2740Y1719D01*
X2742Y1719D01*
X2742Y1721D01*
X2744Y1721D01*
X2744Y1723D01*
X2746Y1723D01*
X2746Y1725D01*
X2748Y1725D01*
X2748Y1727D01*
X2750Y1727D01*
X2750Y1729D01*
X2752Y1729D01*
X2752Y1731D01*
X2754Y1731D01*
X2754Y1733D01*
X2756Y1733D01*
X2756Y1735D01*
X2758Y1735D01*
X2758Y1737D01*
X2760Y1737D01*
X2760Y1739D01*
X2762Y1739D01*
X2762Y1741D01*
X2764Y1741D01*
X2764Y1743D01*
X2766Y1743D01*
X2766Y1745D01*
X2768Y1745D01*
X2768Y1747D01*
X2770Y1747D01*
X2770Y1749D01*
X2772Y1749D01*
X2772Y1751D01*
X2774Y1751D01*
X2774Y1753D01*
X2776Y1753D01*
X2776Y1755D01*
X2778Y1755D01*
X2778Y1757D01*
X2780Y1757D01*
X2780Y1759D01*
X2782Y1759D01*
X2782Y1761D01*
X2784Y1761D01*
X2784Y1763D01*
X2786Y1763D01*
X2786Y1765D01*
X2788Y1765D01*
X2788Y1767D01*
X2790Y1767D01*
X2790Y1769D01*
X2792Y1769D01*
X2792Y1771D01*
X2794Y1771D01*
X2794Y1773D01*
X2796Y1773D01*
X2796Y1775D01*
X2798Y1775D01*
X2798Y1777D01*
X2800Y1777D01*
X2800Y1779D01*
X2802Y1779D01*
X2802Y1781D01*
X2804Y1781D01*
X2804Y1783D01*
X2806Y1783D01*
X2806Y1785D01*
X2808Y1785D01*
X2808Y1787D01*
X2810Y1787D01*
X2810Y1805D01*
X1832Y1805D01*
G37*
D02*
G36*
X1752Y1785D02*
X1752Y1779D01*
X1754Y1779D01*
X1754Y1775D01*
X1756Y1775D01*
X1756Y1769D01*
X1758Y1769D01*
X1758Y1763D01*
X1760Y1763D01*
X1760Y1751D01*
X1758Y1751D01*
X1758Y1743D01*
X1756Y1743D01*
X1756Y1739D01*
X1754Y1739D01*
X1754Y1735D01*
X1752Y1735D01*
X1752Y1731D01*
X1750Y1731D01*
X1750Y1729D01*
X1748Y1729D01*
X1748Y1727D01*
X1746Y1727D01*
X1746Y1725D01*
X1744Y1725D01*
X1744Y1723D01*
X1742Y1723D01*
X1742Y1721D01*
X1740Y1721D01*
X1740Y1719D01*
X1738Y1719D01*
X1738Y1717D01*
X1736Y1717D01*
X1736Y1697D01*
X1738Y1697D01*
X1738Y1695D01*
X1740Y1695D01*
X1740Y1693D01*
X1742Y1693D01*
X1742Y1691D01*
X1744Y1691D01*
X1744Y1689D01*
X1746Y1689D01*
X1746Y1687D01*
X1748Y1687D01*
X1748Y1685D01*
X1750Y1685D01*
X1750Y1681D01*
X1752Y1681D01*
X1752Y1679D01*
X1754Y1679D01*
X1754Y1675D01*
X1756Y1675D01*
X1756Y1669D01*
X1758Y1669D01*
X1758Y1663D01*
X1760Y1663D01*
X1760Y1651D01*
X1758Y1651D01*
X1758Y1643D01*
X1756Y1643D01*
X1756Y1639D01*
X1754Y1639D01*
X1754Y1635D01*
X1752Y1635D01*
X1752Y1631D01*
X1750Y1631D01*
X1750Y1629D01*
X1748Y1629D01*
X1748Y1627D01*
X1746Y1627D01*
X1746Y1625D01*
X1744Y1625D01*
X1744Y1623D01*
X1742Y1623D01*
X1742Y1621D01*
X1740Y1621D01*
X1740Y1619D01*
X1738Y1619D01*
X1738Y1617D01*
X1736Y1617D01*
X1736Y1615D01*
X1732Y1615D01*
X1732Y1613D01*
X1728Y1613D01*
X1728Y1611D01*
X1722Y1611D01*
X1722Y1609D01*
X1714Y1609D01*
X1714Y1607D01*
X1988Y1607D01*
X1988Y1625D01*
X1986Y1625D01*
X1986Y1627D01*
X1984Y1627D01*
X1984Y1629D01*
X1982Y1629D01*
X1982Y1631D01*
X1978Y1631D01*
X1978Y1633D01*
X1976Y1633D01*
X1976Y1635D01*
X1972Y1635D01*
X1972Y1637D01*
X1970Y1637D01*
X1970Y1639D01*
X1968Y1639D01*
X1968Y1641D01*
X1964Y1641D01*
X1964Y1643D01*
X1962Y1643D01*
X1962Y1645D01*
X1960Y1645D01*
X1960Y1647D01*
X1956Y1647D01*
X1956Y1649D01*
X1954Y1649D01*
X1954Y1651D01*
X1952Y1651D01*
X1952Y1653D01*
X1948Y1653D01*
X1948Y1655D01*
X1946Y1655D01*
X1946Y1657D01*
X1944Y1657D01*
X1944Y1659D01*
X1940Y1659D01*
X1940Y1661D01*
X1938Y1661D01*
X1938Y1663D01*
X1934Y1663D01*
X1934Y1665D01*
X1932Y1665D01*
X1932Y1667D01*
X1930Y1667D01*
X1930Y1669D01*
X1926Y1669D01*
X1926Y1671D01*
X1924Y1671D01*
X1924Y1673D01*
X1922Y1673D01*
X1922Y1675D01*
X1918Y1675D01*
X1918Y1677D01*
X1916Y1677D01*
X1916Y1679D01*
X1914Y1679D01*
X1914Y1681D01*
X1910Y1681D01*
X1910Y1683D01*
X1908Y1683D01*
X1908Y1685D01*
X1906Y1685D01*
X1906Y1687D01*
X1902Y1687D01*
X1902Y1689D01*
X1900Y1689D01*
X1900Y1691D01*
X1896Y1691D01*
X1896Y1693D01*
X1894Y1693D01*
X1894Y1695D01*
X1892Y1695D01*
X1892Y1697D01*
X1888Y1697D01*
X1888Y1699D01*
X1886Y1699D01*
X1886Y1701D01*
X1884Y1701D01*
X1884Y1703D01*
X1880Y1703D01*
X1880Y1705D01*
X1878Y1705D01*
X1878Y1707D01*
X1876Y1707D01*
X1876Y1709D01*
X1872Y1709D01*
X1872Y1711D01*
X1870Y1711D01*
X1870Y1713D01*
X1868Y1713D01*
X1868Y1715D01*
X1864Y1715D01*
X1864Y1717D01*
X1862Y1717D01*
X1862Y1719D01*
X1858Y1719D01*
X1858Y1721D01*
X1856Y1721D01*
X1856Y1723D01*
X1854Y1723D01*
X1854Y1725D01*
X1850Y1725D01*
X1850Y1727D01*
X1848Y1727D01*
X1848Y1729D01*
X1846Y1729D01*
X1846Y1731D01*
X1842Y1731D01*
X1842Y1733D01*
X1840Y1733D01*
X1840Y1735D01*
X1838Y1735D01*
X1838Y1737D01*
X1834Y1737D01*
X1834Y1739D01*
X1832Y1739D01*
X1832Y1741D01*
X1830Y1741D01*
X1830Y1743D01*
X1826Y1743D01*
X1826Y1745D01*
X1824Y1745D01*
X1824Y1747D01*
X1820Y1747D01*
X1820Y1749D01*
X1818Y1749D01*
X1818Y1751D01*
X1816Y1751D01*
X1816Y1753D01*
X1812Y1753D01*
X1812Y1755D01*
X1810Y1755D01*
X1810Y1757D01*
X1808Y1757D01*
X1808Y1759D01*
X1804Y1759D01*
X1804Y1761D01*
X1802Y1761D01*
X1802Y1763D01*
X1800Y1763D01*
X1800Y1765D01*
X1796Y1765D01*
X1796Y1767D01*
X1794Y1767D01*
X1794Y1769D01*
X1792Y1769D01*
X1792Y1771D01*
X1788Y1771D01*
X1788Y1773D01*
X1786Y1773D01*
X1786Y1775D01*
X1782Y1775D01*
X1782Y1777D01*
X1780Y1777D01*
X1780Y1779D01*
X1778Y1779D01*
X1778Y1781D01*
X1774Y1781D01*
X1774Y1783D01*
X1772Y1783D01*
X1772Y1785D01*
X1752Y1785D01*
G37*
D02*
G36*
X1958Y1703D02*
X1958Y1701D01*
X1960Y1701D01*
X1960Y1699D01*
X1962Y1699D01*
X1962Y1697D01*
X1966Y1697D01*
X1966Y1695D01*
X1968Y1695D01*
X1968Y1693D01*
X1972Y1693D01*
X1972Y1691D01*
X1974Y1691D01*
X1974Y1689D01*
X1976Y1689D01*
X1976Y1687D01*
X1980Y1687D01*
X1980Y1685D01*
X1982Y1685D01*
X1982Y1683D01*
X1984Y1683D01*
X1984Y1681D01*
X1988Y1681D01*
X1988Y1679D01*
X1990Y1679D01*
X1990Y1677D01*
X1992Y1677D01*
X1992Y1675D01*
X1996Y1675D01*
X1996Y1673D01*
X1998Y1673D01*
X1998Y1671D01*
X2000Y1671D01*
X2000Y1669D01*
X2004Y1669D01*
X2004Y1667D01*
X2006Y1667D01*
X2006Y1665D01*
X2010Y1665D01*
X2010Y1663D01*
X2012Y1663D01*
X2012Y1661D01*
X2014Y1661D01*
X2014Y1659D01*
X2018Y1659D01*
X2018Y1657D01*
X2020Y1657D01*
X2020Y1655D01*
X2022Y1655D01*
X2022Y1653D01*
X2026Y1653D01*
X2026Y1651D01*
X2028Y1651D01*
X2028Y1647D01*
X2030Y1647D01*
X2030Y1643D01*
X2032Y1643D01*
X2032Y1593D01*
X2524Y1593D01*
X2524Y1595D01*
X2514Y1595D01*
X2514Y1597D01*
X2508Y1597D01*
X2508Y1599D01*
X2504Y1599D01*
X2504Y1601D01*
X2500Y1601D01*
X2500Y1603D01*
X2498Y1603D01*
X2498Y1605D01*
X2496Y1605D01*
X2496Y1607D01*
X2492Y1607D01*
X2492Y1609D01*
X2490Y1609D01*
X2490Y1611D01*
X2488Y1611D01*
X2488Y1613D01*
X2486Y1613D01*
X2486Y1617D01*
X2484Y1617D01*
X2484Y1619D01*
X2482Y1619D01*
X2482Y1621D01*
X2480Y1621D01*
X2480Y1625D01*
X2478Y1625D01*
X2478Y1629D01*
X2476Y1629D01*
X2476Y1633D01*
X2474Y1633D01*
X2474Y1641D01*
X2472Y1641D01*
X2472Y1655D01*
X2474Y1655D01*
X2474Y1663D01*
X2476Y1663D01*
X2476Y1669D01*
X2478Y1669D01*
X2478Y1673D01*
X2480Y1673D01*
X2480Y1677D01*
X2482Y1677D01*
X2482Y1679D01*
X2484Y1679D01*
X2484Y1681D01*
X2486Y1681D01*
X2486Y1683D01*
X2488Y1683D01*
X2488Y1687D01*
X2490Y1687D01*
X2490Y1689D01*
X2494Y1689D01*
X2494Y1691D01*
X2496Y1691D01*
X2496Y1693D01*
X2498Y1693D01*
X2498Y1695D01*
X2502Y1695D01*
X2502Y1697D01*
X2506Y1697D01*
X2506Y1699D01*
X2510Y1699D01*
X2510Y1701D01*
X2514Y1701D01*
X2514Y1703D01*
X1958Y1703D01*
G37*
D02*
G36*
X2748Y1665D02*
X2748Y1663D01*
X2746Y1663D01*
X2746Y1661D01*
X2744Y1661D01*
X2744Y1659D01*
X2742Y1659D01*
X2742Y1657D01*
X2740Y1657D01*
X2740Y1655D01*
X2738Y1655D01*
X2738Y1653D01*
X2736Y1653D01*
X2736Y1651D01*
X2734Y1651D01*
X2734Y1649D01*
X2732Y1649D01*
X2732Y1647D01*
X2730Y1647D01*
X2730Y1645D01*
X2728Y1645D01*
X2728Y1643D01*
X2726Y1643D01*
X2726Y1641D01*
X2724Y1641D01*
X2724Y1639D01*
X2722Y1639D01*
X2722Y1637D01*
X2720Y1637D01*
X2720Y1635D01*
X2718Y1635D01*
X2718Y1633D01*
X2716Y1633D01*
X2716Y1631D01*
X2714Y1631D01*
X2714Y1629D01*
X2712Y1629D01*
X2712Y1627D01*
X2710Y1627D01*
X2710Y1625D01*
X2708Y1625D01*
X2708Y1623D01*
X2706Y1623D01*
X2706Y1621D01*
X2704Y1621D01*
X2704Y1619D01*
X2702Y1619D01*
X2702Y1617D01*
X2700Y1617D01*
X2700Y1615D01*
X2698Y1615D01*
X2698Y1613D01*
X2818Y1613D01*
X2818Y1615D01*
X2808Y1615D01*
X2808Y1617D01*
X2804Y1617D01*
X2804Y1619D01*
X2800Y1619D01*
X2800Y1621D01*
X2796Y1621D01*
X2796Y1623D01*
X2792Y1623D01*
X2792Y1625D01*
X2790Y1625D01*
X2790Y1627D01*
X2788Y1627D01*
X2788Y1629D01*
X2786Y1629D01*
X2786Y1631D01*
X2784Y1631D01*
X2784Y1633D01*
X2782Y1633D01*
X2782Y1635D01*
X2780Y1635D01*
X2780Y1637D01*
X2778Y1637D01*
X2778Y1639D01*
X2776Y1639D01*
X2776Y1643D01*
X2774Y1643D01*
X2774Y1647D01*
X2772Y1647D01*
X2772Y1651D01*
X2770Y1651D01*
X2770Y1657D01*
X2768Y1657D01*
X2768Y1665D01*
X2748Y1665D01*
G37*
D02*
G36*
X1350Y1631D02*
X1350Y1629D01*
X1348Y1629D01*
X1348Y1627D01*
X1346Y1627D01*
X1346Y1625D01*
X1344Y1625D01*
X1344Y1623D01*
X1342Y1623D01*
X1342Y1621D01*
X1340Y1621D01*
X1340Y1619D01*
X1338Y1619D01*
X1338Y1617D01*
X1336Y1617D01*
X1336Y1615D01*
X1332Y1615D01*
X1332Y1613D01*
X1328Y1613D01*
X1328Y1611D01*
X1322Y1611D01*
X1322Y1609D01*
X1314Y1609D01*
X1314Y1607D01*
X1406Y1607D01*
X1406Y1609D01*
X1398Y1609D01*
X1398Y1611D01*
X1392Y1611D01*
X1392Y1613D01*
X1390Y1613D01*
X1390Y1615D01*
X1386Y1615D01*
X1386Y1617D01*
X1382Y1617D01*
X1382Y1619D01*
X1380Y1619D01*
X1380Y1621D01*
X1378Y1621D01*
X1378Y1623D01*
X1376Y1623D01*
X1376Y1625D01*
X1374Y1625D01*
X1374Y1627D01*
X1372Y1627D01*
X1372Y1631D01*
X1350Y1631D01*
G37*
D02*
G36*
X1450Y1631D02*
X1450Y1629D01*
X1448Y1629D01*
X1448Y1627D01*
X1446Y1627D01*
X1446Y1625D01*
X1444Y1625D01*
X1444Y1623D01*
X1442Y1623D01*
X1442Y1621D01*
X1440Y1621D01*
X1440Y1619D01*
X1438Y1619D01*
X1438Y1617D01*
X1436Y1617D01*
X1436Y1615D01*
X1432Y1615D01*
X1432Y1613D01*
X1428Y1613D01*
X1428Y1611D01*
X1422Y1611D01*
X1422Y1609D01*
X1414Y1609D01*
X1414Y1607D01*
X1506Y1607D01*
X1506Y1609D01*
X1498Y1609D01*
X1498Y1611D01*
X1492Y1611D01*
X1492Y1613D01*
X1490Y1613D01*
X1490Y1615D01*
X1486Y1615D01*
X1486Y1617D01*
X1482Y1617D01*
X1482Y1619D01*
X1480Y1619D01*
X1480Y1621D01*
X1478Y1621D01*
X1478Y1623D01*
X1476Y1623D01*
X1476Y1625D01*
X1474Y1625D01*
X1474Y1627D01*
X1472Y1627D01*
X1472Y1631D01*
X1450Y1631D01*
G37*
D02*
G36*
X1550Y1631D02*
X1550Y1629D01*
X1548Y1629D01*
X1548Y1627D01*
X1546Y1627D01*
X1546Y1625D01*
X1544Y1625D01*
X1544Y1623D01*
X1542Y1623D01*
X1542Y1621D01*
X1540Y1621D01*
X1540Y1619D01*
X1538Y1619D01*
X1538Y1617D01*
X1536Y1617D01*
X1536Y1615D01*
X1532Y1615D01*
X1532Y1613D01*
X1528Y1613D01*
X1528Y1611D01*
X1522Y1611D01*
X1522Y1609D01*
X1514Y1609D01*
X1514Y1607D01*
X1606Y1607D01*
X1606Y1609D01*
X1598Y1609D01*
X1598Y1611D01*
X1592Y1611D01*
X1592Y1613D01*
X1590Y1613D01*
X1590Y1615D01*
X1586Y1615D01*
X1586Y1617D01*
X1582Y1617D01*
X1582Y1619D01*
X1580Y1619D01*
X1580Y1621D01*
X1578Y1621D01*
X1578Y1623D01*
X1576Y1623D01*
X1576Y1625D01*
X1574Y1625D01*
X1574Y1627D01*
X1572Y1627D01*
X1572Y1631D01*
X1550Y1631D01*
G37*
D02*
G36*
X1650Y1631D02*
X1650Y1629D01*
X1648Y1629D01*
X1648Y1627D01*
X1646Y1627D01*
X1646Y1625D01*
X1644Y1625D01*
X1644Y1623D01*
X1642Y1623D01*
X1642Y1621D01*
X1640Y1621D01*
X1640Y1619D01*
X1638Y1619D01*
X1638Y1617D01*
X1636Y1617D01*
X1636Y1615D01*
X1632Y1615D01*
X1632Y1613D01*
X1628Y1613D01*
X1628Y1611D01*
X1622Y1611D01*
X1622Y1609D01*
X1614Y1609D01*
X1614Y1607D01*
X1706Y1607D01*
X1706Y1609D01*
X1698Y1609D01*
X1698Y1611D01*
X1692Y1611D01*
X1692Y1613D01*
X1690Y1613D01*
X1690Y1615D01*
X1686Y1615D01*
X1686Y1617D01*
X1682Y1617D01*
X1682Y1619D01*
X1680Y1619D01*
X1680Y1621D01*
X1678Y1621D01*
X1678Y1623D01*
X1676Y1623D01*
X1676Y1625D01*
X1674Y1625D01*
X1674Y1627D01*
X1672Y1627D01*
X1672Y1631D01*
X1650Y1631D01*
G37*
D02*
G36*
X2696Y1613D02*
X2696Y1611D01*
X2986Y1611D01*
X2986Y1613D01*
X2696Y1613D01*
G37*
D02*
G36*
X2696Y1613D02*
X2696Y1611D01*
X2986Y1611D01*
X2986Y1613D01*
X2696Y1613D01*
G37*
D02*
G36*
X2694Y1611D02*
X2694Y1609D01*
X2692Y1609D01*
X2692Y1607D01*
X2690Y1607D01*
X2690Y1605D01*
X2688Y1605D01*
X2688Y1603D01*
X2686Y1603D01*
X2686Y1601D01*
X2684Y1601D01*
X2684Y1599D01*
X2682Y1599D01*
X2682Y1597D01*
X2680Y1597D01*
X2680Y1595D01*
X2678Y1595D01*
X2678Y1593D01*
X2676Y1593D01*
X2676Y1591D01*
X2674Y1591D01*
X2674Y1589D01*
X2672Y1589D01*
X2672Y1587D01*
X2670Y1587D01*
X2670Y1585D01*
X2668Y1585D01*
X2668Y1583D01*
X2666Y1583D01*
X2666Y1581D01*
X2664Y1581D01*
X2664Y1579D01*
X2662Y1579D01*
X2662Y1577D01*
X2660Y1577D01*
X2660Y1575D01*
X2658Y1575D01*
X2658Y1573D01*
X2656Y1573D01*
X2656Y1571D01*
X2654Y1571D01*
X2654Y1569D01*
X2652Y1569D01*
X2652Y1567D01*
X2650Y1567D01*
X2650Y1565D01*
X2648Y1565D01*
X2648Y1563D01*
X2646Y1563D01*
X2646Y1561D01*
X2644Y1561D01*
X2644Y1559D01*
X2642Y1559D01*
X2642Y1557D01*
X2640Y1557D01*
X2640Y1555D01*
X2638Y1555D01*
X2638Y1553D01*
X2636Y1553D01*
X2636Y1551D01*
X2634Y1551D01*
X2634Y1549D01*
X2632Y1549D01*
X2632Y1547D01*
X2630Y1547D01*
X2630Y1545D01*
X2628Y1545D01*
X2628Y1543D01*
X2626Y1543D01*
X2626Y1541D01*
X2624Y1541D01*
X2624Y1539D01*
X2622Y1539D01*
X2622Y1537D01*
X2620Y1537D01*
X2620Y1535D01*
X2618Y1535D01*
X2618Y1533D01*
X2616Y1533D01*
X2616Y1531D01*
X2962Y1531D01*
X2962Y1529D01*
X2986Y1529D01*
X2986Y1611D01*
X2694Y1611D01*
G37*
D02*
G36*
X40Y1607D02*
X40Y1605D01*
X1988Y1605D01*
X1988Y1607D01*
X40Y1607D01*
G37*
D02*
G36*
X40Y1607D02*
X40Y1605D01*
X1988Y1605D01*
X1988Y1607D01*
X40Y1607D01*
G37*
D02*
G36*
X40Y1607D02*
X40Y1605D01*
X1988Y1605D01*
X1988Y1607D01*
X40Y1607D01*
G37*
D02*
G36*
X40Y1607D02*
X40Y1605D01*
X1988Y1605D01*
X1988Y1607D01*
X40Y1607D01*
G37*
D02*
G36*
X40Y1607D02*
X40Y1605D01*
X1988Y1605D01*
X1988Y1607D01*
X40Y1607D01*
G37*
D02*
G36*
X40Y1607D02*
X40Y1605D01*
X1988Y1605D01*
X1988Y1607D01*
X40Y1607D01*
G37*
D02*
G36*
X40Y1605D02*
X40Y1405D01*
X1214Y1405D01*
X1214Y1403D01*
X1222Y1403D01*
X1222Y1401D01*
X1228Y1401D01*
X1228Y1399D01*
X1232Y1399D01*
X1232Y1397D01*
X1234Y1397D01*
X1234Y1395D01*
X1238Y1395D01*
X1238Y1393D01*
X1240Y1393D01*
X1240Y1391D01*
X1242Y1391D01*
X1242Y1389D01*
X1244Y1389D01*
X1244Y1387D01*
X1246Y1387D01*
X1246Y1385D01*
X1248Y1385D01*
X1248Y1383D01*
X1250Y1383D01*
X1250Y1379D01*
X1252Y1379D01*
X1252Y1375D01*
X1254Y1375D01*
X1254Y1371D01*
X1256Y1371D01*
X1256Y1365D01*
X1258Y1365D01*
X1258Y1349D01*
X1256Y1349D01*
X1256Y1343D01*
X1254Y1343D01*
X1254Y1339D01*
X1252Y1339D01*
X1252Y1335D01*
X1250Y1335D01*
X1250Y1331D01*
X1248Y1331D01*
X1248Y1329D01*
X1246Y1329D01*
X1246Y1327D01*
X1244Y1327D01*
X1244Y1325D01*
X1242Y1325D01*
X1242Y1323D01*
X1240Y1323D01*
X1240Y1321D01*
X1238Y1321D01*
X1238Y1319D01*
X1236Y1319D01*
X1236Y1317D01*
X1232Y1317D01*
X1232Y1207D01*
X1622Y1207D01*
X1622Y1205D01*
X1628Y1205D01*
X1628Y1203D01*
X1632Y1203D01*
X1632Y1201D01*
X1634Y1201D01*
X1634Y1199D01*
X1638Y1199D01*
X1638Y1197D01*
X1640Y1197D01*
X1640Y1195D01*
X1642Y1195D01*
X1642Y1193D01*
X1646Y1193D01*
X1646Y1189D01*
X1648Y1189D01*
X1648Y1187D01*
X1650Y1187D01*
X1650Y1185D01*
X1652Y1185D01*
X1652Y1183D01*
X1654Y1183D01*
X1654Y1179D01*
X1656Y1179D01*
X1656Y1175D01*
X1658Y1175D01*
X1658Y1171D01*
X1660Y1171D01*
X1660Y1163D01*
X1662Y1163D01*
X1662Y1151D01*
X1660Y1151D01*
X1660Y1143D01*
X1658Y1143D01*
X1658Y1139D01*
X1656Y1139D01*
X1656Y1135D01*
X1654Y1135D01*
X1654Y1131D01*
X1652Y1131D01*
X1652Y1129D01*
X1650Y1129D01*
X1650Y1125D01*
X1648Y1125D01*
X1648Y1123D01*
X1646Y1123D01*
X1646Y1121D01*
X1644Y1121D01*
X1644Y1119D01*
X1642Y1119D01*
X1642Y1117D01*
X1638Y1117D01*
X1638Y1115D01*
X1636Y1115D01*
X1636Y1113D01*
X1632Y1113D01*
X1632Y1111D01*
X1628Y1111D01*
X1628Y1109D01*
X1624Y1109D01*
X1624Y1107D01*
X1614Y1107D01*
X1614Y1105D01*
X1988Y1105D01*
X1988Y1605D01*
X40Y1605D01*
G37*
D02*
G36*
X2032Y1593D02*
X2032Y1591D01*
X2614Y1591D01*
X2614Y1593D01*
X2032Y1593D01*
G37*
D02*
G36*
X2032Y1593D02*
X2032Y1591D01*
X2614Y1591D01*
X2614Y1593D01*
X2032Y1593D01*
G37*
D02*
G36*
X2032Y1591D02*
X2032Y1105D01*
X2414Y1105D01*
X2414Y1103D01*
X2422Y1103D01*
X2422Y1101D01*
X2428Y1101D01*
X2428Y1099D01*
X2432Y1099D01*
X2432Y1097D01*
X2434Y1097D01*
X2434Y1095D01*
X2438Y1095D01*
X2438Y1093D01*
X2440Y1093D01*
X2440Y1091D01*
X2442Y1091D01*
X2442Y1089D01*
X2444Y1089D01*
X2444Y1087D01*
X2446Y1087D01*
X2446Y1085D01*
X2448Y1085D01*
X2448Y1083D01*
X2450Y1083D01*
X2450Y1079D01*
X2452Y1079D01*
X2452Y1075D01*
X2454Y1075D01*
X2454Y1071D01*
X2456Y1071D01*
X2456Y1065D01*
X2458Y1065D01*
X2458Y1049D01*
X2456Y1049D01*
X2456Y1043D01*
X2454Y1043D01*
X2454Y1039D01*
X2452Y1039D01*
X2452Y1035D01*
X2450Y1035D01*
X2450Y1031D01*
X2448Y1031D01*
X2448Y1029D01*
X2446Y1029D01*
X2446Y1027D01*
X2444Y1027D01*
X2444Y1025D01*
X2442Y1025D01*
X2442Y1023D01*
X2440Y1023D01*
X2440Y1021D01*
X2438Y1021D01*
X2438Y1019D01*
X2436Y1019D01*
X2436Y1017D01*
X2432Y1017D01*
X2432Y1015D01*
X2428Y1015D01*
X2428Y1013D01*
X2424Y1013D01*
X2424Y1011D01*
X2418Y1011D01*
X2418Y1009D01*
X2558Y1009D01*
X2558Y1011D01*
X2554Y1011D01*
X2554Y1013D01*
X2552Y1013D01*
X2552Y1015D01*
X2550Y1015D01*
X2550Y1017D01*
X2546Y1017D01*
X2546Y1019D01*
X2544Y1019D01*
X2544Y1021D01*
X2540Y1021D01*
X2540Y1023D01*
X2538Y1023D01*
X2538Y1025D01*
X2536Y1025D01*
X2536Y1027D01*
X2532Y1027D01*
X2532Y1029D01*
X2530Y1029D01*
X2530Y1031D01*
X2526Y1031D01*
X2526Y1033D01*
X2524Y1033D01*
X2524Y1035D01*
X2522Y1035D01*
X2522Y1037D01*
X2518Y1037D01*
X2518Y1039D01*
X2516Y1039D01*
X2516Y1041D01*
X2512Y1041D01*
X2512Y1043D01*
X2510Y1043D01*
X2510Y1045D01*
X2508Y1045D01*
X2508Y1047D01*
X2504Y1047D01*
X2504Y1049D01*
X2502Y1049D01*
X2502Y1051D01*
X2500Y1051D01*
X2500Y1053D01*
X2498Y1053D01*
X2498Y1055D01*
X2496Y1055D01*
X2496Y1061D01*
X2494Y1061D01*
X2494Y1469D01*
X2496Y1469D01*
X2496Y1473D01*
X2498Y1473D01*
X2498Y1477D01*
X2500Y1477D01*
X2500Y1479D01*
X2502Y1479D01*
X2502Y1481D01*
X2504Y1481D01*
X2504Y1483D01*
X2506Y1483D01*
X2506Y1485D01*
X2508Y1485D01*
X2508Y1487D01*
X2510Y1487D01*
X2510Y1489D01*
X2512Y1489D01*
X2512Y1491D01*
X2514Y1491D01*
X2514Y1493D01*
X2516Y1493D01*
X2516Y1495D01*
X2518Y1495D01*
X2518Y1497D01*
X2520Y1497D01*
X2520Y1499D01*
X2522Y1499D01*
X2522Y1501D01*
X2524Y1501D01*
X2524Y1503D01*
X2526Y1503D01*
X2526Y1505D01*
X2528Y1505D01*
X2528Y1507D01*
X2530Y1507D01*
X2530Y1509D01*
X2532Y1509D01*
X2532Y1511D01*
X2534Y1511D01*
X2534Y1513D01*
X2536Y1513D01*
X2536Y1515D01*
X2538Y1515D01*
X2538Y1517D01*
X2540Y1517D01*
X2540Y1519D01*
X2542Y1519D01*
X2542Y1521D01*
X2544Y1521D01*
X2544Y1523D01*
X2546Y1523D01*
X2546Y1525D01*
X2548Y1525D01*
X2548Y1527D01*
X2550Y1527D01*
X2550Y1529D01*
X2552Y1529D01*
X2552Y1531D01*
X2554Y1531D01*
X2554Y1533D01*
X2556Y1533D01*
X2556Y1535D01*
X2558Y1535D01*
X2558Y1537D01*
X2560Y1537D01*
X2560Y1539D01*
X2562Y1539D01*
X2562Y1541D01*
X2564Y1541D01*
X2564Y1543D01*
X2566Y1543D01*
X2566Y1545D01*
X2568Y1545D01*
X2568Y1547D01*
X2570Y1547D01*
X2570Y1549D01*
X2572Y1549D01*
X2572Y1551D01*
X2574Y1551D01*
X2574Y1553D01*
X2576Y1553D01*
X2576Y1555D01*
X2578Y1555D01*
X2578Y1557D01*
X2580Y1557D01*
X2580Y1559D01*
X2582Y1559D01*
X2582Y1561D01*
X2584Y1561D01*
X2584Y1563D01*
X2586Y1563D01*
X2586Y1565D01*
X2588Y1565D01*
X2588Y1567D01*
X2590Y1567D01*
X2590Y1569D01*
X2592Y1569D01*
X2592Y1571D01*
X2594Y1571D01*
X2594Y1573D01*
X2596Y1573D01*
X2596Y1575D01*
X2598Y1575D01*
X2598Y1577D01*
X2600Y1577D01*
X2600Y1579D01*
X2602Y1579D01*
X2602Y1581D01*
X2604Y1581D01*
X2604Y1583D01*
X2606Y1583D01*
X2606Y1585D01*
X2608Y1585D01*
X2608Y1587D01*
X2610Y1587D01*
X2610Y1589D01*
X2612Y1589D01*
X2612Y1591D01*
X2032Y1591D01*
G37*
D02*
G36*
X2614Y1531D02*
X2614Y1529D01*
X2612Y1529D01*
X2612Y1527D01*
X2610Y1527D01*
X2610Y1525D01*
X2608Y1525D01*
X2608Y1523D01*
X2606Y1523D01*
X2606Y1521D01*
X2604Y1521D01*
X2604Y1519D01*
X2602Y1519D01*
X2602Y1517D01*
X2600Y1517D01*
X2600Y1515D01*
X2598Y1515D01*
X2598Y1513D01*
X2596Y1513D01*
X2596Y1511D01*
X2594Y1511D01*
X2594Y1509D01*
X2592Y1509D01*
X2592Y1507D01*
X2590Y1507D01*
X2590Y1505D01*
X2588Y1505D01*
X2588Y1503D01*
X2586Y1503D01*
X2586Y1501D01*
X2584Y1501D01*
X2584Y1499D01*
X2582Y1499D01*
X2582Y1497D01*
X2580Y1497D01*
X2580Y1495D01*
X2578Y1495D01*
X2578Y1493D01*
X2576Y1493D01*
X2576Y1491D01*
X2574Y1491D01*
X2574Y1489D01*
X2572Y1489D01*
X2572Y1487D01*
X2570Y1487D01*
X2570Y1485D01*
X2568Y1485D01*
X2568Y1483D01*
X2566Y1483D01*
X2566Y1481D01*
X2564Y1481D01*
X2564Y1479D01*
X2562Y1479D01*
X2562Y1477D01*
X2560Y1477D01*
X2560Y1475D01*
X2558Y1475D01*
X2558Y1473D01*
X2556Y1473D01*
X2556Y1471D01*
X2554Y1471D01*
X2554Y1469D01*
X2552Y1469D01*
X2552Y1467D01*
X2550Y1467D01*
X2550Y1465D01*
X2548Y1465D01*
X2548Y1463D01*
X2546Y1463D01*
X2546Y1461D01*
X2544Y1461D01*
X2544Y1459D01*
X2542Y1459D01*
X2542Y1457D01*
X2540Y1457D01*
X2540Y1455D01*
X2538Y1455D01*
X2538Y1437D01*
X2708Y1437D01*
X2708Y1435D01*
X2714Y1435D01*
X2714Y1433D01*
X2718Y1433D01*
X2718Y1431D01*
X2722Y1431D01*
X2722Y1429D01*
X2726Y1429D01*
X2726Y1427D01*
X2728Y1427D01*
X2728Y1425D01*
X2730Y1425D01*
X2730Y1423D01*
X2732Y1423D01*
X2732Y1421D01*
X2946Y1421D01*
X2946Y1423D01*
X2936Y1423D01*
X2936Y1425D01*
X2932Y1425D01*
X2932Y1427D01*
X2928Y1427D01*
X2928Y1429D01*
X2924Y1429D01*
X2924Y1431D01*
X2920Y1431D01*
X2920Y1433D01*
X2918Y1433D01*
X2918Y1435D01*
X2916Y1435D01*
X2916Y1437D01*
X2914Y1437D01*
X2914Y1439D01*
X2912Y1439D01*
X2912Y1441D01*
X2910Y1441D01*
X2910Y1443D01*
X2908Y1443D01*
X2908Y1445D01*
X2906Y1445D01*
X2906Y1447D01*
X2904Y1447D01*
X2904Y1451D01*
X2902Y1451D01*
X2902Y1455D01*
X2900Y1455D01*
X2900Y1459D01*
X2898Y1459D01*
X2898Y1465D01*
X2896Y1465D01*
X2896Y1489D01*
X2898Y1489D01*
X2898Y1495D01*
X2900Y1495D01*
X2900Y1499D01*
X2902Y1499D01*
X2902Y1503D01*
X2904Y1503D01*
X2904Y1505D01*
X2906Y1505D01*
X2906Y1509D01*
X2908Y1509D01*
X2908Y1511D01*
X2910Y1511D01*
X2910Y1513D01*
X2912Y1513D01*
X2912Y1515D01*
X2914Y1515D01*
X2914Y1517D01*
X2916Y1517D01*
X2916Y1519D01*
X2918Y1519D01*
X2918Y1521D01*
X2922Y1521D01*
X2922Y1523D01*
X2924Y1523D01*
X2924Y1525D01*
X2928Y1525D01*
X2928Y1527D01*
X2932Y1527D01*
X2932Y1529D01*
X2938Y1529D01*
X2938Y1531D01*
X2614Y1531D01*
G37*
D02*
G36*
X2538Y1437D02*
X2538Y1229D01*
X2632Y1229D01*
X2632Y1231D01*
X2624Y1231D01*
X2624Y1233D01*
X2620Y1233D01*
X2620Y1235D01*
X2616Y1235D01*
X2616Y1237D01*
X2614Y1237D01*
X2614Y1239D01*
X2610Y1239D01*
X2610Y1241D01*
X2608Y1241D01*
X2608Y1243D01*
X2606Y1243D01*
X2606Y1245D01*
X2604Y1245D01*
X2604Y1247D01*
X2602Y1247D01*
X2602Y1249D01*
X2600Y1249D01*
X2600Y1251D01*
X2598Y1251D01*
X2598Y1253D01*
X2596Y1253D01*
X2596Y1257D01*
X2594Y1257D01*
X2594Y1261D01*
X2592Y1261D01*
X2592Y1263D01*
X2590Y1263D01*
X2590Y1269D01*
X2588Y1269D01*
X2588Y1277D01*
X2586Y1277D01*
X2586Y1291D01*
X2588Y1291D01*
X2588Y1299D01*
X2590Y1299D01*
X2590Y1303D01*
X2592Y1303D01*
X2592Y1307D01*
X2594Y1307D01*
X2594Y1311D01*
X2596Y1311D01*
X2596Y1315D01*
X2598Y1315D01*
X2598Y1317D01*
X2600Y1317D01*
X2600Y1319D01*
X2602Y1319D01*
X2602Y1321D01*
X2604Y1321D01*
X2604Y1323D01*
X2606Y1323D01*
X2606Y1325D01*
X2608Y1325D01*
X2608Y1327D01*
X2610Y1327D01*
X2610Y1329D01*
X2614Y1329D01*
X2614Y1331D01*
X2618Y1331D01*
X2618Y1333D01*
X2620Y1333D01*
X2620Y1335D01*
X2626Y1335D01*
X2626Y1337D01*
X2634Y1337D01*
X2634Y1339D01*
X2648Y1339D01*
X2648Y1361D01*
X2646Y1361D01*
X2646Y1365D01*
X2644Y1365D01*
X2644Y1371D01*
X2642Y1371D01*
X2642Y1395D01*
X2644Y1395D01*
X2644Y1401D01*
X2646Y1401D01*
X2646Y1405D01*
X2648Y1405D01*
X2648Y1409D01*
X2650Y1409D01*
X2650Y1411D01*
X2652Y1411D01*
X2652Y1415D01*
X2654Y1415D01*
X2654Y1417D01*
X2656Y1417D01*
X2656Y1419D01*
X2658Y1419D01*
X2658Y1421D01*
X2660Y1421D01*
X2660Y1423D01*
X2662Y1423D01*
X2662Y1425D01*
X2664Y1425D01*
X2664Y1427D01*
X2668Y1427D01*
X2668Y1429D01*
X2670Y1429D01*
X2670Y1431D01*
X2674Y1431D01*
X2674Y1433D01*
X2678Y1433D01*
X2678Y1435D01*
X2684Y1435D01*
X2684Y1437D01*
X2538Y1437D01*
G37*
D02*
G36*
X2964Y1425D02*
X2964Y1423D01*
X2954Y1423D01*
X2954Y1421D01*
X2986Y1421D01*
X2986Y1425D01*
X2964Y1425D01*
G37*
D02*
G36*
X2736Y1421D02*
X2736Y1419D01*
X2986Y1419D01*
X2986Y1421D01*
X2736Y1421D01*
G37*
D02*
G36*
X2736Y1421D02*
X2736Y1419D01*
X2986Y1419D01*
X2986Y1421D01*
X2736Y1421D01*
G37*
D02*
G36*
X2736Y1419D02*
X2736Y1417D01*
X2738Y1417D01*
X2738Y1415D01*
X2740Y1415D01*
X2740Y1413D01*
X2742Y1413D01*
X2742Y1409D01*
X2744Y1409D01*
X2744Y1407D01*
X2746Y1407D01*
X2746Y1403D01*
X2748Y1403D01*
X2748Y1397D01*
X2750Y1397D01*
X2750Y1389D01*
X2752Y1389D01*
X2752Y1377D01*
X2750Y1377D01*
X2750Y1369D01*
X2748Y1369D01*
X2748Y1363D01*
X2746Y1363D01*
X2746Y1359D01*
X2744Y1359D01*
X2744Y1355D01*
X2742Y1355D01*
X2742Y1353D01*
X2740Y1353D01*
X2740Y1351D01*
X2738Y1351D01*
X2738Y1347D01*
X2736Y1347D01*
X2736Y1345D01*
X2734Y1345D01*
X2734Y1343D01*
X2732Y1343D01*
X2732Y1341D01*
X2728Y1341D01*
X2728Y1339D01*
X2726Y1339D01*
X2726Y1337D01*
X2722Y1337D01*
X2722Y1335D01*
X2720Y1335D01*
X2720Y1333D01*
X2716Y1333D01*
X2716Y1331D01*
X2710Y1331D01*
X2710Y1329D01*
X2700Y1329D01*
X2700Y1327D01*
X2688Y1327D01*
X2688Y1309D01*
X2690Y1309D01*
X2690Y1305D01*
X2692Y1305D01*
X2692Y1301D01*
X2694Y1301D01*
X2694Y1295D01*
X2696Y1295D01*
X2696Y1273D01*
X2694Y1273D01*
X2694Y1267D01*
X2692Y1267D01*
X2692Y1263D01*
X2690Y1263D01*
X2690Y1259D01*
X2688Y1259D01*
X2688Y1255D01*
X2686Y1255D01*
X2686Y1253D01*
X2684Y1253D01*
X2684Y1251D01*
X2682Y1251D01*
X2682Y1247D01*
X2680Y1247D01*
X2680Y1245D01*
X2678Y1245D01*
X2678Y1243D01*
X2674Y1243D01*
X2674Y1241D01*
X2672Y1241D01*
X2672Y1239D01*
X2670Y1239D01*
X2670Y1237D01*
X2666Y1237D01*
X2666Y1235D01*
X2662Y1235D01*
X2662Y1233D01*
X2658Y1233D01*
X2658Y1231D01*
X2652Y1231D01*
X2652Y1229D01*
X2986Y1229D01*
X2986Y1419D01*
X2736Y1419D01*
G37*
D02*
G36*
X40Y1405D02*
X40Y1305D01*
X722Y1305D01*
X722Y1303D01*
X728Y1303D01*
X728Y1301D01*
X730Y1301D01*
X730Y1299D01*
X734Y1299D01*
X734Y1297D01*
X738Y1297D01*
X738Y1295D01*
X740Y1295D01*
X740Y1293D01*
X742Y1293D01*
X742Y1291D01*
X744Y1291D01*
X744Y1289D01*
X746Y1289D01*
X746Y1287D01*
X748Y1287D01*
X748Y1285D01*
X750Y1285D01*
X750Y1281D01*
X770Y1281D01*
X770Y1283D01*
X772Y1283D01*
X772Y1285D01*
X774Y1285D01*
X774Y1289D01*
X776Y1289D01*
X776Y1291D01*
X778Y1291D01*
X778Y1293D01*
X782Y1293D01*
X782Y1295D01*
X784Y1295D01*
X784Y1297D01*
X786Y1297D01*
X786Y1319D01*
X782Y1319D01*
X782Y1321D01*
X780Y1321D01*
X780Y1323D01*
X778Y1323D01*
X778Y1325D01*
X776Y1325D01*
X776Y1327D01*
X774Y1327D01*
X774Y1329D01*
X772Y1329D01*
X772Y1333D01*
X770Y1333D01*
X770Y1337D01*
X768Y1337D01*
X768Y1339D01*
X766Y1339D01*
X766Y1345D01*
X764Y1345D01*
X764Y1355D01*
X762Y1355D01*
X762Y1359D01*
X764Y1359D01*
X764Y1369D01*
X766Y1369D01*
X766Y1373D01*
X768Y1373D01*
X768Y1377D01*
X770Y1377D01*
X770Y1381D01*
X772Y1381D01*
X772Y1383D01*
X774Y1383D01*
X774Y1385D01*
X776Y1385D01*
X776Y1389D01*
X778Y1389D01*
X778Y1391D01*
X780Y1391D01*
X780Y1393D01*
X784Y1393D01*
X784Y1395D01*
X786Y1395D01*
X786Y1397D01*
X790Y1397D01*
X790Y1399D01*
X792Y1399D01*
X792Y1401D01*
X798Y1401D01*
X798Y1403D01*
X806Y1403D01*
X806Y1405D01*
X40Y1405D01*
G37*
D02*
G36*
X814Y1405D02*
X814Y1403D01*
X822Y1403D01*
X822Y1401D01*
X828Y1401D01*
X828Y1399D01*
X832Y1399D01*
X832Y1397D01*
X834Y1397D01*
X834Y1395D01*
X838Y1395D01*
X838Y1393D01*
X840Y1393D01*
X840Y1391D01*
X842Y1391D01*
X842Y1389D01*
X844Y1389D01*
X844Y1387D01*
X846Y1387D01*
X846Y1385D01*
X848Y1385D01*
X848Y1383D01*
X850Y1383D01*
X850Y1379D01*
X852Y1379D01*
X852Y1375D01*
X854Y1375D01*
X854Y1371D01*
X856Y1371D01*
X856Y1365D01*
X858Y1365D01*
X858Y1349D01*
X856Y1349D01*
X856Y1343D01*
X854Y1343D01*
X854Y1339D01*
X852Y1339D01*
X852Y1335D01*
X850Y1335D01*
X850Y1331D01*
X848Y1331D01*
X848Y1329D01*
X846Y1329D01*
X846Y1327D01*
X844Y1327D01*
X844Y1325D01*
X842Y1325D01*
X842Y1323D01*
X840Y1323D01*
X840Y1321D01*
X838Y1321D01*
X838Y1319D01*
X836Y1319D01*
X836Y1317D01*
X834Y1317D01*
X834Y1305D01*
X1122Y1305D01*
X1122Y1303D01*
X1128Y1303D01*
X1128Y1301D01*
X1130Y1301D01*
X1130Y1299D01*
X1134Y1299D01*
X1134Y1297D01*
X1138Y1297D01*
X1138Y1295D01*
X1140Y1295D01*
X1140Y1293D01*
X1142Y1293D01*
X1142Y1291D01*
X1144Y1291D01*
X1144Y1289D01*
X1146Y1289D01*
X1146Y1287D01*
X1148Y1287D01*
X1148Y1285D01*
X1150Y1285D01*
X1150Y1281D01*
X1152Y1281D01*
X1152Y1279D01*
X1154Y1279D01*
X1154Y1275D01*
X1156Y1275D01*
X1156Y1269D01*
X1158Y1269D01*
X1158Y1263D01*
X1160Y1263D01*
X1160Y1251D01*
X1158Y1251D01*
X1158Y1243D01*
X1156Y1243D01*
X1156Y1239D01*
X1154Y1239D01*
X1154Y1235D01*
X1152Y1235D01*
X1152Y1231D01*
X1150Y1231D01*
X1150Y1229D01*
X1148Y1229D01*
X1148Y1227D01*
X1146Y1227D01*
X1146Y1225D01*
X1144Y1225D01*
X1144Y1223D01*
X1142Y1223D01*
X1142Y1221D01*
X1140Y1221D01*
X1140Y1219D01*
X1138Y1219D01*
X1138Y1217D01*
X1136Y1217D01*
X1136Y1215D01*
X1132Y1215D01*
X1132Y1213D01*
X1128Y1213D01*
X1128Y1211D01*
X1122Y1211D01*
X1122Y1209D01*
X1114Y1209D01*
X1114Y1207D01*
X1188Y1207D01*
X1188Y1317D01*
X1186Y1317D01*
X1186Y1319D01*
X1182Y1319D01*
X1182Y1321D01*
X1180Y1321D01*
X1180Y1323D01*
X1178Y1323D01*
X1178Y1325D01*
X1176Y1325D01*
X1176Y1327D01*
X1174Y1327D01*
X1174Y1329D01*
X1172Y1329D01*
X1172Y1333D01*
X1170Y1333D01*
X1170Y1337D01*
X1168Y1337D01*
X1168Y1339D01*
X1166Y1339D01*
X1166Y1345D01*
X1164Y1345D01*
X1164Y1355D01*
X1162Y1355D01*
X1162Y1359D01*
X1164Y1359D01*
X1164Y1369D01*
X1166Y1369D01*
X1166Y1373D01*
X1168Y1373D01*
X1168Y1377D01*
X1170Y1377D01*
X1170Y1381D01*
X1172Y1381D01*
X1172Y1383D01*
X1174Y1383D01*
X1174Y1385D01*
X1176Y1385D01*
X1176Y1389D01*
X1178Y1389D01*
X1178Y1391D01*
X1180Y1391D01*
X1180Y1393D01*
X1184Y1393D01*
X1184Y1395D01*
X1186Y1395D01*
X1186Y1397D01*
X1190Y1397D01*
X1190Y1399D01*
X1192Y1399D01*
X1192Y1401D01*
X1198Y1401D01*
X1198Y1403D01*
X1206Y1403D01*
X1206Y1405D01*
X814Y1405D01*
G37*
D02*
G36*
X40Y1305D02*
X40Y1207D01*
X406Y1207D01*
X406Y1209D01*
X398Y1209D01*
X398Y1211D01*
X392Y1211D01*
X392Y1213D01*
X390Y1213D01*
X390Y1215D01*
X386Y1215D01*
X386Y1217D01*
X382Y1217D01*
X382Y1219D01*
X380Y1219D01*
X380Y1221D01*
X378Y1221D01*
X378Y1223D01*
X376Y1223D01*
X376Y1225D01*
X374Y1225D01*
X374Y1227D01*
X372Y1227D01*
X372Y1231D01*
X370Y1231D01*
X370Y1233D01*
X368Y1233D01*
X368Y1237D01*
X366Y1237D01*
X366Y1241D01*
X364Y1241D01*
X364Y1247D01*
X362Y1247D01*
X362Y1267D01*
X364Y1267D01*
X364Y1273D01*
X366Y1273D01*
X366Y1277D01*
X368Y1277D01*
X368Y1281D01*
X370Y1281D01*
X370Y1283D01*
X372Y1283D01*
X372Y1285D01*
X374Y1285D01*
X374Y1289D01*
X376Y1289D01*
X376Y1291D01*
X378Y1291D01*
X378Y1293D01*
X382Y1293D01*
X382Y1295D01*
X384Y1295D01*
X384Y1297D01*
X386Y1297D01*
X386Y1299D01*
X390Y1299D01*
X390Y1301D01*
X394Y1301D01*
X394Y1303D01*
X400Y1303D01*
X400Y1305D01*
X40Y1305D01*
G37*
D02*
G36*
X422Y1305D02*
X422Y1303D01*
X428Y1303D01*
X428Y1301D01*
X430Y1301D01*
X430Y1299D01*
X434Y1299D01*
X434Y1297D01*
X438Y1297D01*
X438Y1295D01*
X440Y1295D01*
X440Y1293D01*
X442Y1293D01*
X442Y1291D01*
X444Y1291D01*
X444Y1289D01*
X446Y1289D01*
X446Y1287D01*
X448Y1287D01*
X448Y1285D01*
X450Y1285D01*
X450Y1281D01*
X470Y1281D01*
X470Y1283D01*
X472Y1283D01*
X472Y1285D01*
X474Y1285D01*
X474Y1289D01*
X476Y1289D01*
X476Y1291D01*
X478Y1291D01*
X478Y1293D01*
X482Y1293D01*
X482Y1295D01*
X484Y1295D01*
X484Y1297D01*
X486Y1297D01*
X486Y1299D01*
X490Y1299D01*
X490Y1301D01*
X494Y1301D01*
X494Y1303D01*
X500Y1303D01*
X500Y1305D01*
X422Y1305D01*
G37*
D02*
G36*
X522Y1305D02*
X522Y1303D01*
X528Y1303D01*
X528Y1301D01*
X530Y1301D01*
X530Y1299D01*
X534Y1299D01*
X534Y1297D01*
X538Y1297D01*
X538Y1295D01*
X540Y1295D01*
X540Y1293D01*
X542Y1293D01*
X542Y1291D01*
X544Y1291D01*
X544Y1289D01*
X546Y1289D01*
X546Y1287D01*
X548Y1287D01*
X548Y1285D01*
X550Y1285D01*
X550Y1281D01*
X570Y1281D01*
X570Y1283D01*
X572Y1283D01*
X572Y1285D01*
X574Y1285D01*
X574Y1289D01*
X576Y1289D01*
X576Y1291D01*
X578Y1291D01*
X578Y1293D01*
X582Y1293D01*
X582Y1295D01*
X584Y1295D01*
X584Y1297D01*
X586Y1297D01*
X586Y1299D01*
X590Y1299D01*
X590Y1301D01*
X594Y1301D01*
X594Y1303D01*
X600Y1303D01*
X600Y1305D01*
X522Y1305D01*
G37*
D02*
G36*
X622Y1305D02*
X622Y1303D01*
X628Y1303D01*
X628Y1301D01*
X630Y1301D01*
X630Y1299D01*
X634Y1299D01*
X634Y1297D01*
X638Y1297D01*
X638Y1295D01*
X640Y1295D01*
X640Y1293D01*
X642Y1293D01*
X642Y1291D01*
X644Y1291D01*
X644Y1289D01*
X646Y1289D01*
X646Y1287D01*
X648Y1287D01*
X648Y1285D01*
X650Y1285D01*
X650Y1281D01*
X670Y1281D01*
X670Y1283D01*
X672Y1283D01*
X672Y1285D01*
X674Y1285D01*
X674Y1289D01*
X676Y1289D01*
X676Y1291D01*
X678Y1291D01*
X678Y1293D01*
X682Y1293D01*
X682Y1295D01*
X684Y1295D01*
X684Y1297D01*
X686Y1297D01*
X686Y1299D01*
X690Y1299D01*
X690Y1301D01*
X694Y1301D01*
X694Y1303D01*
X700Y1303D01*
X700Y1305D01*
X622Y1305D01*
G37*
D02*
G36*
X834Y1305D02*
X834Y1297D01*
X838Y1297D01*
X838Y1295D01*
X840Y1295D01*
X840Y1293D01*
X842Y1293D01*
X842Y1291D01*
X844Y1291D01*
X844Y1289D01*
X846Y1289D01*
X846Y1287D01*
X848Y1287D01*
X848Y1285D01*
X850Y1285D01*
X850Y1281D01*
X870Y1281D01*
X870Y1283D01*
X872Y1283D01*
X872Y1285D01*
X874Y1285D01*
X874Y1289D01*
X876Y1289D01*
X876Y1291D01*
X878Y1291D01*
X878Y1293D01*
X882Y1293D01*
X882Y1295D01*
X884Y1295D01*
X884Y1297D01*
X886Y1297D01*
X886Y1299D01*
X890Y1299D01*
X890Y1301D01*
X894Y1301D01*
X894Y1303D01*
X900Y1303D01*
X900Y1305D01*
X834Y1305D01*
G37*
D02*
G36*
X922Y1305D02*
X922Y1303D01*
X928Y1303D01*
X928Y1301D01*
X930Y1301D01*
X930Y1299D01*
X934Y1299D01*
X934Y1297D01*
X938Y1297D01*
X938Y1295D01*
X940Y1295D01*
X940Y1293D01*
X942Y1293D01*
X942Y1291D01*
X944Y1291D01*
X944Y1289D01*
X946Y1289D01*
X946Y1287D01*
X948Y1287D01*
X948Y1285D01*
X950Y1285D01*
X950Y1281D01*
X970Y1281D01*
X970Y1283D01*
X972Y1283D01*
X972Y1285D01*
X974Y1285D01*
X974Y1289D01*
X976Y1289D01*
X976Y1291D01*
X978Y1291D01*
X978Y1293D01*
X982Y1293D01*
X982Y1295D01*
X984Y1295D01*
X984Y1297D01*
X986Y1297D01*
X986Y1299D01*
X990Y1299D01*
X990Y1301D01*
X994Y1301D01*
X994Y1303D01*
X1000Y1303D01*
X1000Y1305D01*
X922Y1305D01*
G37*
D02*
G36*
X1022Y1305D02*
X1022Y1303D01*
X1028Y1303D01*
X1028Y1301D01*
X1030Y1301D01*
X1030Y1299D01*
X1034Y1299D01*
X1034Y1297D01*
X1038Y1297D01*
X1038Y1295D01*
X1040Y1295D01*
X1040Y1293D01*
X1042Y1293D01*
X1042Y1291D01*
X1044Y1291D01*
X1044Y1289D01*
X1046Y1289D01*
X1046Y1287D01*
X1048Y1287D01*
X1048Y1285D01*
X1050Y1285D01*
X1050Y1281D01*
X1070Y1281D01*
X1070Y1283D01*
X1072Y1283D01*
X1072Y1285D01*
X1074Y1285D01*
X1074Y1289D01*
X1076Y1289D01*
X1076Y1291D01*
X1078Y1291D01*
X1078Y1293D01*
X1082Y1293D01*
X1082Y1295D01*
X1084Y1295D01*
X1084Y1297D01*
X1086Y1297D01*
X1086Y1299D01*
X1090Y1299D01*
X1090Y1301D01*
X1094Y1301D01*
X1094Y1303D01*
X1100Y1303D01*
X1100Y1305D01*
X1022Y1305D01*
G37*
D02*
G36*
X450Y1231D02*
X450Y1229D01*
X448Y1229D01*
X448Y1227D01*
X446Y1227D01*
X446Y1225D01*
X444Y1225D01*
X444Y1223D01*
X442Y1223D01*
X442Y1221D01*
X440Y1221D01*
X440Y1219D01*
X438Y1219D01*
X438Y1217D01*
X436Y1217D01*
X436Y1215D01*
X432Y1215D01*
X432Y1213D01*
X428Y1213D01*
X428Y1211D01*
X422Y1211D01*
X422Y1209D01*
X414Y1209D01*
X414Y1207D01*
X506Y1207D01*
X506Y1209D01*
X498Y1209D01*
X498Y1211D01*
X492Y1211D01*
X492Y1213D01*
X490Y1213D01*
X490Y1215D01*
X486Y1215D01*
X486Y1217D01*
X482Y1217D01*
X482Y1219D01*
X480Y1219D01*
X480Y1221D01*
X478Y1221D01*
X478Y1223D01*
X476Y1223D01*
X476Y1225D01*
X474Y1225D01*
X474Y1227D01*
X472Y1227D01*
X472Y1231D01*
X450Y1231D01*
G37*
D02*
G36*
X550Y1231D02*
X550Y1229D01*
X548Y1229D01*
X548Y1227D01*
X546Y1227D01*
X546Y1225D01*
X544Y1225D01*
X544Y1223D01*
X542Y1223D01*
X542Y1221D01*
X540Y1221D01*
X540Y1219D01*
X538Y1219D01*
X538Y1217D01*
X536Y1217D01*
X536Y1215D01*
X532Y1215D01*
X532Y1213D01*
X528Y1213D01*
X528Y1211D01*
X522Y1211D01*
X522Y1209D01*
X514Y1209D01*
X514Y1207D01*
X606Y1207D01*
X606Y1209D01*
X598Y1209D01*
X598Y1211D01*
X592Y1211D01*
X592Y1213D01*
X590Y1213D01*
X590Y1215D01*
X586Y1215D01*
X586Y1217D01*
X582Y1217D01*
X582Y1219D01*
X580Y1219D01*
X580Y1221D01*
X578Y1221D01*
X578Y1223D01*
X576Y1223D01*
X576Y1225D01*
X574Y1225D01*
X574Y1227D01*
X572Y1227D01*
X572Y1231D01*
X550Y1231D01*
G37*
D02*
G36*
X650Y1231D02*
X650Y1229D01*
X648Y1229D01*
X648Y1227D01*
X646Y1227D01*
X646Y1225D01*
X644Y1225D01*
X644Y1223D01*
X642Y1223D01*
X642Y1221D01*
X640Y1221D01*
X640Y1219D01*
X638Y1219D01*
X638Y1217D01*
X636Y1217D01*
X636Y1215D01*
X632Y1215D01*
X632Y1213D01*
X628Y1213D01*
X628Y1211D01*
X622Y1211D01*
X622Y1209D01*
X614Y1209D01*
X614Y1207D01*
X706Y1207D01*
X706Y1209D01*
X698Y1209D01*
X698Y1211D01*
X692Y1211D01*
X692Y1213D01*
X690Y1213D01*
X690Y1215D01*
X686Y1215D01*
X686Y1217D01*
X682Y1217D01*
X682Y1219D01*
X680Y1219D01*
X680Y1221D01*
X678Y1221D01*
X678Y1223D01*
X676Y1223D01*
X676Y1225D01*
X674Y1225D01*
X674Y1227D01*
X672Y1227D01*
X672Y1231D01*
X650Y1231D01*
G37*
D02*
G36*
X750Y1231D02*
X750Y1229D01*
X748Y1229D01*
X748Y1227D01*
X746Y1227D01*
X746Y1225D01*
X744Y1225D01*
X744Y1223D01*
X742Y1223D01*
X742Y1221D01*
X740Y1221D01*
X740Y1219D01*
X738Y1219D01*
X738Y1217D01*
X736Y1217D01*
X736Y1215D01*
X732Y1215D01*
X732Y1213D01*
X728Y1213D01*
X728Y1211D01*
X722Y1211D01*
X722Y1209D01*
X714Y1209D01*
X714Y1207D01*
X806Y1207D01*
X806Y1209D01*
X798Y1209D01*
X798Y1211D01*
X792Y1211D01*
X792Y1213D01*
X790Y1213D01*
X790Y1215D01*
X786Y1215D01*
X786Y1217D01*
X782Y1217D01*
X782Y1219D01*
X780Y1219D01*
X780Y1221D01*
X778Y1221D01*
X778Y1223D01*
X776Y1223D01*
X776Y1225D01*
X774Y1225D01*
X774Y1227D01*
X772Y1227D01*
X772Y1231D01*
X750Y1231D01*
G37*
D02*
G36*
X850Y1231D02*
X850Y1229D01*
X848Y1229D01*
X848Y1227D01*
X846Y1227D01*
X846Y1225D01*
X844Y1225D01*
X844Y1223D01*
X842Y1223D01*
X842Y1221D01*
X840Y1221D01*
X840Y1219D01*
X838Y1219D01*
X838Y1217D01*
X836Y1217D01*
X836Y1215D01*
X832Y1215D01*
X832Y1213D01*
X828Y1213D01*
X828Y1211D01*
X822Y1211D01*
X822Y1209D01*
X814Y1209D01*
X814Y1207D01*
X906Y1207D01*
X906Y1209D01*
X898Y1209D01*
X898Y1211D01*
X892Y1211D01*
X892Y1213D01*
X890Y1213D01*
X890Y1215D01*
X886Y1215D01*
X886Y1217D01*
X882Y1217D01*
X882Y1219D01*
X880Y1219D01*
X880Y1221D01*
X878Y1221D01*
X878Y1223D01*
X876Y1223D01*
X876Y1225D01*
X874Y1225D01*
X874Y1227D01*
X872Y1227D01*
X872Y1231D01*
X850Y1231D01*
G37*
D02*
G36*
X950Y1231D02*
X950Y1229D01*
X948Y1229D01*
X948Y1227D01*
X946Y1227D01*
X946Y1225D01*
X944Y1225D01*
X944Y1223D01*
X942Y1223D01*
X942Y1221D01*
X940Y1221D01*
X940Y1219D01*
X938Y1219D01*
X938Y1217D01*
X936Y1217D01*
X936Y1215D01*
X932Y1215D01*
X932Y1213D01*
X928Y1213D01*
X928Y1211D01*
X922Y1211D01*
X922Y1209D01*
X914Y1209D01*
X914Y1207D01*
X1006Y1207D01*
X1006Y1209D01*
X998Y1209D01*
X998Y1211D01*
X992Y1211D01*
X992Y1213D01*
X990Y1213D01*
X990Y1215D01*
X986Y1215D01*
X986Y1217D01*
X982Y1217D01*
X982Y1219D01*
X980Y1219D01*
X980Y1221D01*
X978Y1221D01*
X978Y1223D01*
X976Y1223D01*
X976Y1225D01*
X974Y1225D01*
X974Y1227D01*
X972Y1227D01*
X972Y1231D01*
X950Y1231D01*
G37*
D02*
G36*
X1050Y1231D02*
X1050Y1229D01*
X1048Y1229D01*
X1048Y1227D01*
X1046Y1227D01*
X1046Y1225D01*
X1044Y1225D01*
X1044Y1223D01*
X1042Y1223D01*
X1042Y1221D01*
X1040Y1221D01*
X1040Y1219D01*
X1038Y1219D01*
X1038Y1217D01*
X1036Y1217D01*
X1036Y1215D01*
X1032Y1215D01*
X1032Y1213D01*
X1028Y1213D01*
X1028Y1211D01*
X1022Y1211D01*
X1022Y1209D01*
X1014Y1209D01*
X1014Y1207D01*
X1106Y1207D01*
X1106Y1209D01*
X1098Y1209D01*
X1098Y1211D01*
X1092Y1211D01*
X1092Y1213D01*
X1090Y1213D01*
X1090Y1215D01*
X1086Y1215D01*
X1086Y1217D01*
X1082Y1217D01*
X1082Y1219D01*
X1080Y1219D01*
X1080Y1221D01*
X1078Y1221D01*
X1078Y1223D01*
X1076Y1223D01*
X1076Y1225D01*
X1074Y1225D01*
X1074Y1227D01*
X1072Y1227D01*
X1072Y1231D01*
X1050Y1231D01*
G37*
D02*
G36*
X2538Y1229D02*
X2538Y1227D01*
X2986Y1227D01*
X2986Y1229D01*
X2538Y1229D01*
G37*
D02*
G36*
X2538Y1229D02*
X2538Y1227D01*
X2986Y1227D01*
X2986Y1229D01*
X2538Y1229D01*
G37*
D02*
G36*
X2538Y1227D02*
X2538Y1107D01*
X2818Y1107D01*
X2818Y1105D01*
X2826Y1105D01*
X2826Y1103D01*
X2830Y1103D01*
X2830Y1101D01*
X2832Y1101D01*
X2832Y1099D01*
X2836Y1099D01*
X2836Y1097D01*
X2838Y1097D01*
X2838Y1095D01*
X2842Y1095D01*
X2842Y1093D01*
X2844Y1093D01*
X2844Y1091D01*
X2846Y1091D01*
X2846Y1089D01*
X2848Y1089D01*
X2848Y1087D01*
X2850Y1087D01*
X2850Y1083D01*
X2852Y1083D01*
X2852Y1081D01*
X2854Y1081D01*
X2854Y1077D01*
X2856Y1077D01*
X2856Y1073D01*
X2858Y1073D01*
X2858Y1067D01*
X2860Y1067D01*
X2860Y1047D01*
X2858Y1047D01*
X2858Y1041D01*
X2856Y1041D01*
X2856Y1037D01*
X2854Y1037D01*
X2854Y1033D01*
X2852Y1033D01*
X2852Y1029D01*
X2850Y1029D01*
X2850Y1027D01*
X2848Y1027D01*
X2848Y1025D01*
X2846Y1025D01*
X2846Y1023D01*
X2844Y1023D01*
X2844Y1021D01*
X2842Y1021D01*
X2842Y1019D01*
X2840Y1019D01*
X2840Y1017D01*
X2836Y1017D01*
X2836Y1015D01*
X2834Y1015D01*
X2834Y1013D01*
X2830Y1013D01*
X2830Y1011D01*
X2826Y1011D01*
X2826Y1009D01*
X2820Y1009D01*
X2820Y1007D01*
X2986Y1007D01*
X2986Y1227D01*
X2538Y1227D01*
G37*
D02*
G36*
X40Y1207D02*
X40Y1205D01*
X1188Y1205D01*
X1188Y1207D01*
X40Y1207D01*
G37*
D02*
G36*
X40Y1207D02*
X40Y1205D01*
X1188Y1205D01*
X1188Y1207D01*
X40Y1207D01*
G37*
D02*
G36*
X40Y1207D02*
X40Y1205D01*
X1188Y1205D01*
X1188Y1207D01*
X40Y1207D01*
G37*
D02*
G36*
X40Y1207D02*
X40Y1205D01*
X1188Y1205D01*
X1188Y1207D01*
X40Y1207D01*
G37*
D02*
G36*
X40Y1207D02*
X40Y1205D01*
X1188Y1205D01*
X1188Y1207D01*
X40Y1207D01*
G37*
D02*
G36*
X40Y1207D02*
X40Y1205D01*
X1188Y1205D01*
X1188Y1207D01*
X40Y1207D01*
G37*
D02*
G36*
X40Y1207D02*
X40Y1205D01*
X1188Y1205D01*
X1188Y1207D01*
X40Y1207D01*
G37*
D02*
G36*
X40Y1207D02*
X40Y1205D01*
X1188Y1205D01*
X1188Y1207D01*
X40Y1207D01*
G37*
D02*
G36*
X40Y1207D02*
X40Y1205D01*
X1188Y1205D01*
X1188Y1207D01*
X40Y1207D01*
G37*
D02*
G36*
X1232Y1207D02*
X1232Y1105D01*
X1360Y1105D01*
X1360Y1207D01*
X1232Y1207D01*
G37*
D02*
G36*
X1462Y1207D02*
X1462Y1197D01*
X1482Y1197D01*
X1482Y1199D01*
X1486Y1199D01*
X1486Y1201D01*
X1490Y1201D01*
X1490Y1203D01*
X1494Y1203D01*
X1494Y1205D01*
X1498Y1205D01*
X1498Y1207D01*
X1462Y1207D01*
G37*
D02*
G36*
X1522Y1207D02*
X1522Y1205D01*
X1528Y1205D01*
X1528Y1203D01*
X1532Y1203D01*
X1532Y1201D01*
X1534Y1201D01*
X1534Y1199D01*
X1538Y1199D01*
X1538Y1197D01*
X1540Y1197D01*
X1540Y1195D01*
X1542Y1195D01*
X1542Y1193D01*
X1546Y1193D01*
X1546Y1189D01*
X1548Y1189D01*
X1548Y1187D01*
X1550Y1187D01*
X1550Y1185D01*
X1570Y1185D01*
X1570Y1187D01*
X1572Y1187D01*
X1572Y1189D01*
X1574Y1189D01*
X1574Y1191D01*
X1576Y1191D01*
X1576Y1193D01*
X1578Y1193D01*
X1578Y1195D01*
X1580Y1195D01*
X1580Y1197D01*
X1582Y1197D01*
X1582Y1199D01*
X1586Y1199D01*
X1586Y1201D01*
X1590Y1201D01*
X1590Y1203D01*
X1594Y1203D01*
X1594Y1205D01*
X1598Y1205D01*
X1598Y1207D01*
X1522Y1207D01*
G37*
D02*
G36*
X40Y1205D02*
X40Y805D01*
X1122Y805D01*
X1122Y803D01*
X1128Y803D01*
X1128Y801D01*
X1130Y801D01*
X1130Y799D01*
X1134Y799D01*
X1134Y797D01*
X1138Y797D01*
X1138Y795D01*
X1140Y795D01*
X1140Y793D01*
X1142Y793D01*
X1142Y791D01*
X1144Y791D01*
X1144Y789D01*
X1146Y789D01*
X1146Y787D01*
X1148Y787D01*
X1148Y785D01*
X1150Y785D01*
X1150Y781D01*
X1152Y781D01*
X1152Y779D01*
X1154Y779D01*
X1154Y775D01*
X1156Y775D01*
X1156Y769D01*
X1158Y769D01*
X1158Y763D01*
X1160Y763D01*
X1160Y751D01*
X1158Y751D01*
X1158Y743D01*
X1156Y743D01*
X1156Y739D01*
X1154Y739D01*
X1154Y735D01*
X1152Y735D01*
X1152Y731D01*
X1150Y731D01*
X1150Y729D01*
X1148Y729D01*
X1148Y727D01*
X1146Y727D01*
X1146Y725D01*
X1144Y725D01*
X1144Y723D01*
X1142Y723D01*
X1142Y721D01*
X1140Y721D01*
X1140Y719D01*
X1138Y719D01*
X1138Y717D01*
X1136Y717D01*
X1136Y715D01*
X1132Y715D01*
X1132Y713D01*
X1128Y713D01*
X1128Y711D01*
X1122Y711D01*
X1122Y709D01*
X1114Y709D01*
X1114Y707D01*
X1506Y707D01*
X1506Y709D01*
X1504Y709D01*
X1504Y711D01*
X1502Y711D01*
X1502Y713D01*
X1500Y713D01*
X1500Y715D01*
X1498Y715D01*
X1498Y717D01*
X1496Y717D01*
X1496Y719D01*
X1494Y719D01*
X1494Y721D01*
X1492Y721D01*
X1492Y723D01*
X1490Y723D01*
X1490Y725D01*
X1488Y725D01*
X1488Y727D01*
X1486Y727D01*
X1486Y729D01*
X1484Y729D01*
X1484Y731D01*
X1482Y731D01*
X1482Y733D01*
X1480Y733D01*
X1480Y735D01*
X1478Y735D01*
X1478Y737D01*
X1476Y737D01*
X1476Y739D01*
X1474Y739D01*
X1474Y741D01*
X1472Y741D01*
X1472Y743D01*
X1470Y743D01*
X1470Y745D01*
X1468Y745D01*
X1468Y747D01*
X1466Y747D01*
X1466Y749D01*
X1464Y749D01*
X1464Y751D01*
X1462Y751D01*
X1462Y753D01*
X1460Y753D01*
X1460Y755D01*
X1458Y755D01*
X1458Y757D01*
X1456Y757D01*
X1456Y759D01*
X1454Y759D01*
X1454Y761D01*
X1452Y761D01*
X1452Y763D01*
X1450Y763D01*
X1450Y765D01*
X1448Y765D01*
X1448Y767D01*
X1446Y767D01*
X1446Y769D01*
X1444Y769D01*
X1444Y771D01*
X1442Y771D01*
X1442Y773D01*
X1440Y773D01*
X1440Y775D01*
X1438Y775D01*
X1438Y777D01*
X1436Y777D01*
X1436Y779D01*
X1434Y779D01*
X1434Y781D01*
X1432Y781D01*
X1432Y783D01*
X1430Y783D01*
X1430Y785D01*
X1428Y785D01*
X1428Y787D01*
X1426Y787D01*
X1426Y789D01*
X1424Y789D01*
X1424Y791D01*
X1422Y791D01*
X1422Y793D01*
X1420Y793D01*
X1420Y795D01*
X1418Y795D01*
X1418Y797D01*
X1416Y797D01*
X1416Y799D01*
X1414Y799D01*
X1414Y801D01*
X1412Y801D01*
X1412Y803D01*
X1410Y803D01*
X1410Y805D01*
X1408Y805D01*
X1408Y807D01*
X1406Y807D01*
X1406Y809D01*
X1404Y809D01*
X1404Y811D01*
X1402Y811D01*
X1402Y813D01*
X1400Y813D01*
X1400Y815D01*
X1398Y815D01*
X1398Y817D01*
X1396Y817D01*
X1396Y819D01*
X1394Y819D01*
X1394Y821D01*
X1392Y821D01*
X1392Y823D01*
X1390Y823D01*
X1390Y825D01*
X1388Y825D01*
X1388Y827D01*
X1386Y827D01*
X1386Y829D01*
X1384Y829D01*
X1384Y831D01*
X1382Y831D01*
X1382Y833D01*
X1380Y833D01*
X1380Y835D01*
X1378Y835D01*
X1378Y837D01*
X1376Y837D01*
X1376Y839D01*
X1374Y839D01*
X1374Y841D01*
X1372Y841D01*
X1372Y843D01*
X1370Y843D01*
X1370Y845D01*
X1368Y845D01*
X1368Y847D01*
X1366Y847D01*
X1366Y849D01*
X1364Y849D01*
X1364Y851D01*
X1362Y851D01*
X1362Y853D01*
X1360Y853D01*
X1360Y855D01*
X1358Y855D01*
X1358Y857D01*
X1356Y857D01*
X1356Y859D01*
X1354Y859D01*
X1354Y861D01*
X1352Y861D01*
X1352Y863D01*
X1350Y863D01*
X1350Y865D01*
X1348Y865D01*
X1348Y867D01*
X1346Y867D01*
X1346Y869D01*
X1344Y869D01*
X1344Y871D01*
X1342Y871D01*
X1342Y873D01*
X1340Y873D01*
X1340Y875D01*
X1338Y875D01*
X1338Y877D01*
X1336Y877D01*
X1336Y879D01*
X1334Y879D01*
X1334Y881D01*
X1332Y881D01*
X1332Y883D01*
X1330Y883D01*
X1330Y885D01*
X1328Y885D01*
X1328Y887D01*
X1326Y887D01*
X1326Y889D01*
X1324Y889D01*
X1324Y891D01*
X1322Y891D01*
X1322Y893D01*
X1320Y893D01*
X1320Y895D01*
X1318Y895D01*
X1318Y897D01*
X1316Y897D01*
X1316Y899D01*
X1314Y899D01*
X1314Y901D01*
X1312Y901D01*
X1312Y903D01*
X1310Y903D01*
X1310Y905D01*
X1308Y905D01*
X1308Y907D01*
X1306Y907D01*
X1306Y909D01*
X1304Y909D01*
X1304Y911D01*
X1302Y911D01*
X1302Y913D01*
X1300Y913D01*
X1300Y915D01*
X1298Y915D01*
X1298Y917D01*
X1296Y917D01*
X1296Y919D01*
X1294Y919D01*
X1294Y921D01*
X1292Y921D01*
X1292Y923D01*
X1290Y923D01*
X1290Y925D01*
X1288Y925D01*
X1288Y927D01*
X1286Y927D01*
X1286Y929D01*
X1284Y929D01*
X1284Y931D01*
X1282Y931D01*
X1282Y933D01*
X1280Y933D01*
X1280Y935D01*
X1278Y935D01*
X1278Y937D01*
X1276Y937D01*
X1276Y939D01*
X1274Y939D01*
X1274Y941D01*
X1272Y941D01*
X1272Y943D01*
X1270Y943D01*
X1270Y945D01*
X1268Y945D01*
X1268Y947D01*
X1266Y947D01*
X1266Y949D01*
X1264Y949D01*
X1264Y951D01*
X1262Y951D01*
X1262Y953D01*
X1260Y953D01*
X1260Y955D01*
X1258Y955D01*
X1258Y957D01*
X1256Y957D01*
X1256Y959D01*
X1254Y959D01*
X1254Y961D01*
X1252Y961D01*
X1252Y963D01*
X1250Y963D01*
X1250Y965D01*
X1248Y965D01*
X1248Y967D01*
X1246Y967D01*
X1246Y969D01*
X1244Y969D01*
X1244Y971D01*
X1242Y971D01*
X1242Y973D01*
X1240Y973D01*
X1240Y975D01*
X1238Y975D01*
X1238Y977D01*
X1236Y977D01*
X1236Y979D01*
X1234Y979D01*
X1234Y981D01*
X1232Y981D01*
X1232Y983D01*
X1230Y983D01*
X1230Y985D01*
X1228Y985D01*
X1228Y987D01*
X1226Y987D01*
X1226Y989D01*
X1224Y989D01*
X1224Y991D01*
X1222Y991D01*
X1222Y993D01*
X1220Y993D01*
X1220Y995D01*
X1218Y995D01*
X1218Y997D01*
X1216Y997D01*
X1216Y999D01*
X1214Y999D01*
X1214Y1001D01*
X1212Y1001D01*
X1212Y1003D01*
X1210Y1003D01*
X1210Y1005D01*
X1208Y1005D01*
X1208Y1007D01*
X1206Y1007D01*
X1206Y1009D01*
X1204Y1009D01*
X1204Y1011D01*
X1202Y1011D01*
X1202Y1013D01*
X1200Y1013D01*
X1200Y1015D01*
X1198Y1015D01*
X1198Y1017D01*
X1196Y1017D01*
X1196Y1019D01*
X1194Y1019D01*
X1194Y1023D01*
X1192Y1023D01*
X1192Y1025D01*
X1190Y1025D01*
X1190Y1031D01*
X1188Y1031D01*
X1188Y1205D01*
X40Y1205D01*
G37*
D02*
G36*
X1550Y1129D02*
X1550Y1125D01*
X1548Y1125D01*
X1548Y1123D01*
X1546Y1123D01*
X1546Y1121D01*
X1544Y1121D01*
X1544Y1119D01*
X1542Y1119D01*
X1542Y1117D01*
X1538Y1117D01*
X1538Y1115D01*
X1536Y1115D01*
X1536Y1113D01*
X1532Y1113D01*
X1532Y1111D01*
X1528Y1111D01*
X1528Y1109D01*
X1524Y1109D01*
X1524Y1107D01*
X1514Y1107D01*
X1514Y1105D01*
X1608Y1105D01*
X1608Y1107D01*
X1598Y1107D01*
X1598Y1109D01*
X1592Y1109D01*
X1592Y1111D01*
X1588Y1111D01*
X1588Y1113D01*
X1586Y1113D01*
X1586Y1115D01*
X1582Y1115D01*
X1582Y1117D01*
X1580Y1117D01*
X1580Y1119D01*
X1578Y1119D01*
X1578Y1121D01*
X1576Y1121D01*
X1576Y1123D01*
X1574Y1123D01*
X1574Y1125D01*
X1572Y1125D01*
X1572Y1127D01*
X1570Y1127D01*
X1570Y1129D01*
X1550Y1129D01*
G37*
D02*
G36*
X1462Y1117D02*
X1462Y1107D01*
X1460Y1107D01*
X1460Y1105D01*
X1508Y1105D01*
X1508Y1107D01*
X1498Y1107D01*
X1498Y1109D01*
X1492Y1109D01*
X1492Y1111D01*
X1488Y1111D01*
X1488Y1113D01*
X1486Y1113D01*
X1486Y1115D01*
X1482Y1115D01*
X1482Y1117D01*
X1462Y1117D01*
G37*
D02*
G36*
X2538Y1107D02*
X2538Y1077D01*
X2540Y1077D01*
X2540Y1075D01*
X2544Y1075D01*
X2544Y1073D01*
X2546Y1073D01*
X2546Y1071D01*
X2550Y1071D01*
X2550Y1069D01*
X2552Y1069D01*
X2552Y1067D01*
X2554Y1067D01*
X2554Y1065D01*
X2558Y1065D01*
X2558Y1063D01*
X2560Y1063D01*
X2560Y1061D01*
X2564Y1061D01*
X2564Y1059D01*
X2566Y1059D01*
X2566Y1057D01*
X2568Y1057D01*
X2568Y1055D01*
X2572Y1055D01*
X2572Y1053D01*
X2574Y1053D01*
X2574Y1051D01*
X2578Y1051D01*
X2578Y1049D01*
X2580Y1049D01*
X2580Y1047D01*
X2584Y1047D01*
X2584Y1045D01*
X2586Y1045D01*
X2586Y1043D01*
X2588Y1043D01*
X2588Y1041D01*
X2592Y1041D01*
X2592Y1039D01*
X2594Y1039D01*
X2594Y1037D01*
X2598Y1037D01*
X2598Y1035D01*
X2600Y1035D01*
X2600Y1033D01*
X2602Y1033D01*
X2602Y1031D01*
X2606Y1031D01*
X2606Y1029D01*
X2608Y1029D01*
X2608Y1027D01*
X2612Y1027D01*
X2612Y1025D01*
X2614Y1025D01*
X2614Y1023D01*
X2616Y1023D01*
X2616Y1021D01*
X2620Y1021D01*
X2620Y1019D01*
X2622Y1019D01*
X2622Y1017D01*
X2626Y1017D01*
X2626Y1015D01*
X2628Y1015D01*
X2628Y1013D01*
X2630Y1013D01*
X2630Y1011D01*
X2634Y1011D01*
X2634Y1009D01*
X2636Y1009D01*
X2636Y1007D01*
X2800Y1007D01*
X2800Y1009D01*
X2794Y1009D01*
X2794Y1011D01*
X2790Y1011D01*
X2790Y1013D01*
X2788Y1013D01*
X2788Y1015D01*
X2784Y1015D01*
X2784Y1017D01*
X2782Y1017D01*
X2782Y1019D01*
X2780Y1019D01*
X2780Y1021D01*
X2776Y1021D01*
X2776Y1023D01*
X2774Y1023D01*
X2774Y1027D01*
X2772Y1027D01*
X2772Y1029D01*
X2770Y1029D01*
X2770Y1031D01*
X2768Y1031D01*
X2768Y1035D01*
X2766Y1035D01*
X2766Y1039D01*
X2764Y1039D01*
X2764Y1043D01*
X2762Y1043D01*
X2762Y1051D01*
X2760Y1051D01*
X2760Y1063D01*
X2762Y1063D01*
X2762Y1071D01*
X2764Y1071D01*
X2764Y1075D01*
X2766Y1075D01*
X2766Y1079D01*
X2768Y1079D01*
X2768Y1083D01*
X2770Y1083D01*
X2770Y1085D01*
X2772Y1085D01*
X2772Y1087D01*
X2774Y1087D01*
X2774Y1089D01*
X2776Y1089D01*
X2776Y1091D01*
X2778Y1091D01*
X2778Y1093D01*
X2780Y1093D01*
X2780Y1095D01*
X2782Y1095D01*
X2782Y1097D01*
X2784Y1097D01*
X2784Y1099D01*
X2788Y1099D01*
X2788Y1101D01*
X2792Y1101D01*
X2792Y1103D01*
X2796Y1103D01*
X2796Y1105D01*
X2802Y1105D01*
X2802Y1107D01*
X2538Y1107D01*
G37*
D02*
G36*
X1232Y1105D02*
X1232Y1103D01*
X1988Y1103D01*
X1988Y1105D01*
X1232Y1105D01*
G37*
D02*
G36*
X1232Y1105D02*
X1232Y1103D01*
X1988Y1103D01*
X1988Y1105D01*
X1232Y1105D01*
G37*
D02*
G36*
X1232Y1105D02*
X1232Y1103D01*
X1988Y1103D01*
X1988Y1105D01*
X1232Y1105D01*
G37*
D02*
G36*
X1232Y1105D02*
X1232Y1103D01*
X1988Y1103D01*
X1988Y1105D01*
X1232Y1105D01*
G37*
D02*
G36*
X2032Y1105D02*
X2032Y1097D01*
X2034Y1097D01*
X2034Y1095D01*
X2038Y1095D01*
X2038Y1093D01*
X2040Y1093D01*
X2040Y1091D01*
X2042Y1091D01*
X2042Y1089D01*
X2044Y1089D01*
X2044Y1087D01*
X2046Y1087D01*
X2046Y1085D01*
X2048Y1085D01*
X2048Y1083D01*
X2050Y1083D01*
X2050Y1079D01*
X2052Y1079D01*
X2052Y1075D01*
X2054Y1075D01*
X2054Y1071D01*
X2056Y1071D01*
X2056Y1065D01*
X2058Y1065D01*
X2058Y1039D01*
X2060Y1039D01*
X2060Y1037D01*
X2062Y1037D01*
X2062Y1035D01*
X2064Y1035D01*
X2064Y1033D01*
X2066Y1033D01*
X2066Y1031D01*
X2068Y1031D01*
X2068Y1029D01*
X2070Y1029D01*
X2070Y1027D01*
X2072Y1027D01*
X2072Y1025D01*
X2074Y1025D01*
X2074Y1023D01*
X2076Y1023D01*
X2076Y1021D01*
X2078Y1021D01*
X2078Y1019D01*
X2080Y1019D01*
X2080Y1017D01*
X2082Y1017D01*
X2082Y1015D01*
X2084Y1015D01*
X2084Y1013D01*
X2086Y1013D01*
X2086Y1011D01*
X2088Y1011D01*
X2088Y1009D01*
X2404Y1009D01*
X2404Y1011D01*
X2398Y1011D01*
X2398Y1013D01*
X2392Y1013D01*
X2392Y1015D01*
X2388Y1015D01*
X2388Y1017D01*
X2386Y1017D01*
X2386Y1019D01*
X2382Y1019D01*
X2382Y1021D01*
X2380Y1021D01*
X2380Y1023D01*
X2378Y1023D01*
X2378Y1025D01*
X2376Y1025D01*
X2376Y1027D01*
X2374Y1027D01*
X2374Y1029D01*
X2372Y1029D01*
X2372Y1033D01*
X2370Y1033D01*
X2370Y1037D01*
X2368Y1037D01*
X2368Y1039D01*
X2366Y1039D01*
X2366Y1045D01*
X2364Y1045D01*
X2364Y1055D01*
X2362Y1055D01*
X2362Y1059D01*
X2364Y1059D01*
X2364Y1069D01*
X2366Y1069D01*
X2366Y1073D01*
X2368Y1073D01*
X2368Y1077D01*
X2370Y1077D01*
X2370Y1081D01*
X2372Y1081D01*
X2372Y1083D01*
X2374Y1083D01*
X2374Y1085D01*
X2376Y1085D01*
X2376Y1089D01*
X2378Y1089D01*
X2378Y1091D01*
X2380Y1091D01*
X2380Y1093D01*
X2384Y1093D01*
X2384Y1095D01*
X2386Y1095D01*
X2386Y1097D01*
X2390Y1097D01*
X2390Y1099D01*
X2392Y1099D01*
X2392Y1101D01*
X2398Y1101D01*
X2398Y1103D01*
X2406Y1103D01*
X2406Y1105D01*
X2032Y1105D01*
G37*
D02*
G36*
X1232Y1103D02*
X1232Y1045D01*
X1234Y1045D01*
X1234Y1043D01*
X1236Y1043D01*
X1236Y1041D01*
X1238Y1041D01*
X1238Y1039D01*
X1240Y1039D01*
X1240Y1037D01*
X1242Y1037D01*
X1242Y1035D01*
X1244Y1035D01*
X1244Y1033D01*
X1246Y1033D01*
X1246Y1031D01*
X1248Y1031D01*
X1248Y1029D01*
X1250Y1029D01*
X1250Y1027D01*
X1252Y1027D01*
X1252Y1025D01*
X1254Y1025D01*
X1254Y1023D01*
X1256Y1023D01*
X1256Y1021D01*
X1258Y1021D01*
X1258Y1019D01*
X1260Y1019D01*
X1260Y1017D01*
X1262Y1017D01*
X1262Y1015D01*
X1264Y1015D01*
X1264Y1013D01*
X1266Y1013D01*
X1266Y1011D01*
X1268Y1011D01*
X1268Y1009D01*
X1270Y1009D01*
X1270Y1007D01*
X1272Y1007D01*
X1272Y1005D01*
X1274Y1005D01*
X1274Y1003D01*
X1276Y1003D01*
X1276Y1001D01*
X1278Y1001D01*
X1278Y999D01*
X1280Y999D01*
X1280Y997D01*
X1282Y997D01*
X1282Y995D01*
X1284Y995D01*
X1284Y993D01*
X1286Y993D01*
X1286Y991D01*
X1288Y991D01*
X1288Y989D01*
X1290Y989D01*
X1290Y987D01*
X1292Y987D01*
X1292Y985D01*
X1294Y985D01*
X1294Y983D01*
X1296Y983D01*
X1296Y981D01*
X1298Y981D01*
X1298Y979D01*
X1300Y979D01*
X1300Y977D01*
X1302Y977D01*
X1302Y975D01*
X1304Y975D01*
X1304Y973D01*
X1306Y973D01*
X1306Y971D01*
X1308Y971D01*
X1308Y969D01*
X1310Y969D01*
X1310Y967D01*
X1312Y967D01*
X1312Y965D01*
X1314Y965D01*
X1314Y963D01*
X1316Y963D01*
X1316Y961D01*
X1318Y961D01*
X1318Y959D01*
X1320Y959D01*
X1320Y957D01*
X1322Y957D01*
X1322Y955D01*
X1324Y955D01*
X1324Y953D01*
X1326Y953D01*
X1326Y951D01*
X1328Y951D01*
X1328Y949D01*
X1330Y949D01*
X1330Y947D01*
X1332Y947D01*
X1332Y945D01*
X1334Y945D01*
X1334Y943D01*
X1336Y943D01*
X1336Y941D01*
X1338Y941D01*
X1338Y939D01*
X1340Y939D01*
X1340Y937D01*
X1342Y937D01*
X1342Y935D01*
X1344Y935D01*
X1344Y933D01*
X1346Y933D01*
X1346Y931D01*
X1348Y931D01*
X1348Y929D01*
X1350Y929D01*
X1350Y927D01*
X1352Y927D01*
X1352Y925D01*
X1354Y925D01*
X1354Y923D01*
X1356Y923D01*
X1356Y921D01*
X1358Y921D01*
X1358Y919D01*
X1360Y919D01*
X1360Y917D01*
X1362Y917D01*
X1362Y915D01*
X1364Y915D01*
X1364Y913D01*
X1366Y913D01*
X1366Y911D01*
X1368Y911D01*
X1368Y909D01*
X1370Y909D01*
X1370Y907D01*
X1372Y907D01*
X1372Y905D01*
X1374Y905D01*
X1374Y903D01*
X1376Y903D01*
X1376Y901D01*
X1378Y901D01*
X1378Y899D01*
X1380Y899D01*
X1380Y897D01*
X1382Y897D01*
X1382Y895D01*
X1384Y895D01*
X1384Y893D01*
X1386Y893D01*
X1386Y891D01*
X1388Y891D01*
X1388Y889D01*
X1390Y889D01*
X1390Y887D01*
X1392Y887D01*
X1392Y885D01*
X1394Y885D01*
X1394Y883D01*
X1396Y883D01*
X1396Y881D01*
X1398Y881D01*
X1398Y879D01*
X1400Y879D01*
X1400Y877D01*
X1402Y877D01*
X1402Y875D01*
X1404Y875D01*
X1404Y873D01*
X1406Y873D01*
X1406Y871D01*
X1408Y871D01*
X1408Y869D01*
X1410Y869D01*
X1410Y867D01*
X1412Y867D01*
X1412Y865D01*
X1414Y865D01*
X1414Y863D01*
X1416Y863D01*
X1416Y861D01*
X1418Y861D01*
X1418Y859D01*
X1420Y859D01*
X1420Y857D01*
X1422Y857D01*
X1422Y855D01*
X1424Y855D01*
X1424Y853D01*
X1426Y853D01*
X1426Y851D01*
X1428Y851D01*
X1428Y849D01*
X1430Y849D01*
X1430Y847D01*
X1432Y847D01*
X1432Y845D01*
X1434Y845D01*
X1434Y843D01*
X1436Y843D01*
X1436Y841D01*
X1438Y841D01*
X1438Y839D01*
X1440Y839D01*
X1440Y837D01*
X1442Y837D01*
X1442Y835D01*
X1444Y835D01*
X1444Y833D01*
X1446Y833D01*
X1446Y831D01*
X1448Y831D01*
X1448Y829D01*
X1450Y829D01*
X1450Y827D01*
X1452Y827D01*
X1452Y825D01*
X1454Y825D01*
X1454Y823D01*
X1456Y823D01*
X1456Y821D01*
X1458Y821D01*
X1458Y819D01*
X1460Y819D01*
X1460Y817D01*
X1462Y817D01*
X1462Y815D01*
X1464Y815D01*
X1464Y813D01*
X1466Y813D01*
X1466Y811D01*
X1468Y811D01*
X1468Y809D01*
X1470Y809D01*
X1470Y807D01*
X1472Y807D01*
X1472Y805D01*
X1474Y805D01*
X1474Y803D01*
X1476Y803D01*
X1476Y801D01*
X1478Y801D01*
X1478Y799D01*
X1480Y799D01*
X1480Y797D01*
X1482Y797D01*
X1482Y795D01*
X1484Y795D01*
X1484Y793D01*
X1486Y793D01*
X1486Y791D01*
X1488Y791D01*
X1488Y789D01*
X1490Y789D01*
X1490Y787D01*
X1492Y787D01*
X1492Y785D01*
X1494Y785D01*
X1494Y783D01*
X1496Y783D01*
X1496Y781D01*
X1498Y781D01*
X1498Y779D01*
X1500Y779D01*
X1500Y777D01*
X1502Y777D01*
X1502Y775D01*
X1504Y775D01*
X1504Y773D01*
X1506Y773D01*
X1506Y771D01*
X1508Y771D01*
X1508Y769D01*
X1510Y769D01*
X1510Y767D01*
X1512Y767D01*
X1512Y765D01*
X1514Y765D01*
X1514Y763D01*
X1516Y763D01*
X1516Y761D01*
X1518Y761D01*
X1518Y759D01*
X1520Y759D01*
X1520Y757D01*
X1522Y757D01*
X1522Y755D01*
X1524Y755D01*
X1524Y753D01*
X1526Y753D01*
X1526Y751D01*
X1528Y751D01*
X1528Y749D01*
X1530Y749D01*
X1530Y747D01*
X1532Y747D01*
X1532Y745D01*
X1534Y745D01*
X1534Y743D01*
X1536Y743D01*
X1536Y741D01*
X1538Y741D01*
X1538Y739D01*
X1540Y739D01*
X1540Y737D01*
X1542Y737D01*
X1542Y735D01*
X1544Y735D01*
X1544Y733D01*
X1546Y733D01*
X1546Y731D01*
X1548Y731D01*
X1548Y729D01*
X1550Y729D01*
X1550Y727D01*
X1552Y727D01*
X1552Y725D01*
X1554Y725D01*
X1554Y723D01*
X1556Y723D01*
X1556Y721D01*
X1558Y721D01*
X1558Y719D01*
X1560Y719D01*
X1560Y717D01*
X1562Y717D01*
X1562Y715D01*
X1564Y715D01*
X1564Y713D01*
X1566Y713D01*
X1566Y711D01*
X1568Y711D01*
X1568Y709D01*
X1570Y709D01*
X1570Y707D01*
X1572Y707D01*
X1572Y705D01*
X1574Y705D01*
X1574Y703D01*
X1576Y703D01*
X1576Y701D01*
X1578Y701D01*
X1578Y699D01*
X1580Y699D01*
X1580Y697D01*
X1582Y697D01*
X1582Y695D01*
X1584Y695D01*
X1584Y693D01*
X1586Y693D01*
X1586Y691D01*
X1588Y691D01*
X1588Y689D01*
X1590Y689D01*
X1590Y687D01*
X1592Y687D01*
X1592Y685D01*
X1594Y685D01*
X1594Y683D01*
X1596Y683D01*
X1596Y681D01*
X1598Y681D01*
X1598Y679D01*
X1600Y679D01*
X1600Y677D01*
X1602Y677D01*
X1602Y675D01*
X1604Y675D01*
X1604Y673D01*
X1606Y673D01*
X1606Y671D01*
X1608Y671D01*
X1608Y669D01*
X1610Y669D01*
X1610Y667D01*
X1612Y667D01*
X1612Y665D01*
X1614Y665D01*
X1614Y663D01*
X1616Y663D01*
X1616Y661D01*
X1618Y661D01*
X1618Y659D01*
X1620Y659D01*
X1620Y657D01*
X1622Y657D01*
X1622Y655D01*
X1624Y655D01*
X1624Y653D01*
X1626Y653D01*
X1626Y651D01*
X1628Y651D01*
X1628Y649D01*
X1630Y649D01*
X1630Y647D01*
X1632Y647D01*
X1632Y645D01*
X1634Y645D01*
X1634Y643D01*
X1636Y643D01*
X1636Y641D01*
X1638Y641D01*
X1638Y639D01*
X1640Y639D01*
X1640Y637D01*
X1642Y637D01*
X1642Y635D01*
X1644Y635D01*
X1644Y633D01*
X1646Y633D01*
X1646Y631D01*
X1648Y631D01*
X1648Y629D01*
X1650Y629D01*
X1650Y627D01*
X1652Y627D01*
X1652Y625D01*
X1654Y625D01*
X1654Y623D01*
X1656Y623D01*
X1656Y621D01*
X1658Y621D01*
X1658Y619D01*
X1660Y619D01*
X1660Y617D01*
X1662Y617D01*
X1662Y615D01*
X1664Y615D01*
X1664Y613D01*
X1666Y613D01*
X1666Y611D01*
X1668Y611D01*
X1668Y609D01*
X1670Y609D01*
X1670Y607D01*
X2800Y607D01*
X2800Y609D01*
X2794Y609D01*
X2794Y611D01*
X2790Y611D01*
X2790Y613D01*
X2788Y613D01*
X2788Y615D01*
X2784Y615D01*
X2784Y617D01*
X2782Y617D01*
X2782Y619D01*
X2780Y619D01*
X2780Y621D01*
X2776Y621D01*
X2776Y623D01*
X2774Y623D01*
X2774Y627D01*
X2772Y627D01*
X2772Y629D01*
X2770Y629D01*
X2770Y631D01*
X2768Y631D01*
X2768Y635D01*
X2406Y635D01*
X2406Y637D01*
X2400Y637D01*
X2400Y639D01*
X2396Y639D01*
X2396Y641D01*
X2394Y641D01*
X2394Y643D01*
X2392Y643D01*
X2392Y645D01*
X2390Y645D01*
X2390Y647D01*
X2388Y647D01*
X2388Y649D01*
X2386Y649D01*
X2386Y651D01*
X2384Y651D01*
X2384Y653D01*
X2382Y653D01*
X2382Y655D01*
X2380Y655D01*
X2380Y657D01*
X2378Y657D01*
X2378Y659D01*
X2376Y659D01*
X2376Y661D01*
X2374Y661D01*
X2374Y663D01*
X2372Y663D01*
X2372Y665D01*
X2370Y665D01*
X2370Y667D01*
X2368Y667D01*
X2368Y669D01*
X2366Y669D01*
X2366Y671D01*
X2364Y671D01*
X2364Y673D01*
X2362Y673D01*
X2362Y675D01*
X2360Y675D01*
X2360Y677D01*
X2358Y677D01*
X2358Y679D01*
X2356Y679D01*
X2356Y681D01*
X2354Y681D01*
X2354Y683D01*
X2352Y683D01*
X2352Y685D01*
X2350Y685D01*
X2350Y687D01*
X2348Y687D01*
X2348Y689D01*
X2346Y689D01*
X2346Y691D01*
X2344Y691D01*
X2344Y693D01*
X2342Y693D01*
X2342Y695D01*
X2340Y695D01*
X2340Y697D01*
X2338Y697D01*
X2338Y699D01*
X2336Y699D01*
X2336Y701D01*
X2334Y701D01*
X2334Y703D01*
X2332Y703D01*
X2332Y705D01*
X2330Y705D01*
X2330Y707D01*
X2328Y707D01*
X2328Y709D01*
X2326Y709D01*
X2326Y711D01*
X2324Y711D01*
X2324Y713D01*
X2322Y713D01*
X2322Y715D01*
X2320Y715D01*
X2320Y717D01*
X2318Y717D01*
X2318Y719D01*
X2316Y719D01*
X2316Y721D01*
X2314Y721D01*
X2314Y723D01*
X2312Y723D01*
X2312Y725D01*
X2310Y725D01*
X2310Y727D01*
X2308Y727D01*
X2308Y729D01*
X2306Y729D01*
X2306Y731D01*
X2304Y731D01*
X2304Y733D01*
X2302Y733D01*
X2302Y735D01*
X2300Y735D01*
X2300Y737D01*
X2298Y737D01*
X2298Y739D01*
X2296Y739D01*
X2296Y741D01*
X2294Y741D01*
X2294Y743D01*
X2292Y743D01*
X2292Y745D01*
X2290Y745D01*
X2290Y747D01*
X2288Y747D01*
X2288Y749D01*
X2286Y749D01*
X2286Y751D01*
X2284Y751D01*
X2284Y753D01*
X2282Y753D01*
X2282Y755D01*
X2280Y755D01*
X2280Y757D01*
X2278Y757D01*
X2278Y759D01*
X2276Y759D01*
X2276Y761D01*
X2274Y761D01*
X2274Y763D01*
X2272Y763D01*
X2272Y765D01*
X2270Y765D01*
X2270Y767D01*
X2268Y767D01*
X2268Y769D01*
X2266Y769D01*
X2266Y771D01*
X2264Y771D01*
X2264Y773D01*
X2262Y773D01*
X2262Y775D01*
X2260Y775D01*
X2260Y777D01*
X2258Y777D01*
X2258Y779D01*
X2256Y779D01*
X2256Y781D01*
X2254Y781D01*
X2254Y783D01*
X2252Y783D01*
X2252Y785D01*
X2250Y785D01*
X2250Y787D01*
X2248Y787D01*
X2248Y789D01*
X2246Y789D01*
X2246Y791D01*
X2244Y791D01*
X2244Y793D01*
X2242Y793D01*
X2242Y795D01*
X2240Y795D01*
X2240Y797D01*
X2238Y797D01*
X2238Y799D01*
X2236Y799D01*
X2236Y801D01*
X2234Y801D01*
X2234Y803D01*
X2232Y803D01*
X2232Y805D01*
X2230Y805D01*
X2230Y807D01*
X2228Y807D01*
X2228Y809D01*
X2226Y809D01*
X2226Y811D01*
X2224Y811D01*
X2224Y813D01*
X2222Y813D01*
X2222Y815D01*
X2220Y815D01*
X2220Y817D01*
X2218Y817D01*
X2218Y819D01*
X2216Y819D01*
X2216Y821D01*
X2214Y821D01*
X2214Y823D01*
X2212Y823D01*
X2212Y825D01*
X2210Y825D01*
X2210Y827D01*
X2208Y827D01*
X2208Y829D01*
X2206Y829D01*
X2206Y831D01*
X2204Y831D01*
X2204Y833D01*
X2202Y833D01*
X2202Y835D01*
X2200Y835D01*
X2200Y837D01*
X2198Y837D01*
X2198Y839D01*
X2196Y839D01*
X2196Y841D01*
X2194Y841D01*
X2194Y843D01*
X2192Y843D01*
X2192Y845D01*
X2190Y845D01*
X2190Y847D01*
X2188Y847D01*
X2188Y849D01*
X2186Y849D01*
X2186Y851D01*
X2184Y851D01*
X2184Y853D01*
X2182Y853D01*
X2182Y855D01*
X2180Y855D01*
X2180Y857D01*
X2178Y857D01*
X2178Y859D01*
X2176Y859D01*
X2176Y861D01*
X2174Y861D01*
X2174Y863D01*
X2172Y863D01*
X2172Y865D01*
X2170Y865D01*
X2170Y867D01*
X2168Y867D01*
X2168Y869D01*
X2166Y869D01*
X2166Y871D01*
X2164Y871D01*
X2164Y873D01*
X2162Y873D01*
X2162Y875D01*
X2160Y875D01*
X2160Y877D01*
X2158Y877D01*
X2158Y879D01*
X2156Y879D01*
X2156Y881D01*
X2154Y881D01*
X2154Y883D01*
X2152Y883D01*
X2152Y885D01*
X2150Y885D01*
X2150Y887D01*
X2148Y887D01*
X2148Y889D01*
X2146Y889D01*
X2146Y891D01*
X2144Y891D01*
X2144Y893D01*
X2142Y893D01*
X2142Y895D01*
X2140Y895D01*
X2140Y897D01*
X2138Y897D01*
X2138Y899D01*
X2136Y899D01*
X2136Y901D01*
X2134Y901D01*
X2134Y903D01*
X2132Y903D01*
X2132Y905D01*
X2130Y905D01*
X2130Y907D01*
X2128Y907D01*
X2128Y909D01*
X2126Y909D01*
X2126Y911D01*
X2124Y911D01*
X2124Y913D01*
X2122Y913D01*
X2122Y915D01*
X2120Y915D01*
X2120Y917D01*
X2118Y917D01*
X2118Y919D01*
X2116Y919D01*
X2116Y921D01*
X2114Y921D01*
X2114Y923D01*
X2112Y923D01*
X2112Y925D01*
X2110Y925D01*
X2110Y927D01*
X2108Y927D01*
X2108Y929D01*
X2106Y929D01*
X2106Y931D01*
X2104Y931D01*
X2104Y933D01*
X2102Y933D01*
X2102Y935D01*
X2100Y935D01*
X2100Y937D01*
X2098Y937D01*
X2098Y939D01*
X2096Y939D01*
X2096Y941D01*
X2094Y941D01*
X2094Y943D01*
X2092Y943D01*
X2092Y945D01*
X2090Y945D01*
X2090Y947D01*
X2088Y947D01*
X2088Y949D01*
X2086Y949D01*
X2086Y951D01*
X2084Y951D01*
X2084Y953D01*
X2082Y953D01*
X2082Y955D01*
X2080Y955D01*
X2080Y957D01*
X2078Y957D01*
X2078Y959D01*
X2076Y959D01*
X2076Y961D01*
X2074Y961D01*
X2074Y963D01*
X2072Y963D01*
X2072Y965D01*
X2070Y965D01*
X2070Y967D01*
X2068Y967D01*
X2068Y969D01*
X2066Y969D01*
X2066Y971D01*
X2064Y971D01*
X2064Y973D01*
X2062Y973D01*
X2062Y975D01*
X2060Y975D01*
X2060Y977D01*
X2058Y977D01*
X2058Y979D01*
X2056Y979D01*
X2056Y981D01*
X2054Y981D01*
X2054Y983D01*
X2052Y983D01*
X2052Y985D01*
X2050Y985D01*
X2050Y987D01*
X2048Y987D01*
X2048Y989D01*
X2046Y989D01*
X2046Y991D01*
X2044Y991D01*
X2044Y993D01*
X2042Y993D01*
X2042Y995D01*
X2040Y995D01*
X2040Y997D01*
X2038Y997D01*
X2038Y999D01*
X2036Y999D01*
X2036Y1001D01*
X2034Y1001D01*
X2034Y1003D01*
X2032Y1003D01*
X2032Y1005D01*
X2030Y1005D01*
X2030Y1007D01*
X2028Y1007D01*
X2028Y1009D01*
X2004Y1009D01*
X2004Y1011D01*
X1998Y1011D01*
X1998Y1013D01*
X1992Y1013D01*
X1992Y1015D01*
X1988Y1015D01*
X1988Y1017D01*
X1986Y1017D01*
X1986Y1019D01*
X1982Y1019D01*
X1982Y1021D01*
X1980Y1021D01*
X1980Y1023D01*
X1978Y1023D01*
X1978Y1025D01*
X1976Y1025D01*
X1976Y1027D01*
X1974Y1027D01*
X1974Y1029D01*
X1972Y1029D01*
X1972Y1033D01*
X1970Y1033D01*
X1970Y1037D01*
X1968Y1037D01*
X1968Y1039D01*
X1966Y1039D01*
X1966Y1045D01*
X1964Y1045D01*
X1964Y1055D01*
X1962Y1055D01*
X1962Y1059D01*
X1964Y1059D01*
X1964Y1069D01*
X1966Y1069D01*
X1966Y1073D01*
X1968Y1073D01*
X1968Y1077D01*
X1970Y1077D01*
X1970Y1081D01*
X1972Y1081D01*
X1972Y1083D01*
X1974Y1083D01*
X1974Y1085D01*
X1976Y1085D01*
X1976Y1089D01*
X1978Y1089D01*
X1978Y1091D01*
X1980Y1091D01*
X1980Y1093D01*
X1984Y1093D01*
X1984Y1095D01*
X1986Y1095D01*
X1986Y1097D01*
X1988Y1097D01*
X1988Y1103D01*
X1232Y1103D01*
G37*
D02*
G36*
X2090Y1009D02*
X2090Y1007D01*
X2560Y1007D01*
X2560Y1009D01*
X2090Y1009D01*
G37*
D02*
G36*
X2090Y1009D02*
X2090Y1007D01*
X2560Y1007D01*
X2560Y1009D01*
X2090Y1009D01*
G37*
D02*
G36*
X2092Y1007D02*
X2092Y1005D01*
X2094Y1005D01*
X2094Y1003D01*
X2096Y1003D01*
X2096Y1001D01*
X2098Y1001D01*
X2098Y999D01*
X2100Y999D01*
X2100Y997D01*
X2102Y997D01*
X2102Y995D01*
X2104Y995D01*
X2104Y993D01*
X2106Y993D01*
X2106Y991D01*
X2108Y991D01*
X2108Y989D01*
X2110Y989D01*
X2110Y987D01*
X2112Y987D01*
X2112Y985D01*
X2114Y985D01*
X2114Y983D01*
X2116Y983D01*
X2116Y981D01*
X2118Y981D01*
X2118Y979D01*
X2120Y979D01*
X2120Y977D01*
X2122Y977D01*
X2122Y975D01*
X2124Y975D01*
X2124Y973D01*
X2126Y973D01*
X2126Y971D01*
X2128Y971D01*
X2128Y969D01*
X2130Y969D01*
X2130Y967D01*
X2132Y967D01*
X2132Y965D01*
X2134Y965D01*
X2134Y963D01*
X2136Y963D01*
X2136Y961D01*
X2138Y961D01*
X2138Y959D01*
X2140Y959D01*
X2140Y957D01*
X2142Y957D01*
X2142Y955D01*
X2144Y955D01*
X2144Y953D01*
X2146Y953D01*
X2146Y951D01*
X2148Y951D01*
X2148Y949D01*
X2150Y949D01*
X2150Y947D01*
X2152Y947D01*
X2152Y945D01*
X2154Y945D01*
X2154Y943D01*
X2156Y943D01*
X2156Y941D01*
X2158Y941D01*
X2158Y939D01*
X2160Y939D01*
X2160Y937D01*
X2162Y937D01*
X2162Y935D01*
X2164Y935D01*
X2164Y933D01*
X2166Y933D01*
X2166Y931D01*
X2168Y931D01*
X2168Y929D01*
X2170Y929D01*
X2170Y927D01*
X2172Y927D01*
X2172Y925D01*
X2174Y925D01*
X2174Y923D01*
X2176Y923D01*
X2176Y921D01*
X2178Y921D01*
X2178Y919D01*
X2180Y919D01*
X2180Y917D01*
X2182Y917D01*
X2182Y915D01*
X2184Y915D01*
X2184Y913D01*
X2186Y913D01*
X2186Y911D01*
X2188Y911D01*
X2188Y909D01*
X2190Y909D01*
X2190Y907D01*
X2192Y907D01*
X2192Y905D01*
X2194Y905D01*
X2194Y903D01*
X2196Y903D01*
X2196Y901D01*
X2198Y901D01*
X2198Y899D01*
X2200Y899D01*
X2200Y897D01*
X2202Y897D01*
X2202Y895D01*
X2204Y895D01*
X2204Y893D01*
X2206Y893D01*
X2206Y891D01*
X2208Y891D01*
X2208Y889D01*
X2210Y889D01*
X2210Y887D01*
X2212Y887D01*
X2212Y885D01*
X2214Y885D01*
X2214Y883D01*
X2216Y883D01*
X2216Y881D01*
X2218Y881D01*
X2218Y879D01*
X2220Y879D01*
X2220Y877D01*
X2222Y877D01*
X2222Y875D01*
X2224Y875D01*
X2224Y873D01*
X2226Y873D01*
X2226Y871D01*
X2228Y871D01*
X2228Y869D01*
X2230Y869D01*
X2230Y867D01*
X2232Y867D01*
X2232Y865D01*
X2234Y865D01*
X2234Y863D01*
X2236Y863D01*
X2236Y861D01*
X2238Y861D01*
X2238Y859D01*
X2240Y859D01*
X2240Y857D01*
X2242Y857D01*
X2242Y855D01*
X2244Y855D01*
X2244Y853D01*
X2246Y853D01*
X2246Y851D01*
X2248Y851D01*
X2248Y849D01*
X2250Y849D01*
X2250Y847D01*
X2252Y847D01*
X2252Y845D01*
X2254Y845D01*
X2254Y843D01*
X2256Y843D01*
X2256Y841D01*
X2258Y841D01*
X2258Y839D01*
X2260Y839D01*
X2260Y837D01*
X2262Y837D01*
X2262Y835D01*
X2264Y835D01*
X2264Y833D01*
X2266Y833D01*
X2266Y831D01*
X2268Y831D01*
X2268Y829D01*
X2270Y829D01*
X2270Y827D01*
X2272Y827D01*
X2272Y825D01*
X2274Y825D01*
X2274Y823D01*
X2276Y823D01*
X2276Y821D01*
X2278Y821D01*
X2278Y819D01*
X2280Y819D01*
X2280Y817D01*
X2282Y817D01*
X2282Y815D01*
X2284Y815D01*
X2284Y813D01*
X2286Y813D01*
X2286Y811D01*
X2288Y811D01*
X2288Y809D01*
X2290Y809D01*
X2290Y807D01*
X2800Y807D01*
X2800Y809D01*
X2794Y809D01*
X2794Y811D01*
X2790Y811D01*
X2790Y813D01*
X2788Y813D01*
X2788Y815D01*
X2784Y815D01*
X2784Y817D01*
X2782Y817D01*
X2782Y819D01*
X2780Y819D01*
X2780Y821D01*
X2776Y821D01*
X2776Y823D01*
X2774Y823D01*
X2774Y827D01*
X2772Y827D01*
X2772Y829D01*
X2770Y829D01*
X2770Y831D01*
X2768Y831D01*
X2768Y835D01*
X2766Y835D01*
X2766Y839D01*
X2764Y839D01*
X2764Y843D01*
X2762Y843D01*
X2762Y851D01*
X2760Y851D01*
X2760Y867D01*
X2756Y867D01*
X2756Y869D01*
X2754Y869D01*
X2754Y871D01*
X2752Y871D01*
X2752Y873D01*
X2748Y873D01*
X2748Y875D01*
X2746Y875D01*
X2746Y877D01*
X2742Y877D01*
X2742Y879D01*
X2740Y879D01*
X2740Y881D01*
X2738Y881D01*
X2738Y883D01*
X2734Y883D01*
X2734Y885D01*
X2732Y885D01*
X2732Y887D01*
X2728Y887D01*
X2728Y889D01*
X2726Y889D01*
X2726Y891D01*
X2724Y891D01*
X2724Y893D01*
X2720Y893D01*
X2720Y895D01*
X2718Y895D01*
X2718Y897D01*
X2714Y897D01*
X2714Y899D01*
X2712Y899D01*
X2712Y901D01*
X2710Y901D01*
X2710Y903D01*
X2706Y903D01*
X2706Y905D01*
X2704Y905D01*
X2704Y907D01*
X2700Y907D01*
X2700Y909D01*
X2698Y909D01*
X2698Y911D01*
X2696Y911D01*
X2696Y913D01*
X2692Y913D01*
X2692Y915D01*
X2690Y915D01*
X2690Y917D01*
X2686Y917D01*
X2686Y919D01*
X2684Y919D01*
X2684Y921D01*
X2682Y921D01*
X2682Y923D01*
X2678Y923D01*
X2678Y925D01*
X2676Y925D01*
X2676Y927D01*
X2672Y927D01*
X2672Y929D01*
X2670Y929D01*
X2670Y931D01*
X2668Y931D01*
X2668Y933D01*
X2664Y933D01*
X2664Y935D01*
X2662Y935D01*
X2662Y937D01*
X2658Y937D01*
X2658Y939D01*
X2656Y939D01*
X2656Y941D01*
X2654Y941D01*
X2654Y943D01*
X2650Y943D01*
X2650Y945D01*
X2648Y945D01*
X2648Y947D01*
X2644Y947D01*
X2644Y949D01*
X2642Y949D01*
X2642Y951D01*
X2640Y951D01*
X2640Y953D01*
X2636Y953D01*
X2636Y955D01*
X2634Y955D01*
X2634Y957D01*
X2630Y957D01*
X2630Y959D01*
X2628Y959D01*
X2628Y961D01*
X2624Y961D01*
X2624Y963D01*
X2622Y963D01*
X2622Y965D01*
X2620Y965D01*
X2620Y967D01*
X2616Y967D01*
X2616Y969D01*
X2614Y969D01*
X2614Y971D01*
X2610Y971D01*
X2610Y973D01*
X2608Y973D01*
X2608Y975D01*
X2606Y975D01*
X2606Y977D01*
X2602Y977D01*
X2602Y979D01*
X2600Y979D01*
X2600Y981D01*
X2596Y981D01*
X2596Y983D01*
X2594Y983D01*
X2594Y985D01*
X2592Y985D01*
X2592Y987D01*
X2588Y987D01*
X2588Y989D01*
X2586Y989D01*
X2586Y991D01*
X2582Y991D01*
X2582Y993D01*
X2580Y993D01*
X2580Y995D01*
X2578Y995D01*
X2578Y997D01*
X2574Y997D01*
X2574Y999D01*
X2572Y999D01*
X2572Y1001D01*
X2568Y1001D01*
X2568Y1003D01*
X2566Y1003D01*
X2566Y1005D01*
X2564Y1005D01*
X2564Y1007D01*
X2092Y1007D01*
G37*
D02*
G36*
X2640Y1007D02*
X2640Y1005D01*
X2986Y1005D01*
X2986Y1007D01*
X2640Y1007D01*
G37*
D02*
G36*
X2640Y1007D02*
X2640Y1005D01*
X2986Y1005D01*
X2986Y1007D01*
X2640Y1007D01*
G37*
D02*
G36*
X2642Y1005D02*
X2642Y1003D01*
X2644Y1003D01*
X2644Y1001D01*
X2648Y1001D01*
X2648Y999D01*
X2650Y999D01*
X2650Y997D01*
X2654Y997D01*
X2654Y995D01*
X2656Y995D01*
X2656Y993D01*
X2658Y993D01*
X2658Y991D01*
X2662Y991D01*
X2662Y989D01*
X2664Y989D01*
X2664Y987D01*
X2668Y987D01*
X2668Y985D01*
X2670Y985D01*
X2670Y983D01*
X2672Y983D01*
X2672Y981D01*
X2676Y981D01*
X2676Y979D01*
X2678Y979D01*
X2678Y977D01*
X2682Y977D01*
X2682Y975D01*
X2684Y975D01*
X2684Y973D01*
X2686Y973D01*
X2686Y971D01*
X2690Y971D01*
X2690Y969D01*
X2692Y969D01*
X2692Y967D01*
X2696Y967D01*
X2696Y965D01*
X2698Y965D01*
X2698Y963D01*
X2700Y963D01*
X2700Y961D01*
X2704Y961D01*
X2704Y959D01*
X2706Y959D01*
X2706Y957D01*
X2710Y957D01*
X2710Y955D01*
X2712Y955D01*
X2712Y953D01*
X2714Y953D01*
X2714Y951D01*
X2718Y951D01*
X2718Y949D01*
X2720Y949D01*
X2720Y947D01*
X2724Y947D01*
X2724Y945D01*
X2726Y945D01*
X2726Y943D01*
X2728Y943D01*
X2728Y941D01*
X2732Y941D01*
X2732Y939D01*
X2734Y939D01*
X2734Y937D01*
X2738Y937D01*
X2738Y935D01*
X2740Y935D01*
X2740Y933D01*
X2742Y933D01*
X2742Y931D01*
X2746Y931D01*
X2746Y929D01*
X2748Y929D01*
X2748Y927D01*
X2752Y927D01*
X2752Y925D01*
X2754Y925D01*
X2754Y923D01*
X2756Y923D01*
X2756Y921D01*
X2760Y921D01*
X2760Y919D01*
X2762Y919D01*
X2762Y917D01*
X2766Y917D01*
X2766Y915D01*
X2768Y915D01*
X2768Y913D01*
X2770Y913D01*
X2770Y911D01*
X2774Y911D01*
X2774Y909D01*
X2776Y909D01*
X2776Y907D01*
X2818Y907D01*
X2818Y905D01*
X2826Y905D01*
X2826Y903D01*
X2830Y903D01*
X2830Y901D01*
X2832Y901D01*
X2832Y899D01*
X2836Y899D01*
X2836Y897D01*
X2838Y897D01*
X2838Y895D01*
X2842Y895D01*
X2842Y893D01*
X2844Y893D01*
X2844Y891D01*
X2846Y891D01*
X2846Y889D01*
X2848Y889D01*
X2848Y887D01*
X2850Y887D01*
X2850Y883D01*
X2852Y883D01*
X2852Y881D01*
X2854Y881D01*
X2854Y877D01*
X2856Y877D01*
X2856Y873D01*
X2858Y873D01*
X2858Y867D01*
X2860Y867D01*
X2860Y847D01*
X2858Y847D01*
X2858Y841D01*
X2856Y841D01*
X2856Y837D01*
X2854Y837D01*
X2854Y833D01*
X2852Y833D01*
X2852Y829D01*
X2850Y829D01*
X2850Y827D01*
X2848Y827D01*
X2848Y825D01*
X2846Y825D01*
X2846Y823D01*
X2844Y823D01*
X2844Y821D01*
X2842Y821D01*
X2842Y819D01*
X2840Y819D01*
X2840Y817D01*
X2836Y817D01*
X2836Y815D01*
X2834Y815D01*
X2834Y813D01*
X2830Y813D01*
X2830Y811D01*
X2826Y811D01*
X2826Y809D01*
X2820Y809D01*
X2820Y807D01*
X2986Y807D01*
X2986Y1005D01*
X2642Y1005D01*
G37*
D02*
G36*
X2780Y907D02*
X2780Y905D01*
X2802Y905D01*
X2802Y907D01*
X2780Y907D01*
G37*
D02*
G36*
X2292Y807D02*
X2292Y805D01*
X2986Y805D01*
X2986Y807D01*
X2292Y807D01*
G37*
D02*
G36*
X2292Y807D02*
X2292Y805D01*
X2986Y805D01*
X2986Y807D01*
X2292Y807D01*
G37*
D02*
G36*
X40Y805D02*
X40Y707D01*
X406Y707D01*
X406Y709D01*
X398Y709D01*
X398Y711D01*
X392Y711D01*
X392Y713D01*
X390Y713D01*
X390Y715D01*
X386Y715D01*
X386Y717D01*
X382Y717D01*
X382Y719D01*
X380Y719D01*
X380Y721D01*
X378Y721D01*
X378Y723D01*
X376Y723D01*
X376Y725D01*
X374Y725D01*
X374Y727D01*
X372Y727D01*
X372Y731D01*
X370Y731D01*
X370Y733D01*
X368Y733D01*
X368Y737D01*
X366Y737D01*
X366Y741D01*
X364Y741D01*
X364Y747D01*
X362Y747D01*
X362Y767D01*
X364Y767D01*
X364Y773D01*
X366Y773D01*
X366Y777D01*
X368Y777D01*
X368Y781D01*
X370Y781D01*
X370Y783D01*
X372Y783D01*
X372Y785D01*
X374Y785D01*
X374Y789D01*
X376Y789D01*
X376Y791D01*
X378Y791D01*
X378Y793D01*
X382Y793D01*
X382Y795D01*
X384Y795D01*
X384Y797D01*
X386Y797D01*
X386Y799D01*
X390Y799D01*
X390Y801D01*
X394Y801D01*
X394Y803D01*
X400Y803D01*
X400Y805D01*
X40Y805D01*
G37*
D02*
G36*
X422Y805D02*
X422Y803D01*
X428Y803D01*
X428Y801D01*
X430Y801D01*
X430Y799D01*
X434Y799D01*
X434Y797D01*
X438Y797D01*
X438Y795D01*
X440Y795D01*
X440Y793D01*
X442Y793D01*
X442Y791D01*
X444Y791D01*
X444Y789D01*
X446Y789D01*
X446Y787D01*
X448Y787D01*
X448Y785D01*
X450Y785D01*
X450Y781D01*
X470Y781D01*
X470Y783D01*
X472Y783D01*
X472Y785D01*
X474Y785D01*
X474Y789D01*
X476Y789D01*
X476Y791D01*
X478Y791D01*
X478Y793D01*
X482Y793D01*
X482Y795D01*
X484Y795D01*
X484Y797D01*
X486Y797D01*
X486Y799D01*
X490Y799D01*
X490Y801D01*
X494Y801D01*
X494Y803D01*
X500Y803D01*
X500Y805D01*
X422Y805D01*
G37*
D02*
G36*
X522Y805D02*
X522Y803D01*
X528Y803D01*
X528Y801D01*
X530Y801D01*
X530Y799D01*
X534Y799D01*
X534Y797D01*
X538Y797D01*
X538Y795D01*
X540Y795D01*
X540Y793D01*
X542Y793D01*
X542Y791D01*
X544Y791D01*
X544Y789D01*
X546Y789D01*
X546Y787D01*
X548Y787D01*
X548Y785D01*
X550Y785D01*
X550Y781D01*
X570Y781D01*
X570Y783D01*
X572Y783D01*
X572Y785D01*
X574Y785D01*
X574Y789D01*
X576Y789D01*
X576Y791D01*
X578Y791D01*
X578Y793D01*
X582Y793D01*
X582Y795D01*
X584Y795D01*
X584Y797D01*
X586Y797D01*
X586Y799D01*
X590Y799D01*
X590Y801D01*
X594Y801D01*
X594Y803D01*
X600Y803D01*
X600Y805D01*
X522Y805D01*
G37*
D02*
G36*
X622Y805D02*
X622Y803D01*
X628Y803D01*
X628Y801D01*
X630Y801D01*
X630Y799D01*
X634Y799D01*
X634Y797D01*
X638Y797D01*
X638Y795D01*
X640Y795D01*
X640Y793D01*
X642Y793D01*
X642Y791D01*
X644Y791D01*
X644Y789D01*
X646Y789D01*
X646Y787D01*
X648Y787D01*
X648Y785D01*
X650Y785D01*
X650Y781D01*
X670Y781D01*
X670Y783D01*
X672Y783D01*
X672Y785D01*
X674Y785D01*
X674Y789D01*
X676Y789D01*
X676Y791D01*
X678Y791D01*
X678Y793D01*
X682Y793D01*
X682Y795D01*
X684Y795D01*
X684Y797D01*
X686Y797D01*
X686Y799D01*
X690Y799D01*
X690Y801D01*
X694Y801D01*
X694Y803D01*
X700Y803D01*
X700Y805D01*
X622Y805D01*
G37*
D02*
G36*
X722Y805D02*
X722Y803D01*
X728Y803D01*
X728Y801D01*
X730Y801D01*
X730Y799D01*
X734Y799D01*
X734Y797D01*
X738Y797D01*
X738Y795D01*
X740Y795D01*
X740Y793D01*
X742Y793D01*
X742Y791D01*
X744Y791D01*
X744Y789D01*
X746Y789D01*
X746Y787D01*
X748Y787D01*
X748Y785D01*
X750Y785D01*
X750Y781D01*
X770Y781D01*
X770Y783D01*
X772Y783D01*
X772Y785D01*
X774Y785D01*
X774Y789D01*
X776Y789D01*
X776Y791D01*
X778Y791D01*
X778Y793D01*
X782Y793D01*
X782Y795D01*
X784Y795D01*
X784Y797D01*
X786Y797D01*
X786Y799D01*
X790Y799D01*
X790Y801D01*
X794Y801D01*
X794Y803D01*
X800Y803D01*
X800Y805D01*
X722Y805D01*
G37*
D02*
G36*
X822Y805D02*
X822Y803D01*
X828Y803D01*
X828Y801D01*
X830Y801D01*
X830Y799D01*
X834Y799D01*
X834Y797D01*
X838Y797D01*
X838Y795D01*
X840Y795D01*
X840Y793D01*
X842Y793D01*
X842Y791D01*
X844Y791D01*
X844Y789D01*
X846Y789D01*
X846Y787D01*
X848Y787D01*
X848Y785D01*
X850Y785D01*
X850Y781D01*
X870Y781D01*
X870Y783D01*
X872Y783D01*
X872Y785D01*
X874Y785D01*
X874Y789D01*
X876Y789D01*
X876Y791D01*
X878Y791D01*
X878Y793D01*
X882Y793D01*
X882Y795D01*
X884Y795D01*
X884Y797D01*
X886Y797D01*
X886Y799D01*
X890Y799D01*
X890Y801D01*
X894Y801D01*
X894Y803D01*
X900Y803D01*
X900Y805D01*
X822Y805D01*
G37*
D02*
G36*
X922Y805D02*
X922Y803D01*
X928Y803D01*
X928Y801D01*
X930Y801D01*
X930Y799D01*
X934Y799D01*
X934Y797D01*
X938Y797D01*
X938Y795D01*
X940Y795D01*
X940Y793D01*
X942Y793D01*
X942Y791D01*
X944Y791D01*
X944Y789D01*
X946Y789D01*
X946Y787D01*
X948Y787D01*
X948Y785D01*
X950Y785D01*
X950Y781D01*
X970Y781D01*
X970Y783D01*
X972Y783D01*
X972Y785D01*
X974Y785D01*
X974Y789D01*
X976Y789D01*
X976Y791D01*
X978Y791D01*
X978Y793D01*
X982Y793D01*
X982Y795D01*
X984Y795D01*
X984Y797D01*
X986Y797D01*
X986Y799D01*
X990Y799D01*
X990Y801D01*
X994Y801D01*
X994Y803D01*
X1000Y803D01*
X1000Y805D01*
X922Y805D01*
G37*
D02*
G36*
X1022Y805D02*
X1022Y803D01*
X1028Y803D01*
X1028Y801D01*
X1030Y801D01*
X1030Y799D01*
X1034Y799D01*
X1034Y797D01*
X1038Y797D01*
X1038Y795D01*
X1040Y795D01*
X1040Y793D01*
X1042Y793D01*
X1042Y791D01*
X1044Y791D01*
X1044Y789D01*
X1046Y789D01*
X1046Y787D01*
X1048Y787D01*
X1048Y785D01*
X1050Y785D01*
X1050Y781D01*
X1070Y781D01*
X1070Y783D01*
X1072Y783D01*
X1072Y785D01*
X1074Y785D01*
X1074Y789D01*
X1076Y789D01*
X1076Y791D01*
X1078Y791D01*
X1078Y793D01*
X1082Y793D01*
X1082Y795D01*
X1084Y795D01*
X1084Y797D01*
X1086Y797D01*
X1086Y799D01*
X1090Y799D01*
X1090Y801D01*
X1094Y801D01*
X1094Y803D01*
X1100Y803D01*
X1100Y805D01*
X1022Y805D01*
G37*
D02*
G36*
X2294Y805D02*
X2294Y803D01*
X2296Y803D01*
X2296Y801D01*
X2298Y801D01*
X2298Y799D01*
X2300Y799D01*
X2300Y797D01*
X2302Y797D01*
X2302Y795D01*
X2304Y795D01*
X2304Y793D01*
X2306Y793D01*
X2306Y791D01*
X2308Y791D01*
X2308Y789D01*
X2310Y789D01*
X2310Y787D01*
X2312Y787D01*
X2312Y785D01*
X2314Y785D01*
X2314Y783D01*
X2316Y783D01*
X2316Y781D01*
X2318Y781D01*
X2318Y779D01*
X2320Y779D01*
X2320Y777D01*
X2322Y777D01*
X2322Y775D01*
X2324Y775D01*
X2324Y773D01*
X2326Y773D01*
X2326Y771D01*
X2328Y771D01*
X2328Y769D01*
X2330Y769D01*
X2330Y767D01*
X2332Y767D01*
X2332Y765D01*
X2334Y765D01*
X2334Y763D01*
X2336Y763D01*
X2336Y761D01*
X2338Y761D01*
X2338Y759D01*
X2340Y759D01*
X2340Y757D01*
X2342Y757D01*
X2342Y755D01*
X2344Y755D01*
X2344Y753D01*
X2346Y753D01*
X2346Y751D01*
X2348Y751D01*
X2348Y749D01*
X2350Y749D01*
X2350Y747D01*
X2352Y747D01*
X2352Y745D01*
X2354Y745D01*
X2354Y743D01*
X2356Y743D01*
X2356Y741D01*
X2358Y741D01*
X2358Y739D01*
X2360Y739D01*
X2360Y737D01*
X2362Y737D01*
X2362Y735D01*
X2364Y735D01*
X2364Y733D01*
X2366Y733D01*
X2366Y731D01*
X2368Y731D01*
X2368Y729D01*
X2370Y729D01*
X2370Y727D01*
X2372Y727D01*
X2372Y725D01*
X2374Y725D01*
X2374Y723D01*
X2376Y723D01*
X2376Y721D01*
X2378Y721D01*
X2378Y719D01*
X2380Y719D01*
X2380Y717D01*
X2382Y717D01*
X2382Y715D01*
X2384Y715D01*
X2384Y713D01*
X2386Y713D01*
X2386Y711D01*
X2388Y711D01*
X2388Y709D01*
X2390Y709D01*
X2390Y707D01*
X2818Y707D01*
X2818Y705D01*
X2826Y705D01*
X2826Y703D01*
X2830Y703D01*
X2830Y701D01*
X2832Y701D01*
X2832Y699D01*
X2836Y699D01*
X2836Y697D01*
X2838Y697D01*
X2838Y695D01*
X2842Y695D01*
X2842Y693D01*
X2844Y693D01*
X2844Y691D01*
X2846Y691D01*
X2846Y689D01*
X2848Y689D01*
X2848Y687D01*
X2850Y687D01*
X2850Y683D01*
X2852Y683D01*
X2852Y681D01*
X2854Y681D01*
X2854Y677D01*
X2856Y677D01*
X2856Y673D01*
X2858Y673D01*
X2858Y667D01*
X2860Y667D01*
X2860Y647D01*
X2858Y647D01*
X2858Y641D01*
X2856Y641D01*
X2856Y637D01*
X2854Y637D01*
X2854Y633D01*
X2852Y633D01*
X2852Y629D01*
X2850Y629D01*
X2850Y627D01*
X2848Y627D01*
X2848Y625D01*
X2846Y625D01*
X2846Y623D01*
X2844Y623D01*
X2844Y621D01*
X2842Y621D01*
X2842Y619D01*
X2840Y619D01*
X2840Y617D01*
X2836Y617D01*
X2836Y615D01*
X2834Y615D01*
X2834Y613D01*
X2830Y613D01*
X2830Y611D01*
X2826Y611D01*
X2826Y609D01*
X2820Y609D01*
X2820Y607D01*
X2986Y607D01*
X2986Y805D01*
X2294Y805D01*
G37*
D02*
G36*
X450Y731D02*
X450Y729D01*
X448Y729D01*
X448Y727D01*
X446Y727D01*
X446Y725D01*
X444Y725D01*
X444Y723D01*
X442Y723D01*
X442Y721D01*
X440Y721D01*
X440Y719D01*
X438Y719D01*
X438Y717D01*
X436Y717D01*
X436Y715D01*
X432Y715D01*
X432Y713D01*
X428Y713D01*
X428Y711D01*
X422Y711D01*
X422Y709D01*
X414Y709D01*
X414Y707D01*
X506Y707D01*
X506Y709D01*
X498Y709D01*
X498Y711D01*
X492Y711D01*
X492Y713D01*
X490Y713D01*
X490Y715D01*
X486Y715D01*
X486Y717D01*
X482Y717D01*
X482Y719D01*
X480Y719D01*
X480Y721D01*
X478Y721D01*
X478Y723D01*
X476Y723D01*
X476Y725D01*
X474Y725D01*
X474Y727D01*
X472Y727D01*
X472Y731D01*
X450Y731D01*
G37*
D02*
G36*
X550Y731D02*
X550Y729D01*
X548Y729D01*
X548Y727D01*
X546Y727D01*
X546Y725D01*
X544Y725D01*
X544Y723D01*
X542Y723D01*
X542Y721D01*
X540Y721D01*
X540Y719D01*
X538Y719D01*
X538Y717D01*
X536Y717D01*
X536Y715D01*
X532Y715D01*
X532Y713D01*
X528Y713D01*
X528Y711D01*
X522Y711D01*
X522Y709D01*
X514Y709D01*
X514Y707D01*
X606Y707D01*
X606Y709D01*
X598Y709D01*
X598Y711D01*
X592Y711D01*
X592Y713D01*
X590Y713D01*
X590Y715D01*
X586Y715D01*
X586Y717D01*
X582Y717D01*
X582Y719D01*
X580Y719D01*
X580Y721D01*
X578Y721D01*
X578Y723D01*
X576Y723D01*
X576Y725D01*
X574Y725D01*
X574Y727D01*
X572Y727D01*
X572Y731D01*
X550Y731D01*
G37*
D02*
G36*
X650Y731D02*
X650Y729D01*
X648Y729D01*
X648Y727D01*
X646Y727D01*
X646Y725D01*
X644Y725D01*
X644Y723D01*
X642Y723D01*
X642Y721D01*
X640Y721D01*
X640Y719D01*
X638Y719D01*
X638Y717D01*
X636Y717D01*
X636Y715D01*
X632Y715D01*
X632Y713D01*
X628Y713D01*
X628Y711D01*
X622Y711D01*
X622Y709D01*
X614Y709D01*
X614Y707D01*
X706Y707D01*
X706Y709D01*
X698Y709D01*
X698Y711D01*
X692Y711D01*
X692Y713D01*
X690Y713D01*
X690Y715D01*
X686Y715D01*
X686Y717D01*
X682Y717D01*
X682Y719D01*
X680Y719D01*
X680Y721D01*
X678Y721D01*
X678Y723D01*
X676Y723D01*
X676Y725D01*
X674Y725D01*
X674Y727D01*
X672Y727D01*
X672Y731D01*
X650Y731D01*
G37*
D02*
G36*
X750Y731D02*
X750Y729D01*
X748Y729D01*
X748Y727D01*
X746Y727D01*
X746Y725D01*
X744Y725D01*
X744Y723D01*
X742Y723D01*
X742Y721D01*
X740Y721D01*
X740Y719D01*
X738Y719D01*
X738Y717D01*
X736Y717D01*
X736Y715D01*
X732Y715D01*
X732Y713D01*
X728Y713D01*
X728Y711D01*
X722Y711D01*
X722Y709D01*
X714Y709D01*
X714Y707D01*
X806Y707D01*
X806Y709D01*
X798Y709D01*
X798Y711D01*
X792Y711D01*
X792Y713D01*
X790Y713D01*
X790Y715D01*
X786Y715D01*
X786Y717D01*
X782Y717D01*
X782Y719D01*
X780Y719D01*
X780Y721D01*
X778Y721D01*
X778Y723D01*
X776Y723D01*
X776Y725D01*
X774Y725D01*
X774Y727D01*
X772Y727D01*
X772Y731D01*
X750Y731D01*
G37*
D02*
G36*
X850Y731D02*
X850Y729D01*
X848Y729D01*
X848Y727D01*
X846Y727D01*
X846Y725D01*
X844Y725D01*
X844Y723D01*
X842Y723D01*
X842Y721D01*
X840Y721D01*
X840Y719D01*
X838Y719D01*
X838Y717D01*
X836Y717D01*
X836Y715D01*
X832Y715D01*
X832Y713D01*
X828Y713D01*
X828Y711D01*
X822Y711D01*
X822Y709D01*
X814Y709D01*
X814Y707D01*
X906Y707D01*
X906Y709D01*
X898Y709D01*
X898Y711D01*
X892Y711D01*
X892Y713D01*
X890Y713D01*
X890Y715D01*
X886Y715D01*
X886Y717D01*
X882Y717D01*
X882Y719D01*
X880Y719D01*
X880Y721D01*
X878Y721D01*
X878Y723D01*
X876Y723D01*
X876Y725D01*
X874Y725D01*
X874Y727D01*
X872Y727D01*
X872Y731D01*
X850Y731D01*
G37*
D02*
G36*
X950Y731D02*
X950Y729D01*
X948Y729D01*
X948Y727D01*
X946Y727D01*
X946Y725D01*
X944Y725D01*
X944Y723D01*
X942Y723D01*
X942Y721D01*
X940Y721D01*
X940Y719D01*
X938Y719D01*
X938Y717D01*
X936Y717D01*
X936Y715D01*
X932Y715D01*
X932Y713D01*
X928Y713D01*
X928Y711D01*
X922Y711D01*
X922Y709D01*
X914Y709D01*
X914Y707D01*
X1006Y707D01*
X1006Y709D01*
X998Y709D01*
X998Y711D01*
X992Y711D01*
X992Y713D01*
X990Y713D01*
X990Y715D01*
X986Y715D01*
X986Y717D01*
X982Y717D01*
X982Y719D01*
X980Y719D01*
X980Y721D01*
X978Y721D01*
X978Y723D01*
X976Y723D01*
X976Y725D01*
X974Y725D01*
X974Y727D01*
X972Y727D01*
X972Y731D01*
X950Y731D01*
G37*
D02*
G36*
X1050Y731D02*
X1050Y729D01*
X1048Y729D01*
X1048Y727D01*
X1046Y727D01*
X1046Y725D01*
X1044Y725D01*
X1044Y723D01*
X1042Y723D01*
X1042Y721D01*
X1040Y721D01*
X1040Y719D01*
X1038Y719D01*
X1038Y717D01*
X1036Y717D01*
X1036Y715D01*
X1032Y715D01*
X1032Y713D01*
X1028Y713D01*
X1028Y711D01*
X1022Y711D01*
X1022Y709D01*
X1014Y709D01*
X1014Y707D01*
X1106Y707D01*
X1106Y709D01*
X1098Y709D01*
X1098Y711D01*
X1092Y711D01*
X1092Y713D01*
X1090Y713D01*
X1090Y715D01*
X1086Y715D01*
X1086Y717D01*
X1082Y717D01*
X1082Y719D01*
X1080Y719D01*
X1080Y721D01*
X1078Y721D01*
X1078Y723D01*
X1076Y723D01*
X1076Y725D01*
X1074Y725D01*
X1074Y727D01*
X1072Y727D01*
X1072Y731D01*
X1050Y731D01*
G37*
D02*
G36*
X40Y707D02*
X40Y705D01*
X1508Y705D01*
X1508Y707D01*
X40Y707D01*
G37*
D02*
G36*
X40Y707D02*
X40Y705D01*
X1508Y705D01*
X1508Y707D01*
X40Y707D01*
G37*
D02*
G36*
X40Y707D02*
X40Y705D01*
X1508Y705D01*
X1508Y707D01*
X40Y707D01*
G37*
D02*
G36*
X40Y707D02*
X40Y705D01*
X1508Y705D01*
X1508Y707D01*
X40Y707D01*
G37*
D02*
G36*
X40Y707D02*
X40Y705D01*
X1508Y705D01*
X1508Y707D01*
X40Y707D01*
G37*
D02*
G36*
X40Y707D02*
X40Y705D01*
X1508Y705D01*
X1508Y707D01*
X40Y707D01*
G37*
D02*
G36*
X40Y707D02*
X40Y705D01*
X1508Y705D01*
X1508Y707D01*
X40Y707D01*
G37*
D02*
G36*
X40Y707D02*
X40Y705D01*
X1508Y705D01*
X1508Y707D01*
X40Y707D01*
G37*
D02*
G36*
X40Y707D02*
X40Y705D01*
X1508Y705D01*
X1508Y707D01*
X40Y707D01*
G37*
D02*
G36*
X2392Y707D02*
X2392Y705D01*
X2394Y705D01*
X2394Y703D01*
X2396Y703D01*
X2396Y701D01*
X2398Y701D01*
X2398Y699D01*
X2400Y699D01*
X2400Y697D01*
X2402Y697D01*
X2402Y695D01*
X2404Y695D01*
X2404Y693D01*
X2406Y693D01*
X2406Y691D01*
X2408Y691D01*
X2408Y689D01*
X2410Y689D01*
X2410Y687D01*
X2412Y687D01*
X2412Y685D01*
X2414Y685D01*
X2414Y683D01*
X2416Y683D01*
X2416Y681D01*
X2418Y681D01*
X2418Y679D01*
X2768Y679D01*
X2768Y683D01*
X2770Y683D01*
X2770Y685D01*
X2772Y685D01*
X2772Y687D01*
X2774Y687D01*
X2774Y689D01*
X2776Y689D01*
X2776Y691D01*
X2778Y691D01*
X2778Y693D01*
X2780Y693D01*
X2780Y695D01*
X2782Y695D01*
X2782Y697D01*
X2784Y697D01*
X2784Y699D01*
X2788Y699D01*
X2788Y701D01*
X2792Y701D01*
X2792Y703D01*
X2796Y703D01*
X2796Y705D01*
X2802Y705D01*
X2802Y707D01*
X2392Y707D01*
G37*
D02*
G36*
X40Y705D02*
X40Y699D01*
X1452Y699D01*
X1452Y615D01*
X1598Y615D01*
X1598Y617D01*
X1596Y617D01*
X1596Y619D01*
X1594Y619D01*
X1594Y621D01*
X1592Y621D01*
X1592Y623D01*
X1590Y623D01*
X1590Y625D01*
X1588Y625D01*
X1588Y627D01*
X1586Y627D01*
X1586Y629D01*
X1584Y629D01*
X1584Y631D01*
X1582Y631D01*
X1582Y633D01*
X1580Y633D01*
X1580Y635D01*
X1578Y635D01*
X1578Y637D01*
X1576Y637D01*
X1576Y639D01*
X1574Y639D01*
X1574Y641D01*
X1572Y641D01*
X1572Y643D01*
X1570Y643D01*
X1570Y645D01*
X1568Y645D01*
X1568Y647D01*
X1566Y647D01*
X1566Y649D01*
X1564Y649D01*
X1564Y651D01*
X1562Y651D01*
X1562Y653D01*
X1560Y653D01*
X1560Y655D01*
X1558Y655D01*
X1558Y657D01*
X1556Y657D01*
X1556Y659D01*
X1554Y659D01*
X1554Y661D01*
X1552Y661D01*
X1552Y663D01*
X1550Y663D01*
X1550Y665D01*
X1548Y665D01*
X1548Y667D01*
X1546Y667D01*
X1546Y669D01*
X1544Y669D01*
X1544Y671D01*
X1542Y671D01*
X1542Y673D01*
X1540Y673D01*
X1540Y675D01*
X1538Y675D01*
X1538Y677D01*
X1536Y677D01*
X1536Y679D01*
X1534Y679D01*
X1534Y681D01*
X1532Y681D01*
X1532Y683D01*
X1530Y683D01*
X1530Y685D01*
X1528Y685D01*
X1528Y687D01*
X1526Y687D01*
X1526Y689D01*
X1524Y689D01*
X1524Y691D01*
X1522Y691D01*
X1522Y693D01*
X1520Y693D01*
X1520Y695D01*
X1518Y695D01*
X1518Y697D01*
X1516Y697D01*
X1516Y699D01*
X1514Y699D01*
X1514Y701D01*
X1512Y701D01*
X1512Y703D01*
X1510Y703D01*
X1510Y705D01*
X40Y705D01*
G37*
D02*
G36*
X40Y699D02*
X40Y615D01*
X1300Y615D01*
X1300Y617D01*
X1296Y617D01*
X1296Y619D01*
X1292Y619D01*
X1292Y621D01*
X1288Y621D01*
X1288Y623D01*
X1286Y623D01*
X1286Y625D01*
X1284Y625D01*
X1284Y627D01*
X1282Y627D01*
X1282Y629D01*
X1280Y629D01*
X1280Y631D01*
X1278Y631D01*
X1278Y633D01*
X1276Y633D01*
X1276Y635D01*
X1274Y635D01*
X1274Y639D01*
X1272Y639D01*
X1272Y643D01*
X1270Y643D01*
X1270Y649D01*
X1268Y649D01*
X1268Y665D01*
X1270Y665D01*
X1270Y671D01*
X1272Y671D01*
X1272Y675D01*
X1274Y675D01*
X1274Y677D01*
X1276Y677D01*
X1276Y681D01*
X1278Y681D01*
X1278Y683D01*
X1280Y683D01*
X1280Y685D01*
X1282Y685D01*
X1282Y687D01*
X1284Y687D01*
X1284Y689D01*
X1286Y689D01*
X1286Y691D01*
X1288Y691D01*
X1288Y693D01*
X1292Y693D01*
X1292Y695D01*
X1296Y695D01*
X1296Y697D01*
X1302Y697D01*
X1302Y699D01*
X40Y699D01*
G37*
D02*
G36*
X1320Y699D02*
X1320Y697D01*
X1324Y697D01*
X1324Y695D01*
X1328Y695D01*
X1328Y693D01*
X1332Y693D01*
X1332Y691D01*
X1334Y691D01*
X1334Y689D01*
X1336Y689D01*
X1336Y687D01*
X1340Y687D01*
X1340Y685D01*
X1342Y685D01*
X1342Y681D01*
X1344Y681D01*
X1344Y679D01*
X1346Y679D01*
X1346Y675D01*
X1348Y675D01*
X1348Y673D01*
X1368Y673D01*
X1368Y699D01*
X1320Y699D01*
G37*
D02*
G36*
X1348Y641D02*
X1348Y637D01*
X1346Y637D01*
X1346Y635D01*
X1344Y635D01*
X1344Y631D01*
X1342Y631D01*
X1342Y629D01*
X1340Y629D01*
X1340Y627D01*
X1338Y627D01*
X1338Y625D01*
X1336Y625D01*
X1336Y623D01*
X1332Y623D01*
X1332Y621D01*
X1330Y621D01*
X1330Y619D01*
X1326Y619D01*
X1326Y617D01*
X1320Y617D01*
X1320Y615D01*
X1368Y615D01*
X1368Y641D01*
X1348Y641D01*
G37*
D02*
G36*
X40Y615D02*
X40Y613D01*
X1600Y613D01*
X1600Y615D01*
X40Y615D01*
G37*
D02*
G36*
X40Y615D02*
X40Y613D01*
X1600Y613D01*
X1600Y615D01*
X40Y615D01*
G37*
D02*
G36*
X40Y615D02*
X40Y613D01*
X1600Y613D01*
X1600Y615D01*
X40Y615D01*
G37*
D02*
G36*
X40Y613D02*
X40Y407D01*
X2760Y407D01*
X2760Y435D01*
X2490Y435D01*
X2490Y437D01*
X1966Y437D01*
X1966Y439D01*
X1778Y439D01*
X1778Y441D01*
X1774Y441D01*
X1774Y443D01*
X1772Y443D01*
X1772Y445D01*
X1768Y445D01*
X1768Y447D01*
X1766Y447D01*
X1766Y449D01*
X1764Y449D01*
X1764Y451D01*
X1762Y451D01*
X1762Y453D01*
X1760Y453D01*
X1760Y455D01*
X1758Y455D01*
X1758Y457D01*
X1756Y457D01*
X1756Y459D01*
X1754Y459D01*
X1754Y461D01*
X1752Y461D01*
X1752Y463D01*
X1750Y463D01*
X1750Y465D01*
X1748Y465D01*
X1748Y467D01*
X1746Y467D01*
X1746Y469D01*
X1744Y469D01*
X1744Y471D01*
X1742Y471D01*
X1742Y473D01*
X1740Y473D01*
X1740Y475D01*
X1738Y475D01*
X1738Y477D01*
X1736Y477D01*
X1736Y479D01*
X1734Y479D01*
X1734Y481D01*
X1732Y481D01*
X1732Y483D01*
X1730Y483D01*
X1730Y485D01*
X1728Y485D01*
X1728Y487D01*
X1726Y487D01*
X1726Y489D01*
X1724Y489D01*
X1724Y491D01*
X1722Y491D01*
X1722Y493D01*
X1720Y493D01*
X1720Y495D01*
X1718Y495D01*
X1718Y497D01*
X1716Y497D01*
X1716Y499D01*
X1714Y499D01*
X1714Y501D01*
X1712Y501D01*
X1712Y503D01*
X1710Y503D01*
X1710Y505D01*
X1708Y505D01*
X1708Y507D01*
X1706Y507D01*
X1706Y509D01*
X1704Y509D01*
X1704Y511D01*
X1702Y511D01*
X1702Y513D01*
X1700Y513D01*
X1700Y515D01*
X1698Y515D01*
X1698Y517D01*
X1696Y517D01*
X1696Y519D01*
X1694Y519D01*
X1694Y521D01*
X1692Y521D01*
X1692Y523D01*
X1690Y523D01*
X1690Y525D01*
X1688Y525D01*
X1688Y527D01*
X1686Y527D01*
X1686Y529D01*
X1684Y529D01*
X1684Y531D01*
X1682Y531D01*
X1682Y533D01*
X1680Y533D01*
X1680Y535D01*
X1678Y535D01*
X1678Y537D01*
X1676Y537D01*
X1676Y539D01*
X1674Y539D01*
X1674Y541D01*
X1672Y541D01*
X1672Y543D01*
X1670Y543D01*
X1670Y545D01*
X1668Y545D01*
X1668Y547D01*
X1666Y547D01*
X1666Y549D01*
X1664Y549D01*
X1664Y551D01*
X1662Y551D01*
X1662Y553D01*
X1660Y553D01*
X1660Y555D01*
X1658Y555D01*
X1658Y557D01*
X1656Y557D01*
X1656Y559D01*
X1654Y559D01*
X1654Y561D01*
X1652Y561D01*
X1652Y563D01*
X1650Y563D01*
X1650Y565D01*
X1648Y565D01*
X1648Y567D01*
X1646Y567D01*
X1646Y569D01*
X1644Y569D01*
X1644Y571D01*
X1642Y571D01*
X1642Y573D01*
X1640Y573D01*
X1640Y575D01*
X1638Y575D01*
X1638Y577D01*
X1636Y577D01*
X1636Y579D01*
X1634Y579D01*
X1634Y581D01*
X1632Y581D01*
X1632Y583D01*
X1630Y583D01*
X1630Y585D01*
X1628Y585D01*
X1628Y587D01*
X1626Y587D01*
X1626Y589D01*
X1624Y589D01*
X1624Y591D01*
X1622Y591D01*
X1622Y593D01*
X1620Y593D01*
X1620Y595D01*
X1618Y595D01*
X1618Y597D01*
X1616Y597D01*
X1616Y599D01*
X1614Y599D01*
X1614Y601D01*
X1612Y601D01*
X1612Y603D01*
X1610Y603D01*
X1610Y605D01*
X1608Y605D01*
X1608Y607D01*
X1606Y607D01*
X1606Y609D01*
X1604Y609D01*
X1604Y611D01*
X1602Y611D01*
X1602Y613D01*
X40Y613D01*
G37*
D02*
G36*
X1672Y607D02*
X1672Y605D01*
X2986Y605D01*
X2986Y607D01*
X1672Y607D01*
G37*
D02*
G36*
X1672Y607D02*
X1672Y605D01*
X2986Y605D01*
X2986Y607D01*
X1672Y607D01*
G37*
D02*
G36*
X1674Y605D02*
X1674Y603D01*
X1676Y603D01*
X1676Y601D01*
X1678Y601D01*
X1678Y599D01*
X1680Y599D01*
X1680Y597D01*
X1682Y597D01*
X1682Y595D01*
X1684Y595D01*
X1684Y593D01*
X1686Y593D01*
X1686Y591D01*
X1688Y591D01*
X1688Y589D01*
X1690Y589D01*
X1690Y587D01*
X1692Y587D01*
X1692Y585D01*
X1694Y585D01*
X1694Y583D01*
X1696Y583D01*
X1696Y581D01*
X1698Y581D01*
X1698Y579D01*
X1700Y579D01*
X1700Y577D01*
X1702Y577D01*
X1702Y575D01*
X1704Y575D01*
X1704Y573D01*
X1706Y573D01*
X1706Y571D01*
X1708Y571D01*
X1708Y569D01*
X1710Y569D01*
X1710Y567D01*
X1712Y567D01*
X1712Y565D01*
X1714Y565D01*
X1714Y563D01*
X1716Y563D01*
X1716Y561D01*
X1718Y561D01*
X1718Y559D01*
X1720Y559D01*
X1720Y557D01*
X1722Y557D01*
X1722Y555D01*
X1724Y555D01*
X1724Y553D01*
X1726Y553D01*
X1726Y551D01*
X1728Y551D01*
X1728Y549D01*
X1730Y549D01*
X1730Y547D01*
X1732Y547D01*
X1732Y545D01*
X1734Y545D01*
X1734Y543D01*
X1736Y543D01*
X1736Y541D01*
X1738Y541D01*
X1738Y539D01*
X1740Y539D01*
X1740Y537D01*
X1742Y537D01*
X1742Y535D01*
X1744Y535D01*
X1744Y533D01*
X1746Y533D01*
X1746Y531D01*
X1748Y531D01*
X1748Y529D01*
X1750Y529D01*
X1750Y527D01*
X1752Y527D01*
X1752Y525D01*
X1754Y525D01*
X1754Y523D01*
X1756Y523D01*
X1756Y521D01*
X1758Y521D01*
X1758Y519D01*
X1760Y519D01*
X1760Y517D01*
X1762Y517D01*
X1762Y515D01*
X1764Y515D01*
X1764Y513D01*
X1766Y513D01*
X1766Y511D01*
X1768Y511D01*
X1768Y509D01*
X1770Y509D01*
X1770Y507D01*
X2860Y507D01*
X2860Y407D01*
X2986Y407D01*
X2986Y605D01*
X1674Y605D01*
G37*
D02*
G36*
X1772Y507D02*
X1772Y505D01*
X1774Y505D01*
X1774Y503D01*
X1776Y503D01*
X1776Y501D01*
X1778Y501D01*
X1778Y499D01*
X1780Y499D01*
X1780Y497D01*
X1782Y497D01*
X1782Y495D01*
X1784Y495D01*
X1784Y493D01*
X1786Y493D01*
X1786Y491D01*
X1788Y491D01*
X1788Y489D01*
X1790Y489D01*
X1790Y487D01*
X1792Y487D01*
X1792Y485D01*
X1794Y485D01*
X1794Y483D01*
X1970Y483D01*
X1970Y481D01*
X2494Y481D01*
X2494Y479D01*
X2760Y479D01*
X2760Y507D01*
X1772Y507D01*
G37*
D02*
G36*
X40Y407D02*
X40Y405D01*
X2986Y405D01*
X2986Y407D01*
X40Y407D01*
G37*
D02*
G36*
X40Y407D02*
X40Y405D01*
X2986Y405D01*
X2986Y407D01*
X40Y407D01*
G37*
D02*
G36*
X40Y405D02*
X40Y207D01*
X2318Y207D01*
X2318Y205D01*
X2326Y205D01*
X2326Y203D01*
X2330Y203D01*
X2330Y201D01*
X2332Y201D01*
X2332Y199D01*
X2336Y199D01*
X2336Y197D01*
X2338Y197D01*
X2338Y195D01*
X2342Y195D01*
X2342Y193D01*
X2344Y193D01*
X2344Y191D01*
X2346Y191D01*
X2346Y189D01*
X2348Y189D01*
X2348Y187D01*
X2350Y187D01*
X2350Y183D01*
X2352Y183D01*
X2352Y181D01*
X2354Y181D01*
X2354Y177D01*
X2356Y177D01*
X2356Y173D01*
X2358Y173D01*
X2358Y167D01*
X2360Y167D01*
X2360Y147D01*
X2358Y147D01*
X2358Y141D01*
X2356Y141D01*
X2356Y137D01*
X2354Y137D01*
X2354Y133D01*
X2352Y133D01*
X2352Y129D01*
X2350Y129D01*
X2350Y127D01*
X2348Y127D01*
X2348Y125D01*
X2346Y125D01*
X2346Y123D01*
X2344Y123D01*
X2344Y121D01*
X2342Y121D01*
X2342Y119D01*
X2340Y119D01*
X2340Y117D01*
X2336Y117D01*
X2336Y115D01*
X2334Y115D01*
X2334Y113D01*
X2330Y113D01*
X2330Y111D01*
X2326Y111D01*
X2326Y109D01*
X2320Y109D01*
X2320Y107D01*
X2986Y107D01*
X2986Y405D01*
X40Y405D01*
G37*
D02*
G36*
X40Y207D02*
X40Y107D01*
X160Y107D01*
X160Y207D01*
X40Y207D01*
G37*
D02*
G36*
X260Y207D02*
X260Y107D01*
X400Y107D01*
X400Y109D01*
X394Y109D01*
X394Y111D01*
X390Y111D01*
X390Y113D01*
X388Y113D01*
X388Y115D01*
X384Y115D01*
X384Y117D01*
X382Y117D01*
X382Y119D01*
X380Y119D01*
X380Y121D01*
X376Y121D01*
X376Y123D01*
X374Y123D01*
X374Y127D01*
X372Y127D01*
X372Y129D01*
X370Y129D01*
X370Y131D01*
X368Y131D01*
X368Y135D01*
X366Y135D01*
X366Y139D01*
X364Y139D01*
X364Y143D01*
X362Y143D01*
X362Y151D01*
X360Y151D01*
X360Y163D01*
X362Y163D01*
X362Y171D01*
X364Y171D01*
X364Y175D01*
X366Y175D01*
X366Y179D01*
X368Y179D01*
X368Y183D01*
X370Y183D01*
X370Y185D01*
X372Y185D01*
X372Y187D01*
X374Y187D01*
X374Y189D01*
X376Y189D01*
X376Y191D01*
X378Y191D01*
X378Y193D01*
X380Y193D01*
X380Y195D01*
X382Y195D01*
X382Y197D01*
X384Y197D01*
X384Y199D01*
X388Y199D01*
X388Y201D01*
X392Y201D01*
X392Y203D01*
X396Y203D01*
X396Y205D01*
X402Y205D01*
X402Y207D01*
X260Y207D01*
G37*
D02*
G36*
X418Y207D02*
X418Y205D01*
X426Y205D01*
X426Y203D01*
X430Y203D01*
X430Y201D01*
X432Y201D01*
X432Y199D01*
X436Y199D01*
X436Y197D01*
X438Y197D01*
X438Y195D01*
X442Y195D01*
X442Y193D01*
X444Y193D01*
X444Y191D01*
X446Y191D01*
X446Y189D01*
X448Y189D01*
X448Y187D01*
X450Y187D01*
X450Y183D01*
X452Y183D01*
X452Y181D01*
X454Y181D01*
X454Y177D01*
X456Y177D01*
X456Y173D01*
X458Y173D01*
X458Y167D01*
X460Y167D01*
X460Y147D01*
X458Y147D01*
X458Y141D01*
X456Y141D01*
X456Y137D01*
X454Y137D01*
X454Y133D01*
X452Y133D01*
X452Y129D01*
X450Y129D01*
X450Y127D01*
X448Y127D01*
X448Y125D01*
X446Y125D01*
X446Y123D01*
X444Y123D01*
X444Y121D01*
X442Y121D01*
X442Y119D01*
X440Y119D01*
X440Y117D01*
X436Y117D01*
X436Y115D01*
X434Y115D01*
X434Y113D01*
X430Y113D01*
X430Y111D01*
X426Y111D01*
X426Y109D01*
X420Y109D01*
X420Y107D01*
X660Y107D01*
X660Y207D01*
X418Y207D01*
G37*
D02*
G36*
X760Y207D02*
X760Y107D01*
X900Y107D01*
X900Y109D01*
X894Y109D01*
X894Y111D01*
X890Y111D01*
X890Y113D01*
X888Y113D01*
X888Y115D01*
X884Y115D01*
X884Y117D01*
X882Y117D01*
X882Y119D01*
X880Y119D01*
X880Y121D01*
X876Y121D01*
X876Y123D01*
X874Y123D01*
X874Y127D01*
X872Y127D01*
X872Y129D01*
X870Y129D01*
X870Y131D01*
X868Y131D01*
X868Y135D01*
X866Y135D01*
X866Y139D01*
X864Y139D01*
X864Y143D01*
X862Y143D01*
X862Y151D01*
X860Y151D01*
X860Y163D01*
X862Y163D01*
X862Y171D01*
X864Y171D01*
X864Y175D01*
X866Y175D01*
X866Y179D01*
X868Y179D01*
X868Y183D01*
X870Y183D01*
X870Y185D01*
X872Y185D01*
X872Y187D01*
X874Y187D01*
X874Y189D01*
X876Y189D01*
X876Y191D01*
X878Y191D01*
X878Y193D01*
X880Y193D01*
X880Y195D01*
X882Y195D01*
X882Y197D01*
X884Y197D01*
X884Y199D01*
X888Y199D01*
X888Y201D01*
X892Y201D01*
X892Y203D01*
X896Y203D01*
X896Y205D01*
X902Y205D01*
X902Y207D01*
X760Y207D01*
G37*
D02*
G36*
X918Y207D02*
X918Y205D01*
X926Y205D01*
X926Y203D01*
X930Y203D01*
X930Y201D01*
X932Y201D01*
X932Y199D01*
X936Y199D01*
X936Y197D01*
X938Y197D01*
X938Y195D01*
X942Y195D01*
X942Y193D01*
X944Y193D01*
X944Y191D01*
X946Y191D01*
X946Y189D01*
X948Y189D01*
X948Y187D01*
X950Y187D01*
X950Y183D01*
X952Y183D01*
X952Y181D01*
X954Y181D01*
X954Y177D01*
X956Y177D01*
X956Y173D01*
X958Y173D01*
X958Y167D01*
X960Y167D01*
X960Y147D01*
X958Y147D01*
X958Y141D01*
X956Y141D01*
X956Y137D01*
X954Y137D01*
X954Y133D01*
X952Y133D01*
X952Y129D01*
X950Y129D01*
X950Y127D01*
X948Y127D01*
X948Y125D01*
X946Y125D01*
X946Y123D01*
X944Y123D01*
X944Y121D01*
X942Y121D01*
X942Y119D01*
X940Y119D01*
X940Y117D01*
X936Y117D01*
X936Y115D01*
X934Y115D01*
X934Y113D01*
X930Y113D01*
X930Y111D01*
X926Y111D01*
X926Y109D01*
X920Y109D01*
X920Y107D01*
X1360Y107D01*
X1360Y207D01*
X918Y207D01*
G37*
D02*
G36*
X1460Y207D02*
X1460Y107D01*
X1600Y107D01*
X1600Y109D01*
X1594Y109D01*
X1594Y111D01*
X1590Y111D01*
X1590Y113D01*
X1588Y113D01*
X1588Y115D01*
X1584Y115D01*
X1584Y117D01*
X1582Y117D01*
X1582Y119D01*
X1580Y119D01*
X1580Y121D01*
X1576Y121D01*
X1576Y123D01*
X1574Y123D01*
X1574Y127D01*
X1572Y127D01*
X1572Y129D01*
X1570Y129D01*
X1570Y131D01*
X1568Y131D01*
X1568Y135D01*
X1566Y135D01*
X1566Y139D01*
X1564Y139D01*
X1564Y143D01*
X1562Y143D01*
X1562Y151D01*
X1560Y151D01*
X1560Y163D01*
X1562Y163D01*
X1562Y171D01*
X1564Y171D01*
X1564Y175D01*
X1566Y175D01*
X1566Y179D01*
X1568Y179D01*
X1568Y183D01*
X1570Y183D01*
X1570Y185D01*
X1572Y185D01*
X1572Y187D01*
X1574Y187D01*
X1574Y189D01*
X1576Y189D01*
X1576Y191D01*
X1578Y191D01*
X1578Y193D01*
X1580Y193D01*
X1580Y195D01*
X1582Y195D01*
X1582Y197D01*
X1584Y197D01*
X1584Y199D01*
X1588Y199D01*
X1588Y201D01*
X1592Y201D01*
X1592Y203D01*
X1596Y203D01*
X1596Y205D01*
X1602Y205D01*
X1602Y207D01*
X1460Y207D01*
G37*
D02*
G36*
X1618Y207D02*
X1618Y205D01*
X1626Y205D01*
X1626Y203D01*
X1630Y203D01*
X1630Y201D01*
X1632Y201D01*
X1632Y199D01*
X1636Y199D01*
X1636Y197D01*
X1638Y197D01*
X1638Y195D01*
X1642Y195D01*
X1642Y193D01*
X1644Y193D01*
X1644Y191D01*
X1646Y191D01*
X1646Y189D01*
X1648Y189D01*
X1648Y187D01*
X1650Y187D01*
X1650Y183D01*
X1652Y183D01*
X1652Y181D01*
X1654Y181D01*
X1654Y177D01*
X1656Y177D01*
X1656Y173D01*
X1658Y173D01*
X1658Y167D01*
X1660Y167D01*
X1660Y147D01*
X1658Y147D01*
X1658Y141D01*
X1656Y141D01*
X1656Y137D01*
X1654Y137D01*
X1654Y133D01*
X1652Y133D01*
X1652Y129D01*
X1650Y129D01*
X1650Y127D01*
X1648Y127D01*
X1648Y125D01*
X1646Y125D01*
X1646Y123D01*
X1644Y123D01*
X1644Y121D01*
X1642Y121D01*
X1642Y119D01*
X1640Y119D01*
X1640Y117D01*
X1636Y117D01*
X1636Y115D01*
X1634Y115D01*
X1634Y113D01*
X1630Y113D01*
X1630Y111D01*
X1626Y111D01*
X1626Y109D01*
X1620Y109D01*
X1620Y107D01*
X1860Y107D01*
X1860Y207D01*
X1618Y207D01*
G37*
D02*
G36*
X1960Y207D02*
X1960Y107D01*
X2100Y107D01*
X2100Y109D01*
X2094Y109D01*
X2094Y111D01*
X2090Y111D01*
X2090Y113D01*
X2088Y113D01*
X2088Y115D01*
X2084Y115D01*
X2084Y117D01*
X2082Y117D01*
X2082Y119D01*
X2080Y119D01*
X2080Y121D01*
X2076Y121D01*
X2076Y123D01*
X2074Y123D01*
X2074Y127D01*
X2072Y127D01*
X2072Y129D01*
X2070Y129D01*
X2070Y131D01*
X2068Y131D01*
X2068Y135D01*
X2066Y135D01*
X2066Y139D01*
X2064Y139D01*
X2064Y143D01*
X2062Y143D01*
X2062Y151D01*
X2060Y151D01*
X2060Y163D01*
X2062Y163D01*
X2062Y171D01*
X2064Y171D01*
X2064Y175D01*
X2066Y175D01*
X2066Y179D01*
X2068Y179D01*
X2068Y183D01*
X2070Y183D01*
X2070Y185D01*
X2072Y185D01*
X2072Y187D01*
X2074Y187D01*
X2074Y189D01*
X2076Y189D01*
X2076Y191D01*
X2078Y191D01*
X2078Y193D01*
X2080Y193D01*
X2080Y195D01*
X2082Y195D01*
X2082Y197D01*
X2084Y197D01*
X2084Y199D01*
X2088Y199D01*
X2088Y201D01*
X2092Y201D01*
X2092Y203D01*
X2096Y203D01*
X2096Y205D01*
X2102Y205D01*
X2102Y207D01*
X1960Y207D01*
G37*
D02*
G36*
X2118Y207D02*
X2118Y205D01*
X2126Y205D01*
X2126Y203D01*
X2130Y203D01*
X2130Y201D01*
X2132Y201D01*
X2132Y199D01*
X2136Y199D01*
X2136Y197D01*
X2138Y197D01*
X2138Y195D01*
X2142Y195D01*
X2142Y193D01*
X2144Y193D01*
X2144Y191D01*
X2146Y191D01*
X2146Y189D01*
X2148Y189D01*
X2148Y187D01*
X2150Y187D01*
X2150Y183D01*
X2152Y183D01*
X2152Y181D01*
X2154Y181D01*
X2154Y177D01*
X2156Y177D01*
X2156Y173D01*
X2158Y173D01*
X2158Y167D01*
X2160Y167D01*
X2160Y147D01*
X2158Y147D01*
X2158Y141D01*
X2156Y141D01*
X2156Y137D01*
X2154Y137D01*
X2154Y133D01*
X2152Y133D01*
X2152Y129D01*
X2150Y129D01*
X2150Y127D01*
X2148Y127D01*
X2148Y125D01*
X2146Y125D01*
X2146Y123D01*
X2144Y123D01*
X2144Y121D01*
X2142Y121D01*
X2142Y119D01*
X2140Y119D01*
X2140Y117D01*
X2136Y117D01*
X2136Y115D01*
X2134Y115D01*
X2134Y113D01*
X2130Y113D01*
X2130Y111D01*
X2126Y111D01*
X2126Y109D01*
X2120Y109D01*
X2120Y107D01*
X2300Y107D01*
X2300Y109D01*
X2294Y109D01*
X2294Y111D01*
X2290Y111D01*
X2290Y113D01*
X2288Y113D01*
X2288Y115D01*
X2284Y115D01*
X2284Y117D01*
X2282Y117D01*
X2282Y119D01*
X2280Y119D01*
X2280Y121D01*
X2276Y121D01*
X2276Y123D01*
X2274Y123D01*
X2274Y127D01*
X2272Y127D01*
X2272Y129D01*
X2270Y129D01*
X2270Y131D01*
X2268Y131D01*
X2268Y135D01*
X2266Y135D01*
X2266Y139D01*
X2264Y139D01*
X2264Y143D01*
X2262Y143D01*
X2262Y151D01*
X2260Y151D01*
X2260Y163D01*
X2262Y163D01*
X2262Y171D01*
X2264Y171D01*
X2264Y175D01*
X2266Y175D01*
X2266Y179D01*
X2268Y179D01*
X2268Y183D01*
X2270Y183D01*
X2270Y185D01*
X2272Y185D01*
X2272Y187D01*
X2274Y187D01*
X2274Y189D01*
X2276Y189D01*
X2276Y191D01*
X2278Y191D01*
X2278Y193D01*
X2280Y193D01*
X2280Y195D01*
X2282Y195D01*
X2282Y197D01*
X2284Y197D01*
X2284Y199D01*
X2288Y199D01*
X2288Y201D01*
X2292Y201D01*
X2292Y203D01*
X2296Y203D01*
X2296Y205D01*
X2302Y205D01*
X2302Y207D01*
X2118Y207D01*
G37*
D02*
G36*
X40Y107D02*
X40Y105D01*
X2986Y105D01*
X2986Y107D01*
X40Y107D01*
G37*
D02*
G36*
X40Y107D02*
X40Y105D01*
X2986Y105D01*
X2986Y107D01*
X40Y107D01*
G37*
D02*
G36*
X40Y107D02*
X40Y105D01*
X2986Y105D01*
X2986Y107D01*
X40Y107D01*
G37*
D02*
G36*
X40Y107D02*
X40Y105D01*
X2986Y105D01*
X2986Y107D01*
X40Y107D01*
G37*
D02*
G36*
X40Y107D02*
X40Y105D01*
X2986Y105D01*
X2986Y107D01*
X40Y107D01*
G37*
D02*
G36*
X40Y107D02*
X40Y105D01*
X2986Y105D01*
X2986Y107D01*
X40Y107D01*
G37*
D02*
G36*
X40Y107D02*
X40Y105D01*
X2986Y105D01*
X2986Y107D01*
X40Y107D01*
G37*
D02*
G36*
X40Y107D02*
X40Y105D01*
X2986Y105D01*
X2986Y107D01*
X40Y107D01*
G37*
D02*
G36*
X40Y107D02*
X40Y105D01*
X2986Y105D01*
X2986Y107D01*
X40Y107D01*
G37*
D02*
G36*
X40Y107D02*
X40Y105D01*
X2986Y105D01*
X2986Y107D01*
X40Y107D01*
G37*
D02*
G36*
X40Y105D02*
X40Y41D01*
X2986Y41D01*
X2986Y105D01*
X40Y105D01*
G37*
D02*
G36*
X1456Y1889D02*
X1456Y1869D01*
X1458Y1869D01*
X1458Y1863D01*
X1460Y1863D01*
X1460Y1851D01*
X1458Y1851D01*
X1458Y1843D01*
X1456Y1843D01*
X1456Y1839D01*
X1454Y1839D01*
X1454Y1835D01*
X1452Y1835D01*
X1452Y1831D01*
X1450Y1831D01*
X1450Y1829D01*
X1448Y1829D01*
X1448Y1827D01*
X1446Y1827D01*
X1446Y1825D01*
X1444Y1825D01*
X1444Y1823D01*
X1442Y1823D01*
X1442Y1821D01*
X1440Y1821D01*
X1440Y1819D01*
X1438Y1819D01*
X1438Y1817D01*
X1436Y1817D01*
X1436Y1805D01*
X1522Y1805D01*
X1522Y1803D01*
X1528Y1803D01*
X1528Y1801D01*
X1530Y1801D01*
X1530Y1799D01*
X1534Y1799D01*
X1534Y1797D01*
X1538Y1797D01*
X1538Y1795D01*
X1540Y1795D01*
X1540Y1793D01*
X1542Y1793D01*
X1542Y1791D01*
X1544Y1791D01*
X1544Y1789D01*
X1546Y1789D01*
X1546Y1787D01*
X1548Y1787D01*
X1548Y1785D01*
X1550Y1785D01*
X1550Y1781D01*
X1570Y1781D01*
X1570Y1783D01*
X1572Y1783D01*
X1572Y1785D01*
X1574Y1785D01*
X1574Y1789D01*
X1576Y1789D01*
X1576Y1791D01*
X1578Y1791D01*
X1578Y1793D01*
X1582Y1793D01*
X1582Y1795D01*
X1584Y1795D01*
X1584Y1797D01*
X1586Y1797D01*
X1586Y1817D01*
X1582Y1817D01*
X1582Y1819D01*
X1580Y1819D01*
X1580Y1821D01*
X1578Y1821D01*
X1578Y1823D01*
X1576Y1823D01*
X1576Y1825D01*
X1574Y1825D01*
X1574Y1827D01*
X1572Y1827D01*
X1572Y1831D01*
X1570Y1831D01*
X1570Y1833D01*
X1568Y1833D01*
X1568Y1837D01*
X1566Y1837D01*
X1566Y1841D01*
X1564Y1841D01*
X1564Y1847D01*
X1562Y1847D01*
X1562Y1867D01*
X1564Y1867D01*
X1564Y1889D01*
X1456Y1889D01*
G37*
D02*
G36*
X1436Y1805D02*
X1436Y1797D01*
X1438Y1797D01*
X1438Y1795D01*
X1440Y1795D01*
X1440Y1793D01*
X1442Y1793D01*
X1442Y1791D01*
X1444Y1791D01*
X1444Y1789D01*
X1446Y1789D01*
X1446Y1787D01*
X1448Y1787D01*
X1448Y1785D01*
X1450Y1785D01*
X1450Y1781D01*
X1470Y1781D01*
X1470Y1783D01*
X1472Y1783D01*
X1472Y1785D01*
X1474Y1785D01*
X1474Y1789D01*
X1476Y1789D01*
X1476Y1791D01*
X1478Y1791D01*
X1478Y1793D01*
X1482Y1793D01*
X1482Y1795D01*
X1484Y1795D01*
X1484Y1797D01*
X1486Y1797D01*
X1486Y1799D01*
X1490Y1799D01*
X1490Y1801D01*
X1494Y1801D01*
X1494Y1803D01*
X1500Y1803D01*
X1500Y1805D01*
X1436Y1805D01*
G37*
D02*
G36*
X1350Y1831D02*
X1350Y1829D01*
X1348Y1829D01*
X1348Y1827D01*
X1346Y1827D01*
X1346Y1825D01*
X1344Y1825D01*
X1344Y1823D01*
X1342Y1823D01*
X1342Y1821D01*
X1340Y1821D01*
X1340Y1819D01*
X1338Y1819D01*
X1338Y1817D01*
X1336Y1817D01*
X1336Y1797D01*
X1338Y1797D01*
X1338Y1795D01*
X1340Y1795D01*
X1340Y1793D01*
X1342Y1793D01*
X1342Y1791D01*
X1344Y1791D01*
X1344Y1789D01*
X1346Y1789D01*
X1346Y1787D01*
X1348Y1787D01*
X1348Y1785D01*
X1350Y1785D01*
X1350Y1781D01*
X1370Y1781D01*
X1370Y1783D01*
X1372Y1783D01*
X1372Y1785D01*
X1374Y1785D01*
X1374Y1789D01*
X1376Y1789D01*
X1376Y1791D01*
X1378Y1791D01*
X1378Y1793D01*
X1382Y1793D01*
X1382Y1795D01*
X1384Y1795D01*
X1384Y1797D01*
X1386Y1797D01*
X1386Y1817D01*
X1382Y1817D01*
X1382Y1819D01*
X1380Y1819D01*
X1380Y1821D01*
X1378Y1821D01*
X1378Y1823D01*
X1376Y1823D01*
X1376Y1825D01*
X1374Y1825D01*
X1374Y1827D01*
X1372Y1827D01*
X1372Y1831D01*
X1350Y1831D01*
G37*
D02*
G36*
X1650Y1831D02*
X1650Y1829D01*
X1648Y1829D01*
X1648Y1827D01*
X1646Y1827D01*
X1646Y1825D01*
X1644Y1825D01*
X1644Y1823D01*
X1642Y1823D01*
X1642Y1821D01*
X1640Y1821D01*
X1640Y1819D01*
X1638Y1819D01*
X1638Y1817D01*
X1636Y1817D01*
X1636Y1797D01*
X1638Y1797D01*
X1638Y1795D01*
X1640Y1795D01*
X1640Y1793D01*
X1642Y1793D01*
X1642Y1791D01*
X1644Y1791D01*
X1644Y1789D01*
X1646Y1789D01*
X1646Y1787D01*
X1648Y1787D01*
X1648Y1785D01*
X1650Y1785D01*
X1650Y1781D01*
X1670Y1781D01*
X1670Y1783D01*
X1672Y1783D01*
X1672Y1785D01*
X1674Y1785D01*
X1674Y1789D01*
X1676Y1789D01*
X1676Y1791D01*
X1678Y1791D01*
X1678Y1793D01*
X1682Y1793D01*
X1682Y1795D01*
X1684Y1795D01*
X1684Y1797D01*
X1686Y1797D01*
X1686Y1817D01*
X1682Y1817D01*
X1682Y1819D01*
X1680Y1819D01*
X1680Y1821D01*
X1678Y1821D01*
X1678Y1823D01*
X1676Y1823D01*
X1676Y1825D01*
X1674Y1825D01*
X1674Y1827D01*
X1672Y1827D01*
X1672Y1831D01*
X1650Y1831D01*
G37*
D02*
G36*
X1350Y1731D02*
X1350Y1729D01*
X1348Y1729D01*
X1348Y1727D01*
X1346Y1727D01*
X1346Y1725D01*
X1344Y1725D01*
X1344Y1723D01*
X1342Y1723D01*
X1342Y1721D01*
X1340Y1721D01*
X1340Y1719D01*
X1338Y1719D01*
X1338Y1717D01*
X1336Y1717D01*
X1336Y1697D01*
X1338Y1697D01*
X1338Y1695D01*
X1340Y1695D01*
X1340Y1693D01*
X1342Y1693D01*
X1342Y1691D01*
X1344Y1691D01*
X1344Y1689D01*
X1346Y1689D01*
X1346Y1687D01*
X1348Y1687D01*
X1348Y1685D01*
X1350Y1685D01*
X1350Y1681D01*
X1370Y1681D01*
X1370Y1683D01*
X1372Y1683D01*
X1372Y1685D01*
X1374Y1685D01*
X1374Y1689D01*
X1376Y1689D01*
X1376Y1691D01*
X1378Y1691D01*
X1378Y1693D01*
X1382Y1693D01*
X1382Y1695D01*
X1384Y1695D01*
X1384Y1697D01*
X1386Y1697D01*
X1386Y1717D01*
X1382Y1717D01*
X1382Y1719D01*
X1380Y1719D01*
X1380Y1721D01*
X1378Y1721D01*
X1378Y1723D01*
X1376Y1723D01*
X1376Y1725D01*
X1374Y1725D01*
X1374Y1727D01*
X1372Y1727D01*
X1372Y1731D01*
X1350Y1731D01*
G37*
D02*
G36*
X1450Y1731D02*
X1450Y1729D01*
X1448Y1729D01*
X1448Y1727D01*
X1446Y1727D01*
X1446Y1725D01*
X1444Y1725D01*
X1444Y1723D01*
X1442Y1723D01*
X1442Y1721D01*
X1440Y1721D01*
X1440Y1719D01*
X1438Y1719D01*
X1438Y1717D01*
X1436Y1717D01*
X1436Y1697D01*
X1438Y1697D01*
X1438Y1695D01*
X1440Y1695D01*
X1440Y1693D01*
X1442Y1693D01*
X1442Y1691D01*
X1444Y1691D01*
X1444Y1689D01*
X1446Y1689D01*
X1446Y1687D01*
X1448Y1687D01*
X1448Y1685D01*
X1450Y1685D01*
X1450Y1681D01*
X1470Y1681D01*
X1470Y1683D01*
X1472Y1683D01*
X1472Y1685D01*
X1474Y1685D01*
X1474Y1689D01*
X1476Y1689D01*
X1476Y1691D01*
X1478Y1691D01*
X1478Y1693D01*
X1482Y1693D01*
X1482Y1695D01*
X1484Y1695D01*
X1484Y1697D01*
X1486Y1697D01*
X1486Y1717D01*
X1482Y1717D01*
X1482Y1719D01*
X1480Y1719D01*
X1480Y1721D01*
X1478Y1721D01*
X1478Y1723D01*
X1476Y1723D01*
X1476Y1725D01*
X1474Y1725D01*
X1474Y1727D01*
X1472Y1727D01*
X1472Y1731D01*
X1450Y1731D01*
G37*
D02*
G36*
X1550Y1731D02*
X1550Y1729D01*
X1548Y1729D01*
X1548Y1727D01*
X1546Y1727D01*
X1546Y1725D01*
X1544Y1725D01*
X1544Y1723D01*
X1542Y1723D01*
X1542Y1721D01*
X1540Y1721D01*
X1540Y1719D01*
X1538Y1719D01*
X1538Y1717D01*
X1536Y1717D01*
X1536Y1697D01*
X1538Y1697D01*
X1538Y1695D01*
X1540Y1695D01*
X1540Y1693D01*
X1542Y1693D01*
X1542Y1691D01*
X1544Y1691D01*
X1544Y1689D01*
X1546Y1689D01*
X1546Y1687D01*
X1548Y1687D01*
X1548Y1685D01*
X1550Y1685D01*
X1550Y1681D01*
X1570Y1681D01*
X1570Y1683D01*
X1572Y1683D01*
X1572Y1685D01*
X1574Y1685D01*
X1574Y1689D01*
X1576Y1689D01*
X1576Y1691D01*
X1578Y1691D01*
X1578Y1693D01*
X1582Y1693D01*
X1582Y1695D01*
X1584Y1695D01*
X1584Y1697D01*
X1586Y1697D01*
X1586Y1717D01*
X1582Y1717D01*
X1582Y1719D01*
X1580Y1719D01*
X1580Y1721D01*
X1578Y1721D01*
X1578Y1723D01*
X1576Y1723D01*
X1576Y1725D01*
X1574Y1725D01*
X1574Y1727D01*
X1572Y1727D01*
X1572Y1731D01*
X1550Y1731D01*
G37*
D02*
G36*
X1650Y1731D02*
X1650Y1729D01*
X1648Y1729D01*
X1648Y1727D01*
X1646Y1727D01*
X1646Y1725D01*
X1644Y1725D01*
X1644Y1723D01*
X1642Y1723D01*
X1642Y1721D01*
X1640Y1721D01*
X1640Y1719D01*
X1638Y1719D01*
X1638Y1717D01*
X1636Y1717D01*
X1636Y1697D01*
X1638Y1697D01*
X1638Y1695D01*
X1640Y1695D01*
X1640Y1693D01*
X1642Y1693D01*
X1642Y1691D01*
X1644Y1691D01*
X1644Y1689D01*
X1646Y1689D01*
X1646Y1687D01*
X1648Y1687D01*
X1648Y1685D01*
X1650Y1685D01*
X1650Y1681D01*
X1670Y1681D01*
X1670Y1683D01*
X1672Y1683D01*
X1672Y1685D01*
X1674Y1685D01*
X1674Y1689D01*
X1676Y1689D01*
X1676Y1691D01*
X1678Y1691D01*
X1678Y1693D01*
X1682Y1693D01*
X1682Y1695D01*
X1684Y1695D01*
X1684Y1697D01*
X1686Y1697D01*
X1686Y1717D01*
X1682Y1717D01*
X1682Y1719D01*
X1680Y1719D01*
X1680Y1721D01*
X1678Y1721D01*
X1678Y1723D01*
X1676Y1723D01*
X1676Y1725D01*
X1674Y1725D01*
X1674Y1727D01*
X1672Y1727D01*
X1672Y1731D01*
X1650Y1731D01*
G37*
D02*
G36*
X1484Y1211D02*
X1531Y1211D01*
X1531Y1181D01*
X1484Y1181D01*
X1484Y1211D01*
G37*
D02*
G36*
X1484Y1139D02*
X1531Y1139D01*
X1531Y1105D01*
X1484Y1105D01*
X1484Y1139D01*
G37*
D02*
G36*
X1485Y1639D02*
X1530Y1639D01*
X1530Y1607D01*
X1485Y1607D01*
X1485Y1639D01*
G37*
D02*
G36*
X1388Y703D02*
X1427Y703D01*
X1427Y673D01*
X1388Y673D01*
X1388Y703D01*
G37*
D02*
G36*
X1388Y647D02*
X1427Y647D01*
X1427Y615D01*
X1388Y615D01*
X1388Y647D01*
G37*
D02*
G36*
X1420Y679D02*
X1452Y679D01*
X1452Y640D01*
X1420Y640D01*
X1420Y679D01*
G37*
D02*
G36*
X2386Y1109D02*
X2429Y1109D01*
X2429Y1077D01*
X2386Y1077D01*
X2386Y1109D01*
G37*
D02*
G36*
X2386Y1043D02*
X2429Y1043D01*
X2429Y1009D01*
X2386Y1009D01*
X2386Y1043D01*
G37*
D02*
G36*
X2358Y1081D02*
X2390Y1081D01*
X2390Y1038D01*
X2358Y1038D01*
X2358Y1081D01*
G37*
D02*
G36*
X1385Y1639D02*
X1430Y1639D01*
X1430Y1607D01*
X1385Y1607D01*
X1385Y1639D01*
G37*
D02*
G36*
X1585Y1639D02*
X1630Y1639D01*
X1630Y1607D01*
X1585Y1607D01*
X1585Y1639D01*
G37*
D02*
G36*
X985Y809D02*
X1030Y809D01*
X1030Y779D01*
X985Y779D01*
X985Y809D01*
G37*
D02*
G36*
X985Y741D02*
X1030Y741D01*
X1030Y707D01*
X985Y707D01*
X985Y741D01*
G37*
D02*
G36*
X1585Y211D02*
X1630Y211D01*
X1630Y179D01*
X1585Y179D01*
X1585Y211D01*
G37*
D02*
G36*
X1585Y141D02*
X1630Y141D01*
X1630Y107D01*
X1585Y107D01*
X1585Y141D01*
G37*
D02*
G36*
X1556Y182D02*
X1588Y182D01*
X1588Y137D01*
X1556Y137D01*
X1556Y182D01*
G37*
D02*
G36*
X1626Y182D02*
X1660Y182D01*
X1660Y137D01*
X1626Y137D01*
X1626Y182D01*
G37*
D02*
G36*
X1285Y1639D02*
X1330Y1639D01*
X1330Y1607D01*
X1285Y1607D01*
X1285Y1639D01*
G37*
D02*
G36*
X1258Y1680D02*
X1288Y1680D01*
X1288Y1635D01*
X1258Y1635D01*
X1258Y1680D01*
G37*
D02*
G36*
X1685Y1639D02*
X1730Y1639D01*
X1730Y1607D01*
X1685Y1607D01*
X1685Y1639D01*
G37*
D02*
G36*
X1726Y1680D02*
X1760Y1680D01*
X1760Y1635D01*
X1726Y1635D01*
X1726Y1680D01*
G37*
D02*
G36*
X387Y809D02*
X432Y809D01*
X432Y779D01*
X387Y779D01*
X387Y809D01*
G37*
D02*
G36*
X387Y741D02*
X432Y741D01*
X432Y707D01*
X387Y707D01*
X387Y741D01*
G37*
D02*
G36*
X358Y782D02*
X390Y782D01*
X390Y737D01*
X358Y737D01*
X358Y782D01*
G37*
D02*
G36*
X2085Y211D02*
X2130Y211D01*
X2130Y179D01*
X2085Y179D01*
X2085Y211D01*
G37*
D02*
G36*
X2085Y141D02*
X2130Y141D01*
X2130Y107D01*
X2085Y107D01*
X2085Y141D01*
G37*
D02*
G36*
X2056Y182D02*
X2088Y182D01*
X2088Y137D01*
X2056Y137D01*
X2056Y182D01*
G37*
D02*
G36*
X2126Y182D02*
X2160Y182D01*
X2160Y137D01*
X2126Y137D01*
X2126Y182D01*
G37*
D02*
G36*
X2785Y1111D02*
X2830Y1111D01*
X2830Y1079D01*
X2785Y1079D01*
X2785Y1111D01*
G37*
D02*
G36*
X2785Y1041D02*
X2830Y1041D01*
X2830Y1007D01*
X2785Y1007D01*
X2785Y1041D01*
G37*
D02*
G36*
X2756Y1082D02*
X2788Y1082D01*
X2788Y1037D01*
X2756Y1037D01*
X2756Y1082D01*
G37*
D02*
G36*
X2826Y1082D02*
X2860Y1082D01*
X2860Y1037D01*
X2826Y1037D01*
X2826Y1082D01*
G37*
D02*
G36*
X87Y1905D02*
X132Y1905D01*
X132Y1877D01*
X87Y1877D01*
X87Y1905D01*
G37*
D02*
G36*
X87Y1839D02*
X132Y1839D01*
X132Y1807D01*
X87Y1807D01*
X87Y1839D01*
G37*
D02*
G36*
X58Y1880D02*
X90Y1880D01*
X90Y1835D01*
X58Y1835D01*
X58Y1880D01*
G37*
D02*
G54D19*
X1378Y689D02*
X1442Y689D01*
X1378Y688D02*
X1442Y688D01*
X1378Y687D02*
X1442Y687D01*
X1378Y686D02*
X1442Y686D01*
X1378Y685D02*
X1442Y685D01*
X1378Y684D02*
X1442Y684D01*
X1378Y683D02*
X1442Y683D01*
X1378Y682D02*
X1442Y682D01*
X1378Y681D02*
X1442Y681D01*
X1378Y680D02*
X1442Y680D01*
X1378Y679D02*
X1442Y679D01*
X1378Y678D02*
X1442Y678D01*
X1378Y677D02*
X1442Y677D01*
X1378Y676D02*
X1442Y676D01*
X1378Y675D02*
X1442Y675D01*
X1378Y674D02*
X1442Y674D01*
X1378Y673D02*
X1442Y673D01*
X1378Y672D02*
X1442Y672D01*
X1378Y671D02*
X1407Y671D01*
X1412Y671D02*
X1442Y671D01*
X1378Y670D02*
X1404Y670D01*
X1415Y670D02*
X1442Y670D01*
X1378Y669D02*
X1402Y669D01*
X1417Y669D02*
X1442Y669D01*
X1378Y668D02*
X1401Y668D01*
X1419Y668D02*
X1442Y668D01*
X1378Y667D02*
X1399Y667D01*
X1420Y667D02*
X1442Y667D01*
X1378Y666D02*
X1399Y666D01*
X1421Y666D02*
X1442Y666D01*
X1378Y665D02*
X1398Y665D01*
X1422Y665D02*
X1442Y665D01*
X1378Y664D02*
X1397Y664D01*
X1422Y664D02*
X1442Y664D01*
X1378Y663D02*
X1397Y663D01*
X1423Y663D02*
X1442Y663D01*
X1378Y662D02*
X1396Y662D01*
X1423Y662D02*
X1442Y662D01*
X1378Y661D02*
X1396Y661D01*
X1423Y661D02*
X1442Y661D01*
X1378Y660D02*
X1396Y660D01*
X1424Y660D02*
X1442Y660D01*
X1378Y659D02*
X1395Y659D01*
X1424Y659D02*
X1442Y659D01*
X1378Y658D02*
X1395Y658D01*
X1424Y658D02*
X1442Y658D01*
X1378Y657D02*
X1395Y657D01*
X1424Y657D02*
X1442Y657D01*
X1378Y656D02*
X1395Y656D01*
X1424Y656D02*
X1442Y656D01*
X1378Y655D02*
X1396Y655D01*
X1424Y655D02*
X1442Y655D01*
X1378Y654D02*
X1396Y654D01*
X1424Y654D02*
X1442Y654D01*
X1378Y653D02*
X1396Y653D01*
X1423Y653D02*
X1442Y653D01*
X1378Y652D02*
X1397Y652D01*
X1423Y652D02*
X1442Y652D01*
X1378Y651D02*
X1397Y651D01*
X1422Y651D02*
X1442Y651D01*
X1378Y650D02*
X1398Y650D01*
X1422Y650D02*
X1442Y650D01*
X1378Y649D02*
X1398Y649D01*
X1421Y649D02*
X1442Y649D01*
X1378Y648D02*
X1399Y648D01*
X1420Y648D02*
X1442Y648D01*
X1378Y647D02*
X1400Y647D01*
X1419Y647D02*
X1442Y647D01*
X1378Y646D02*
X1401Y646D01*
X1418Y646D02*
X1442Y646D01*
X1378Y645D02*
X1403Y645D01*
X1416Y645D02*
X1442Y645D01*
X1378Y644D02*
X1406Y644D01*
X1414Y644D02*
X1442Y644D01*
X1378Y643D02*
X1442Y643D01*
X1378Y642D02*
X1442Y642D01*
X1378Y641D02*
X1442Y641D01*
X1378Y640D02*
X1442Y640D01*
X1378Y639D02*
X1442Y639D01*
X1378Y638D02*
X1442Y638D01*
X1378Y637D02*
X1442Y637D01*
X1378Y636D02*
X1442Y636D01*
X1378Y635D02*
X1442Y635D01*
X1378Y634D02*
X1442Y634D01*
X1378Y633D02*
X1442Y633D01*
X1378Y632D02*
X1442Y632D01*
X1378Y631D02*
X1442Y631D01*
X1378Y630D02*
X1442Y630D01*
X1378Y629D02*
X1442Y629D01*
X1378Y628D02*
X1442Y628D01*
X1378Y627D02*
X1442Y627D01*
X1378Y626D02*
X1442Y626D01*
X1378Y625D02*
X1441Y625D01*
D02*
G04 End of Copper0*
M02*