G04 MADE WITH FRITZING*
G04 WWW.FRITZING.ORG*
G04 DOUBLE SIDED*
G04 HOLES PLATED*
G04 CONTOUR ON CENTER OF CONTOUR VECTOR*
%ASAXBY*%
%FSLAX23Y23*%
%MOIN*%
%OFA0B0*%
%SFA1.0B1.0*%
%ADD10C,0.075000*%
%ADD11C,0.090020*%
%ADD12C,0.078000*%
%ADD13C,0.065000*%
%ADD14C,0.080000*%
%ADD15C,0.082000*%
%ADD16R,0.080000X0.080000*%
%ADD17R,0.082000X0.082000*%
%ADD18C,0.024000*%
%ADD19R,0.001000X0.001000*%
%LNCOPPER1*%
G90*
G70*
G54D10*
X680Y1418D03*
X810Y1727D03*
X2907Y1738D03*
X116Y1727D03*
G54D11*
X2641Y1284D03*
X2696Y1383D03*
X2527Y1649D03*
X2822Y1669D03*
X2950Y1477D03*
G54D12*
X1310Y1657D03*
X1410Y1657D03*
X1510Y1657D03*
X1610Y1657D03*
X1710Y1657D03*
G54D13*
X1310Y657D03*
X1410Y657D03*
X1310Y657D03*
X1410Y657D03*
G54D10*
X810Y1357D03*
X1210Y1357D03*
G54D12*
X110Y1857D03*
X210Y1857D03*
X310Y1857D03*
X410Y1857D03*
X510Y1857D03*
X610Y1857D03*
X710Y1857D03*
X810Y1857D03*
X910Y1857D03*
X1010Y1857D03*
X1110Y1857D03*
X1210Y1857D03*
X1310Y1857D03*
X1410Y1857D03*
X2950Y1477D03*
X2822Y1668D03*
X2642Y1284D03*
X1110Y1257D03*
X1010Y1257D03*
X910Y1257D03*
X810Y1257D03*
X710Y1257D03*
X610Y1257D03*
X510Y1257D03*
X410Y1257D03*
X1110Y757D03*
X1010Y757D03*
X910Y757D03*
X810Y757D03*
X710Y757D03*
X610Y757D03*
X510Y757D03*
X410Y757D03*
X2910Y1857D03*
X2810Y1857D03*
X2710Y1857D03*
X2610Y1857D03*
X2510Y1857D03*
X2410Y1857D03*
X2310Y1857D03*
X2210Y1857D03*
X2110Y1857D03*
X2010Y1857D03*
X1910Y1857D03*
X1810Y1857D03*
X1710Y1857D03*
X1610Y1857D03*
G54D14*
X1910Y157D03*
X2110Y157D03*
X2310Y157D03*
X2810Y457D03*
X2810Y657D03*
X2810Y857D03*
X2810Y1057D03*
X1410Y157D03*
X1610Y157D03*
X210Y157D03*
X410Y157D03*
X710Y157D03*
X910Y157D03*
G54D15*
X1410Y1157D03*
X1510Y1157D03*
X1610Y1157D03*
G54D10*
X2010Y1057D03*
X2410Y1057D03*
G54D12*
X1310Y1757D03*
X1410Y1757D03*
X1510Y1757D03*
X1610Y1757D03*
X1710Y1757D03*
G54D16*
X1910Y157D03*
X2810Y457D03*
X1410Y157D03*
X210Y157D03*
X710Y157D03*
G54D17*
X1410Y1157D03*
G54D18*
X832Y1236D02*
X911Y1158D01*
D02*
X2320Y1747D02*
X2800Y1747D01*
D02*
X2800Y1747D02*
X2889Y1836D01*
D02*
X1635Y1177D02*
X2320Y1747D01*
D02*
X2800Y1648D02*
X2310Y1187D01*
D02*
X2310Y1187D02*
X2310Y188D01*
D02*
X910Y188D02*
X910Y727D01*
D02*
X1290Y1734D02*
X1010Y1418D01*
D02*
X1010Y1418D02*
X1010Y1287D01*
D02*
X794Y1380D02*
X710Y1497D01*
D02*
X710Y1497D02*
X710Y1827D01*
D02*
X433Y1277D02*
X510Y1346D01*
D02*
X510Y1346D02*
X510Y1827D01*
D02*
X533Y1277D02*
X610Y1346D01*
D02*
X610Y1346D02*
X610Y1827D01*
D02*
X911Y1158D02*
X989Y1236D01*
D02*
X1771Y52D02*
X1516Y52D01*
D02*
X1886Y138D02*
X1771Y52D01*
D02*
X1516Y52D02*
X1432Y135D01*
D02*
X1566Y928D02*
X1566Y312D01*
D02*
X1566Y312D02*
X1432Y179D01*
D02*
X1428Y1130D02*
X1566Y928D01*
D02*
X1310Y296D02*
X1392Y182D01*
D02*
X1310Y632D02*
X1310Y296D01*
D02*
X610Y727D02*
X610Y526D01*
D02*
X610Y526D02*
X233Y178D01*
D02*
X710Y727D02*
X710Y526D01*
D02*
X710Y526D02*
X430Y181D01*
D02*
X810Y727D02*
X810Y307D01*
D02*
X810Y307D02*
X728Y183D01*
D02*
X2801Y1284D02*
X2672Y1284D01*
D02*
X2932Y1453D02*
X2801Y1284D01*
D02*
X2792Y1082D02*
X2660Y1260D01*
D02*
X741Y1257D02*
X780Y1257D01*
D02*
X641Y1257D02*
X680Y1257D01*
D02*
X1201Y756D02*
X1141Y757D01*
D02*
X1292Y674D02*
X1201Y756D01*
G36*
X1456Y1889D02*
X1456Y1869D01*
X1458Y1869D01*
X1458Y1863D01*
X1460Y1863D01*
X1460Y1851D01*
X1458Y1851D01*
X1458Y1843D01*
X1456Y1843D01*
X1456Y1839D01*
X1454Y1839D01*
X1454Y1835D01*
X1452Y1835D01*
X1452Y1831D01*
X1450Y1831D01*
X1450Y1829D01*
X1448Y1829D01*
X1448Y1827D01*
X1446Y1827D01*
X1446Y1825D01*
X1444Y1825D01*
X1444Y1823D01*
X1442Y1823D01*
X1442Y1821D01*
X1440Y1821D01*
X1440Y1819D01*
X1438Y1819D01*
X1438Y1817D01*
X1436Y1817D01*
X1436Y1805D01*
X1522Y1805D01*
X1522Y1803D01*
X1528Y1803D01*
X1528Y1801D01*
X1530Y1801D01*
X1530Y1799D01*
X1534Y1799D01*
X1534Y1797D01*
X1538Y1797D01*
X1538Y1795D01*
X1540Y1795D01*
X1540Y1793D01*
X1542Y1793D01*
X1542Y1791D01*
X1544Y1791D01*
X1544Y1789D01*
X1546Y1789D01*
X1546Y1787D01*
X1548Y1787D01*
X1548Y1785D01*
X1550Y1785D01*
X1550Y1781D01*
X1570Y1781D01*
X1570Y1783D01*
X1572Y1783D01*
X1572Y1785D01*
X1574Y1785D01*
X1574Y1789D01*
X1576Y1789D01*
X1576Y1791D01*
X1578Y1791D01*
X1578Y1793D01*
X1582Y1793D01*
X1582Y1795D01*
X1584Y1795D01*
X1584Y1797D01*
X1586Y1797D01*
X1586Y1817D01*
X1582Y1817D01*
X1582Y1819D01*
X1580Y1819D01*
X1580Y1821D01*
X1578Y1821D01*
X1578Y1823D01*
X1576Y1823D01*
X1576Y1825D01*
X1574Y1825D01*
X1574Y1827D01*
X1572Y1827D01*
X1572Y1831D01*
X1570Y1831D01*
X1570Y1833D01*
X1568Y1833D01*
X1568Y1837D01*
X1566Y1837D01*
X1566Y1841D01*
X1564Y1841D01*
X1564Y1847D01*
X1562Y1847D01*
X1562Y1867D01*
X1564Y1867D01*
X1564Y1889D01*
X1456Y1889D01*
G37*
D02*
G36*
X1436Y1805D02*
X1436Y1797D01*
X1438Y1797D01*
X1438Y1795D01*
X1440Y1795D01*
X1440Y1793D01*
X1442Y1793D01*
X1442Y1791D01*
X1444Y1791D01*
X1444Y1789D01*
X1446Y1789D01*
X1446Y1787D01*
X1448Y1787D01*
X1448Y1785D01*
X1450Y1785D01*
X1450Y1781D01*
X1470Y1781D01*
X1470Y1783D01*
X1472Y1783D01*
X1472Y1785D01*
X1474Y1785D01*
X1474Y1789D01*
X1476Y1789D01*
X1476Y1791D01*
X1478Y1791D01*
X1478Y1793D01*
X1482Y1793D01*
X1482Y1795D01*
X1484Y1795D01*
X1484Y1797D01*
X1486Y1797D01*
X1486Y1799D01*
X1490Y1799D01*
X1490Y1801D01*
X1494Y1801D01*
X1494Y1803D01*
X1500Y1803D01*
X1500Y1805D01*
X1436Y1805D01*
G37*
D02*
G36*
X550Y1831D02*
X550Y1829D01*
X548Y1829D01*
X548Y1827D01*
X546Y1827D01*
X546Y1825D01*
X544Y1825D01*
X544Y1823D01*
X542Y1823D01*
X542Y1821D01*
X540Y1821D01*
X540Y1819D01*
X538Y1819D01*
X538Y1817D01*
X536Y1817D01*
X536Y1815D01*
X532Y1815D01*
X532Y1339D01*
X530Y1339D01*
X530Y1335D01*
X528Y1335D01*
X528Y1333D01*
X526Y1333D01*
X526Y1329D01*
X522Y1329D01*
X522Y1327D01*
X520Y1327D01*
X520Y1325D01*
X518Y1325D01*
X518Y1311D01*
X540Y1311D01*
X540Y1313D01*
X542Y1313D01*
X542Y1315D01*
X544Y1315D01*
X544Y1317D01*
X546Y1317D01*
X546Y1319D01*
X548Y1319D01*
X548Y1321D01*
X550Y1321D01*
X550Y1323D01*
X552Y1323D01*
X552Y1325D01*
X554Y1325D01*
X554Y1327D01*
X556Y1327D01*
X556Y1329D01*
X560Y1329D01*
X560Y1331D01*
X562Y1331D01*
X562Y1333D01*
X564Y1333D01*
X564Y1335D01*
X566Y1335D01*
X566Y1337D01*
X568Y1337D01*
X568Y1339D01*
X570Y1339D01*
X570Y1341D01*
X572Y1341D01*
X572Y1343D01*
X574Y1343D01*
X574Y1345D01*
X578Y1345D01*
X578Y1347D01*
X580Y1347D01*
X580Y1349D01*
X582Y1349D01*
X582Y1351D01*
X584Y1351D01*
X584Y1353D01*
X586Y1353D01*
X586Y1355D01*
X588Y1355D01*
X588Y1815D01*
X586Y1815D01*
X586Y1817D01*
X582Y1817D01*
X582Y1819D01*
X580Y1819D01*
X580Y1821D01*
X578Y1821D01*
X578Y1823D01*
X576Y1823D01*
X576Y1825D01*
X574Y1825D01*
X574Y1827D01*
X572Y1827D01*
X572Y1831D01*
X550Y1831D01*
G37*
D02*
G36*
X650Y1831D02*
X650Y1829D01*
X648Y1829D01*
X648Y1827D01*
X646Y1827D01*
X646Y1825D01*
X644Y1825D01*
X644Y1823D01*
X642Y1823D01*
X642Y1821D01*
X640Y1821D01*
X640Y1819D01*
X638Y1819D01*
X638Y1817D01*
X636Y1817D01*
X636Y1815D01*
X632Y1815D01*
X632Y1339D01*
X630Y1339D01*
X630Y1335D01*
X628Y1335D01*
X628Y1333D01*
X626Y1333D01*
X626Y1329D01*
X622Y1329D01*
X622Y1327D01*
X620Y1327D01*
X620Y1325D01*
X618Y1325D01*
X618Y1305D01*
X722Y1305D01*
X722Y1303D01*
X728Y1303D01*
X728Y1301D01*
X730Y1301D01*
X730Y1299D01*
X734Y1299D01*
X734Y1297D01*
X738Y1297D01*
X738Y1295D01*
X740Y1295D01*
X740Y1293D01*
X742Y1293D01*
X742Y1291D01*
X744Y1291D01*
X744Y1289D01*
X746Y1289D01*
X746Y1287D01*
X748Y1287D01*
X748Y1285D01*
X750Y1285D01*
X750Y1281D01*
X770Y1281D01*
X770Y1283D01*
X772Y1283D01*
X772Y1285D01*
X774Y1285D01*
X774Y1289D01*
X776Y1289D01*
X776Y1291D01*
X778Y1291D01*
X778Y1293D01*
X782Y1293D01*
X782Y1295D01*
X784Y1295D01*
X784Y1297D01*
X786Y1297D01*
X786Y1319D01*
X782Y1319D01*
X782Y1321D01*
X780Y1321D01*
X780Y1323D01*
X778Y1323D01*
X778Y1325D01*
X776Y1325D01*
X776Y1327D01*
X774Y1327D01*
X774Y1329D01*
X772Y1329D01*
X772Y1333D01*
X770Y1333D01*
X770Y1337D01*
X768Y1337D01*
X768Y1339D01*
X766Y1339D01*
X766Y1345D01*
X764Y1345D01*
X764Y1355D01*
X762Y1355D01*
X762Y1359D01*
X764Y1359D01*
X764Y1385D01*
X762Y1385D01*
X762Y1389D01*
X760Y1389D01*
X760Y1391D01*
X758Y1391D01*
X758Y1393D01*
X756Y1393D01*
X756Y1397D01*
X754Y1397D01*
X754Y1399D01*
X752Y1399D01*
X752Y1403D01*
X750Y1403D01*
X750Y1405D01*
X748Y1405D01*
X748Y1407D01*
X746Y1407D01*
X746Y1411D01*
X744Y1411D01*
X744Y1413D01*
X742Y1413D01*
X742Y1415D01*
X740Y1415D01*
X740Y1419D01*
X738Y1419D01*
X738Y1421D01*
X736Y1421D01*
X736Y1425D01*
X734Y1425D01*
X734Y1427D01*
X732Y1427D01*
X732Y1429D01*
X730Y1429D01*
X730Y1433D01*
X728Y1433D01*
X728Y1435D01*
X726Y1435D01*
X726Y1439D01*
X724Y1439D01*
X724Y1441D01*
X722Y1441D01*
X722Y1443D01*
X720Y1443D01*
X720Y1447D01*
X718Y1447D01*
X718Y1449D01*
X716Y1449D01*
X716Y1453D01*
X714Y1453D01*
X714Y1455D01*
X712Y1455D01*
X712Y1457D01*
X710Y1457D01*
X710Y1461D01*
X708Y1461D01*
X708Y1463D01*
X706Y1463D01*
X706Y1467D01*
X704Y1467D01*
X704Y1469D01*
X702Y1469D01*
X702Y1471D01*
X700Y1471D01*
X700Y1475D01*
X698Y1475D01*
X698Y1477D01*
X696Y1477D01*
X696Y1481D01*
X694Y1481D01*
X694Y1483D01*
X692Y1483D01*
X692Y1487D01*
X690Y1487D01*
X690Y1491D01*
X688Y1491D01*
X688Y1815D01*
X686Y1815D01*
X686Y1817D01*
X682Y1817D01*
X682Y1819D01*
X680Y1819D01*
X680Y1821D01*
X678Y1821D01*
X678Y1823D01*
X676Y1823D01*
X676Y1825D01*
X674Y1825D01*
X674Y1827D01*
X672Y1827D01*
X672Y1831D01*
X650Y1831D01*
G37*
D02*
G36*
X622Y1305D02*
X622Y1303D01*
X628Y1303D01*
X628Y1301D01*
X630Y1301D01*
X630Y1299D01*
X634Y1299D01*
X634Y1297D01*
X638Y1297D01*
X638Y1295D01*
X640Y1295D01*
X640Y1293D01*
X642Y1293D01*
X642Y1291D01*
X644Y1291D01*
X644Y1289D01*
X646Y1289D01*
X646Y1287D01*
X648Y1287D01*
X648Y1285D01*
X650Y1285D01*
X650Y1281D01*
X670Y1281D01*
X670Y1283D01*
X672Y1283D01*
X672Y1285D01*
X674Y1285D01*
X674Y1289D01*
X676Y1289D01*
X676Y1291D01*
X678Y1291D01*
X678Y1293D01*
X682Y1293D01*
X682Y1295D01*
X684Y1295D01*
X684Y1297D01*
X686Y1297D01*
X686Y1299D01*
X690Y1299D01*
X690Y1301D01*
X694Y1301D01*
X694Y1303D01*
X700Y1303D01*
X700Y1305D01*
X622Y1305D01*
G37*
D02*
G36*
X750Y1831D02*
X750Y1829D01*
X748Y1829D01*
X748Y1827D01*
X746Y1827D01*
X746Y1825D01*
X744Y1825D01*
X744Y1823D01*
X742Y1823D01*
X742Y1821D01*
X740Y1821D01*
X740Y1819D01*
X738Y1819D01*
X738Y1817D01*
X736Y1817D01*
X736Y1815D01*
X732Y1815D01*
X732Y1807D01*
X806Y1807D01*
X806Y1809D01*
X798Y1809D01*
X798Y1811D01*
X792Y1811D01*
X792Y1813D01*
X790Y1813D01*
X790Y1815D01*
X786Y1815D01*
X786Y1817D01*
X782Y1817D01*
X782Y1819D01*
X780Y1819D01*
X780Y1821D01*
X778Y1821D01*
X778Y1823D01*
X776Y1823D01*
X776Y1825D01*
X774Y1825D01*
X774Y1827D01*
X772Y1827D01*
X772Y1831D01*
X750Y1831D01*
G37*
D02*
G36*
X850Y1831D02*
X850Y1829D01*
X848Y1829D01*
X848Y1827D01*
X846Y1827D01*
X846Y1825D01*
X844Y1825D01*
X844Y1823D01*
X842Y1823D01*
X842Y1821D01*
X840Y1821D01*
X840Y1819D01*
X838Y1819D01*
X838Y1817D01*
X836Y1817D01*
X836Y1815D01*
X832Y1815D01*
X832Y1813D01*
X828Y1813D01*
X828Y1811D01*
X822Y1811D01*
X822Y1809D01*
X814Y1809D01*
X814Y1807D01*
X906Y1807D01*
X906Y1809D01*
X898Y1809D01*
X898Y1811D01*
X892Y1811D01*
X892Y1813D01*
X890Y1813D01*
X890Y1815D01*
X886Y1815D01*
X886Y1817D01*
X882Y1817D01*
X882Y1819D01*
X880Y1819D01*
X880Y1821D01*
X878Y1821D01*
X878Y1823D01*
X876Y1823D01*
X876Y1825D01*
X874Y1825D01*
X874Y1827D01*
X872Y1827D01*
X872Y1831D01*
X850Y1831D01*
G37*
D02*
G36*
X950Y1831D02*
X950Y1829D01*
X948Y1829D01*
X948Y1827D01*
X946Y1827D01*
X946Y1825D01*
X944Y1825D01*
X944Y1823D01*
X942Y1823D01*
X942Y1821D01*
X940Y1821D01*
X940Y1819D01*
X938Y1819D01*
X938Y1817D01*
X936Y1817D01*
X936Y1815D01*
X932Y1815D01*
X932Y1813D01*
X928Y1813D01*
X928Y1811D01*
X922Y1811D01*
X922Y1809D01*
X914Y1809D01*
X914Y1807D01*
X1006Y1807D01*
X1006Y1809D01*
X998Y1809D01*
X998Y1811D01*
X992Y1811D01*
X992Y1813D01*
X990Y1813D01*
X990Y1815D01*
X986Y1815D01*
X986Y1817D01*
X982Y1817D01*
X982Y1819D01*
X980Y1819D01*
X980Y1821D01*
X978Y1821D01*
X978Y1823D01*
X976Y1823D01*
X976Y1825D01*
X974Y1825D01*
X974Y1827D01*
X972Y1827D01*
X972Y1831D01*
X950Y1831D01*
G37*
D02*
G36*
X1050Y1831D02*
X1050Y1829D01*
X1048Y1829D01*
X1048Y1827D01*
X1046Y1827D01*
X1046Y1825D01*
X1044Y1825D01*
X1044Y1823D01*
X1042Y1823D01*
X1042Y1821D01*
X1040Y1821D01*
X1040Y1819D01*
X1038Y1819D01*
X1038Y1817D01*
X1036Y1817D01*
X1036Y1815D01*
X1032Y1815D01*
X1032Y1813D01*
X1028Y1813D01*
X1028Y1811D01*
X1022Y1811D01*
X1022Y1809D01*
X1014Y1809D01*
X1014Y1807D01*
X1106Y1807D01*
X1106Y1809D01*
X1098Y1809D01*
X1098Y1811D01*
X1092Y1811D01*
X1092Y1813D01*
X1090Y1813D01*
X1090Y1815D01*
X1086Y1815D01*
X1086Y1817D01*
X1082Y1817D01*
X1082Y1819D01*
X1080Y1819D01*
X1080Y1821D01*
X1078Y1821D01*
X1078Y1823D01*
X1076Y1823D01*
X1076Y1825D01*
X1074Y1825D01*
X1074Y1827D01*
X1072Y1827D01*
X1072Y1831D01*
X1050Y1831D01*
G37*
D02*
G36*
X1150Y1831D02*
X1150Y1829D01*
X1148Y1829D01*
X1148Y1827D01*
X1146Y1827D01*
X1146Y1825D01*
X1144Y1825D01*
X1144Y1823D01*
X1142Y1823D01*
X1142Y1821D01*
X1140Y1821D01*
X1140Y1819D01*
X1138Y1819D01*
X1138Y1817D01*
X1136Y1817D01*
X1136Y1815D01*
X1132Y1815D01*
X1132Y1813D01*
X1128Y1813D01*
X1128Y1811D01*
X1122Y1811D01*
X1122Y1809D01*
X1114Y1809D01*
X1114Y1807D01*
X1206Y1807D01*
X1206Y1809D01*
X1198Y1809D01*
X1198Y1811D01*
X1192Y1811D01*
X1192Y1813D01*
X1190Y1813D01*
X1190Y1815D01*
X1186Y1815D01*
X1186Y1817D01*
X1182Y1817D01*
X1182Y1819D01*
X1180Y1819D01*
X1180Y1821D01*
X1178Y1821D01*
X1178Y1823D01*
X1176Y1823D01*
X1176Y1825D01*
X1174Y1825D01*
X1174Y1827D01*
X1172Y1827D01*
X1172Y1831D01*
X1150Y1831D01*
G37*
D02*
G36*
X1250Y1831D02*
X1250Y1829D01*
X1248Y1829D01*
X1248Y1827D01*
X1246Y1827D01*
X1246Y1825D01*
X1244Y1825D01*
X1244Y1823D01*
X1242Y1823D01*
X1242Y1821D01*
X1240Y1821D01*
X1240Y1819D01*
X1238Y1819D01*
X1238Y1817D01*
X1236Y1817D01*
X1236Y1815D01*
X1232Y1815D01*
X1232Y1813D01*
X1228Y1813D01*
X1228Y1811D01*
X1222Y1811D01*
X1222Y1809D01*
X1214Y1809D01*
X1214Y1807D01*
X1286Y1807D01*
X1286Y1817D01*
X1282Y1817D01*
X1282Y1819D01*
X1280Y1819D01*
X1280Y1821D01*
X1278Y1821D01*
X1278Y1823D01*
X1276Y1823D01*
X1276Y1825D01*
X1274Y1825D01*
X1274Y1827D01*
X1272Y1827D01*
X1272Y1831D01*
X1250Y1831D01*
G37*
D02*
G36*
X732Y1807D02*
X732Y1805D01*
X1286Y1805D01*
X1286Y1807D01*
X732Y1807D01*
G37*
D02*
G36*
X732Y1807D02*
X732Y1805D01*
X1286Y1805D01*
X1286Y1807D01*
X732Y1807D01*
G37*
D02*
G36*
X732Y1807D02*
X732Y1805D01*
X1286Y1805D01*
X1286Y1807D01*
X732Y1807D01*
G37*
D02*
G36*
X732Y1807D02*
X732Y1805D01*
X1286Y1805D01*
X1286Y1807D01*
X732Y1807D01*
G37*
D02*
G36*
X732Y1807D02*
X732Y1805D01*
X1286Y1805D01*
X1286Y1807D01*
X732Y1807D01*
G37*
D02*
G36*
X732Y1807D02*
X732Y1805D01*
X1286Y1805D01*
X1286Y1807D01*
X732Y1807D01*
G37*
D02*
G36*
X732Y1805D02*
X732Y1503D01*
X734Y1503D01*
X734Y1501D01*
X736Y1501D01*
X736Y1497D01*
X738Y1497D01*
X738Y1495D01*
X740Y1495D01*
X740Y1491D01*
X742Y1491D01*
X742Y1489D01*
X744Y1489D01*
X744Y1487D01*
X746Y1487D01*
X746Y1483D01*
X748Y1483D01*
X748Y1481D01*
X750Y1481D01*
X750Y1477D01*
X752Y1477D01*
X752Y1475D01*
X754Y1475D01*
X754Y1473D01*
X756Y1473D01*
X756Y1469D01*
X758Y1469D01*
X758Y1467D01*
X760Y1467D01*
X760Y1463D01*
X762Y1463D01*
X762Y1461D01*
X764Y1461D01*
X764Y1459D01*
X766Y1459D01*
X766Y1455D01*
X768Y1455D01*
X768Y1453D01*
X770Y1453D01*
X770Y1449D01*
X772Y1449D01*
X772Y1447D01*
X774Y1447D01*
X774Y1445D01*
X776Y1445D01*
X776Y1441D01*
X778Y1441D01*
X778Y1439D01*
X780Y1439D01*
X780Y1435D01*
X782Y1435D01*
X782Y1433D01*
X784Y1433D01*
X784Y1431D01*
X786Y1431D01*
X786Y1427D01*
X788Y1427D01*
X788Y1425D01*
X790Y1425D01*
X790Y1421D01*
X792Y1421D01*
X792Y1419D01*
X794Y1419D01*
X794Y1417D01*
X796Y1417D01*
X796Y1413D01*
X798Y1413D01*
X798Y1411D01*
X800Y1411D01*
X800Y1407D01*
X802Y1407D01*
X802Y1405D01*
X814Y1405D01*
X814Y1403D01*
X822Y1403D01*
X822Y1401D01*
X828Y1401D01*
X828Y1399D01*
X832Y1399D01*
X832Y1397D01*
X834Y1397D01*
X834Y1395D01*
X838Y1395D01*
X838Y1393D01*
X840Y1393D01*
X840Y1391D01*
X842Y1391D01*
X842Y1389D01*
X844Y1389D01*
X844Y1387D01*
X846Y1387D01*
X846Y1385D01*
X848Y1385D01*
X848Y1383D01*
X850Y1383D01*
X850Y1379D01*
X852Y1379D01*
X852Y1375D01*
X854Y1375D01*
X854Y1371D01*
X856Y1371D01*
X856Y1365D01*
X858Y1365D01*
X858Y1349D01*
X856Y1349D01*
X856Y1343D01*
X854Y1343D01*
X854Y1339D01*
X852Y1339D01*
X852Y1335D01*
X850Y1335D01*
X850Y1331D01*
X848Y1331D01*
X848Y1329D01*
X846Y1329D01*
X846Y1327D01*
X844Y1327D01*
X844Y1325D01*
X842Y1325D01*
X842Y1323D01*
X840Y1323D01*
X840Y1321D01*
X838Y1321D01*
X838Y1319D01*
X836Y1319D01*
X836Y1317D01*
X834Y1317D01*
X834Y1305D01*
X922Y1305D01*
X922Y1303D01*
X928Y1303D01*
X928Y1301D01*
X930Y1301D01*
X930Y1299D01*
X934Y1299D01*
X934Y1297D01*
X938Y1297D01*
X938Y1295D01*
X940Y1295D01*
X940Y1293D01*
X942Y1293D01*
X942Y1291D01*
X944Y1291D01*
X944Y1289D01*
X946Y1289D01*
X946Y1287D01*
X948Y1287D01*
X948Y1285D01*
X950Y1285D01*
X950Y1281D01*
X970Y1281D01*
X970Y1283D01*
X972Y1283D01*
X972Y1285D01*
X974Y1285D01*
X974Y1289D01*
X976Y1289D01*
X976Y1291D01*
X978Y1291D01*
X978Y1293D01*
X982Y1293D01*
X982Y1295D01*
X984Y1295D01*
X984Y1297D01*
X986Y1297D01*
X986Y1299D01*
X988Y1299D01*
X988Y1423D01*
X990Y1423D01*
X990Y1429D01*
X992Y1429D01*
X992Y1431D01*
X994Y1431D01*
X994Y1433D01*
X996Y1433D01*
X996Y1435D01*
X998Y1435D01*
X998Y1439D01*
X1000Y1439D01*
X1000Y1441D01*
X1002Y1441D01*
X1002Y1443D01*
X1004Y1443D01*
X1004Y1445D01*
X1006Y1445D01*
X1006Y1447D01*
X1008Y1447D01*
X1008Y1449D01*
X1010Y1449D01*
X1010Y1451D01*
X1012Y1451D01*
X1012Y1455D01*
X1014Y1455D01*
X1014Y1457D01*
X1016Y1457D01*
X1016Y1459D01*
X1018Y1459D01*
X1018Y1461D01*
X1020Y1461D01*
X1020Y1463D01*
X1022Y1463D01*
X1022Y1465D01*
X1024Y1465D01*
X1024Y1467D01*
X1026Y1467D01*
X1026Y1469D01*
X1028Y1469D01*
X1028Y1473D01*
X1030Y1473D01*
X1030Y1475D01*
X1032Y1475D01*
X1032Y1477D01*
X1034Y1477D01*
X1034Y1479D01*
X1036Y1479D01*
X1036Y1481D01*
X1038Y1481D01*
X1038Y1483D01*
X1040Y1483D01*
X1040Y1485D01*
X1042Y1485D01*
X1042Y1487D01*
X1044Y1487D01*
X1044Y1491D01*
X1046Y1491D01*
X1046Y1493D01*
X1048Y1493D01*
X1048Y1495D01*
X1050Y1495D01*
X1050Y1497D01*
X1052Y1497D01*
X1052Y1499D01*
X1054Y1499D01*
X1054Y1501D01*
X1056Y1501D01*
X1056Y1503D01*
X1058Y1503D01*
X1058Y1505D01*
X1060Y1505D01*
X1060Y1509D01*
X1062Y1509D01*
X1062Y1511D01*
X1064Y1511D01*
X1064Y1513D01*
X1066Y1513D01*
X1066Y1515D01*
X1068Y1515D01*
X1068Y1517D01*
X1070Y1517D01*
X1070Y1519D01*
X1072Y1519D01*
X1072Y1521D01*
X1074Y1521D01*
X1074Y1525D01*
X1076Y1525D01*
X1076Y1527D01*
X1078Y1527D01*
X1078Y1529D01*
X1080Y1529D01*
X1080Y1531D01*
X1082Y1531D01*
X1082Y1533D01*
X1084Y1533D01*
X1084Y1535D01*
X1086Y1535D01*
X1086Y1537D01*
X1088Y1537D01*
X1088Y1539D01*
X1090Y1539D01*
X1090Y1543D01*
X1092Y1543D01*
X1092Y1545D01*
X1094Y1545D01*
X1094Y1547D01*
X1096Y1547D01*
X1096Y1549D01*
X1098Y1549D01*
X1098Y1551D01*
X1100Y1551D01*
X1100Y1553D01*
X1102Y1553D01*
X1102Y1555D01*
X1104Y1555D01*
X1104Y1557D01*
X1106Y1557D01*
X1106Y1561D01*
X1108Y1561D01*
X1108Y1563D01*
X1110Y1563D01*
X1110Y1565D01*
X1112Y1565D01*
X1112Y1567D01*
X1114Y1567D01*
X1114Y1569D01*
X1116Y1569D01*
X1116Y1571D01*
X1118Y1571D01*
X1118Y1573D01*
X1120Y1573D01*
X1120Y1577D01*
X1122Y1577D01*
X1122Y1579D01*
X1124Y1579D01*
X1124Y1581D01*
X1126Y1581D01*
X1126Y1583D01*
X1128Y1583D01*
X1128Y1585D01*
X1130Y1585D01*
X1130Y1587D01*
X1132Y1587D01*
X1132Y1589D01*
X1134Y1589D01*
X1134Y1591D01*
X1136Y1591D01*
X1136Y1595D01*
X1138Y1595D01*
X1138Y1597D01*
X1140Y1597D01*
X1140Y1599D01*
X1142Y1599D01*
X1142Y1601D01*
X1144Y1601D01*
X1144Y1603D01*
X1146Y1603D01*
X1146Y1605D01*
X1148Y1605D01*
X1148Y1607D01*
X1150Y1607D01*
X1150Y1609D01*
X1152Y1609D01*
X1152Y1613D01*
X1154Y1613D01*
X1154Y1615D01*
X1156Y1615D01*
X1156Y1617D01*
X1158Y1617D01*
X1158Y1619D01*
X1160Y1619D01*
X1160Y1621D01*
X1162Y1621D01*
X1162Y1623D01*
X1164Y1623D01*
X1164Y1625D01*
X1166Y1625D01*
X1166Y1629D01*
X1168Y1629D01*
X1168Y1631D01*
X1170Y1631D01*
X1170Y1633D01*
X1172Y1633D01*
X1172Y1635D01*
X1174Y1635D01*
X1174Y1637D01*
X1176Y1637D01*
X1176Y1639D01*
X1178Y1639D01*
X1178Y1641D01*
X1180Y1641D01*
X1180Y1643D01*
X1182Y1643D01*
X1182Y1647D01*
X1184Y1647D01*
X1184Y1649D01*
X1186Y1649D01*
X1186Y1651D01*
X1188Y1651D01*
X1188Y1653D01*
X1190Y1653D01*
X1190Y1655D01*
X1192Y1655D01*
X1192Y1657D01*
X1194Y1657D01*
X1194Y1659D01*
X1196Y1659D01*
X1196Y1661D01*
X1198Y1661D01*
X1198Y1665D01*
X1200Y1665D01*
X1200Y1667D01*
X1202Y1667D01*
X1202Y1669D01*
X1204Y1669D01*
X1204Y1671D01*
X1206Y1671D01*
X1206Y1673D01*
X1208Y1673D01*
X1208Y1675D01*
X1210Y1675D01*
X1210Y1677D01*
X1212Y1677D01*
X1212Y1679D01*
X1214Y1679D01*
X1214Y1683D01*
X1216Y1683D01*
X1216Y1685D01*
X1218Y1685D01*
X1218Y1687D01*
X1220Y1687D01*
X1220Y1689D01*
X1222Y1689D01*
X1222Y1691D01*
X1224Y1691D01*
X1224Y1693D01*
X1226Y1693D01*
X1226Y1695D01*
X1228Y1695D01*
X1228Y1699D01*
X1230Y1699D01*
X1230Y1701D01*
X1232Y1701D01*
X1232Y1703D01*
X1234Y1703D01*
X1234Y1705D01*
X1236Y1705D01*
X1236Y1707D01*
X1238Y1707D01*
X1238Y1709D01*
X1240Y1709D01*
X1240Y1711D01*
X1242Y1711D01*
X1242Y1713D01*
X1244Y1713D01*
X1244Y1717D01*
X1246Y1717D01*
X1246Y1719D01*
X1248Y1719D01*
X1248Y1721D01*
X1250Y1721D01*
X1250Y1723D01*
X1252Y1723D01*
X1252Y1725D01*
X1254Y1725D01*
X1254Y1727D01*
X1256Y1727D01*
X1256Y1729D01*
X1258Y1729D01*
X1258Y1731D01*
X1260Y1731D01*
X1260Y1735D01*
X1262Y1735D01*
X1262Y1767D01*
X1264Y1767D01*
X1264Y1773D01*
X1266Y1773D01*
X1266Y1777D01*
X1268Y1777D01*
X1268Y1781D01*
X1270Y1781D01*
X1270Y1783D01*
X1272Y1783D01*
X1272Y1785D01*
X1274Y1785D01*
X1274Y1789D01*
X1276Y1789D01*
X1276Y1791D01*
X1278Y1791D01*
X1278Y1793D01*
X1282Y1793D01*
X1282Y1795D01*
X1284Y1795D01*
X1284Y1797D01*
X1286Y1797D01*
X1286Y1805D01*
X732Y1805D01*
G37*
D02*
G36*
X834Y1305D02*
X834Y1297D01*
X838Y1297D01*
X838Y1295D01*
X840Y1295D01*
X840Y1293D01*
X842Y1293D01*
X842Y1291D01*
X844Y1291D01*
X844Y1289D01*
X846Y1289D01*
X846Y1287D01*
X848Y1287D01*
X848Y1285D01*
X850Y1285D01*
X850Y1281D01*
X870Y1281D01*
X870Y1283D01*
X872Y1283D01*
X872Y1285D01*
X874Y1285D01*
X874Y1289D01*
X876Y1289D01*
X876Y1291D01*
X878Y1291D01*
X878Y1293D01*
X882Y1293D01*
X882Y1295D01*
X884Y1295D01*
X884Y1297D01*
X886Y1297D01*
X886Y1299D01*
X890Y1299D01*
X890Y1301D01*
X894Y1301D01*
X894Y1303D01*
X900Y1303D01*
X900Y1305D01*
X834Y1305D01*
G37*
D02*
G36*
X1350Y1831D02*
X1350Y1829D01*
X1348Y1829D01*
X1348Y1827D01*
X1346Y1827D01*
X1346Y1825D01*
X1344Y1825D01*
X1344Y1823D01*
X1342Y1823D01*
X1342Y1821D01*
X1340Y1821D01*
X1340Y1819D01*
X1338Y1819D01*
X1338Y1817D01*
X1336Y1817D01*
X1336Y1797D01*
X1338Y1797D01*
X1338Y1795D01*
X1340Y1795D01*
X1340Y1793D01*
X1342Y1793D01*
X1342Y1791D01*
X1344Y1791D01*
X1344Y1789D01*
X1346Y1789D01*
X1346Y1787D01*
X1348Y1787D01*
X1348Y1785D01*
X1350Y1785D01*
X1350Y1781D01*
X1370Y1781D01*
X1370Y1783D01*
X1372Y1783D01*
X1372Y1785D01*
X1374Y1785D01*
X1374Y1789D01*
X1376Y1789D01*
X1376Y1791D01*
X1378Y1791D01*
X1378Y1793D01*
X1382Y1793D01*
X1382Y1795D01*
X1384Y1795D01*
X1384Y1797D01*
X1386Y1797D01*
X1386Y1817D01*
X1382Y1817D01*
X1382Y1819D01*
X1380Y1819D01*
X1380Y1821D01*
X1378Y1821D01*
X1378Y1823D01*
X1376Y1823D01*
X1376Y1825D01*
X1374Y1825D01*
X1374Y1827D01*
X1372Y1827D01*
X1372Y1831D01*
X1350Y1831D01*
G37*
D02*
G36*
X1650Y1831D02*
X1650Y1829D01*
X1648Y1829D01*
X1648Y1827D01*
X1646Y1827D01*
X1646Y1825D01*
X1644Y1825D01*
X1644Y1823D01*
X1642Y1823D01*
X1642Y1821D01*
X1640Y1821D01*
X1640Y1819D01*
X1638Y1819D01*
X1638Y1817D01*
X1636Y1817D01*
X1636Y1797D01*
X1638Y1797D01*
X1638Y1795D01*
X1640Y1795D01*
X1640Y1793D01*
X1642Y1793D01*
X1642Y1791D01*
X1644Y1791D01*
X1644Y1789D01*
X1646Y1789D01*
X1646Y1787D01*
X1648Y1787D01*
X1648Y1785D01*
X1650Y1785D01*
X1650Y1781D01*
X1670Y1781D01*
X1670Y1783D01*
X1672Y1783D01*
X1672Y1785D01*
X1674Y1785D01*
X1674Y1789D01*
X1676Y1789D01*
X1676Y1791D01*
X1678Y1791D01*
X1678Y1793D01*
X1682Y1793D01*
X1682Y1795D01*
X1684Y1795D01*
X1684Y1797D01*
X1686Y1797D01*
X1686Y1817D01*
X1682Y1817D01*
X1682Y1819D01*
X1680Y1819D01*
X1680Y1821D01*
X1678Y1821D01*
X1678Y1823D01*
X1676Y1823D01*
X1676Y1825D01*
X1674Y1825D01*
X1674Y1827D01*
X1672Y1827D01*
X1672Y1831D01*
X1650Y1831D01*
G37*
D02*
G36*
X1350Y1731D02*
X1350Y1729D01*
X1348Y1729D01*
X1348Y1727D01*
X1346Y1727D01*
X1346Y1725D01*
X1344Y1725D01*
X1344Y1723D01*
X1342Y1723D01*
X1342Y1721D01*
X1340Y1721D01*
X1340Y1719D01*
X1338Y1719D01*
X1338Y1717D01*
X1336Y1717D01*
X1336Y1697D01*
X1338Y1697D01*
X1338Y1695D01*
X1340Y1695D01*
X1340Y1693D01*
X1342Y1693D01*
X1342Y1691D01*
X1344Y1691D01*
X1344Y1689D01*
X1346Y1689D01*
X1346Y1687D01*
X1348Y1687D01*
X1348Y1685D01*
X1350Y1685D01*
X1350Y1681D01*
X1370Y1681D01*
X1370Y1683D01*
X1372Y1683D01*
X1372Y1685D01*
X1374Y1685D01*
X1374Y1689D01*
X1376Y1689D01*
X1376Y1691D01*
X1378Y1691D01*
X1378Y1693D01*
X1382Y1693D01*
X1382Y1695D01*
X1384Y1695D01*
X1384Y1697D01*
X1386Y1697D01*
X1386Y1717D01*
X1382Y1717D01*
X1382Y1719D01*
X1380Y1719D01*
X1380Y1721D01*
X1378Y1721D01*
X1378Y1723D01*
X1376Y1723D01*
X1376Y1725D01*
X1374Y1725D01*
X1374Y1727D01*
X1372Y1727D01*
X1372Y1731D01*
X1350Y1731D01*
G37*
D02*
G36*
X1450Y1731D02*
X1450Y1729D01*
X1448Y1729D01*
X1448Y1727D01*
X1446Y1727D01*
X1446Y1725D01*
X1444Y1725D01*
X1444Y1723D01*
X1442Y1723D01*
X1442Y1721D01*
X1440Y1721D01*
X1440Y1719D01*
X1438Y1719D01*
X1438Y1717D01*
X1436Y1717D01*
X1436Y1697D01*
X1438Y1697D01*
X1438Y1695D01*
X1440Y1695D01*
X1440Y1693D01*
X1442Y1693D01*
X1442Y1691D01*
X1444Y1691D01*
X1444Y1689D01*
X1446Y1689D01*
X1446Y1687D01*
X1448Y1687D01*
X1448Y1685D01*
X1450Y1685D01*
X1450Y1681D01*
X1470Y1681D01*
X1470Y1683D01*
X1472Y1683D01*
X1472Y1685D01*
X1474Y1685D01*
X1474Y1689D01*
X1476Y1689D01*
X1476Y1691D01*
X1478Y1691D01*
X1478Y1693D01*
X1482Y1693D01*
X1482Y1695D01*
X1484Y1695D01*
X1484Y1697D01*
X1486Y1697D01*
X1486Y1717D01*
X1482Y1717D01*
X1482Y1719D01*
X1480Y1719D01*
X1480Y1721D01*
X1478Y1721D01*
X1478Y1723D01*
X1476Y1723D01*
X1476Y1725D01*
X1474Y1725D01*
X1474Y1727D01*
X1472Y1727D01*
X1472Y1731D01*
X1450Y1731D01*
G37*
D02*
G36*
X1550Y1731D02*
X1550Y1729D01*
X1548Y1729D01*
X1548Y1727D01*
X1546Y1727D01*
X1546Y1725D01*
X1544Y1725D01*
X1544Y1723D01*
X1542Y1723D01*
X1542Y1721D01*
X1540Y1721D01*
X1540Y1719D01*
X1538Y1719D01*
X1538Y1717D01*
X1536Y1717D01*
X1536Y1697D01*
X1538Y1697D01*
X1538Y1695D01*
X1540Y1695D01*
X1540Y1693D01*
X1542Y1693D01*
X1542Y1691D01*
X1544Y1691D01*
X1544Y1689D01*
X1546Y1689D01*
X1546Y1687D01*
X1548Y1687D01*
X1548Y1685D01*
X1550Y1685D01*
X1550Y1681D01*
X1570Y1681D01*
X1570Y1683D01*
X1572Y1683D01*
X1572Y1685D01*
X1574Y1685D01*
X1574Y1689D01*
X1576Y1689D01*
X1576Y1691D01*
X1578Y1691D01*
X1578Y1693D01*
X1582Y1693D01*
X1582Y1695D01*
X1584Y1695D01*
X1584Y1697D01*
X1586Y1697D01*
X1586Y1717D01*
X1582Y1717D01*
X1582Y1719D01*
X1580Y1719D01*
X1580Y1721D01*
X1578Y1721D01*
X1578Y1723D01*
X1576Y1723D01*
X1576Y1725D01*
X1574Y1725D01*
X1574Y1727D01*
X1572Y1727D01*
X1572Y1731D01*
X1550Y1731D01*
G37*
D02*
G36*
X1650Y1731D02*
X1650Y1729D01*
X1648Y1729D01*
X1648Y1727D01*
X1646Y1727D01*
X1646Y1725D01*
X1644Y1725D01*
X1644Y1723D01*
X1642Y1723D01*
X1642Y1721D01*
X1640Y1721D01*
X1640Y1719D01*
X1638Y1719D01*
X1638Y1717D01*
X1636Y1717D01*
X1636Y1697D01*
X1638Y1697D01*
X1638Y1695D01*
X1640Y1695D01*
X1640Y1693D01*
X1642Y1693D01*
X1642Y1691D01*
X1644Y1691D01*
X1644Y1689D01*
X1646Y1689D01*
X1646Y1687D01*
X1648Y1687D01*
X1648Y1685D01*
X1650Y1685D01*
X1650Y1681D01*
X1670Y1681D01*
X1670Y1683D01*
X1672Y1683D01*
X1672Y1685D01*
X1674Y1685D01*
X1674Y1689D01*
X1676Y1689D01*
X1676Y1691D01*
X1678Y1691D01*
X1678Y1693D01*
X1682Y1693D01*
X1682Y1695D01*
X1684Y1695D01*
X1684Y1697D01*
X1686Y1697D01*
X1686Y1717D01*
X1682Y1717D01*
X1682Y1719D01*
X1680Y1719D01*
X1680Y1721D01*
X1678Y1721D01*
X1678Y1723D01*
X1676Y1723D01*
X1676Y1725D01*
X1674Y1725D01*
X1674Y1727D01*
X1672Y1727D01*
X1672Y1731D01*
X1650Y1731D01*
G37*
D02*
G36*
X2956Y1889D02*
X2956Y1869D01*
X2958Y1869D01*
X2958Y1863D01*
X2960Y1863D01*
X2960Y1851D01*
X2958Y1851D01*
X2958Y1843D01*
X2956Y1843D01*
X2956Y1839D01*
X2954Y1839D01*
X2954Y1835D01*
X2952Y1835D01*
X2952Y1831D01*
X2950Y1831D01*
X2950Y1829D01*
X2948Y1829D01*
X2948Y1827D01*
X2946Y1827D01*
X2946Y1825D01*
X2944Y1825D01*
X2944Y1823D01*
X2942Y1823D01*
X2942Y1821D01*
X2940Y1821D01*
X2940Y1819D01*
X2938Y1819D01*
X2938Y1817D01*
X2936Y1817D01*
X2936Y1815D01*
X2932Y1815D01*
X2932Y1813D01*
X2928Y1813D01*
X2928Y1811D01*
X2922Y1811D01*
X2922Y1809D01*
X2914Y1809D01*
X2914Y1807D01*
X2890Y1807D01*
X2890Y1805D01*
X2888Y1805D01*
X2888Y1803D01*
X2886Y1803D01*
X2886Y1801D01*
X2884Y1801D01*
X2884Y1799D01*
X2882Y1799D01*
X2882Y1797D01*
X2880Y1797D01*
X2880Y1795D01*
X2878Y1795D01*
X2878Y1793D01*
X2876Y1793D01*
X2876Y1791D01*
X2874Y1791D01*
X2874Y1789D01*
X2872Y1789D01*
X2872Y1787D01*
X2870Y1787D01*
X2870Y1785D01*
X2868Y1785D01*
X2868Y1783D01*
X2866Y1783D01*
X2866Y1781D01*
X2864Y1781D01*
X2864Y1779D01*
X2862Y1779D01*
X2862Y1777D01*
X2860Y1777D01*
X2860Y1775D01*
X2858Y1775D01*
X2858Y1773D01*
X2856Y1773D01*
X2856Y1771D01*
X2854Y1771D01*
X2854Y1769D01*
X2852Y1769D01*
X2852Y1767D01*
X2850Y1767D01*
X2850Y1765D01*
X2848Y1765D01*
X2848Y1763D01*
X2846Y1763D01*
X2846Y1761D01*
X2844Y1761D01*
X2844Y1759D01*
X2842Y1759D01*
X2842Y1757D01*
X2840Y1757D01*
X2840Y1755D01*
X2838Y1755D01*
X2838Y1753D01*
X2836Y1753D01*
X2836Y1751D01*
X2834Y1751D01*
X2834Y1749D01*
X2832Y1749D01*
X2832Y1747D01*
X2830Y1747D01*
X2830Y1745D01*
X2828Y1745D01*
X2828Y1743D01*
X2826Y1743D01*
X2826Y1723D01*
X2834Y1723D01*
X2834Y1721D01*
X2840Y1721D01*
X2840Y1719D01*
X2844Y1719D01*
X2844Y1717D01*
X2848Y1717D01*
X2848Y1715D01*
X2852Y1715D01*
X2852Y1713D01*
X2854Y1713D01*
X2854Y1711D01*
X2856Y1711D01*
X2856Y1709D01*
X2858Y1709D01*
X2858Y1707D01*
X2862Y1707D01*
X2862Y1703D01*
X2864Y1703D01*
X2864Y1701D01*
X2866Y1701D01*
X2866Y1699D01*
X2868Y1699D01*
X2868Y1695D01*
X2870Y1695D01*
X2870Y1693D01*
X2872Y1693D01*
X2872Y1689D01*
X2874Y1689D01*
X2874Y1683D01*
X2876Y1683D01*
X2876Y1675D01*
X2878Y1675D01*
X2878Y1663D01*
X2876Y1663D01*
X2876Y1655D01*
X2874Y1655D01*
X2874Y1649D01*
X2872Y1649D01*
X2872Y1645D01*
X2870Y1645D01*
X2870Y1641D01*
X2868Y1641D01*
X2868Y1639D01*
X2866Y1639D01*
X2866Y1637D01*
X2864Y1637D01*
X2864Y1633D01*
X2862Y1633D01*
X2862Y1631D01*
X2860Y1631D01*
X2860Y1629D01*
X2858Y1629D01*
X2858Y1627D01*
X2854Y1627D01*
X2854Y1625D01*
X2852Y1625D01*
X2852Y1623D01*
X2848Y1623D01*
X2848Y1621D01*
X2846Y1621D01*
X2846Y1619D01*
X2842Y1619D01*
X2842Y1617D01*
X2836Y1617D01*
X2836Y1615D01*
X2826Y1615D01*
X2826Y1613D01*
X2986Y1613D01*
X2986Y1889D01*
X2956Y1889D01*
G37*
D02*
G36*
X2326Y1725D02*
X2326Y1723D01*
X2324Y1723D01*
X2324Y1721D01*
X2322Y1721D01*
X2322Y1719D01*
X2320Y1719D01*
X2320Y1717D01*
X2318Y1717D01*
X2318Y1715D01*
X2314Y1715D01*
X2314Y1713D01*
X2312Y1713D01*
X2312Y1711D01*
X2310Y1711D01*
X2310Y1709D01*
X2308Y1709D01*
X2308Y1707D01*
X2306Y1707D01*
X2306Y1705D01*
X2302Y1705D01*
X2302Y1703D01*
X2540Y1703D01*
X2540Y1701D01*
X2546Y1701D01*
X2546Y1699D01*
X2550Y1699D01*
X2550Y1697D01*
X2554Y1697D01*
X2554Y1695D01*
X2556Y1695D01*
X2556Y1693D01*
X2560Y1693D01*
X2560Y1691D01*
X2562Y1691D01*
X2562Y1689D01*
X2564Y1689D01*
X2564Y1687D01*
X2566Y1687D01*
X2566Y1685D01*
X2568Y1685D01*
X2568Y1683D01*
X2570Y1683D01*
X2570Y1681D01*
X2572Y1681D01*
X2572Y1677D01*
X2574Y1677D01*
X2574Y1673D01*
X2576Y1673D01*
X2576Y1671D01*
X2578Y1671D01*
X2578Y1667D01*
X2580Y1667D01*
X2580Y1659D01*
X2582Y1659D01*
X2582Y1637D01*
X2580Y1637D01*
X2580Y1631D01*
X2578Y1631D01*
X2578Y1627D01*
X2576Y1627D01*
X2576Y1623D01*
X2574Y1623D01*
X2574Y1621D01*
X2572Y1621D01*
X2572Y1617D01*
X2570Y1617D01*
X2570Y1615D01*
X2568Y1615D01*
X2568Y1613D01*
X2566Y1613D01*
X2566Y1611D01*
X2564Y1611D01*
X2564Y1609D01*
X2562Y1609D01*
X2562Y1607D01*
X2560Y1607D01*
X2560Y1605D01*
X2558Y1605D01*
X2558Y1603D01*
X2554Y1603D01*
X2554Y1601D01*
X2550Y1601D01*
X2550Y1599D01*
X2546Y1599D01*
X2546Y1597D01*
X2542Y1597D01*
X2542Y1595D01*
X2532Y1595D01*
X2532Y1593D01*
X2710Y1593D01*
X2710Y1595D01*
X2714Y1595D01*
X2714Y1597D01*
X2716Y1597D01*
X2716Y1599D01*
X2718Y1599D01*
X2718Y1601D01*
X2720Y1601D01*
X2720Y1603D01*
X2722Y1603D01*
X2722Y1605D01*
X2724Y1605D01*
X2724Y1607D01*
X2726Y1607D01*
X2726Y1609D01*
X2728Y1609D01*
X2728Y1611D01*
X2730Y1611D01*
X2730Y1613D01*
X2732Y1613D01*
X2732Y1615D01*
X2734Y1615D01*
X2734Y1617D01*
X2736Y1617D01*
X2736Y1619D01*
X2738Y1619D01*
X2738Y1621D01*
X2740Y1621D01*
X2740Y1623D01*
X2742Y1623D01*
X2742Y1625D01*
X2744Y1625D01*
X2744Y1627D01*
X2748Y1627D01*
X2748Y1629D01*
X2750Y1629D01*
X2750Y1631D01*
X2752Y1631D01*
X2752Y1633D01*
X2754Y1633D01*
X2754Y1635D01*
X2756Y1635D01*
X2756Y1637D01*
X2758Y1637D01*
X2758Y1639D01*
X2760Y1639D01*
X2760Y1641D01*
X2762Y1641D01*
X2762Y1643D01*
X2764Y1643D01*
X2764Y1645D01*
X2766Y1645D01*
X2766Y1647D01*
X2768Y1647D01*
X2768Y1681D01*
X2770Y1681D01*
X2770Y1687D01*
X2772Y1687D01*
X2772Y1691D01*
X2774Y1691D01*
X2774Y1695D01*
X2776Y1695D01*
X2776Y1697D01*
X2778Y1697D01*
X2778Y1701D01*
X2780Y1701D01*
X2780Y1703D01*
X2782Y1703D01*
X2782Y1705D01*
X2784Y1705D01*
X2784Y1725D01*
X2326Y1725D01*
G37*
D02*
G36*
X2300Y1703D02*
X2300Y1701D01*
X2298Y1701D01*
X2298Y1699D01*
X2296Y1699D01*
X2296Y1697D01*
X2294Y1697D01*
X2294Y1695D01*
X2290Y1695D01*
X2290Y1693D01*
X2288Y1693D01*
X2288Y1691D01*
X2286Y1691D01*
X2286Y1689D01*
X2284Y1689D01*
X2284Y1687D01*
X2282Y1687D01*
X2282Y1685D01*
X2278Y1685D01*
X2278Y1683D01*
X2276Y1683D01*
X2276Y1681D01*
X2274Y1681D01*
X2274Y1679D01*
X2272Y1679D01*
X2272Y1677D01*
X2270Y1677D01*
X2270Y1675D01*
X2266Y1675D01*
X2266Y1673D01*
X2264Y1673D01*
X2264Y1671D01*
X2262Y1671D01*
X2262Y1669D01*
X2260Y1669D01*
X2260Y1667D01*
X2258Y1667D01*
X2258Y1665D01*
X2254Y1665D01*
X2254Y1663D01*
X2252Y1663D01*
X2252Y1661D01*
X2250Y1661D01*
X2250Y1659D01*
X2248Y1659D01*
X2248Y1657D01*
X2246Y1657D01*
X2246Y1655D01*
X2242Y1655D01*
X2242Y1653D01*
X2240Y1653D01*
X2240Y1651D01*
X2238Y1651D01*
X2238Y1649D01*
X2236Y1649D01*
X2236Y1647D01*
X2234Y1647D01*
X2234Y1645D01*
X2230Y1645D01*
X2230Y1643D01*
X2228Y1643D01*
X2228Y1641D01*
X2226Y1641D01*
X2226Y1639D01*
X2224Y1639D01*
X2224Y1637D01*
X2222Y1637D01*
X2222Y1635D01*
X2218Y1635D01*
X2218Y1633D01*
X2216Y1633D01*
X2216Y1631D01*
X2214Y1631D01*
X2214Y1629D01*
X2212Y1629D01*
X2212Y1627D01*
X2210Y1627D01*
X2210Y1625D01*
X2206Y1625D01*
X2206Y1623D01*
X2204Y1623D01*
X2204Y1621D01*
X2202Y1621D01*
X2202Y1619D01*
X2200Y1619D01*
X2200Y1617D01*
X2198Y1617D01*
X2198Y1615D01*
X2194Y1615D01*
X2194Y1613D01*
X2192Y1613D01*
X2192Y1611D01*
X2190Y1611D01*
X2190Y1609D01*
X2188Y1609D01*
X2188Y1607D01*
X2186Y1607D01*
X2186Y1605D01*
X2182Y1605D01*
X2182Y1603D01*
X2180Y1603D01*
X2180Y1601D01*
X2178Y1601D01*
X2178Y1599D01*
X2176Y1599D01*
X2176Y1597D01*
X2172Y1597D01*
X2172Y1595D01*
X2170Y1595D01*
X2170Y1593D01*
X2524Y1593D01*
X2524Y1595D01*
X2514Y1595D01*
X2514Y1597D01*
X2508Y1597D01*
X2508Y1599D01*
X2504Y1599D01*
X2504Y1601D01*
X2500Y1601D01*
X2500Y1603D01*
X2498Y1603D01*
X2498Y1605D01*
X2496Y1605D01*
X2496Y1607D01*
X2492Y1607D01*
X2492Y1609D01*
X2490Y1609D01*
X2490Y1611D01*
X2488Y1611D01*
X2488Y1613D01*
X2486Y1613D01*
X2486Y1617D01*
X2484Y1617D01*
X2484Y1619D01*
X2482Y1619D01*
X2482Y1621D01*
X2480Y1621D01*
X2480Y1625D01*
X2478Y1625D01*
X2478Y1629D01*
X2476Y1629D01*
X2476Y1633D01*
X2474Y1633D01*
X2474Y1641D01*
X2472Y1641D01*
X2472Y1655D01*
X2474Y1655D01*
X2474Y1663D01*
X2476Y1663D01*
X2476Y1669D01*
X2478Y1669D01*
X2478Y1673D01*
X2480Y1673D01*
X2480Y1677D01*
X2482Y1677D01*
X2482Y1679D01*
X2484Y1679D01*
X2484Y1681D01*
X2486Y1681D01*
X2486Y1683D01*
X2488Y1683D01*
X2488Y1687D01*
X2490Y1687D01*
X2490Y1689D01*
X2494Y1689D01*
X2494Y1691D01*
X2496Y1691D01*
X2496Y1693D01*
X2498Y1693D01*
X2498Y1695D01*
X2502Y1695D01*
X2502Y1697D01*
X2506Y1697D01*
X2506Y1699D01*
X2510Y1699D01*
X2510Y1701D01*
X2514Y1701D01*
X2514Y1703D01*
X2300Y1703D01*
G37*
D02*
G36*
X2796Y1615D02*
X2796Y1613D01*
X2818Y1613D01*
X2818Y1615D01*
X2796Y1615D01*
G37*
D02*
G36*
X2794Y1613D02*
X2794Y1611D01*
X2986Y1611D01*
X2986Y1613D01*
X2794Y1613D01*
G37*
D02*
G36*
X2794Y1613D02*
X2794Y1611D01*
X2986Y1611D01*
X2986Y1613D01*
X2794Y1613D01*
G37*
D02*
G36*
X2792Y1611D02*
X2792Y1609D01*
X2790Y1609D01*
X2790Y1607D01*
X2788Y1607D01*
X2788Y1605D01*
X2786Y1605D01*
X2786Y1603D01*
X2784Y1603D01*
X2784Y1601D01*
X2782Y1601D01*
X2782Y1599D01*
X2780Y1599D01*
X2780Y1597D01*
X2778Y1597D01*
X2778Y1595D01*
X2776Y1595D01*
X2776Y1593D01*
X2772Y1593D01*
X2772Y1591D01*
X2770Y1591D01*
X2770Y1589D01*
X2768Y1589D01*
X2768Y1587D01*
X2766Y1587D01*
X2766Y1585D01*
X2764Y1585D01*
X2764Y1583D01*
X2762Y1583D01*
X2762Y1581D01*
X2760Y1581D01*
X2760Y1579D01*
X2758Y1579D01*
X2758Y1577D01*
X2756Y1577D01*
X2756Y1575D01*
X2754Y1575D01*
X2754Y1573D01*
X2752Y1573D01*
X2752Y1571D01*
X2750Y1571D01*
X2750Y1569D01*
X2748Y1569D01*
X2748Y1567D01*
X2746Y1567D01*
X2746Y1565D01*
X2744Y1565D01*
X2744Y1563D01*
X2742Y1563D01*
X2742Y1561D01*
X2738Y1561D01*
X2738Y1559D01*
X2736Y1559D01*
X2736Y1557D01*
X2734Y1557D01*
X2734Y1555D01*
X2732Y1555D01*
X2732Y1553D01*
X2730Y1553D01*
X2730Y1551D01*
X2728Y1551D01*
X2728Y1549D01*
X2726Y1549D01*
X2726Y1547D01*
X2724Y1547D01*
X2724Y1545D01*
X2722Y1545D01*
X2722Y1543D01*
X2720Y1543D01*
X2720Y1541D01*
X2718Y1541D01*
X2718Y1539D01*
X2716Y1539D01*
X2716Y1537D01*
X2714Y1537D01*
X2714Y1535D01*
X2712Y1535D01*
X2712Y1533D01*
X2710Y1533D01*
X2710Y1531D01*
X2962Y1531D01*
X2962Y1529D01*
X2986Y1529D01*
X2986Y1611D01*
X2792Y1611D01*
G37*
D02*
G36*
X2168Y1593D02*
X2168Y1591D01*
X2708Y1591D01*
X2708Y1593D01*
X2168Y1593D01*
G37*
D02*
G36*
X2168Y1593D02*
X2168Y1591D01*
X2708Y1591D01*
X2708Y1593D01*
X2168Y1593D01*
G37*
D02*
G36*
X2166Y1591D02*
X2166Y1589D01*
X2164Y1589D01*
X2164Y1587D01*
X2160Y1587D01*
X2160Y1585D01*
X2158Y1585D01*
X2158Y1583D01*
X2156Y1583D01*
X2156Y1581D01*
X2154Y1581D01*
X2154Y1579D01*
X2152Y1579D01*
X2152Y1577D01*
X2148Y1577D01*
X2148Y1575D01*
X2146Y1575D01*
X2146Y1573D01*
X2144Y1573D01*
X2144Y1571D01*
X2142Y1571D01*
X2142Y1569D01*
X2140Y1569D01*
X2140Y1567D01*
X2136Y1567D01*
X2136Y1565D01*
X2134Y1565D01*
X2134Y1563D01*
X2132Y1563D01*
X2132Y1561D01*
X2130Y1561D01*
X2130Y1559D01*
X2128Y1559D01*
X2128Y1557D01*
X2124Y1557D01*
X2124Y1555D01*
X2122Y1555D01*
X2122Y1553D01*
X2120Y1553D01*
X2120Y1551D01*
X2118Y1551D01*
X2118Y1549D01*
X2116Y1549D01*
X2116Y1547D01*
X2112Y1547D01*
X2112Y1545D01*
X2110Y1545D01*
X2110Y1543D01*
X2108Y1543D01*
X2108Y1541D01*
X2106Y1541D01*
X2106Y1539D01*
X2104Y1539D01*
X2104Y1537D01*
X2100Y1537D01*
X2100Y1535D01*
X2098Y1535D01*
X2098Y1533D01*
X2096Y1533D01*
X2096Y1531D01*
X2094Y1531D01*
X2094Y1529D01*
X2092Y1529D01*
X2092Y1527D01*
X2088Y1527D01*
X2088Y1525D01*
X2086Y1525D01*
X2086Y1523D01*
X2084Y1523D01*
X2084Y1521D01*
X2082Y1521D01*
X2082Y1519D01*
X2080Y1519D01*
X2080Y1517D01*
X2076Y1517D01*
X2076Y1515D01*
X2074Y1515D01*
X2074Y1513D01*
X2072Y1513D01*
X2072Y1511D01*
X2070Y1511D01*
X2070Y1509D01*
X2068Y1509D01*
X2068Y1507D01*
X2064Y1507D01*
X2064Y1505D01*
X2062Y1505D01*
X2062Y1503D01*
X2060Y1503D01*
X2060Y1501D01*
X2058Y1501D01*
X2058Y1499D01*
X2056Y1499D01*
X2056Y1497D01*
X2052Y1497D01*
X2052Y1495D01*
X2050Y1495D01*
X2050Y1493D01*
X2048Y1493D01*
X2048Y1491D01*
X2046Y1491D01*
X2046Y1489D01*
X2044Y1489D01*
X2044Y1487D01*
X2040Y1487D01*
X2040Y1485D01*
X2038Y1485D01*
X2038Y1483D01*
X2036Y1483D01*
X2036Y1481D01*
X2034Y1481D01*
X2034Y1479D01*
X2032Y1479D01*
X2032Y1477D01*
X2028Y1477D01*
X2028Y1475D01*
X2026Y1475D01*
X2026Y1473D01*
X2024Y1473D01*
X2024Y1471D01*
X2022Y1471D01*
X2022Y1469D01*
X2020Y1469D01*
X2020Y1467D01*
X2016Y1467D01*
X2016Y1465D01*
X2014Y1465D01*
X2014Y1463D01*
X2012Y1463D01*
X2012Y1461D01*
X2010Y1461D01*
X2010Y1459D01*
X2008Y1459D01*
X2008Y1457D01*
X2004Y1457D01*
X2004Y1455D01*
X2002Y1455D01*
X2002Y1453D01*
X2000Y1453D01*
X2000Y1451D01*
X1998Y1451D01*
X1998Y1449D01*
X1996Y1449D01*
X1996Y1447D01*
X1992Y1447D01*
X1992Y1445D01*
X1990Y1445D01*
X1990Y1443D01*
X1988Y1443D01*
X1988Y1441D01*
X1986Y1441D01*
X1986Y1439D01*
X1982Y1439D01*
X1982Y1437D01*
X1980Y1437D01*
X1980Y1435D01*
X1978Y1435D01*
X1978Y1433D01*
X1976Y1433D01*
X1976Y1431D01*
X1974Y1431D01*
X1974Y1429D01*
X1970Y1429D01*
X1970Y1427D01*
X1968Y1427D01*
X1968Y1425D01*
X1966Y1425D01*
X1966Y1423D01*
X1964Y1423D01*
X1964Y1421D01*
X1962Y1421D01*
X1962Y1419D01*
X1958Y1419D01*
X1958Y1417D01*
X1956Y1417D01*
X1956Y1415D01*
X1954Y1415D01*
X1954Y1413D01*
X1952Y1413D01*
X1952Y1411D01*
X1950Y1411D01*
X1950Y1409D01*
X1946Y1409D01*
X1946Y1407D01*
X1944Y1407D01*
X1944Y1405D01*
X1942Y1405D01*
X1942Y1403D01*
X1940Y1403D01*
X1940Y1401D01*
X1938Y1401D01*
X1938Y1399D01*
X1934Y1399D01*
X1934Y1397D01*
X1932Y1397D01*
X1932Y1395D01*
X1930Y1395D01*
X1930Y1393D01*
X1928Y1393D01*
X1928Y1391D01*
X1926Y1391D01*
X1926Y1389D01*
X1922Y1389D01*
X1922Y1387D01*
X1920Y1387D01*
X1920Y1385D01*
X1918Y1385D01*
X1918Y1383D01*
X1916Y1383D01*
X1916Y1381D01*
X1914Y1381D01*
X1914Y1379D01*
X1910Y1379D01*
X1910Y1377D01*
X1908Y1377D01*
X1908Y1375D01*
X1906Y1375D01*
X1906Y1373D01*
X1904Y1373D01*
X1904Y1371D01*
X1902Y1371D01*
X1902Y1369D01*
X1898Y1369D01*
X1898Y1367D01*
X1896Y1367D01*
X1896Y1365D01*
X1894Y1365D01*
X1894Y1363D01*
X1892Y1363D01*
X1892Y1361D01*
X1890Y1361D01*
X1890Y1359D01*
X1886Y1359D01*
X1886Y1357D01*
X1884Y1357D01*
X1884Y1355D01*
X1882Y1355D01*
X1882Y1353D01*
X1880Y1353D01*
X1880Y1351D01*
X1878Y1351D01*
X1878Y1349D01*
X1874Y1349D01*
X1874Y1347D01*
X1872Y1347D01*
X1872Y1345D01*
X1870Y1345D01*
X1870Y1343D01*
X1868Y1343D01*
X1868Y1341D01*
X1866Y1341D01*
X1866Y1339D01*
X1862Y1339D01*
X1862Y1337D01*
X1860Y1337D01*
X1860Y1335D01*
X1858Y1335D01*
X1858Y1333D01*
X1856Y1333D01*
X1856Y1331D01*
X1854Y1331D01*
X1854Y1329D01*
X1850Y1329D01*
X1850Y1327D01*
X1848Y1327D01*
X1848Y1325D01*
X1846Y1325D01*
X1846Y1323D01*
X1844Y1323D01*
X1844Y1321D01*
X1842Y1321D01*
X1842Y1319D01*
X1838Y1319D01*
X1838Y1317D01*
X1836Y1317D01*
X1836Y1315D01*
X1834Y1315D01*
X1834Y1313D01*
X1832Y1313D01*
X1832Y1311D01*
X1830Y1311D01*
X1830Y1309D01*
X1826Y1309D01*
X1826Y1307D01*
X1824Y1307D01*
X1824Y1305D01*
X1822Y1305D01*
X1822Y1303D01*
X1820Y1303D01*
X1820Y1301D01*
X1818Y1301D01*
X1818Y1299D01*
X1814Y1299D01*
X1814Y1297D01*
X1812Y1297D01*
X1812Y1295D01*
X1810Y1295D01*
X1810Y1293D01*
X1808Y1293D01*
X1808Y1291D01*
X1806Y1291D01*
X1806Y1289D01*
X1802Y1289D01*
X1802Y1287D01*
X1800Y1287D01*
X1800Y1285D01*
X1798Y1285D01*
X1798Y1283D01*
X1796Y1283D01*
X1796Y1281D01*
X1792Y1281D01*
X1792Y1279D01*
X1790Y1279D01*
X1790Y1277D01*
X1788Y1277D01*
X1788Y1275D01*
X1786Y1275D01*
X1786Y1273D01*
X1784Y1273D01*
X1784Y1271D01*
X1780Y1271D01*
X1780Y1269D01*
X1778Y1269D01*
X1778Y1267D01*
X1776Y1267D01*
X1776Y1265D01*
X1774Y1265D01*
X1774Y1263D01*
X1772Y1263D01*
X1772Y1261D01*
X1768Y1261D01*
X1768Y1259D01*
X1766Y1259D01*
X1766Y1257D01*
X1764Y1257D01*
X1764Y1255D01*
X1762Y1255D01*
X1762Y1253D01*
X1760Y1253D01*
X1760Y1251D01*
X1756Y1251D01*
X1756Y1249D01*
X1754Y1249D01*
X1754Y1247D01*
X1752Y1247D01*
X1752Y1245D01*
X1750Y1245D01*
X1750Y1243D01*
X1748Y1243D01*
X1748Y1241D01*
X1744Y1241D01*
X1744Y1239D01*
X1742Y1239D01*
X1742Y1237D01*
X1740Y1237D01*
X1740Y1235D01*
X1738Y1235D01*
X1738Y1233D01*
X1736Y1233D01*
X1736Y1231D01*
X1732Y1231D01*
X1732Y1229D01*
X1730Y1229D01*
X1730Y1227D01*
X1728Y1227D01*
X1728Y1225D01*
X1726Y1225D01*
X1726Y1223D01*
X1724Y1223D01*
X1724Y1221D01*
X1720Y1221D01*
X1720Y1219D01*
X1718Y1219D01*
X1718Y1217D01*
X1716Y1217D01*
X1716Y1215D01*
X1714Y1215D01*
X1714Y1213D01*
X1712Y1213D01*
X1712Y1211D01*
X1708Y1211D01*
X1708Y1209D01*
X1706Y1209D01*
X1706Y1207D01*
X1704Y1207D01*
X1704Y1205D01*
X1702Y1205D01*
X1702Y1203D01*
X1700Y1203D01*
X1700Y1201D01*
X1696Y1201D01*
X1696Y1199D01*
X1694Y1199D01*
X1694Y1197D01*
X1692Y1197D01*
X1692Y1195D01*
X1690Y1195D01*
X1690Y1193D01*
X1688Y1193D01*
X1688Y1191D01*
X1684Y1191D01*
X1684Y1189D01*
X1682Y1189D01*
X1682Y1187D01*
X1680Y1187D01*
X1680Y1185D01*
X1678Y1185D01*
X1678Y1183D01*
X1676Y1183D01*
X1676Y1181D01*
X1672Y1181D01*
X1672Y1179D01*
X1670Y1179D01*
X1670Y1177D01*
X1668Y1177D01*
X1668Y1175D01*
X1666Y1175D01*
X1666Y1173D01*
X1664Y1173D01*
X1664Y1171D01*
X1662Y1171D01*
X1662Y1151D01*
X1660Y1151D01*
X1660Y1143D01*
X1658Y1143D01*
X1658Y1139D01*
X1656Y1139D01*
X1656Y1135D01*
X1654Y1135D01*
X1654Y1131D01*
X1652Y1131D01*
X1652Y1129D01*
X1650Y1129D01*
X1650Y1125D01*
X1648Y1125D01*
X1648Y1123D01*
X1646Y1123D01*
X1646Y1121D01*
X1644Y1121D01*
X1644Y1119D01*
X1642Y1119D01*
X1642Y1117D01*
X1638Y1117D01*
X1638Y1115D01*
X1636Y1115D01*
X1636Y1113D01*
X1632Y1113D01*
X1632Y1111D01*
X1628Y1111D01*
X1628Y1109D01*
X1624Y1109D01*
X1624Y1107D01*
X1614Y1107D01*
X1614Y1105D01*
X2014Y1105D01*
X2014Y1103D01*
X2022Y1103D01*
X2022Y1101D01*
X2028Y1101D01*
X2028Y1099D01*
X2032Y1099D01*
X2032Y1097D01*
X2034Y1097D01*
X2034Y1095D01*
X2038Y1095D01*
X2038Y1093D01*
X2040Y1093D01*
X2040Y1091D01*
X2042Y1091D01*
X2042Y1089D01*
X2044Y1089D01*
X2044Y1087D01*
X2046Y1087D01*
X2046Y1085D01*
X2048Y1085D01*
X2048Y1083D01*
X2050Y1083D01*
X2050Y1079D01*
X2052Y1079D01*
X2052Y1075D01*
X2054Y1075D01*
X2054Y1071D01*
X2056Y1071D01*
X2056Y1065D01*
X2058Y1065D01*
X2058Y1049D01*
X2056Y1049D01*
X2056Y1043D01*
X2054Y1043D01*
X2054Y1039D01*
X2052Y1039D01*
X2052Y1035D01*
X2050Y1035D01*
X2050Y1031D01*
X2048Y1031D01*
X2048Y1029D01*
X2046Y1029D01*
X2046Y1027D01*
X2044Y1027D01*
X2044Y1025D01*
X2042Y1025D01*
X2042Y1023D01*
X2040Y1023D01*
X2040Y1021D01*
X2038Y1021D01*
X2038Y1019D01*
X2036Y1019D01*
X2036Y1017D01*
X2032Y1017D01*
X2032Y1015D01*
X2028Y1015D01*
X2028Y1013D01*
X2024Y1013D01*
X2024Y1011D01*
X2018Y1011D01*
X2018Y1009D01*
X2288Y1009D01*
X2288Y1191D01*
X2290Y1191D01*
X2290Y1197D01*
X2292Y1197D01*
X2292Y1199D01*
X2294Y1199D01*
X2294Y1203D01*
X2296Y1203D01*
X2296Y1205D01*
X2298Y1205D01*
X2298Y1207D01*
X2300Y1207D01*
X2300Y1209D01*
X2304Y1209D01*
X2304Y1211D01*
X2306Y1211D01*
X2306Y1213D01*
X2308Y1213D01*
X2308Y1215D01*
X2310Y1215D01*
X2310Y1217D01*
X2312Y1217D01*
X2312Y1219D01*
X2314Y1219D01*
X2314Y1221D01*
X2316Y1221D01*
X2316Y1223D01*
X2318Y1223D01*
X2318Y1225D01*
X2320Y1225D01*
X2320Y1227D01*
X2322Y1227D01*
X2322Y1229D01*
X2324Y1229D01*
X2324Y1231D01*
X2326Y1231D01*
X2326Y1233D01*
X2328Y1233D01*
X2328Y1235D01*
X2330Y1235D01*
X2330Y1237D01*
X2332Y1237D01*
X2332Y1239D01*
X2334Y1239D01*
X2334Y1241D01*
X2338Y1241D01*
X2338Y1243D01*
X2340Y1243D01*
X2340Y1245D01*
X2342Y1245D01*
X2342Y1247D01*
X2344Y1247D01*
X2344Y1249D01*
X2346Y1249D01*
X2346Y1251D01*
X2348Y1251D01*
X2348Y1253D01*
X2350Y1253D01*
X2350Y1255D01*
X2352Y1255D01*
X2352Y1257D01*
X2354Y1257D01*
X2354Y1259D01*
X2356Y1259D01*
X2356Y1261D01*
X2358Y1261D01*
X2358Y1263D01*
X2360Y1263D01*
X2360Y1265D01*
X2362Y1265D01*
X2362Y1267D01*
X2364Y1267D01*
X2364Y1269D01*
X2366Y1269D01*
X2366Y1271D01*
X2368Y1271D01*
X2368Y1273D01*
X2372Y1273D01*
X2372Y1275D01*
X2374Y1275D01*
X2374Y1277D01*
X2376Y1277D01*
X2376Y1279D01*
X2378Y1279D01*
X2378Y1281D01*
X2380Y1281D01*
X2380Y1283D01*
X2382Y1283D01*
X2382Y1285D01*
X2384Y1285D01*
X2384Y1287D01*
X2386Y1287D01*
X2386Y1289D01*
X2388Y1289D01*
X2388Y1291D01*
X2390Y1291D01*
X2390Y1293D01*
X2392Y1293D01*
X2392Y1295D01*
X2394Y1295D01*
X2394Y1297D01*
X2396Y1297D01*
X2396Y1299D01*
X2398Y1299D01*
X2398Y1301D01*
X2400Y1301D01*
X2400Y1303D01*
X2402Y1303D01*
X2402Y1305D01*
X2406Y1305D01*
X2406Y1307D01*
X2408Y1307D01*
X2408Y1309D01*
X2410Y1309D01*
X2410Y1311D01*
X2412Y1311D01*
X2412Y1313D01*
X2414Y1313D01*
X2414Y1315D01*
X2416Y1315D01*
X2416Y1317D01*
X2418Y1317D01*
X2418Y1319D01*
X2420Y1319D01*
X2420Y1321D01*
X2422Y1321D01*
X2422Y1323D01*
X2424Y1323D01*
X2424Y1325D01*
X2426Y1325D01*
X2426Y1327D01*
X2428Y1327D01*
X2428Y1329D01*
X2430Y1329D01*
X2430Y1331D01*
X2432Y1331D01*
X2432Y1333D01*
X2434Y1333D01*
X2434Y1335D01*
X2436Y1335D01*
X2436Y1337D01*
X2440Y1337D01*
X2440Y1339D01*
X2442Y1339D01*
X2442Y1341D01*
X2444Y1341D01*
X2444Y1343D01*
X2446Y1343D01*
X2446Y1345D01*
X2448Y1345D01*
X2448Y1347D01*
X2450Y1347D01*
X2450Y1349D01*
X2452Y1349D01*
X2452Y1351D01*
X2454Y1351D01*
X2454Y1353D01*
X2456Y1353D01*
X2456Y1355D01*
X2458Y1355D01*
X2458Y1357D01*
X2460Y1357D01*
X2460Y1359D01*
X2462Y1359D01*
X2462Y1361D01*
X2464Y1361D01*
X2464Y1363D01*
X2466Y1363D01*
X2466Y1365D01*
X2468Y1365D01*
X2468Y1367D01*
X2470Y1367D01*
X2470Y1369D01*
X2474Y1369D01*
X2474Y1371D01*
X2476Y1371D01*
X2476Y1373D01*
X2478Y1373D01*
X2478Y1375D01*
X2480Y1375D01*
X2480Y1377D01*
X2482Y1377D01*
X2482Y1379D01*
X2484Y1379D01*
X2484Y1381D01*
X2486Y1381D01*
X2486Y1383D01*
X2488Y1383D01*
X2488Y1385D01*
X2490Y1385D01*
X2490Y1387D01*
X2492Y1387D01*
X2492Y1389D01*
X2494Y1389D01*
X2494Y1391D01*
X2496Y1391D01*
X2496Y1393D01*
X2498Y1393D01*
X2498Y1395D01*
X2500Y1395D01*
X2500Y1397D01*
X2502Y1397D01*
X2502Y1399D01*
X2504Y1399D01*
X2504Y1401D01*
X2508Y1401D01*
X2508Y1403D01*
X2510Y1403D01*
X2510Y1405D01*
X2512Y1405D01*
X2512Y1407D01*
X2514Y1407D01*
X2514Y1409D01*
X2516Y1409D01*
X2516Y1411D01*
X2518Y1411D01*
X2518Y1413D01*
X2520Y1413D01*
X2520Y1415D01*
X2522Y1415D01*
X2522Y1417D01*
X2524Y1417D01*
X2524Y1419D01*
X2526Y1419D01*
X2526Y1421D01*
X2528Y1421D01*
X2528Y1423D01*
X2530Y1423D01*
X2530Y1425D01*
X2532Y1425D01*
X2532Y1427D01*
X2534Y1427D01*
X2534Y1429D01*
X2536Y1429D01*
X2536Y1431D01*
X2538Y1431D01*
X2538Y1433D01*
X2540Y1433D01*
X2540Y1435D01*
X2544Y1435D01*
X2544Y1437D01*
X2546Y1437D01*
X2546Y1439D01*
X2548Y1439D01*
X2548Y1441D01*
X2550Y1441D01*
X2550Y1443D01*
X2552Y1443D01*
X2552Y1445D01*
X2554Y1445D01*
X2554Y1447D01*
X2556Y1447D01*
X2556Y1449D01*
X2558Y1449D01*
X2558Y1451D01*
X2560Y1451D01*
X2560Y1453D01*
X2562Y1453D01*
X2562Y1455D01*
X2564Y1455D01*
X2564Y1457D01*
X2566Y1457D01*
X2566Y1459D01*
X2568Y1459D01*
X2568Y1461D01*
X2570Y1461D01*
X2570Y1463D01*
X2572Y1463D01*
X2572Y1465D01*
X2574Y1465D01*
X2574Y1467D01*
X2578Y1467D01*
X2578Y1469D01*
X2580Y1469D01*
X2580Y1471D01*
X2582Y1471D01*
X2582Y1473D01*
X2584Y1473D01*
X2584Y1475D01*
X2586Y1475D01*
X2586Y1477D01*
X2588Y1477D01*
X2588Y1479D01*
X2590Y1479D01*
X2590Y1481D01*
X2592Y1481D01*
X2592Y1483D01*
X2594Y1483D01*
X2594Y1485D01*
X2596Y1485D01*
X2596Y1487D01*
X2598Y1487D01*
X2598Y1489D01*
X2600Y1489D01*
X2600Y1491D01*
X2602Y1491D01*
X2602Y1493D01*
X2604Y1493D01*
X2604Y1495D01*
X2606Y1495D01*
X2606Y1497D01*
X2608Y1497D01*
X2608Y1499D01*
X2612Y1499D01*
X2612Y1501D01*
X2614Y1501D01*
X2614Y1503D01*
X2616Y1503D01*
X2616Y1505D01*
X2618Y1505D01*
X2618Y1507D01*
X2620Y1507D01*
X2620Y1509D01*
X2622Y1509D01*
X2622Y1511D01*
X2624Y1511D01*
X2624Y1513D01*
X2626Y1513D01*
X2626Y1515D01*
X2628Y1515D01*
X2628Y1517D01*
X2630Y1517D01*
X2630Y1519D01*
X2632Y1519D01*
X2632Y1521D01*
X2634Y1521D01*
X2634Y1523D01*
X2636Y1523D01*
X2636Y1525D01*
X2638Y1525D01*
X2638Y1527D01*
X2640Y1527D01*
X2640Y1529D01*
X2642Y1529D01*
X2642Y1531D01*
X2646Y1531D01*
X2646Y1533D01*
X2648Y1533D01*
X2648Y1535D01*
X2650Y1535D01*
X2650Y1537D01*
X2652Y1537D01*
X2652Y1539D01*
X2654Y1539D01*
X2654Y1541D01*
X2656Y1541D01*
X2656Y1543D01*
X2658Y1543D01*
X2658Y1545D01*
X2660Y1545D01*
X2660Y1547D01*
X2662Y1547D01*
X2662Y1549D01*
X2664Y1549D01*
X2664Y1551D01*
X2666Y1551D01*
X2666Y1553D01*
X2668Y1553D01*
X2668Y1555D01*
X2670Y1555D01*
X2670Y1557D01*
X2672Y1557D01*
X2672Y1559D01*
X2674Y1559D01*
X2674Y1561D01*
X2676Y1561D01*
X2676Y1563D01*
X2680Y1563D01*
X2680Y1565D01*
X2682Y1565D01*
X2682Y1567D01*
X2684Y1567D01*
X2684Y1569D01*
X2686Y1569D01*
X2686Y1571D01*
X2688Y1571D01*
X2688Y1573D01*
X2690Y1573D01*
X2690Y1575D01*
X2692Y1575D01*
X2692Y1577D01*
X2694Y1577D01*
X2694Y1579D01*
X2696Y1579D01*
X2696Y1581D01*
X2698Y1581D01*
X2698Y1583D01*
X2700Y1583D01*
X2700Y1585D01*
X2702Y1585D01*
X2702Y1587D01*
X2704Y1587D01*
X2704Y1589D01*
X2706Y1589D01*
X2706Y1591D01*
X2166Y1591D01*
G37*
D02*
G36*
X2708Y1531D02*
X2708Y1529D01*
X2706Y1529D01*
X2706Y1527D01*
X2702Y1527D01*
X2702Y1525D01*
X2700Y1525D01*
X2700Y1523D01*
X2698Y1523D01*
X2698Y1521D01*
X2696Y1521D01*
X2696Y1519D01*
X2694Y1519D01*
X2694Y1517D01*
X2692Y1517D01*
X2692Y1515D01*
X2690Y1515D01*
X2690Y1513D01*
X2688Y1513D01*
X2688Y1511D01*
X2686Y1511D01*
X2686Y1509D01*
X2684Y1509D01*
X2684Y1507D01*
X2682Y1507D01*
X2682Y1505D01*
X2680Y1505D01*
X2680Y1503D01*
X2678Y1503D01*
X2678Y1501D01*
X2676Y1501D01*
X2676Y1499D01*
X2674Y1499D01*
X2674Y1497D01*
X2672Y1497D01*
X2672Y1495D01*
X2668Y1495D01*
X2668Y1493D01*
X2666Y1493D01*
X2666Y1491D01*
X2664Y1491D01*
X2664Y1489D01*
X2662Y1489D01*
X2662Y1487D01*
X2660Y1487D01*
X2660Y1485D01*
X2658Y1485D01*
X2658Y1483D01*
X2656Y1483D01*
X2656Y1481D01*
X2654Y1481D01*
X2654Y1479D01*
X2652Y1479D01*
X2652Y1477D01*
X2650Y1477D01*
X2650Y1475D01*
X2648Y1475D01*
X2648Y1473D01*
X2646Y1473D01*
X2646Y1471D01*
X2644Y1471D01*
X2644Y1469D01*
X2642Y1469D01*
X2642Y1467D01*
X2640Y1467D01*
X2640Y1465D01*
X2638Y1465D01*
X2638Y1463D01*
X2634Y1463D01*
X2634Y1461D01*
X2632Y1461D01*
X2632Y1459D01*
X2630Y1459D01*
X2630Y1457D01*
X2628Y1457D01*
X2628Y1455D01*
X2626Y1455D01*
X2626Y1453D01*
X2624Y1453D01*
X2624Y1451D01*
X2622Y1451D01*
X2622Y1449D01*
X2620Y1449D01*
X2620Y1447D01*
X2618Y1447D01*
X2618Y1445D01*
X2616Y1445D01*
X2616Y1443D01*
X2614Y1443D01*
X2614Y1441D01*
X2612Y1441D01*
X2612Y1439D01*
X2610Y1439D01*
X2610Y1437D01*
X2708Y1437D01*
X2708Y1435D01*
X2714Y1435D01*
X2714Y1433D01*
X2718Y1433D01*
X2718Y1431D01*
X2722Y1431D01*
X2722Y1429D01*
X2726Y1429D01*
X2726Y1427D01*
X2728Y1427D01*
X2728Y1425D01*
X2730Y1425D01*
X2730Y1423D01*
X2732Y1423D01*
X2732Y1421D01*
X2946Y1421D01*
X2946Y1423D01*
X2936Y1423D01*
X2936Y1425D01*
X2932Y1425D01*
X2932Y1427D01*
X2928Y1427D01*
X2928Y1429D01*
X2924Y1429D01*
X2924Y1431D01*
X2920Y1431D01*
X2920Y1433D01*
X2918Y1433D01*
X2918Y1435D01*
X2916Y1435D01*
X2916Y1437D01*
X2914Y1437D01*
X2914Y1439D01*
X2912Y1439D01*
X2912Y1441D01*
X2910Y1441D01*
X2910Y1443D01*
X2908Y1443D01*
X2908Y1445D01*
X2906Y1445D01*
X2906Y1447D01*
X2904Y1447D01*
X2904Y1451D01*
X2902Y1451D01*
X2902Y1455D01*
X2900Y1455D01*
X2900Y1459D01*
X2898Y1459D01*
X2898Y1465D01*
X2896Y1465D01*
X2896Y1489D01*
X2898Y1489D01*
X2898Y1495D01*
X2900Y1495D01*
X2900Y1499D01*
X2902Y1499D01*
X2902Y1503D01*
X2904Y1503D01*
X2904Y1505D01*
X2906Y1505D01*
X2906Y1509D01*
X2908Y1509D01*
X2908Y1511D01*
X2910Y1511D01*
X2910Y1513D01*
X2912Y1513D01*
X2912Y1515D01*
X2914Y1515D01*
X2914Y1517D01*
X2916Y1517D01*
X2916Y1519D01*
X2918Y1519D01*
X2918Y1521D01*
X2922Y1521D01*
X2922Y1523D01*
X2924Y1523D01*
X2924Y1525D01*
X2928Y1525D01*
X2928Y1527D01*
X2932Y1527D01*
X2932Y1529D01*
X2938Y1529D01*
X2938Y1531D01*
X2708Y1531D01*
G37*
D02*
G36*
X2608Y1437D02*
X2608Y1435D01*
X2606Y1435D01*
X2606Y1433D01*
X2604Y1433D01*
X2604Y1431D01*
X2600Y1431D01*
X2600Y1429D01*
X2598Y1429D01*
X2598Y1427D01*
X2596Y1427D01*
X2596Y1425D01*
X2594Y1425D01*
X2594Y1423D01*
X2592Y1423D01*
X2592Y1421D01*
X2590Y1421D01*
X2590Y1419D01*
X2588Y1419D01*
X2588Y1417D01*
X2586Y1417D01*
X2586Y1415D01*
X2584Y1415D01*
X2584Y1413D01*
X2582Y1413D01*
X2582Y1411D01*
X2580Y1411D01*
X2580Y1409D01*
X2578Y1409D01*
X2578Y1407D01*
X2576Y1407D01*
X2576Y1405D01*
X2574Y1405D01*
X2574Y1403D01*
X2572Y1403D01*
X2572Y1401D01*
X2570Y1401D01*
X2570Y1399D01*
X2566Y1399D01*
X2566Y1397D01*
X2564Y1397D01*
X2564Y1395D01*
X2562Y1395D01*
X2562Y1393D01*
X2560Y1393D01*
X2560Y1391D01*
X2558Y1391D01*
X2558Y1389D01*
X2556Y1389D01*
X2556Y1387D01*
X2554Y1387D01*
X2554Y1385D01*
X2552Y1385D01*
X2552Y1383D01*
X2550Y1383D01*
X2550Y1381D01*
X2548Y1381D01*
X2548Y1379D01*
X2546Y1379D01*
X2546Y1377D01*
X2544Y1377D01*
X2544Y1375D01*
X2542Y1375D01*
X2542Y1373D01*
X2540Y1373D01*
X2540Y1371D01*
X2538Y1371D01*
X2538Y1369D01*
X2536Y1369D01*
X2536Y1367D01*
X2532Y1367D01*
X2532Y1365D01*
X2530Y1365D01*
X2530Y1363D01*
X2528Y1363D01*
X2528Y1361D01*
X2526Y1361D01*
X2526Y1359D01*
X2524Y1359D01*
X2524Y1357D01*
X2522Y1357D01*
X2522Y1355D01*
X2520Y1355D01*
X2520Y1353D01*
X2518Y1353D01*
X2518Y1351D01*
X2516Y1351D01*
X2516Y1349D01*
X2514Y1349D01*
X2514Y1347D01*
X2512Y1347D01*
X2512Y1345D01*
X2510Y1345D01*
X2510Y1343D01*
X2508Y1343D01*
X2508Y1341D01*
X2506Y1341D01*
X2506Y1339D01*
X2504Y1339D01*
X2504Y1337D01*
X2502Y1337D01*
X2502Y1335D01*
X2498Y1335D01*
X2498Y1333D01*
X2496Y1333D01*
X2496Y1331D01*
X2494Y1331D01*
X2494Y1329D01*
X2492Y1329D01*
X2492Y1327D01*
X2490Y1327D01*
X2490Y1325D01*
X2488Y1325D01*
X2488Y1323D01*
X2486Y1323D01*
X2486Y1321D01*
X2484Y1321D01*
X2484Y1319D01*
X2482Y1319D01*
X2482Y1317D01*
X2480Y1317D01*
X2480Y1315D01*
X2478Y1315D01*
X2478Y1313D01*
X2476Y1313D01*
X2476Y1311D01*
X2474Y1311D01*
X2474Y1309D01*
X2472Y1309D01*
X2472Y1307D01*
X2470Y1307D01*
X2470Y1305D01*
X2468Y1305D01*
X2468Y1303D01*
X2464Y1303D01*
X2464Y1301D01*
X2462Y1301D01*
X2462Y1299D01*
X2460Y1299D01*
X2460Y1297D01*
X2458Y1297D01*
X2458Y1295D01*
X2456Y1295D01*
X2456Y1293D01*
X2454Y1293D01*
X2454Y1291D01*
X2452Y1291D01*
X2452Y1289D01*
X2450Y1289D01*
X2450Y1287D01*
X2448Y1287D01*
X2448Y1285D01*
X2446Y1285D01*
X2446Y1283D01*
X2444Y1283D01*
X2444Y1281D01*
X2442Y1281D01*
X2442Y1279D01*
X2440Y1279D01*
X2440Y1277D01*
X2438Y1277D01*
X2438Y1275D01*
X2436Y1275D01*
X2436Y1273D01*
X2434Y1273D01*
X2434Y1271D01*
X2432Y1271D01*
X2432Y1269D01*
X2428Y1269D01*
X2428Y1267D01*
X2426Y1267D01*
X2426Y1265D01*
X2424Y1265D01*
X2424Y1263D01*
X2422Y1263D01*
X2422Y1261D01*
X2420Y1261D01*
X2420Y1259D01*
X2418Y1259D01*
X2418Y1257D01*
X2416Y1257D01*
X2416Y1255D01*
X2414Y1255D01*
X2414Y1253D01*
X2412Y1253D01*
X2412Y1251D01*
X2410Y1251D01*
X2410Y1249D01*
X2408Y1249D01*
X2408Y1247D01*
X2406Y1247D01*
X2406Y1245D01*
X2404Y1245D01*
X2404Y1243D01*
X2402Y1243D01*
X2402Y1241D01*
X2400Y1241D01*
X2400Y1239D01*
X2398Y1239D01*
X2398Y1237D01*
X2394Y1237D01*
X2394Y1235D01*
X2392Y1235D01*
X2392Y1233D01*
X2390Y1233D01*
X2390Y1231D01*
X2388Y1231D01*
X2388Y1229D01*
X2632Y1229D01*
X2632Y1231D01*
X2624Y1231D01*
X2624Y1233D01*
X2620Y1233D01*
X2620Y1235D01*
X2616Y1235D01*
X2616Y1237D01*
X2614Y1237D01*
X2614Y1239D01*
X2610Y1239D01*
X2610Y1241D01*
X2608Y1241D01*
X2608Y1243D01*
X2606Y1243D01*
X2606Y1245D01*
X2604Y1245D01*
X2604Y1247D01*
X2602Y1247D01*
X2602Y1249D01*
X2600Y1249D01*
X2600Y1251D01*
X2598Y1251D01*
X2598Y1253D01*
X2596Y1253D01*
X2596Y1257D01*
X2594Y1257D01*
X2594Y1261D01*
X2592Y1261D01*
X2592Y1263D01*
X2590Y1263D01*
X2590Y1269D01*
X2588Y1269D01*
X2588Y1277D01*
X2586Y1277D01*
X2586Y1291D01*
X2588Y1291D01*
X2588Y1299D01*
X2590Y1299D01*
X2590Y1303D01*
X2592Y1303D01*
X2592Y1307D01*
X2594Y1307D01*
X2594Y1311D01*
X2596Y1311D01*
X2596Y1315D01*
X2598Y1315D01*
X2598Y1317D01*
X2600Y1317D01*
X2600Y1319D01*
X2602Y1319D01*
X2602Y1321D01*
X2604Y1321D01*
X2604Y1323D01*
X2606Y1323D01*
X2606Y1325D01*
X2608Y1325D01*
X2608Y1327D01*
X2610Y1327D01*
X2610Y1329D01*
X2614Y1329D01*
X2614Y1331D01*
X2618Y1331D01*
X2618Y1333D01*
X2620Y1333D01*
X2620Y1335D01*
X2626Y1335D01*
X2626Y1337D01*
X2634Y1337D01*
X2634Y1339D01*
X2648Y1339D01*
X2648Y1361D01*
X2646Y1361D01*
X2646Y1365D01*
X2644Y1365D01*
X2644Y1371D01*
X2642Y1371D01*
X2642Y1395D01*
X2644Y1395D01*
X2644Y1401D01*
X2646Y1401D01*
X2646Y1405D01*
X2648Y1405D01*
X2648Y1409D01*
X2650Y1409D01*
X2650Y1411D01*
X2652Y1411D01*
X2652Y1415D01*
X2654Y1415D01*
X2654Y1417D01*
X2656Y1417D01*
X2656Y1419D01*
X2658Y1419D01*
X2658Y1421D01*
X2660Y1421D01*
X2660Y1423D01*
X2662Y1423D01*
X2662Y1425D01*
X2664Y1425D01*
X2664Y1427D01*
X2668Y1427D01*
X2668Y1429D01*
X2670Y1429D01*
X2670Y1431D01*
X2674Y1431D01*
X2674Y1433D01*
X2678Y1433D01*
X2678Y1435D01*
X2684Y1435D01*
X2684Y1437D01*
X2608Y1437D01*
G37*
D02*
G36*
X2964Y1425D02*
X2964Y1423D01*
X2954Y1423D01*
X2954Y1421D01*
X2986Y1421D01*
X2986Y1425D01*
X2964Y1425D01*
G37*
D02*
G36*
X2736Y1421D02*
X2736Y1419D01*
X2986Y1419D01*
X2986Y1421D01*
X2736Y1421D01*
G37*
D02*
G36*
X2736Y1421D02*
X2736Y1419D01*
X2986Y1419D01*
X2986Y1421D01*
X2736Y1421D01*
G37*
D02*
G36*
X2736Y1419D02*
X2736Y1417D01*
X2738Y1417D01*
X2738Y1415D01*
X2740Y1415D01*
X2740Y1413D01*
X2742Y1413D01*
X2742Y1409D01*
X2744Y1409D01*
X2744Y1407D01*
X2746Y1407D01*
X2746Y1403D01*
X2748Y1403D01*
X2748Y1397D01*
X2750Y1397D01*
X2750Y1389D01*
X2752Y1389D01*
X2752Y1377D01*
X2750Y1377D01*
X2750Y1369D01*
X2748Y1369D01*
X2748Y1363D01*
X2746Y1363D01*
X2746Y1359D01*
X2744Y1359D01*
X2744Y1355D01*
X2742Y1355D01*
X2742Y1353D01*
X2740Y1353D01*
X2740Y1351D01*
X2738Y1351D01*
X2738Y1347D01*
X2736Y1347D01*
X2736Y1345D01*
X2734Y1345D01*
X2734Y1343D01*
X2732Y1343D01*
X2732Y1341D01*
X2728Y1341D01*
X2728Y1339D01*
X2726Y1339D01*
X2726Y1337D01*
X2722Y1337D01*
X2722Y1335D01*
X2720Y1335D01*
X2720Y1333D01*
X2716Y1333D01*
X2716Y1331D01*
X2710Y1331D01*
X2710Y1329D01*
X2700Y1329D01*
X2700Y1327D01*
X2688Y1327D01*
X2688Y1309D01*
X2690Y1309D01*
X2690Y1305D01*
X2692Y1305D01*
X2692Y1301D01*
X2694Y1301D01*
X2694Y1295D01*
X2696Y1295D01*
X2696Y1273D01*
X2694Y1273D01*
X2694Y1267D01*
X2692Y1267D01*
X2692Y1263D01*
X2690Y1263D01*
X2690Y1259D01*
X2688Y1259D01*
X2688Y1255D01*
X2686Y1255D01*
X2686Y1253D01*
X2684Y1253D01*
X2684Y1251D01*
X2682Y1251D01*
X2682Y1247D01*
X2680Y1247D01*
X2680Y1245D01*
X2678Y1245D01*
X2678Y1243D01*
X2674Y1243D01*
X2674Y1241D01*
X2672Y1241D01*
X2672Y1239D01*
X2670Y1239D01*
X2670Y1237D01*
X2666Y1237D01*
X2666Y1235D01*
X2662Y1235D01*
X2662Y1233D01*
X2658Y1233D01*
X2658Y1231D01*
X2652Y1231D01*
X2652Y1229D01*
X2986Y1229D01*
X2986Y1419D01*
X2736Y1419D01*
G37*
D02*
G36*
X2386Y1229D02*
X2386Y1227D01*
X2986Y1227D01*
X2986Y1229D01*
X2386Y1229D01*
G37*
D02*
G36*
X2386Y1229D02*
X2386Y1227D01*
X2986Y1227D01*
X2986Y1229D01*
X2386Y1229D01*
G37*
D02*
G36*
X2384Y1227D02*
X2384Y1225D01*
X2382Y1225D01*
X2382Y1223D01*
X2380Y1223D01*
X2380Y1221D01*
X2378Y1221D01*
X2378Y1219D01*
X2376Y1219D01*
X2376Y1217D01*
X2374Y1217D01*
X2374Y1215D01*
X2372Y1215D01*
X2372Y1213D01*
X2370Y1213D01*
X2370Y1211D01*
X2368Y1211D01*
X2368Y1209D01*
X2366Y1209D01*
X2366Y1207D01*
X2364Y1207D01*
X2364Y1205D01*
X2360Y1205D01*
X2360Y1203D01*
X2358Y1203D01*
X2358Y1201D01*
X2356Y1201D01*
X2356Y1199D01*
X2354Y1199D01*
X2354Y1197D01*
X2352Y1197D01*
X2352Y1195D01*
X2350Y1195D01*
X2350Y1193D01*
X2348Y1193D01*
X2348Y1191D01*
X2346Y1191D01*
X2346Y1189D01*
X2344Y1189D01*
X2344Y1187D01*
X2342Y1187D01*
X2342Y1185D01*
X2340Y1185D01*
X2340Y1183D01*
X2338Y1183D01*
X2338Y1181D01*
X2336Y1181D01*
X2336Y1179D01*
X2334Y1179D01*
X2334Y1177D01*
X2332Y1177D01*
X2332Y1107D01*
X2818Y1107D01*
X2818Y1105D01*
X2826Y1105D01*
X2826Y1103D01*
X2830Y1103D01*
X2830Y1101D01*
X2832Y1101D01*
X2832Y1099D01*
X2836Y1099D01*
X2836Y1097D01*
X2838Y1097D01*
X2838Y1095D01*
X2842Y1095D01*
X2842Y1093D01*
X2844Y1093D01*
X2844Y1091D01*
X2846Y1091D01*
X2846Y1089D01*
X2848Y1089D01*
X2848Y1087D01*
X2850Y1087D01*
X2850Y1083D01*
X2852Y1083D01*
X2852Y1081D01*
X2854Y1081D01*
X2854Y1077D01*
X2856Y1077D01*
X2856Y1073D01*
X2858Y1073D01*
X2858Y1067D01*
X2860Y1067D01*
X2860Y1047D01*
X2858Y1047D01*
X2858Y1041D01*
X2856Y1041D01*
X2856Y1037D01*
X2854Y1037D01*
X2854Y1033D01*
X2852Y1033D01*
X2852Y1029D01*
X2850Y1029D01*
X2850Y1027D01*
X2848Y1027D01*
X2848Y1025D01*
X2846Y1025D01*
X2846Y1023D01*
X2844Y1023D01*
X2844Y1021D01*
X2842Y1021D01*
X2842Y1019D01*
X2840Y1019D01*
X2840Y1017D01*
X2836Y1017D01*
X2836Y1015D01*
X2834Y1015D01*
X2834Y1013D01*
X2830Y1013D01*
X2830Y1011D01*
X2826Y1011D01*
X2826Y1009D01*
X2820Y1009D01*
X2820Y1007D01*
X2986Y1007D01*
X2986Y1227D01*
X2384Y1227D01*
G37*
D02*
G36*
X1550Y1129D02*
X1550Y1125D01*
X1548Y1125D01*
X1548Y1123D01*
X1546Y1123D01*
X1546Y1121D01*
X1544Y1121D01*
X1544Y1119D01*
X1542Y1119D01*
X1542Y1117D01*
X1538Y1117D01*
X1538Y1115D01*
X1536Y1115D01*
X1536Y1113D01*
X1532Y1113D01*
X1532Y1111D01*
X1528Y1111D01*
X1528Y1109D01*
X1524Y1109D01*
X1524Y1107D01*
X1514Y1107D01*
X1514Y1105D01*
X1608Y1105D01*
X1608Y1107D01*
X1598Y1107D01*
X1598Y1109D01*
X1592Y1109D01*
X1592Y1111D01*
X1588Y1111D01*
X1588Y1113D01*
X1586Y1113D01*
X1586Y1115D01*
X1582Y1115D01*
X1582Y1117D01*
X1580Y1117D01*
X1580Y1119D01*
X1578Y1119D01*
X1578Y1121D01*
X1576Y1121D01*
X1576Y1123D01*
X1574Y1123D01*
X1574Y1125D01*
X1572Y1125D01*
X1572Y1127D01*
X1570Y1127D01*
X1570Y1129D01*
X1550Y1129D01*
G37*
D02*
G36*
X1466Y1115D02*
X1466Y1113D01*
X1468Y1113D01*
X1468Y1109D01*
X1470Y1109D01*
X1470Y1107D01*
X1472Y1107D01*
X1472Y1105D01*
X1508Y1105D01*
X1508Y1107D01*
X1498Y1107D01*
X1498Y1109D01*
X1492Y1109D01*
X1492Y1111D01*
X1488Y1111D01*
X1488Y1113D01*
X1486Y1113D01*
X1486Y1115D01*
X1466Y1115D01*
G37*
D02*
G36*
X2332Y1107D02*
X2332Y1105D01*
X2414Y1105D01*
X2414Y1103D01*
X2422Y1103D01*
X2422Y1101D01*
X2428Y1101D01*
X2428Y1099D01*
X2432Y1099D01*
X2432Y1097D01*
X2434Y1097D01*
X2434Y1095D01*
X2438Y1095D01*
X2438Y1093D01*
X2440Y1093D01*
X2440Y1091D01*
X2442Y1091D01*
X2442Y1089D01*
X2444Y1089D01*
X2444Y1087D01*
X2446Y1087D01*
X2446Y1085D01*
X2448Y1085D01*
X2448Y1083D01*
X2450Y1083D01*
X2450Y1079D01*
X2452Y1079D01*
X2452Y1075D01*
X2454Y1075D01*
X2454Y1071D01*
X2456Y1071D01*
X2456Y1065D01*
X2458Y1065D01*
X2458Y1049D01*
X2456Y1049D01*
X2456Y1043D01*
X2454Y1043D01*
X2454Y1039D01*
X2452Y1039D01*
X2452Y1035D01*
X2450Y1035D01*
X2450Y1031D01*
X2448Y1031D01*
X2448Y1029D01*
X2446Y1029D01*
X2446Y1027D01*
X2444Y1027D01*
X2444Y1025D01*
X2442Y1025D01*
X2442Y1023D01*
X2440Y1023D01*
X2440Y1021D01*
X2438Y1021D01*
X2438Y1019D01*
X2436Y1019D01*
X2436Y1017D01*
X2432Y1017D01*
X2432Y1015D01*
X2428Y1015D01*
X2428Y1013D01*
X2424Y1013D01*
X2424Y1011D01*
X2418Y1011D01*
X2418Y1009D01*
X2794Y1009D01*
X2794Y1011D01*
X2790Y1011D01*
X2790Y1013D01*
X2788Y1013D01*
X2788Y1015D01*
X2784Y1015D01*
X2784Y1017D01*
X2782Y1017D01*
X2782Y1019D01*
X2780Y1019D01*
X2780Y1021D01*
X2776Y1021D01*
X2776Y1023D01*
X2774Y1023D01*
X2774Y1027D01*
X2772Y1027D01*
X2772Y1029D01*
X2770Y1029D01*
X2770Y1031D01*
X2768Y1031D01*
X2768Y1035D01*
X2766Y1035D01*
X2766Y1039D01*
X2764Y1039D01*
X2764Y1043D01*
X2762Y1043D01*
X2762Y1051D01*
X2760Y1051D01*
X2760Y1063D01*
X2762Y1063D01*
X2762Y1071D01*
X2764Y1071D01*
X2764Y1075D01*
X2766Y1075D01*
X2766Y1079D01*
X2768Y1079D01*
X2768Y1083D01*
X2770Y1083D01*
X2770Y1085D01*
X2772Y1085D01*
X2772Y1087D01*
X2774Y1087D01*
X2774Y1089D01*
X2776Y1089D01*
X2776Y1091D01*
X2778Y1091D01*
X2778Y1093D01*
X2780Y1093D01*
X2780Y1095D01*
X2782Y1095D01*
X2782Y1097D01*
X2784Y1097D01*
X2784Y1099D01*
X2788Y1099D01*
X2788Y1101D01*
X2792Y1101D01*
X2792Y1103D01*
X2796Y1103D01*
X2796Y1105D01*
X2802Y1105D01*
X2802Y1107D01*
X2332Y1107D01*
G37*
D02*
G36*
X1472Y1105D02*
X1472Y1103D01*
X2006Y1103D01*
X2006Y1105D01*
X1472Y1105D01*
G37*
D02*
G36*
X1472Y1105D02*
X1472Y1103D01*
X2006Y1103D01*
X2006Y1105D01*
X1472Y1105D01*
G37*
D02*
G36*
X1472Y1105D02*
X1472Y1103D01*
X2006Y1103D01*
X2006Y1105D01*
X1472Y1105D01*
G37*
D02*
G36*
X2332Y1105D02*
X2332Y1009D01*
X2404Y1009D01*
X2404Y1011D01*
X2398Y1011D01*
X2398Y1013D01*
X2392Y1013D01*
X2392Y1015D01*
X2388Y1015D01*
X2388Y1017D01*
X2386Y1017D01*
X2386Y1019D01*
X2382Y1019D01*
X2382Y1021D01*
X2380Y1021D01*
X2380Y1023D01*
X2378Y1023D01*
X2378Y1025D01*
X2376Y1025D01*
X2376Y1027D01*
X2374Y1027D01*
X2374Y1029D01*
X2372Y1029D01*
X2372Y1033D01*
X2370Y1033D01*
X2370Y1037D01*
X2368Y1037D01*
X2368Y1039D01*
X2366Y1039D01*
X2366Y1045D01*
X2364Y1045D01*
X2364Y1055D01*
X2362Y1055D01*
X2362Y1059D01*
X2364Y1059D01*
X2364Y1069D01*
X2366Y1069D01*
X2366Y1073D01*
X2368Y1073D01*
X2368Y1077D01*
X2370Y1077D01*
X2370Y1081D01*
X2372Y1081D01*
X2372Y1083D01*
X2374Y1083D01*
X2374Y1085D01*
X2376Y1085D01*
X2376Y1089D01*
X2378Y1089D01*
X2378Y1091D01*
X2380Y1091D01*
X2380Y1093D01*
X2384Y1093D01*
X2384Y1095D01*
X2386Y1095D01*
X2386Y1097D01*
X2390Y1097D01*
X2390Y1099D01*
X2392Y1099D01*
X2392Y1101D01*
X2398Y1101D01*
X2398Y1103D01*
X2406Y1103D01*
X2406Y1105D01*
X2332Y1105D01*
G37*
D02*
G36*
X1474Y1103D02*
X1474Y1101D01*
X1476Y1101D01*
X1476Y1097D01*
X1478Y1097D01*
X1478Y1095D01*
X1480Y1095D01*
X1480Y1091D01*
X1482Y1091D01*
X1482Y1089D01*
X1484Y1089D01*
X1484Y1085D01*
X1486Y1085D01*
X1486Y1083D01*
X1488Y1083D01*
X1488Y1079D01*
X1490Y1079D01*
X1490Y1077D01*
X1492Y1077D01*
X1492Y1073D01*
X1494Y1073D01*
X1494Y1071D01*
X1496Y1071D01*
X1496Y1069D01*
X1498Y1069D01*
X1498Y1065D01*
X1500Y1065D01*
X1500Y1063D01*
X1502Y1063D01*
X1502Y1059D01*
X1504Y1059D01*
X1504Y1057D01*
X1506Y1057D01*
X1506Y1053D01*
X1508Y1053D01*
X1508Y1051D01*
X1510Y1051D01*
X1510Y1047D01*
X1512Y1047D01*
X1512Y1045D01*
X1514Y1045D01*
X1514Y1041D01*
X1516Y1041D01*
X1516Y1039D01*
X1518Y1039D01*
X1518Y1035D01*
X1520Y1035D01*
X1520Y1033D01*
X1522Y1033D01*
X1522Y1029D01*
X1524Y1029D01*
X1524Y1027D01*
X1526Y1027D01*
X1526Y1023D01*
X1528Y1023D01*
X1528Y1021D01*
X1530Y1021D01*
X1530Y1017D01*
X1532Y1017D01*
X1532Y1015D01*
X1534Y1015D01*
X1534Y1011D01*
X1536Y1011D01*
X1536Y1009D01*
X2004Y1009D01*
X2004Y1011D01*
X1998Y1011D01*
X1998Y1013D01*
X1992Y1013D01*
X1992Y1015D01*
X1988Y1015D01*
X1988Y1017D01*
X1986Y1017D01*
X1986Y1019D01*
X1982Y1019D01*
X1982Y1021D01*
X1980Y1021D01*
X1980Y1023D01*
X1978Y1023D01*
X1978Y1025D01*
X1976Y1025D01*
X1976Y1027D01*
X1974Y1027D01*
X1974Y1029D01*
X1972Y1029D01*
X1972Y1033D01*
X1970Y1033D01*
X1970Y1037D01*
X1968Y1037D01*
X1968Y1039D01*
X1966Y1039D01*
X1966Y1045D01*
X1964Y1045D01*
X1964Y1055D01*
X1962Y1055D01*
X1962Y1059D01*
X1964Y1059D01*
X1964Y1069D01*
X1966Y1069D01*
X1966Y1073D01*
X1968Y1073D01*
X1968Y1077D01*
X1970Y1077D01*
X1970Y1081D01*
X1972Y1081D01*
X1972Y1083D01*
X1974Y1083D01*
X1974Y1085D01*
X1976Y1085D01*
X1976Y1089D01*
X1978Y1089D01*
X1978Y1091D01*
X1980Y1091D01*
X1980Y1093D01*
X1984Y1093D01*
X1984Y1095D01*
X1986Y1095D01*
X1986Y1097D01*
X1990Y1097D01*
X1990Y1099D01*
X1992Y1099D01*
X1992Y1101D01*
X1998Y1101D01*
X1998Y1103D01*
X1474Y1103D01*
G37*
D02*
G36*
X1538Y1009D02*
X1538Y1007D01*
X2288Y1007D01*
X2288Y1009D01*
X1538Y1009D01*
G37*
D02*
G36*
X1538Y1009D02*
X1538Y1007D01*
X2288Y1007D01*
X2288Y1009D01*
X1538Y1009D01*
G37*
D02*
G36*
X2332Y1009D02*
X2332Y1007D01*
X2800Y1007D01*
X2800Y1009D01*
X2332Y1009D01*
G37*
D02*
G36*
X2332Y1009D02*
X2332Y1007D01*
X2800Y1007D01*
X2800Y1009D01*
X2332Y1009D01*
G37*
D02*
G36*
X1538Y1007D02*
X1538Y1005D01*
X1540Y1005D01*
X1540Y1003D01*
X1542Y1003D01*
X1542Y999D01*
X1544Y999D01*
X1544Y997D01*
X1546Y997D01*
X1546Y995D01*
X1548Y995D01*
X1548Y991D01*
X1550Y991D01*
X1550Y989D01*
X1552Y989D01*
X1552Y985D01*
X1554Y985D01*
X1554Y983D01*
X1556Y983D01*
X1556Y979D01*
X1558Y979D01*
X1558Y977D01*
X1560Y977D01*
X1560Y973D01*
X1562Y973D01*
X1562Y971D01*
X1564Y971D01*
X1564Y967D01*
X1566Y967D01*
X1566Y965D01*
X1568Y965D01*
X1568Y961D01*
X1570Y961D01*
X1570Y959D01*
X1572Y959D01*
X1572Y955D01*
X1574Y955D01*
X1574Y953D01*
X1576Y953D01*
X1576Y949D01*
X1578Y949D01*
X1578Y947D01*
X1580Y947D01*
X1580Y943D01*
X1582Y943D01*
X1582Y941D01*
X1584Y941D01*
X1584Y937D01*
X1586Y937D01*
X1586Y931D01*
X1588Y931D01*
X1588Y307D01*
X1586Y307D01*
X1586Y301D01*
X1584Y301D01*
X1584Y299D01*
X1582Y299D01*
X1582Y297D01*
X1580Y297D01*
X1580Y295D01*
X1578Y295D01*
X1578Y293D01*
X1576Y293D01*
X1576Y291D01*
X1574Y291D01*
X1574Y289D01*
X1572Y289D01*
X1572Y287D01*
X1570Y287D01*
X1570Y285D01*
X1568Y285D01*
X1568Y283D01*
X1566Y283D01*
X1566Y281D01*
X1564Y281D01*
X1564Y279D01*
X1562Y279D01*
X1562Y277D01*
X1560Y277D01*
X1560Y275D01*
X1558Y275D01*
X1558Y273D01*
X1556Y273D01*
X1556Y271D01*
X1554Y271D01*
X1554Y269D01*
X1552Y269D01*
X1552Y267D01*
X1550Y267D01*
X1550Y265D01*
X1548Y265D01*
X1548Y263D01*
X1546Y263D01*
X1546Y261D01*
X1544Y261D01*
X1544Y259D01*
X1542Y259D01*
X1542Y257D01*
X1540Y257D01*
X1540Y255D01*
X1538Y255D01*
X1538Y253D01*
X1536Y253D01*
X1536Y251D01*
X1534Y251D01*
X1534Y249D01*
X1532Y249D01*
X1532Y247D01*
X1530Y247D01*
X1530Y245D01*
X1528Y245D01*
X1528Y243D01*
X1526Y243D01*
X1526Y241D01*
X1524Y241D01*
X1524Y239D01*
X1522Y239D01*
X1522Y237D01*
X1520Y237D01*
X1520Y235D01*
X1518Y235D01*
X1518Y233D01*
X1516Y233D01*
X1516Y231D01*
X1514Y231D01*
X1514Y229D01*
X1512Y229D01*
X1512Y227D01*
X1510Y227D01*
X1510Y225D01*
X1508Y225D01*
X1508Y223D01*
X1506Y223D01*
X1506Y221D01*
X1504Y221D01*
X1504Y219D01*
X1502Y219D01*
X1502Y217D01*
X1500Y217D01*
X1500Y215D01*
X1498Y215D01*
X1498Y213D01*
X1496Y213D01*
X1496Y211D01*
X1494Y211D01*
X1494Y209D01*
X1492Y209D01*
X1492Y207D01*
X2118Y207D01*
X2118Y205D01*
X2126Y205D01*
X2126Y203D01*
X2130Y203D01*
X2130Y201D01*
X2132Y201D01*
X2132Y199D01*
X2136Y199D01*
X2136Y197D01*
X2138Y197D01*
X2138Y195D01*
X2142Y195D01*
X2142Y193D01*
X2144Y193D01*
X2144Y191D01*
X2146Y191D01*
X2146Y189D01*
X2148Y189D01*
X2148Y187D01*
X2150Y187D01*
X2150Y183D01*
X2152Y183D01*
X2152Y181D01*
X2154Y181D01*
X2154Y177D01*
X2156Y177D01*
X2156Y173D01*
X2158Y173D01*
X2158Y167D01*
X2160Y167D01*
X2160Y147D01*
X2158Y147D01*
X2158Y141D01*
X2156Y141D01*
X2156Y137D01*
X2154Y137D01*
X2154Y133D01*
X2152Y133D01*
X2152Y129D01*
X2150Y129D01*
X2150Y127D01*
X2148Y127D01*
X2148Y125D01*
X2146Y125D01*
X2146Y123D01*
X2144Y123D01*
X2144Y121D01*
X2142Y121D01*
X2142Y119D01*
X2140Y119D01*
X2140Y117D01*
X2136Y117D01*
X2136Y115D01*
X2134Y115D01*
X2134Y113D01*
X2130Y113D01*
X2130Y111D01*
X2126Y111D01*
X2126Y109D01*
X2120Y109D01*
X2120Y107D01*
X2300Y107D01*
X2300Y109D01*
X2294Y109D01*
X2294Y111D01*
X2290Y111D01*
X2290Y113D01*
X2288Y113D01*
X2288Y115D01*
X2284Y115D01*
X2284Y117D01*
X2282Y117D01*
X2282Y119D01*
X2280Y119D01*
X2280Y121D01*
X2276Y121D01*
X2276Y123D01*
X2274Y123D01*
X2274Y127D01*
X2272Y127D01*
X2272Y129D01*
X2270Y129D01*
X2270Y131D01*
X2268Y131D01*
X2268Y135D01*
X2266Y135D01*
X2266Y139D01*
X2264Y139D01*
X2264Y143D01*
X2262Y143D01*
X2262Y151D01*
X2260Y151D01*
X2260Y163D01*
X2262Y163D01*
X2262Y171D01*
X2264Y171D01*
X2264Y175D01*
X2266Y175D01*
X2266Y179D01*
X2268Y179D01*
X2268Y183D01*
X2270Y183D01*
X2270Y185D01*
X2272Y185D01*
X2272Y187D01*
X2274Y187D01*
X2274Y189D01*
X2276Y189D01*
X2276Y191D01*
X2278Y191D01*
X2278Y193D01*
X2280Y193D01*
X2280Y195D01*
X2282Y195D01*
X2282Y197D01*
X2284Y197D01*
X2284Y199D01*
X2288Y199D01*
X2288Y1007D01*
X1538Y1007D01*
G37*
D02*
G36*
X2332Y1007D02*
X2332Y1005D01*
X2986Y1005D01*
X2986Y1007D01*
X2332Y1007D01*
G37*
D02*
G36*
X2332Y1007D02*
X2332Y1005D01*
X2986Y1005D01*
X2986Y1007D01*
X2332Y1007D01*
G37*
D02*
G36*
X2332Y1005D02*
X2332Y907D01*
X2818Y907D01*
X2818Y905D01*
X2826Y905D01*
X2826Y903D01*
X2830Y903D01*
X2830Y901D01*
X2832Y901D01*
X2832Y899D01*
X2836Y899D01*
X2836Y897D01*
X2838Y897D01*
X2838Y895D01*
X2842Y895D01*
X2842Y893D01*
X2844Y893D01*
X2844Y891D01*
X2846Y891D01*
X2846Y889D01*
X2848Y889D01*
X2848Y887D01*
X2850Y887D01*
X2850Y883D01*
X2852Y883D01*
X2852Y881D01*
X2854Y881D01*
X2854Y877D01*
X2856Y877D01*
X2856Y873D01*
X2858Y873D01*
X2858Y867D01*
X2860Y867D01*
X2860Y847D01*
X2858Y847D01*
X2858Y841D01*
X2856Y841D01*
X2856Y837D01*
X2854Y837D01*
X2854Y833D01*
X2852Y833D01*
X2852Y829D01*
X2850Y829D01*
X2850Y827D01*
X2848Y827D01*
X2848Y825D01*
X2846Y825D01*
X2846Y823D01*
X2844Y823D01*
X2844Y821D01*
X2842Y821D01*
X2842Y819D01*
X2840Y819D01*
X2840Y817D01*
X2836Y817D01*
X2836Y815D01*
X2834Y815D01*
X2834Y813D01*
X2830Y813D01*
X2830Y811D01*
X2826Y811D01*
X2826Y809D01*
X2820Y809D01*
X2820Y807D01*
X2986Y807D01*
X2986Y1005D01*
X2332Y1005D01*
G37*
D02*
G36*
X2332Y907D02*
X2332Y807D01*
X2800Y807D01*
X2800Y809D01*
X2794Y809D01*
X2794Y811D01*
X2790Y811D01*
X2790Y813D01*
X2788Y813D01*
X2788Y815D01*
X2784Y815D01*
X2784Y817D01*
X2782Y817D01*
X2782Y819D01*
X2780Y819D01*
X2780Y821D01*
X2776Y821D01*
X2776Y823D01*
X2774Y823D01*
X2774Y827D01*
X2772Y827D01*
X2772Y829D01*
X2770Y829D01*
X2770Y831D01*
X2768Y831D01*
X2768Y835D01*
X2766Y835D01*
X2766Y839D01*
X2764Y839D01*
X2764Y843D01*
X2762Y843D01*
X2762Y851D01*
X2760Y851D01*
X2760Y863D01*
X2762Y863D01*
X2762Y871D01*
X2764Y871D01*
X2764Y875D01*
X2766Y875D01*
X2766Y879D01*
X2768Y879D01*
X2768Y883D01*
X2770Y883D01*
X2770Y885D01*
X2772Y885D01*
X2772Y887D01*
X2774Y887D01*
X2774Y889D01*
X2776Y889D01*
X2776Y891D01*
X2778Y891D01*
X2778Y893D01*
X2780Y893D01*
X2780Y895D01*
X2782Y895D01*
X2782Y897D01*
X2784Y897D01*
X2784Y899D01*
X2788Y899D01*
X2788Y901D01*
X2792Y901D01*
X2792Y903D01*
X2796Y903D01*
X2796Y905D01*
X2802Y905D01*
X2802Y907D01*
X2332Y907D01*
G37*
D02*
G36*
X2332Y807D02*
X2332Y805D01*
X2986Y805D01*
X2986Y807D01*
X2332Y807D01*
G37*
D02*
G36*
X2332Y807D02*
X2332Y805D01*
X2986Y805D01*
X2986Y807D01*
X2332Y807D01*
G37*
D02*
G36*
X2332Y805D02*
X2332Y707D01*
X2818Y707D01*
X2818Y705D01*
X2826Y705D01*
X2826Y703D01*
X2830Y703D01*
X2830Y701D01*
X2832Y701D01*
X2832Y699D01*
X2836Y699D01*
X2836Y697D01*
X2838Y697D01*
X2838Y695D01*
X2842Y695D01*
X2842Y693D01*
X2844Y693D01*
X2844Y691D01*
X2846Y691D01*
X2846Y689D01*
X2848Y689D01*
X2848Y687D01*
X2850Y687D01*
X2850Y683D01*
X2852Y683D01*
X2852Y681D01*
X2854Y681D01*
X2854Y677D01*
X2856Y677D01*
X2856Y673D01*
X2858Y673D01*
X2858Y667D01*
X2860Y667D01*
X2860Y647D01*
X2858Y647D01*
X2858Y641D01*
X2856Y641D01*
X2856Y637D01*
X2854Y637D01*
X2854Y633D01*
X2852Y633D01*
X2852Y629D01*
X2850Y629D01*
X2850Y627D01*
X2848Y627D01*
X2848Y625D01*
X2846Y625D01*
X2846Y623D01*
X2844Y623D01*
X2844Y621D01*
X2842Y621D01*
X2842Y619D01*
X2840Y619D01*
X2840Y617D01*
X2836Y617D01*
X2836Y615D01*
X2834Y615D01*
X2834Y613D01*
X2830Y613D01*
X2830Y611D01*
X2826Y611D01*
X2826Y609D01*
X2820Y609D01*
X2820Y607D01*
X2986Y607D01*
X2986Y805D01*
X2332Y805D01*
G37*
D02*
G36*
X2332Y707D02*
X2332Y607D01*
X2800Y607D01*
X2800Y609D01*
X2794Y609D01*
X2794Y611D01*
X2790Y611D01*
X2790Y613D01*
X2788Y613D01*
X2788Y615D01*
X2784Y615D01*
X2784Y617D01*
X2782Y617D01*
X2782Y619D01*
X2780Y619D01*
X2780Y621D01*
X2776Y621D01*
X2776Y623D01*
X2774Y623D01*
X2774Y627D01*
X2772Y627D01*
X2772Y629D01*
X2770Y629D01*
X2770Y631D01*
X2768Y631D01*
X2768Y635D01*
X2766Y635D01*
X2766Y639D01*
X2764Y639D01*
X2764Y643D01*
X2762Y643D01*
X2762Y651D01*
X2760Y651D01*
X2760Y663D01*
X2762Y663D01*
X2762Y671D01*
X2764Y671D01*
X2764Y675D01*
X2766Y675D01*
X2766Y679D01*
X2768Y679D01*
X2768Y683D01*
X2770Y683D01*
X2770Y685D01*
X2772Y685D01*
X2772Y687D01*
X2774Y687D01*
X2774Y689D01*
X2776Y689D01*
X2776Y691D01*
X2778Y691D01*
X2778Y693D01*
X2780Y693D01*
X2780Y695D01*
X2782Y695D01*
X2782Y697D01*
X2784Y697D01*
X2784Y699D01*
X2788Y699D01*
X2788Y701D01*
X2792Y701D01*
X2792Y703D01*
X2796Y703D01*
X2796Y705D01*
X2802Y705D01*
X2802Y707D01*
X2332Y707D01*
G37*
D02*
G36*
X2332Y607D02*
X2332Y605D01*
X2986Y605D01*
X2986Y607D01*
X2332Y607D01*
G37*
D02*
G36*
X2332Y607D02*
X2332Y605D01*
X2986Y605D01*
X2986Y607D01*
X2332Y607D01*
G37*
D02*
G36*
X2332Y605D02*
X2332Y507D01*
X2860Y507D01*
X2860Y407D01*
X2986Y407D01*
X2986Y605D01*
X2332Y605D01*
G37*
D02*
G36*
X2332Y507D02*
X2332Y407D01*
X2760Y407D01*
X2760Y507D01*
X2332Y507D01*
G37*
D02*
G36*
X2332Y407D02*
X2332Y405D01*
X2986Y405D01*
X2986Y407D01*
X2332Y407D01*
G37*
D02*
G36*
X2332Y407D02*
X2332Y405D01*
X2986Y405D01*
X2986Y407D01*
X2332Y407D01*
G37*
D02*
G36*
X2332Y405D02*
X2332Y199D01*
X2336Y199D01*
X2336Y197D01*
X2338Y197D01*
X2338Y195D01*
X2342Y195D01*
X2342Y193D01*
X2344Y193D01*
X2344Y191D01*
X2346Y191D01*
X2346Y189D01*
X2348Y189D01*
X2348Y187D01*
X2350Y187D01*
X2350Y183D01*
X2352Y183D01*
X2352Y181D01*
X2354Y181D01*
X2354Y177D01*
X2356Y177D01*
X2356Y173D01*
X2358Y173D01*
X2358Y167D01*
X2360Y167D01*
X2360Y147D01*
X2358Y147D01*
X2358Y141D01*
X2356Y141D01*
X2356Y137D01*
X2354Y137D01*
X2354Y133D01*
X2352Y133D01*
X2352Y129D01*
X2350Y129D01*
X2350Y127D01*
X2348Y127D01*
X2348Y125D01*
X2346Y125D01*
X2346Y123D01*
X2344Y123D01*
X2344Y121D01*
X2342Y121D01*
X2342Y119D01*
X2340Y119D01*
X2340Y117D01*
X2336Y117D01*
X2336Y115D01*
X2334Y115D01*
X2334Y113D01*
X2330Y113D01*
X2330Y111D01*
X2326Y111D01*
X2326Y109D01*
X2320Y109D01*
X2320Y107D01*
X2986Y107D01*
X2986Y405D01*
X2332Y405D01*
G37*
D02*
G36*
X1490Y207D02*
X1490Y205D01*
X1488Y205D01*
X1488Y203D01*
X1486Y203D01*
X1486Y201D01*
X1484Y201D01*
X1484Y199D01*
X1482Y199D01*
X1482Y197D01*
X1480Y197D01*
X1480Y195D01*
X1478Y195D01*
X1478Y193D01*
X1476Y193D01*
X1476Y191D01*
X1474Y191D01*
X1474Y189D01*
X1472Y189D01*
X1472Y187D01*
X1470Y187D01*
X1470Y185D01*
X1468Y185D01*
X1468Y183D01*
X1466Y183D01*
X1466Y181D01*
X1464Y181D01*
X1464Y179D01*
X1462Y179D01*
X1462Y177D01*
X1460Y177D01*
X1460Y137D01*
X1462Y137D01*
X1462Y135D01*
X1464Y135D01*
X1464Y133D01*
X1466Y133D01*
X1466Y131D01*
X1468Y131D01*
X1468Y129D01*
X1470Y129D01*
X1470Y127D01*
X1472Y127D01*
X1472Y125D01*
X1474Y125D01*
X1474Y123D01*
X1476Y123D01*
X1476Y121D01*
X1478Y121D01*
X1478Y119D01*
X1480Y119D01*
X1480Y117D01*
X1482Y117D01*
X1482Y115D01*
X1484Y115D01*
X1484Y113D01*
X1486Y113D01*
X1486Y111D01*
X1488Y111D01*
X1488Y109D01*
X1490Y109D01*
X1490Y107D01*
X1600Y107D01*
X1600Y109D01*
X1594Y109D01*
X1594Y111D01*
X1590Y111D01*
X1590Y113D01*
X1588Y113D01*
X1588Y115D01*
X1584Y115D01*
X1584Y117D01*
X1582Y117D01*
X1582Y119D01*
X1580Y119D01*
X1580Y121D01*
X1576Y121D01*
X1576Y123D01*
X1574Y123D01*
X1574Y127D01*
X1572Y127D01*
X1572Y129D01*
X1570Y129D01*
X1570Y131D01*
X1568Y131D01*
X1568Y135D01*
X1566Y135D01*
X1566Y139D01*
X1564Y139D01*
X1564Y143D01*
X1562Y143D01*
X1562Y151D01*
X1560Y151D01*
X1560Y163D01*
X1562Y163D01*
X1562Y171D01*
X1564Y171D01*
X1564Y175D01*
X1566Y175D01*
X1566Y179D01*
X1568Y179D01*
X1568Y183D01*
X1570Y183D01*
X1570Y185D01*
X1572Y185D01*
X1572Y187D01*
X1574Y187D01*
X1574Y189D01*
X1576Y189D01*
X1576Y191D01*
X1578Y191D01*
X1578Y193D01*
X1580Y193D01*
X1580Y195D01*
X1582Y195D01*
X1582Y197D01*
X1584Y197D01*
X1584Y199D01*
X1588Y199D01*
X1588Y201D01*
X1592Y201D01*
X1592Y203D01*
X1596Y203D01*
X1596Y205D01*
X1602Y205D01*
X1602Y207D01*
X1490Y207D01*
G37*
D02*
G36*
X1618Y207D02*
X1618Y205D01*
X1626Y205D01*
X1626Y203D01*
X1630Y203D01*
X1630Y201D01*
X1632Y201D01*
X1632Y199D01*
X1636Y199D01*
X1636Y197D01*
X1638Y197D01*
X1638Y195D01*
X1642Y195D01*
X1642Y193D01*
X1644Y193D01*
X1644Y191D01*
X1646Y191D01*
X1646Y189D01*
X1648Y189D01*
X1648Y187D01*
X1650Y187D01*
X1650Y183D01*
X1652Y183D01*
X1652Y181D01*
X1654Y181D01*
X1654Y177D01*
X1656Y177D01*
X1656Y173D01*
X1658Y173D01*
X1658Y167D01*
X1660Y167D01*
X1660Y147D01*
X1658Y147D01*
X1658Y141D01*
X1656Y141D01*
X1656Y137D01*
X1654Y137D01*
X1654Y133D01*
X1652Y133D01*
X1652Y129D01*
X1650Y129D01*
X1650Y127D01*
X1648Y127D01*
X1648Y125D01*
X1646Y125D01*
X1646Y123D01*
X1644Y123D01*
X1644Y121D01*
X1642Y121D01*
X1642Y119D01*
X1640Y119D01*
X1640Y117D01*
X1636Y117D01*
X1636Y115D01*
X1634Y115D01*
X1634Y113D01*
X1630Y113D01*
X1630Y111D01*
X1626Y111D01*
X1626Y109D01*
X1620Y109D01*
X1620Y107D01*
X1808Y107D01*
X1808Y109D01*
X1812Y109D01*
X1812Y111D01*
X1814Y111D01*
X1814Y113D01*
X1816Y113D01*
X1816Y115D01*
X1820Y115D01*
X1820Y117D01*
X1822Y117D01*
X1822Y119D01*
X1824Y119D01*
X1824Y121D01*
X1828Y121D01*
X1828Y123D01*
X1830Y123D01*
X1830Y125D01*
X1832Y125D01*
X1832Y127D01*
X1836Y127D01*
X1836Y129D01*
X1838Y129D01*
X1838Y131D01*
X1840Y131D01*
X1840Y133D01*
X1844Y133D01*
X1844Y135D01*
X1846Y135D01*
X1846Y137D01*
X1848Y137D01*
X1848Y139D01*
X1852Y139D01*
X1852Y141D01*
X1854Y141D01*
X1854Y143D01*
X1856Y143D01*
X1856Y145D01*
X1860Y145D01*
X1860Y207D01*
X1618Y207D01*
G37*
D02*
G36*
X1960Y207D02*
X1960Y107D01*
X2100Y107D01*
X2100Y109D01*
X2094Y109D01*
X2094Y111D01*
X2090Y111D01*
X2090Y113D01*
X2088Y113D01*
X2088Y115D01*
X2084Y115D01*
X2084Y117D01*
X2082Y117D01*
X2082Y119D01*
X2080Y119D01*
X2080Y121D01*
X2076Y121D01*
X2076Y123D01*
X2074Y123D01*
X2074Y127D01*
X2072Y127D01*
X2072Y129D01*
X2070Y129D01*
X2070Y131D01*
X2068Y131D01*
X2068Y135D01*
X2066Y135D01*
X2066Y139D01*
X2064Y139D01*
X2064Y143D01*
X2062Y143D01*
X2062Y151D01*
X2060Y151D01*
X2060Y163D01*
X2062Y163D01*
X2062Y171D01*
X2064Y171D01*
X2064Y175D01*
X2066Y175D01*
X2066Y179D01*
X2068Y179D01*
X2068Y183D01*
X2070Y183D01*
X2070Y185D01*
X2072Y185D01*
X2072Y187D01*
X2074Y187D01*
X2074Y189D01*
X2076Y189D01*
X2076Y191D01*
X2078Y191D01*
X2078Y193D01*
X2080Y193D01*
X2080Y195D01*
X2082Y195D01*
X2082Y197D01*
X2084Y197D01*
X2084Y199D01*
X2088Y199D01*
X2088Y201D01*
X2092Y201D01*
X2092Y203D01*
X2096Y203D01*
X2096Y205D01*
X2102Y205D01*
X2102Y207D01*
X1960Y207D01*
G37*
D02*
G36*
X1492Y107D02*
X1492Y105D01*
X1806Y105D01*
X1806Y107D01*
X1492Y107D01*
G37*
D02*
G36*
X1492Y107D02*
X1492Y105D01*
X1806Y105D01*
X1806Y107D01*
X1492Y107D01*
G37*
D02*
G36*
X1880Y107D02*
X1880Y105D01*
X2986Y105D01*
X2986Y107D01*
X1880Y107D01*
G37*
D02*
G36*
X1880Y107D02*
X1880Y105D01*
X2986Y105D01*
X2986Y107D01*
X1880Y107D01*
G37*
D02*
G36*
X1880Y107D02*
X1880Y105D01*
X2986Y105D01*
X2986Y107D01*
X1880Y107D01*
G37*
D02*
G36*
X1494Y105D02*
X1494Y103D01*
X1496Y103D01*
X1496Y101D01*
X1498Y101D01*
X1498Y99D01*
X1500Y99D01*
X1500Y97D01*
X1502Y97D01*
X1502Y95D01*
X1504Y95D01*
X1504Y93D01*
X1506Y93D01*
X1506Y91D01*
X1508Y91D01*
X1508Y89D01*
X1510Y89D01*
X1510Y87D01*
X1512Y87D01*
X1512Y85D01*
X1514Y85D01*
X1514Y83D01*
X1516Y83D01*
X1516Y81D01*
X1518Y81D01*
X1518Y79D01*
X1520Y79D01*
X1520Y77D01*
X1522Y77D01*
X1522Y75D01*
X1524Y75D01*
X1524Y73D01*
X1764Y73D01*
X1764Y75D01*
X1766Y75D01*
X1766Y77D01*
X1768Y77D01*
X1768Y79D01*
X1772Y79D01*
X1772Y81D01*
X1774Y81D01*
X1774Y83D01*
X1776Y83D01*
X1776Y85D01*
X1780Y85D01*
X1780Y87D01*
X1782Y87D01*
X1782Y89D01*
X1784Y89D01*
X1784Y91D01*
X1788Y91D01*
X1788Y93D01*
X1790Y93D01*
X1790Y95D01*
X1792Y95D01*
X1792Y97D01*
X1796Y97D01*
X1796Y99D01*
X1798Y99D01*
X1798Y101D01*
X1800Y101D01*
X1800Y103D01*
X1804Y103D01*
X1804Y105D01*
X1494Y105D01*
G37*
D02*
G36*
X1876Y105D02*
X1876Y103D01*
X1874Y103D01*
X1874Y101D01*
X1872Y101D01*
X1872Y99D01*
X1868Y99D01*
X1868Y97D01*
X1866Y97D01*
X1866Y95D01*
X1864Y95D01*
X1864Y93D01*
X1860Y93D01*
X1860Y91D01*
X1858Y91D01*
X1858Y89D01*
X1856Y89D01*
X1856Y87D01*
X1852Y87D01*
X1852Y85D01*
X1850Y85D01*
X1850Y83D01*
X1848Y83D01*
X1848Y81D01*
X1844Y81D01*
X1844Y79D01*
X1842Y79D01*
X1842Y77D01*
X1840Y77D01*
X1840Y75D01*
X1836Y75D01*
X1836Y73D01*
X1834Y73D01*
X1834Y71D01*
X1832Y71D01*
X1832Y69D01*
X1828Y69D01*
X1828Y67D01*
X1826Y67D01*
X1826Y65D01*
X1824Y65D01*
X1824Y63D01*
X1820Y63D01*
X1820Y61D01*
X1818Y61D01*
X1818Y41D01*
X2986Y41D01*
X2986Y105D01*
X1876Y105D01*
G37*
D02*
G36*
X40Y1889D02*
X40Y1807D01*
X106Y1807D01*
X106Y1809D01*
X98Y1809D01*
X98Y1811D01*
X92Y1811D01*
X92Y1813D01*
X90Y1813D01*
X90Y1815D01*
X86Y1815D01*
X86Y1817D01*
X82Y1817D01*
X82Y1819D01*
X80Y1819D01*
X80Y1821D01*
X78Y1821D01*
X78Y1823D01*
X76Y1823D01*
X76Y1825D01*
X74Y1825D01*
X74Y1827D01*
X72Y1827D01*
X72Y1831D01*
X70Y1831D01*
X70Y1833D01*
X68Y1833D01*
X68Y1837D01*
X66Y1837D01*
X66Y1841D01*
X64Y1841D01*
X64Y1847D01*
X62Y1847D01*
X62Y1867D01*
X64Y1867D01*
X64Y1889D01*
X40Y1889D01*
G37*
D02*
G36*
X150Y1831D02*
X150Y1829D01*
X148Y1829D01*
X148Y1827D01*
X146Y1827D01*
X146Y1825D01*
X144Y1825D01*
X144Y1823D01*
X142Y1823D01*
X142Y1821D01*
X140Y1821D01*
X140Y1819D01*
X138Y1819D01*
X138Y1817D01*
X136Y1817D01*
X136Y1815D01*
X132Y1815D01*
X132Y1813D01*
X128Y1813D01*
X128Y1811D01*
X122Y1811D01*
X122Y1809D01*
X114Y1809D01*
X114Y1807D01*
X206Y1807D01*
X206Y1809D01*
X198Y1809D01*
X198Y1811D01*
X192Y1811D01*
X192Y1813D01*
X190Y1813D01*
X190Y1815D01*
X186Y1815D01*
X186Y1817D01*
X182Y1817D01*
X182Y1819D01*
X180Y1819D01*
X180Y1821D01*
X178Y1821D01*
X178Y1823D01*
X176Y1823D01*
X176Y1825D01*
X174Y1825D01*
X174Y1827D01*
X172Y1827D01*
X172Y1831D01*
X150Y1831D01*
G37*
D02*
G36*
X250Y1831D02*
X250Y1829D01*
X248Y1829D01*
X248Y1827D01*
X246Y1827D01*
X246Y1825D01*
X244Y1825D01*
X244Y1823D01*
X242Y1823D01*
X242Y1821D01*
X240Y1821D01*
X240Y1819D01*
X238Y1819D01*
X238Y1817D01*
X236Y1817D01*
X236Y1815D01*
X232Y1815D01*
X232Y1813D01*
X228Y1813D01*
X228Y1811D01*
X222Y1811D01*
X222Y1809D01*
X214Y1809D01*
X214Y1807D01*
X306Y1807D01*
X306Y1809D01*
X298Y1809D01*
X298Y1811D01*
X292Y1811D01*
X292Y1813D01*
X290Y1813D01*
X290Y1815D01*
X286Y1815D01*
X286Y1817D01*
X282Y1817D01*
X282Y1819D01*
X280Y1819D01*
X280Y1821D01*
X278Y1821D01*
X278Y1823D01*
X276Y1823D01*
X276Y1825D01*
X274Y1825D01*
X274Y1827D01*
X272Y1827D01*
X272Y1831D01*
X250Y1831D01*
G37*
D02*
G36*
X350Y1831D02*
X350Y1829D01*
X348Y1829D01*
X348Y1827D01*
X346Y1827D01*
X346Y1825D01*
X344Y1825D01*
X344Y1823D01*
X342Y1823D01*
X342Y1821D01*
X340Y1821D01*
X340Y1819D01*
X338Y1819D01*
X338Y1817D01*
X336Y1817D01*
X336Y1815D01*
X332Y1815D01*
X332Y1813D01*
X328Y1813D01*
X328Y1811D01*
X322Y1811D01*
X322Y1809D01*
X314Y1809D01*
X314Y1807D01*
X406Y1807D01*
X406Y1809D01*
X398Y1809D01*
X398Y1811D01*
X392Y1811D01*
X392Y1813D01*
X390Y1813D01*
X390Y1815D01*
X386Y1815D01*
X386Y1817D01*
X382Y1817D01*
X382Y1819D01*
X380Y1819D01*
X380Y1821D01*
X378Y1821D01*
X378Y1823D01*
X376Y1823D01*
X376Y1825D01*
X374Y1825D01*
X374Y1827D01*
X372Y1827D01*
X372Y1831D01*
X350Y1831D01*
G37*
D02*
G36*
X450Y1831D02*
X450Y1829D01*
X448Y1829D01*
X448Y1827D01*
X446Y1827D01*
X446Y1825D01*
X444Y1825D01*
X444Y1823D01*
X442Y1823D01*
X442Y1821D01*
X440Y1821D01*
X440Y1819D01*
X438Y1819D01*
X438Y1817D01*
X436Y1817D01*
X436Y1815D01*
X432Y1815D01*
X432Y1813D01*
X428Y1813D01*
X428Y1811D01*
X422Y1811D01*
X422Y1809D01*
X414Y1809D01*
X414Y1807D01*
X488Y1807D01*
X488Y1815D01*
X486Y1815D01*
X486Y1817D01*
X482Y1817D01*
X482Y1819D01*
X480Y1819D01*
X480Y1821D01*
X478Y1821D01*
X478Y1823D01*
X476Y1823D01*
X476Y1825D01*
X474Y1825D01*
X474Y1827D01*
X472Y1827D01*
X472Y1831D01*
X450Y1831D01*
G37*
D02*
G36*
X1750Y1831D02*
X1750Y1829D01*
X1748Y1829D01*
X1748Y1827D01*
X1746Y1827D01*
X1746Y1825D01*
X1744Y1825D01*
X1744Y1823D01*
X1742Y1823D01*
X1742Y1821D01*
X1740Y1821D01*
X1740Y1819D01*
X1738Y1819D01*
X1738Y1817D01*
X1736Y1817D01*
X1736Y1807D01*
X1806Y1807D01*
X1806Y1809D01*
X1798Y1809D01*
X1798Y1811D01*
X1792Y1811D01*
X1792Y1813D01*
X1790Y1813D01*
X1790Y1815D01*
X1786Y1815D01*
X1786Y1817D01*
X1782Y1817D01*
X1782Y1819D01*
X1780Y1819D01*
X1780Y1821D01*
X1778Y1821D01*
X1778Y1823D01*
X1776Y1823D01*
X1776Y1825D01*
X1774Y1825D01*
X1774Y1827D01*
X1772Y1827D01*
X1772Y1831D01*
X1750Y1831D01*
G37*
D02*
G36*
X1850Y1831D02*
X1850Y1829D01*
X1848Y1829D01*
X1848Y1827D01*
X1846Y1827D01*
X1846Y1825D01*
X1844Y1825D01*
X1844Y1823D01*
X1842Y1823D01*
X1842Y1821D01*
X1840Y1821D01*
X1840Y1819D01*
X1838Y1819D01*
X1838Y1817D01*
X1836Y1817D01*
X1836Y1815D01*
X1832Y1815D01*
X1832Y1813D01*
X1828Y1813D01*
X1828Y1811D01*
X1822Y1811D01*
X1822Y1809D01*
X1814Y1809D01*
X1814Y1807D01*
X1906Y1807D01*
X1906Y1809D01*
X1898Y1809D01*
X1898Y1811D01*
X1892Y1811D01*
X1892Y1813D01*
X1890Y1813D01*
X1890Y1815D01*
X1886Y1815D01*
X1886Y1817D01*
X1882Y1817D01*
X1882Y1819D01*
X1880Y1819D01*
X1880Y1821D01*
X1878Y1821D01*
X1878Y1823D01*
X1876Y1823D01*
X1876Y1825D01*
X1874Y1825D01*
X1874Y1827D01*
X1872Y1827D01*
X1872Y1831D01*
X1850Y1831D01*
G37*
D02*
G36*
X1950Y1831D02*
X1950Y1829D01*
X1948Y1829D01*
X1948Y1827D01*
X1946Y1827D01*
X1946Y1825D01*
X1944Y1825D01*
X1944Y1823D01*
X1942Y1823D01*
X1942Y1821D01*
X1940Y1821D01*
X1940Y1819D01*
X1938Y1819D01*
X1938Y1817D01*
X1936Y1817D01*
X1936Y1815D01*
X1932Y1815D01*
X1932Y1813D01*
X1928Y1813D01*
X1928Y1811D01*
X1922Y1811D01*
X1922Y1809D01*
X1914Y1809D01*
X1914Y1807D01*
X2006Y1807D01*
X2006Y1809D01*
X1998Y1809D01*
X1998Y1811D01*
X1992Y1811D01*
X1992Y1813D01*
X1990Y1813D01*
X1990Y1815D01*
X1986Y1815D01*
X1986Y1817D01*
X1982Y1817D01*
X1982Y1819D01*
X1980Y1819D01*
X1980Y1821D01*
X1978Y1821D01*
X1978Y1823D01*
X1976Y1823D01*
X1976Y1825D01*
X1974Y1825D01*
X1974Y1827D01*
X1972Y1827D01*
X1972Y1831D01*
X1950Y1831D01*
G37*
D02*
G36*
X2050Y1831D02*
X2050Y1829D01*
X2048Y1829D01*
X2048Y1827D01*
X2046Y1827D01*
X2046Y1825D01*
X2044Y1825D01*
X2044Y1823D01*
X2042Y1823D01*
X2042Y1821D01*
X2040Y1821D01*
X2040Y1819D01*
X2038Y1819D01*
X2038Y1817D01*
X2036Y1817D01*
X2036Y1815D01*
X2032Y1815D01*
X2032Y1813D01*
X2028Y1813D01*
X2028Y1811D01*
X2022Y1811D01*
X2022Y1809D01*
X2014Y1809D01*
X2014Y1807D01*
X2106Y1807D01*
X2106Y1809D01*
X2098Y1809D01*
X2098Y1811D01*
X2092Y1811D01*
X2092Y1813D01*
X2090Y1813D01*
X2090Y1815D01*
X2086Y1815D01*
X2086Y1817D01*
X2082Y1817D01*
X2082Y1819D01*
X2080Y1819D01*
X2080Y1821D01*
X2078Y1821D01*
X2078Y1823D01*
X2076Y1823D01*
X2076Y1825D01*
X2074Y1825D01*
X2074Y1827D01*
X2072Y1827D01*
X2072Y1831D01*
X2050Y1831D01*
G37*
D02*
G36*
X2150Y1831D02*
X2150Y1829D01*
X2148Y1829D01*
X2148Y1827D01*
X2146Y1827D01*
X2146Y1825D01*
X2144Y1825D01*
X2144Y1823D01*
X2142Y1823D01*
X2142Y1821D01*
X2140Y1821D01*
X2140Y1819D01*
X2138Y1819D01*
X2138Y1817D01*
X2136Y1817D01*
X2136Y1815D01*
X2132Y1815D01*
X2132Y1813D01*
X2128Y1813D01*
X2128Y1811D01*
X2122Y1811D01*
X2122Y1809D01*
X2114Y1809D01*
X2114Y1807D01*
X2206Y1807D01*
X2206Y1809D01*
X2198Y1809D01*
X2198Y1811D01*
X2192Y1811D01*
X2192Y1813D01*
X2190Y1813D01*
X2190Y1815D01*
X2186Y1815D01*
X2186Y1817D01*
X2182Y1817D01*
X2182Y1819D01*
X2180Y1819D01*
X2180Y1821D01*
X2178Y1821D01*
X2178Y1823D01*
X2176Y1823D01*
X2176Y1825D01*
X2174Y1825D01*
X2174Y1827D01*
X2172Y1827D01*
X2172Y1831D01*
X2150Y1831D01*
G37*
D02*
G36*
X2250Y1831D02*
X2250Y1829D01*
X2248Y1829D01*
X2248Y1827D01*
X2246Y1827D01*
X2246Y1825D01*
X2244Y1825D01*
X2244Y1823D01*
X2242Y1823D01*
X2242Y1821D01*
X2240Y1821D01*
X2240Y1819D01*
X2238Y1819D01*
X2238Y1817D01*
X2236Y1817D01*
X2236Y1815D01*
X2232Y1815D01*
X2232Y1813D01*
X2228Y1813D01*
X2228Y1811D01*
X2222Y1811D01*
X2222Y1809D01*
X2214Y1809D01*
X2214Y1807D01*
X2306Y1807D01*
X2306Y1809D01*
X2298Y1809D01*
X2298Y1811D01*
X2292Y1811D01*
X2292Y1813D01*
X2290Y1813D01*
X2290Y1815D01*
X2286Y1815D01*
X2286Y1817D01*
X2282Y1817D01*
X2282Y1819D01*
X2280Y1819D01*
X2280Y1821D01*
X2278Y1821D01*
X2278Y1823D01*
X2276Y1823D01*
X2276Y1825D01*
X2274Y1825D01*
X2274Y1827D01*
X2272Y1827D01*
X2272Y1831D01*
X2250Y1831D01*
G37*
D02*
G36*
X2350Y1831D02*
X2350Y1829D01*
X2348Y1829D01*
X2348Y1827D01*
X2346Y1827D01*
X2346Y1825D01*
X2344Y1825D01*
X2344Y1823D01*
X2342Y1823D01*
X2342Y1821D01*
X2340Y1821D01*
X2340Y1819D01*
X2338Y1819D01*
X2338Y1817D01*
X2336Y1817D01*
X2336Y1815D01*
X2332Y1815D01*
X2332Y1813D01*
X2328Y1813D01*
X2328Y1811D01*
X2322Y1811D01*
X2322Y1809D01*
X2314Y1809D01*
X2314Y1807D01*
X2406Y1807D01*
X2406Y1809D01*
X2398Y1809D01*
X2398Y1811D01*
X2392Y1811D01*
X2392Y1813D01*
X2390Y1813D01*
X2390Y1815D01*
X2386Y1815D01*
X2386Y1817D01*
X2382Y1817D01*
X2382Y1819D01*
X2380Y1819D01*
X2380Y1821D01*
X2378Y1821D01*
X2378Y1823D01*
X2376Y1823D01*
X2376Y1825D01*
X2374Y1825D01*
X2374Y1827D01*
X2372Y1827D01*
X2372Y1831D01*
X2350Y1831D01*
G37*
D02*
G36*
X2450Y1831D02*
X2450Y1829D01*
X2448Y1829D01*
X2448Y1827D01*
X2446Y1827D01*
X2446Y1825D01*
X2444Y1825D01*
X2444Y1823D01*
X2442Y1823D01*
X2442Y1821D01*
X2440Y1821D01*
X2440Y1819D01*
X2438Y1819D01*
X2438Y1817D01*
X2436Y1817D01*
X2436Y1815D01*
X2432Y1815D01*
X2432Y1813D01*
X2428Y1813D01*
X2428Y1811D01*
X2422Y1811D01*
X2422Y1809D01*
X2414Y1809D01*
X2414Y1807D01*
X2506Y1807D01*
X2506Y1809D01*
X2498Y1809D01*
X2498Y1811D01*
X2492Y1811D01*
X2492Y1813D01*
X2490Y1813D01*
X2490Y1815D01*
X2486Y1815D01*
X2486Y1817D01*
X2482Y1817D01*
X2482Y1819D01*
X2480Y1819D01*
X2480Y1821D01*
X2478Y1821D01*
X2478Y1823D01*
X2476Y1823D01*
X2476Y1825D01*
X2474Y1825D01*
X2474Y1827D01*
X2472Y1827D01*
X2472Y1831D01*
X2450Y1831D01*
G37*
D02*
G36*
X2550Y1831D02*
X2550Y1829D01*
X2548Y1829D01*
X2548Y1827D01*
X2546Y1827D01*
X2546Y1825D01*
X2544Y1825D01*
X2544Y1823D01*
X2542Y1823D01*
X2542Y1821D01*
X2540Y1821D01*
X2540Y1819D01*
X2538Y1819D01*
X2538Y1817D01*
X2536Y1817D01*
X2536Y1815D01*
X2532Y1815D01*
X2532Y1813D01*
X2528Y1813D01*
X2528Y1811D01*
X2522Y1811D01*
X2522Y1809D01*
X2514Y1809D01*
X2514Y1807D01*
X2606Y1807D01*
X2606Y1809D01*
X2598Y1809D01*
X2598Y1811D01*
X2592Y1811D01*
X2592Y1813D01*
X2590Y1813D01*
X2590Y1815D01*
X2586Y1815D01*
X2586Y1817D01*
X2582Y1817D01*
X2582Y1819D01*
X2580Y1819D01*
X2580Y1821D01*
X2578Y1821D01*
X2578Y1823D01*
X2576Y1823D01*
X2576Y1825D01*
X2574Y1825D01*
X2574Y1827D01*
X2572Y1827D01*
X2572Y1831D01*
X2550Y1831D01*
G37*
D02*
G36*
X2650Y1831D02*
X2650Y1829D01*
X2648Y1829D01*
X2648Y1827D01*
X2646Y1827D01*
X2646Y1825D01*
X2644Y1825D01*
X2644Y1823D01*
X2642Y1823D01*
X2642Y1821D01*
X2640Y1821D01*
X2640Y1819D01*
X2638Y1819D01*
X2638Y1817D01*
X2636Y1817D01*
X2636Y1815D01*
X2632Y1815D01*
X2632Y1813D01*
X2628Y1813D01*
X2628Y1811D01*
X2622Y1811D01*
X2622Y1809D01*
X2614Y1809D01*
X2614Y1807D01*
X2706Y1807D01*
X2706Y1809D01*
X2698Y1809D01*
X2698Y1811D01*
X2692Y1811D01*
X2692Y1813D01*
X2690Y1813D01*
X2690Y1815D01*
X2686Y1815D01*
X2686Y1817D01*
X2682Y1817D01*
X2682Y1819D01*
X2680Y1819D01*
X2680Y1821D01*
X2678Y1821D01*
X2678Y1823D01*
X2676Y1823D01*
X2676Y1825D01*
X2674Y1825D01*
X2674Y1827D01*
X2672Y1827D01*
X2672Y1831D01*
X2650Y1831D01*
G37*
D02*
G36*
X2750Y1831D02*
X2750Y1829D01*
X2748Y1829D01*
X2748Y1827D01*
X2746Y1827D01*
X2746Y1825D01*
X2744Y1825D01*
X2744Y1823D01*
X2742Y1823D01*
X2742Y1821D01*
X2740Y1821D01*
X2740Y1819D01*
X2738Y1819D01*
X2738Y1817D01*
X2736Y1817D01*
X2736Y1815D01*
X2732Y1815D01*
X2732Y1813D01*
X2728Y1813D01*
X2728Y1811D01*
X2722Y1811D01*
X2722Y1809D01*
X2714Y1809D01*
X2714Y1807D01*
X2806Y1807D01*
X2806Y1809D01*
X2798Y1809D01*
X2798Y1811D01*
X2792Y1811D01*
X2792Y1813D01*
X2790Y1813D01*
X2790Y1815D01*
X2786Y1815D01*
X2786Y1817D01*
X2782Y1817D01*
X2782Y1819D01*
X2780Y1819D01*
X2780Y1821D01*
X2778Y1821D01*
X2778Y1823D01*
X2776Y1823D01*
X2776Y1825D01*
X2774Y1825D01*
X2774Y1827D01*
X2772Y1827D01*
X2772Y1831D01*
X2750Y1831D01*
G37*
D02*
G36*
X40Y1807D02*
X40Y1805D01*
X488Y1805D01*
X488Y1807D01*
X40Y1807D01*
G37*
D02*
G36*
X40Y1807D02*
X40Y1805D01*
X488Y1805D01*
X488Y1807D01*
X40Y1807D01*
G37*
D02*
G36*
X40Y1807D02*
X40Y1805D01*
X488Y1805D01*
X488Y1807D01*
X40Y1807D01*
G37*
D02*
G36*
X40Y1807D02*
X40Y1805D01*
X488Y1805D01*
X488Y1807D01*
X40Y1807D01*
G37*
D02*
G36*
X40Y1807D02*
X40Y1805D01*
X488Y1805D01*
X488Y1807D01*
X40Y1807D01*
G37*
D02*
G36*
X1736Y1807D02*
X1736Y1805D01*
X2810Y1805D01*
X2810Y1807D01*
X1736Y1807D01*
G37*
D02*
G36*
X1736Y1807D02*
X1736Y1805D01*
X2810Y1805D01*
X2810Y1807D01*
X1736Y1807D01*
G37*
D02*
G36*
X1736Y1807D02*
X1736Y1805D01*
X2810Y1805D01*
X2810Y1807D01*
X1736Y1807D01*
G37*
D02*
G36*
X1736Y1807D02*
X1736Y1805D01*
X2810Y1805D01*
X2810Y1807D01*
X1736Y1807D01*
G37*
D02*
G36*
X1736Y1807D02*
X1736Y1805D01*
X2810Y1805D01*
X2810Y1807D01*
X1736Y1807D01*
G37*
D02*
G36*
X1736Y1807D02*
X1736Y1805D01*
X2810Y1805D01*
X2810Y1807D01*
X1736Y1807D01*
G37*
D02*
G36*
X1736Y1807D02*
X1736Y1805D01*
X2810Y1805D01*
X2810Y1807D01*
X1736Y1807D01*
G37*
D02*
G36*
X1736Y1807D02*
X1736Y1805D01*
X2810Y1805D01*
X2810Y1807D01*
X1736Y1807D01*
G37*
D02*
G36*
X1736Y1807D02*
X1736Y1805D01*
X2810Y1805D01*
X2810Y1807D01*
X1736Y1807D01*
G37*
D02*
G36*
X1736Y1807D02*
X1736Y1805D01*
X2810Y1805D01*
X2810Y1807D01*
X1736Y1807D01*
G37*
D02*
G36*
X1736Y1807D02*
X1736Y1805D01*
X2810Y1805D01*
X2810Y1807D01*
X1736Y1807D01*
G37*
D02*
G36*
X40Y1805D02*
X40Y1207D01*
X406Y1207D01*
X406Y1209D01*
X398Y1209D01*
X398Y1211D01*
X392Y1211D01*
X392Y1213D01*
X390Y1213D01*
X390Y1215D01*
X386Y1215D01*
X386Y1217D01*
X382Y1217D01*
X382Y1219D01*
X380Y1219D01*
X380Y1221D01*
X378Y1221D01*
X378Y1223D01*
X376Y1223D01*
X376Y1225D01*
X374Y1225D01*
X374Y1227D01*
X372Y1227D01*
X372Y1231D01*
X370Y1231D01*
X370Y1233D01*
X368Y1233D01*
X368Y1237D01*
X366Y1237D01*
X366Y1241D01*
X364Y1241D01*
X364Y1247D01*
X362Y1247D01*
X362Y1267D01*
X364Y1267D01*
X364Y1273D01*
X366Y1273D01*
X366Y1277D01*
X368Y1277D01*
X368Y1281D01*
X370Y1281D01*
X370Y1283D01*
X372Y1283D01*
X372Y1285D01*
X374Y1285D01*
X374Y1289D01*
X376Y1289D01*
X376Y1291D01*
X378Y1291D01*
X378Y1293D01*
X382Y1293D01*
X382Y1295D01*
X384Y1295D01*
X384Y1297D01*
X386Y1297D01*
X386Y1299D01*
X390Y1299D01*
X390Y1301D01*
X394Y1301D01*
X394Y1303D01*
X400Y1303D01*
X400Y1305D01*
X432Y1305D01*
X432Y1307D01*
X434Y1307D01*
X434Y1309D01*
X436Y1309D01*
X436Y1311D01*
X440Y1311D01*
X440Y1313D01*
X442Y1313D01*
X442Y1315D01*
X444Y1315D01*
X444Y1317D01*
X446Y1317D01*
X446Y1319D01*
X448Y1319D01*
X448Y1321D01*
X450Y1321D01*
X450Y1323D01*
X452Y1323D01*
X452Y1325D01*
X454Y1325D01*
X454Y1327D01*
X456Y1327D01*
X456Y1329D01*
X460Y1329D01*
X460Y1331D01*
X462Y1331D01*
X462Y1333D01*
X464Y1333D01*
X464Y1335D01*
X466Y1335D01*
X466Y1337D01*
X468Y1337D01*
X468Y1339D01*
X470Y1339D01*
X470Y1341D01*
X472Y1341D01*
X472Y1343D01*
X474Y1343D01*
X474Y1345D01*
X478Y1345D01*
X478Y1347D01*
X480Y1347D01*
X480Y1349D01*
X482Y1349D01*
X482Y1351D01*
X484Y1351D01*
X484Y1353D01*
X486Y1353D01*
X486Y1355D01*
X488Y1355D01*
X488Y1805D01*
X40Y1805D01*
G37*
D02*
G36*
X1736Y1805D02*
X1736Y1797D01*
X1738Y1797D01*
X1738Y1795D01*
X1740Y1795D01*
X1740Y1793D01*
X1742Y1793D01*
X1742Y1791D01*
X1744Y1791D01*
X1744Y1789D01*
X1746Y1789D01*
X1746Y1787D01*
X1748Y1787D01*
X1748Y1785D01*
X1750Y1785D01*
X1750Y1781D01*
X1752Y1781D01*
X1752Y1779D01*
X1754Y1779D01*
X1754Y1775D01*
X1756Y1775D01*
X1756Y1769D01*
X1758Y1769D01*
X1758Y1763D01*
X1760Y1763D01*
X1760Y1751D01*
X1758Y1751D01*
X1758Y1743D01*
X1756Y1743D01*
X1756Y1739D01*
X1754Y1739D01*
X1754Y1735D01*
X1752Y1735D01*
X1752Y1731D01*
X1750Y1731D01*
X1750Y1729D01*
X1748Y1729D01*
X1748Y1727D01*
X1746Y1727D01*
X1746Y1725D01*
X1744Y1725D01*
X1744Y1723D01*
X1742Y1723D01*
X1742Y1721D01*
X1740Y1721D01*
X1740Y1719D01*
X1738Y1719D01*
X1738Y1717D01*
X1736Y1717D01*
X1736Y1697D01*
X1738Y1697D01*
X1738Y1695D01*
X1740Y1695D01*
X1740Y1693D01*
X1742Y1693D01*
X1742Y1691D01*
X1744Y1691D01*
X1744Y1689D01*
X1746Y1689D01*
X1746Y1687D01*
X1748Y1687D01*
X1748Y1685D01*
X1750Y1685D01*
X1750Y1681D01*
X1752Y1681D01*
X1752Y1679D01*
X1754Y1679D01*
X1754Y1675D01*
X1756Y1675D01*
X1756Y1669D01*
X1758Y1669D01*
X1758Y1663D01*
X1760Y1663D01*
X1760Y1651D01*
X1758Y1651D01*
X1758Y1643D01*
X1756Y1643D01*
X1756Y1639D01*
X1754Y1639D01*
X1754Y1635D01*
X1752Y1635D01*
X1752Y1631D01*
X1750Y1631D01*
X1750Y1629D01*
X1748Y1629D01*
X1748Y1627D01*
X1746Y1627D01*
X1746Y1625D01*
X1744Y1625D01*
X1744Y1623D01*
X1742Y1623D01*
X1742Y1621D01*
X1740Y1621D01*
X1740Y1619D01*
X1738Y1619D01*
X1738Y1617D01*
X1736Y1617D01*
X1736Y1615D01*
X1732Y1615D01*
X1732Y1613D01*
X1728Y1613D01*
X1728Y1611D01*
X1722Y1611D01*
X1722Y1609D01*
X1714Y1609D01*
X1714Y1607D01*
X2118Y1607D01*
X2118Y1609D01*
X2122Y1609D01*
X2122Y1611D01*
X2124Y1611D01*
X2124Y1613D01*
X2126Y1613D01*
X2126Y1615D01*
X2128Y1615D01*
X2128Y1617D01*
X2130Y1617D01*
X2130Y1619D01*
X2134Y1619D01*
X2134Y1621D01*
X2136Y1621D01*
X2136Y1623D01*
X2138Y1623D01*
X2138Y1625D01*
X2140Y1625D01*
X2140Y1627D01*
X2142Y1627D01*
X2142Y1629D01*
X2146Y1629D01*
X2146Y1631D01*
X2148Y1631D01*
X2148Y1633D01*
X2150Y1633D01*
X2150Y1635D01*
X2152Y1635D01*
X2152Y1637D01*
X2154Y1637D01*
X2154Y1639D01*
X2158Y1639D01*
X2158Y1641D01*
X2160Y1641D01*
X2160Y1643D01*
X2162Y1643D01*
X2162Y1645D01*
X2164Y1645D01*
X2164Y1647D01*
X2166Y1647D01*
X2166Y1649D01*
X2170Y1649D01*
X2170Y1651D01*
X2172Y1651D01*
X2172Y1653D01*
X2174Y1653D01*
X2174Y1655D01*
X2176Y1655D01*
X2176Y1657D01*
X2178Y1657D01*
X2178Y1659D01*
X2182Y1659D01*
X2182Y1661D01*
X2184Y1661D01*
X2184Y1663D01*
X2186Y1663D01*
X2186Y1665D01*
X2188Y1665D01*
X2188Y1667D01*
X2190Y1667D01*
X2190Y1669D01*
X2194Y1669D01*
X2194Y1671D01*
X2196Y1671D01*
X2196Y1673D01*
X2198Y1673D01*
X2198Y1675D01*
X2200Y1675D01*
X2200Y1677D01*
X2202Y1677D01*
X2202Y1679D01*
X2206Y1679D01*
X2206Y1681D01*
X2208Y1681D01*
X2208Y1683D01*
X2210Y1683D01*
X2210Y1685D01*
X2212Y1685D01*
X2212Y1687D01*
X2214Y1687D01*
X2214Y1689D01*
X2218Y1689D01*
X2218Y1691D01*
X2220Y1691D01*
X2220Y1693D01*
X2222Y1693D01*
X2222Y1695D01*
X2224Y1695D01*
X2224Y1697D01*
X2226Y1697D01*
X2226Y1699D01*
X2230Y1699D01*
X2230Y1701D01*
X2232Y1701D01*
X2232Y1703D01*
X2234Y1703D01*
X2234Y1705D01*
X2236Y1705D01*
X2236Y1707D01*
X2238Y1707D01*
X2238Y1709D01*
X2242Y1709D01*
X2242Y1711D01*
X2244Y1711D01*
X2244Y1713D01*
X2246Y1713D01*
X2246Y1715D01*
X2248Y1715D01*
X2248Y1717D01*
X2250Y1717D01*
X2250Y1719D01*
X2254Y1719D01*
X2254Y1721D01*
X2256Y1721D01*
X2256Y1723D01*
X2258Y1723D01*
X2258Y1725D01*
X2260Y1725D01*
X2260Y1727D01*
X2262Y1727D01*
X2262Y1729D01*
X2266Y1729D01*
X2266Y1731D01*
X2268Y1731D01*
X2268Y1733D01*
X2270Y1733D01*
X2270Y1735D01*
X2272Y1735D01*
X2272Y1737D01*
X2274Y1737D01*
X2274Y1739D01*
X2278Y1739D01*
X2278Y1741D01*
X2280Y1741D01*
X2280Y1743D01*
X2282Y1743D01*
X2282Y1745D01*
X2284Y1745D01*
X2284Y1747D01*
X2286Y1747D01*
X2286Y1749D01*
X2290Y1749D01*
X2290Y1751D01*
X2292Y1751D01*
X2292Y1753D01*
X2294Y1753D01*
X2294Y1755D01*
X2296Y1755D01*
X2296Y1757D01*
X2300Y1757D01*
X2300Y1759D01*
X2302Y1759D01*
X2302Y1761D01*
X2304Y1761D01*
X2304Y1763D01*
X2306Y1763D01*
X2306Y1765D01*
X2310Y1765D01*
X2310Y1767D01*
X2314Y1767D01*
X2314Y1769D01*
X2792Y1769D01*
X2792Y1771D01*
X2794Y1771D01*
X2794Y1773D01*
X2796Y1773D01*
X2796Y1775D01*
X2798Y1775D01*
X2798Y1777D01*
X2800Y1777D01*
X2800Y1779D01*
X2802Y1779D01*
X2802Y1781D01*
X2804Y1781D01*
X2804Y1783D01*
X2806Y1783D01*
X2806Y1785D01*
X2808Y1785D01*
X2808Y1787D01*
X2810Y1787D01*
X2810Y1805D01*
X1736Y1805D01*
G37*
D02*
G36*
X1242Y1647D02*
X1242Y1645D01*
X1240Y1645D01*
X1240Y1643D01*
X1238Y1643D01*
X1238Y1641D01*
X1236Y1641D01*
X1236Y1639D01*
X1234Y1639D01*
X1234Y1637D01*
X1232Y1637D01*
X1232Y1633D01*
X1230Y1633D01*
X1230Y1631D01*
X1228Y1631D01*
X1228Y1629D01*
X1226Y1629D01*
X1226Y1627D01*
X1224Y1627D01*
X1224Y1625D01*
X1222Y1625D01*
X1222Y1623D01*
X1220Y1623D01*
X1220Y1621D01*
X1218Y1621D01*
X1218Y1619D01*
X1216Y1619D01*
X1216Y1615D01*
X1214Y1615D01*
X1214Y1613D01*
X1212Y1613D01*
X1212Y1611D01*
X1210Y1611D01*
X1210Y1609D01*
X1208Y1609D01*
X1208Y1607D01*
X1306Y1607D01*
X1306Y1609D01*
X1298Y1609D01*
X1298Y1611D01*
X1292Y1611D01*
X1292Y1613D01*
X1290Y1613D01*
X1290Y1615D01*
X1286Y1615D01*
X1286Y1617D01*
X1282Y1617D01*
X1282Y1619D01*
X1280Y1619D01*
X1280Y1621D01*
X1278Y1621D01*
X1278Y1623D01*
X1276Y1623D01*
X1276Y1625D01*
X1274Y1625D01*
X1274Y1627D01*
X1272Y1627D01*
X1272Y1631D01*
X1270Y1631D01*
X1270Y1633D01*
X1268Y1633D01*
X1268Y1637D01*
X1266Y1637D01*
X1266Y1641D01*
X1264Y1641D01*
X1264Y1647D01*
X1242Y1647D01*
G37*
D02*
G36*
X1350Y1631D02*
X1350Y1629D01*
X1348Y1629D01*
X1348Y1627D01*
X1346Y1627D01*
X1346Y1625D01*
X1344Y1625D01*
X1344Y1623D01*
X1342Y1623D01*
X1342Y1621D01*
X1340Y1621D01*
X1340Y1619D01*
X1338Y1619D01*
X1338Y1617D01*
X1336Y1617D01*
X1336Y1615D01*
X1332Y1615D01*
X1332Y1613D01*
X1328Y1613D01*
X1328Y1611D01*
X1322Y1611D01*
X1322Y1609D01*
X1314Y1609D01*
X1314Y1607D01*
X1406Y1607D01*
X1406Y1609D01*
X1398Y1609D01*
X1398Y1611D01*
X1392Y1611D01*
X1392Y1613D01*
X1390Y1613D01*
X1390Y1615D01*
X1386Y1615D01*
X1386Y1617D01*
X1382Y1617D01*
X1382Y1619D01*
X1380Y1619D01*
X1380Y1621D01*
X1378Y1621D01*
X1378Y1623D01*
X1376Y1623D01*
X1376Y1625D01*
X1374Y1625D01*
X1374Y1627D01*
X1372Y1627D01*
X1372Y1631D01*
X1350Y1631D01*
G37*
D02*
G36*
X1450Y1631D02*
X1450Y1629D01*
X1448Y1629D01*
X1448Y1627D01*
X1446Y1627D01*
X1446Y1625D01*
X1444Y1625D01*
X1444Y1623D01*
X1442Y1623D01*
X1442Y1621D01*
X1440Y1621D01*
X1440Y1619D01*
X1438Y1619D01*
X1438Y1617D01*
X1436Y1617D01*
X1436Y1615D01*
X1432Y1615D01*
X1432Y1613D01*
X1428Y1613D01*
X1428Y1611D01*
X1422Y1611D01*
X1422Y1609D01*
X1414Y1609D01*
X1414Y1607D01*
X1506Y1607D01*
X1506Y1609D01*
X1498Y1609D01*
X1498Y1611D01*
X1492Y1611D01*
X1492Y1613D01*
X1490Y1613D01*
X1490Y1615D01*
X1486Y1615D01*
X1486Y1617D01*
X1482Y1617D01*
X1482Y1619D01*
X1480Y1619D01*
X1480Y1621D01*
X1478Y1621D01*
X1478Y1623D01*
X1476Y1623D01*
X1476Y1625D01*
X1474Y1625D01*
X1474Y1627D01*
X1472Y1627D01*
X1472Y1631D01*
X1450Y1631D01*
G37*
D02*
G36*
X1550Y1631D02*
X1550Y1629D01*
X1548Y1629D01*
X1548Y1627D01*
X1546Y1627D01*
X1546Y1625D01*
X1544Y1625D01*
X1544Y1623D01*
X1542Y1623D01*
X1542Y1621D01*
X1540Y1621D01*
X1540Y1619D01*
X1538Y1619D01*
X1538Y1617D01*
X1536Y1617D01*
X1536Y1615D01*
X1532Y1615D01*
X1532Y1613D01*
X1528Y1613D01*
X1528Y1611D01*
X1522Y1611D01*
X1522Y1609D01*
X1514Y1609D01*
X1514Y1607D01*
X1606Y1607D01*
X1606Y1609D01*
X1598Y1609D01*
X1598Y1611D01*
X1592Y1611D01*
X1592Y1613D01*
X1590Y1613D01*
X1590Y1615D01*
X1586Y1615D01*
X1586Y1617D01*
X1582Y1617D01*
X1582Y1619D01*
X1580Y1619D01*
X1580Y1621D01*
X1578Y1621D01*
X1578Y1623D01*
X1576Y1623D01*
X1576Y1625D01*
X1574Y1625D01*
X1574Y1627D01*
X1572Y1627D01*
X1572Y1631D01*
X1550Y1631D01*
G37*
D02*
G36*
X1650Y1631D02*
X1650Y1629D01*
X1648Y1629D01*
X1648Y1627D01*
X1646Y1627D01*
X1646Y1625D01*
X1644Y1625D01*
X1644Y1623D01*
X1642Y1623D01*
X1642Y1621D01*
X1640Y1621D01*
X1640Y1619D01*
X1638Y1619D01*
X1638Y1617D01*
X1636Y1617D01*
X1636Y1615D01*
X1632Y1615D01*
X1632Y1613D01*
X1628Y1613D01*
X1628Y1611D01*
X1622Y1611D01*
X1622Y1609D01*
X1614Y1609D01*
X1614Y1607D01*
X1706Y1607D01*
X1706Y1609D01*
X1698Y1609D01*
X1698Y1611D01*
X1692Y1611D01*
X1692Y1613D01*
X1690Y1613D01*
X1690Y1615D01*
X1686Y1615D01*
X1686Y1617D01*
X1682Y1617D01*
X1682Y1619D01*
X1680Y1619D01*
X1680Y1621D01*
X1678Y1621D01*
X1678Y1623D01*
X1676Y1623D01*
X1676Y1625D01*
X1674Y1625D01*
X1674Y1627D01*
X1672Y1627D01*
X1672Y1631D01*
X1650Y1631D01*
G37*
D02*
G36*
X1206Y1607D02*
X1206Y1605D01*
X2116Y1605D01*
X2116Y1607D01*
X1206Y1607D01*
G37*
D02*
G36*
X1206Y1607D02*
X1206Y1605D01*
X2116Y1605D01*
X2116Y1607D01*
X1206Y1607D01*
G37*
D02*
G36*
X1206Y1607D02*
X1206Y1605D01*
X2116Y1605D01*
X2116Y1607D01*
X1206Y1607D01*
G37*
D02*
G36*
X1206Y1607D02*
X1206Y1605D01*
X2116Y1605D01*
X2116Y1607D01*
X1206Y1607D01*
G37*
D02*
G36*
X1206Y1607D02*
X1206Y1605D01*
X2116Y1605D01*
X2116Y1607D01*
X1206Y1607D01*
G37*
D02*
G36*
X1206Y1607D02*
X1206Y1605D01*
X2116Y1605D01*
X2116Y1607D01*
X1206Y1607D01*
G37*
D02*
G36*
X1204Y1605D02*
X1204Y1603D01*
X1202Y1603D01*
X1202Y1599D01*
X1200Y1599D01*
X1200Y1597D01*
X1198Y1597D01*
X1198Y1595D01*
X1196Y1595D01*
X1196Y1593D01*
X1194Y1593D01*
X1194Y1591D01*
X1192Y1591D01*
X1192Y1589D01*
X1190Y1589D01*
X1190Y1587D01*
X1188Y1587D01*
X1188Y1585D01*
X1186Y1585D01*
X1186Y1581D01*
X1184Y1581D01*
X1184Y1579D01*
X1182Y1579D01*
X1182Y1577D01*
X1180Y1577D01*
X1180Y1575D01*
X1178Y1575D01*
X1178Y1573D01*
X1176Y1573D01*
X1176Y1571D01*
X1174Y1571D01*
X1174Y1569D01*
X1172Y1569D01*
X1172Y1567D01*
X1170Y1567D01*
X1170Y1563D01*
X1168Y1563D01*
X1168Y1561D01*
X1166Y1561D01*
X1166Y1559D01*
X1164Y1559D01*
X1164Y1557D01*
X1162Y1557D01*
X1162Y1555D01*
X1160Y1555D01*
X1160Y1553D01*
X1158Y1553D01*
X1158Y1551D01*
X1156Y1551D01*
X1156Y1549D01*
X1154Y1549D01*
X1154Y1545D01*
X1152Y1545D01*
X1152Y1543D01*
X1150Y1543D01*
X1150Y1541D01*
X1148Y1541D01*
X1148Y1539D01*
X1146Y1539D01*
X1146Y1537D01*
X1144Y1537D01*
X1144Y1535D01*
X1142Y1535D01*
X1142Y1533D01*
X1140Y1533D01*
X1140Y1529D01*
X1138Y1529D01*
X1138Y1527D01*
X1136Y1527D01*
X1136Y1525D01*
X1134Y1525D01*
X1134Y1523D01*
X1132Y1523D01*
X1132Y1521D01*
X1130Y1521D01*
X1130Y1519D01*
X1128Y1519D01*
X1128Y1517D01*
X1126Y1517D01*
X1126Y1515D01*
X1124Y1515D01*
X1124Y1511D01*
X1122Y1511D01*
X1122Y1509D01*
X1120Y1509D01*
X1120Y1507D01*
X1118Y1507D01*
X1118Y1505D01*
X1116Y1505D01*
X1116Y1503D01*
X1114Y1503D01*
X1114Y1501D01*
X1112Y1501D01*
X1112Y1499D01*
X1110Y1499D01*
X1110Y1497D01*
X1108Y1497D01*
X1108Y1493D01*
X1106Y1493D01*
X1106Y1491D01*
X1104Y1491D01*
X1104Y1489D01*
X1102Y1489D01*
X1102Y1487D01*
X1100Y1487D01*
X1100Y1485D01*
X1098Y1485D01*
X1098Y1483D01*
X1096Y1483D01*
X1096Y1481D01*
X1094Y1481D01*
X1094Y1479D01*
X1092Y1479D01*
X1092Y1475D01*
X1090Y1475D01*
X1090Y1473D01*
X1088Y1473D01*
X1088Y1471D01*
X1086Y1471D01*
X1086Y1469D01*
X1084Y1469D01*
X1084Y1467D01*
X1082Y1467D01*
X1082Y1465D01*
X1080Y1465D01*
X1080Y1463D01*
X1078Y1463D01*
X1078Y1459D01*
X1076Y1459D01*
X1076Y1457D01*
X1074Y1457D01*
X1074Y1455D01*
X1072Y1455D01*
X1072Y1453D01*
X1070Y1453D01*
X1070Y1451D01*
X1068Y1451D01*
X1068Y1449D01*
X1066Y1449D01*
X1066Y1447D01*
X1064Y1447D01*
X1064Y1445D01*
X1062Y1445D01*
X1062Y1441D01*
X1060Y1441D01*
X1060Y1439D01*
X1058Y1439D01*
X1058Y1437D01*
X1056Y1437D01*
X1056Y1435D01*
X1054Y1435D01*
X1054Y1433D01*
X1052Y1433D01*
X1052Y1431D01*
X1050Y1431D01*
X1050Y1429D01*
X1048Y1429D01*
X1048Y1427D01*
X1046Y1427D01*
X1046Y1423D01*
X1044Y1423D01*
X1044Y1421D01*
X1042Y1421D01*
X1042Y1419D01*
X1040Y1419D01*
X1040Y1417D01*
X1038Y1417D01*
X1038Y1415D01*
X1036Y1415D01*
X1036Y1413D01*
X1034Y1413D01*
X1034Y1411D01*
X1032Y1411D01*
X1032Y1405D01*
X1214Y1405D01*
X1214Y1403D01*
X1222Y1403D01*
X1222Y1401D01*
X1228Y1401D01*
X1228Y1399D01*
X1232Y1399D01*
X1232Y1397D01*
X1234Y1397D01*
X1234Y1395D01*
X1238Y1395D01*
X1238Y1393D01*
X1240Y1393D01*
X1240Y1391D01*
X1242Y1391D01*
X1242Y1389D01*
X1244Y1389D01*
X1244Y1387D01*
X1246Y1387D01*
X1246Y1385D01*
X1248Y1385D01*
X1248Y1383D01*
X1250Y1383D01*
X1250Y1379D01*
X1252Y1379D01*
X1252Y1375D01*
X1254Y1375D01*
X1254Y1371D01*
X1256Y1371D01*
X1256Y1365D01*
X1258Y1365D01*
X1258Y1349D01*
X1256Y1349D01*
X1256Y1343D01*
X1254Y1343D01*
X1254Y1339D01*
X1252Y1339D01*
X1252Y1335D01*
X1250Y1335D01*
X1250Y1331D01*
X1248Y1331D01*
X1248Y1329D01*
X1246Y1329D01*
X1246Y1327D01*
X1244Y1327D01*
X1244Y1325D01*
X1242Y1325D01*
X1242Y1323D01*
X1240Y1323D01*
X1240Y1321D01*
X1238Y1321D01*
X1238Y1319D01*
X1236Y1319D01*
X1236Y1317D01*
X1232Y1317D01*
X1232Y1315D01*
X1228Y1315D01*
X1228Y1313D01*
X1224Y1313D01*
X1224Y1311D01*
X1218Y1311D01*
X1218Y1309D01*
X1760Y1309D01*
X1760Y1311D01*
X1762Y1311D01*
X1762Y1313D01*
X1766Y1313D01*
X1766Y1315D01*
X1768Y1315D01*
X1768Y1317D01*
X1770Y1317D01*
X1770Y1319D01*
X1772Y1319D01*
X1772Y1321D01*
X1774Y1321D01*
X1774Y1323D01*
X1778Y1323D01*
X1778Y1325D01*
X1780Y1325D01*
X1780Y1327D01*
X1782Y1327D01*
X1782Y1329D01*
X1784Y1329D01*
X1784Y1331D01*
X1786Y1331D01*
X1786Y1333D01*
X1790Y1333D01*
X1790Y1335D01*
X1792Y1335D01*
X1792Y1337D01*
X1794Y1337D01*
X1794Y1339D01*
X1796Y1339D01*
X1796Y1341D01*
X1798Y1341D01*
X1798Y1343D01*
X1802Y1343D01*
X1802Y1345D01*
X1804Y1345D01*
X1804Y1347D01*
X1806Y1347D01*
X1806Y1349D01*
X1808Y1349D01*
X1808Y1351D01*
X1810Y1351D01*
X1810Y1353D01*
X1814Y1353D01*
X1814Y1355D01*
X1816Y1355D01*
X1816Y1357D01*
X1818Y1357D01*
X1818Y1359D01*
X1820Y1359D01*
X1820Y1361D01*
X1822Y1361D01*
X1822Y1363D01*
X1826Y1363D01*
X1826Y1365D01*
X1828Y1365D01*
X1828Y1367D01*
X1830Y1367D01*
X1830Y1369D01*
X1832Y1369D01*
X1832Y1371D01*
X1834Y1371D01*
X1834Y1373D01*
X1838Y1373D01*
X1838Y1375D01*
X1840Y1375D01*
X1840Y1377D01*
X1842Y1377D01*
X1842Y1379D01*
X1844Y1379D01*
X1844Y1381D01*
X1846Y1381D01*
X1846Y1383D01*
X1850Y1383D01*
X1850Y1385D01*
X1852Y1385D01*
X1852Y1387D01*
X1854Y1387D01*
X1854Y1389D01*
X1856Y1389D01*
X1856Y1391D01*
X1858Y1391D01*
X1858Y1393D01*
X1862Y1393D01*
X1862Y1395D01*
X1864Y1395D01*
X1864Y1397D01*
X1866Y1397D01*
X1866Y1399D01*
X1868Y1399D01*
X1868Y1401D01*
X1870Y1401D01*
X1870Y1403D01*
X1874Y1403D01*
X1874Y1405D01*
X1876Y1405D01*
X1876Y1407D01*
X1878Y1407D01*
X1878Y1409D01*
X1880Y1409D01*
X1880Y1411D01*
X1882Y1411D01*
X1882Y1413D01*
X1886Y1413D01*
X1886Y1415D01*
X1888Y1415D01*
X1888Y1417D01*
X1890Y1417D01*
X1890Y1419D01*
X1892Y1419D01*
X1892Y1421D01*
X1894Y1421D01*
X1894Y1423D01*
X1898Y1423D01*
X1898Y1425D01*
X1900Y1425D01*
X1900Y1427D01*
X1902Y1427D01*
X1902Y1429D01*
X1904Y1429D01*
X1904Y1431D01*
X1906Y1431D01*
X1906Y1433D01*
X1910Y1433D01*
X1910Y1435D01*
X1912Y1435D01*
X1912Y1437D01*
X1914Y1437D01*
X1914Y1439D01*
X1916Y1439D01*
X1916Y1441D01*
X1918Y1441D01*
X1918Y1443D01*
X1922Y1443D01*
X1922Y1445D01*
X1924Y1445D01*
X1924Y1447D01*
X1926Y1447D01*
X1926Y1449D01*
X1928Y1449D01*
X1928Y1451D01*
X1930Y1451D01*
X1930Y1453D01*
X1934Y1453D01*
X1934Y1455D01*
X1936Y1455D01*
X1936Y1457D01*
X1938Y1457D01*
X1938Y1459D01*
X1940Y1459D01*
X1940Y1461D01*
X1944Y1461D01*
X1944Y1463D01*
X1946Y1463D01*
X1946Y1465D01*
X1948Y1465D01*
X1948Y1467D01*
X1950Y1467D01*
X1950Y1469D01*
X1952Y1469D01*
X1952Y1471D01*
X1956Y1471D01*
X1956Y1473D01*
X1958Y1473D01*
X1958Y1475D01*
X1960Y1475D01*
X1960Y1477D01*
X1962Y1477D01*
X1962Y1479D01*
X1964Y1479D01*
X1964Y1481D01*
X1968Y1481D01*
X1968Y1483D01*
X1970Y1483D01*
X1970Y1485D01*
X1972Y1485D01*
X1972Y1487D01*
X1974Y1487D01*
X1974Y1489D01*
X1976Y1489D01*
X1976Y1491D01*
X1980Y1491D01*
X1980Y1493D01*
X1982Y1493D01*
X1982Y1495D01*
X1984Y1495D01*
X1984Y1497D01*
X1986Y1497D01*
X1986Y1499D01*
X1988Y1499D01*
X1988Y1501D01*
X1992Y1501D01*
X1992Y1503D01*
X1994Y1503D01*
X1994Y1505D01*
X1996Y1505D01*
X1996Y1507D01*
X1998Y1507D01*
X1998Y1509D01*
X2000Y1509D01*
X2000Y1511D01*
X2004Y1511D01*
X2004Y1513D01*
X2006Y1513D01*
X2006Y1515D01*
X2008Y1515D01*
X2008Y1517D01*
X2010Y1517D01*
X2010Y1519D01*
X2012Y1519D01*
X2012Y1521D01*
X2016Y1521D01*
X2016Y1523D01*
X2018Y1523D01*
X2018Y1525D01*
X2020Y1525D01*
X2020Y1527D01*
X2022Y1527D01*
X2022Y1529D01*
X2024Y1529D01*
X2024Y1531D01*
X2028Y1531D01*
X2028Y1533D01*
X2030Y1533D01*
X2030Y1535D01*
X2032Y1535D01*
X2032Y1537D01*
X2034Y1537D01*
X2034Y1539D01*
X2036Y1539D01*
X2036Y1541D01*
X2040Y1541D01*
X2040Y1543D01*
X2042Y1543D01*
X2042Y1545D01*
X2044Y1545D01*
X2044Y1547D01*
X2046Y1547D01*
X2046Y1549D01*
X2048Y1549D01*
X2048Y1551D01*
X2052Y1551D01*
X2052Y1553D01*
X2054Y1553D01*
X2054Y1555D01*
X2056Y1555D01*
X2056Y1557D01*
X2058Y1557D01*
X2058Y1559D01*
X2060Y1559D01*
X2060Y1561D01*
X2064Y1561D01*
X2064Y1563D01*
X2066Y1563D01*
X2066Y1565D01*
X2068Y1565D01*
X2068Y1567D01*
X2070Y1567D01*
X2070Y1569D01*
X2072Y1569D01*
X2072Y1571D01*
X2076Y1571D01*
X2076Y1573D01*
X2078Y1573D01*
X2078Y1575D01*
X2080Y1575D01*
X2080Y1577D01*
X2082Y1577D01*
X2082Y1579D01*
X2084Y1579D01*
X2084Y1581D01*
X2088Y1581D01*
X2088Y1583D01*
X2090Y1583D01*
X2090Y1585D01*
X2092Y1585D01*
X2092Y1587D01*
X2094Y1587D01*
X2094Y1589D01*
X2096Y1589D01*
X2096Y1591D01*
X2100Y1591D01*
X2100Y1593D01*
X2102Y1593D01*
X2102Y1595D01*
X2104Y1595D01*
X2104Y1597D01*
X2106Y1597D01*
X2106Y1599D01*
X2108Y1599D01*
X2108Y1601D01*
X2112Y1601D01*
X2112Y1603D01*
X2114Y1603D01*
X2114Y1605D01*
X1204Y1605D01*
G37*
D02*
G36*
X1032Y1405D02*
X1032Y1309D01*
X1204Y1309D01*
X1204Y1311D01*
X1198Y1311D01*
X1198Y1313D01*
X1192Y1313D01*
X1192Y1315D01*
X1188Y1315D01*
X1188Y1317D01*
X1186Y1317D01*
X1186Y1319D01*
X1182Y1319D01*
X1182Y1321D01*
X1180Y1321D01*
X1180Y1323D01*
X1178Y1323D01*
X1178Y1325D01*
X1176Y1325D01*
X1176Y1327D01*
X1174Y1327D01*
X1174Y1329D01*
X1172Y1329D01*
X1172Y1333D01*
X1170Y1333D01*
X1170Y1337D01*
X1168Y1337D01*
X1168Y1339D01*
X1166Y1339D01*
X1166Y1345D01*
X1164Y1345D01*
X1164Y1355D01*
X1162Y1355D01*
X1162Y1359D01*
X1164Y1359D01*
X1164Y1369D01*
X1166Y1369D01*
X1166Y1373D01*
X1168Y1373D01*
X1168Y1377D01*
X1170Y1377D01*
X1170Y1381D01*
X1172Y1381D01*
X1172Y1383D01*
X1174Y1383D01*
X1174Y1385D01*
X1176Y1385D01*
X1176Y1389D01*
X1178Y1389D01*
X1178Y1391D01*
X1180Y1391D01*
X1180Y1393D01*
X1184Y1393D01*
X1184Y1395D01*
X1186Y1395D01*
X1186Y1397D01*
X1190Y1397D01*
X1190Y1399D01*
X1192Y1399D01*
X1192Y1401D01*
X1198Y1401D01*
X1198Y1403D01*
X1206Y1403D01*
X1206Y1405D01*
X1032Y1405D01*
G37*
D02*
G36*
X1032Y1309D02*
X1032Y1307D01*
X1758Y1307D01*
X1758Y1309D01*
X1032Y1309D01*
G37*
D02*
G36*
X1032Y1309D02*
X1032Y1307D01*
X1758Y1307D01*
X1758Y1309D01*
X1032Y1309D01*
G37*
D02*
G36*
X1032Y1307D02*
X1032Y1305D01*
X1122Y1305D01*
X1122Y1303D01*
X1128Y1303D01*
X1128Y1301D01*
X1130Y1301D01*
X1130Y1299D01*
X1134Y1299D01*
X1134Y1297D01*
X1138Y1297D01*
X1138Y1295D01*
X1140Y1295D01*
X1140Y1293D01*
X1142Y1293D01*
X1142Y1291D01*
X1144Y1291D01*
X1144Y1289D01*
X1146Y1289D01*
X1146Y1287D01*
X1148Y1287D01*
X1148Y1285D01*
X1150Y1285D01*
X1150Y1281D01*
X1152Y1281D01*
X1152Y1279D01*
X1154Y1279D01*
X1154Y1275D01*
X1156Y1275D01*
X1156Y1269D01*
X1158Y1269D01*
X1158Y1263D01*
X1160Y1263D01*
X1160Y1251D01*
X1158Y1251D01*
X1158Y1243D01*
X1156Y1243D01*
X1156Y1239D01*
X1154Y1239D01*
X1154Y1235D01*
X1152Y1235D01*
X1152Y1231D01*
X1150Y1231D01*
X1150Y1229D01*
X1148Y1229D01*
X1148Y1227D01*
X1146Y1227D01*
X1146Y1225D01*
X1144Y1225D01*
X1144Y1223D01*
X1142Y1223D01*
X1142Y1221D01*
X1140Y1221D01*
X1140Y1219D01*
X1138Y1219D01*
X1138Y1217D01*
X1136Y1217D01*
X1136Y1215D01*
X1132Y1215D01*
X1132Y1213D01*
X1128Y1213D01*
X1128Y1211D01*
X1122Y1211D01*
X1122Y1209D01*
X1114Y1209D01*
X1114Y1207D01*
X1522Y1207D01*
X1522Y1205D01*
X1528Y1205D01*
X1528Y1203D01*
X1532Y1203D01*
X1532Y1201D01*
X1534Y1201D01*
X1534Y1199D01*
X1538Y1199D01*
X1538Y1197D01*
X1540Y1197D01*
X1540Y1195D01*
X1542Y1195D01*
X1542Y1193D01*
X1546Y1193D01*
X1546Y1189D01*
X1548Y1189D01*
X1548Y1187D01*
X1550Y1187D01*
X1550Y1185D01*
X1570Y1185D01*
X1570Y1187D01*
X1572Y1187D01*
X1572Y1189D01*
X1574Y1189D01*
X1574Y1191D01*
X1576Y1191D01*
X1576Y1193D01*
X1578Y1193D01*
X1578Y1195D01*
X1580Y1195D01*
X1580Y1197D01*
X1582Y1197D01*
X1582Y1199D01*
X1586Y1199D01*
X1586Y1201D01*
X1590Y1201D01*
X1590Y1203D01*
X1594Y1203D01*
X1594Y1205D01*
X1598Y1205D01*
X1598Y1207D01*
X1638Y1207D01*
X1638Y1209D01*
X1640Y1209D01*
X1640Y1211D01*
X1642Y1211D01*
X1642Y1213D01*
X1644Y1213D01*
X1644Y1215D01*
X1648Y1215D01*
X1648Y1217D01*
X1650Y1217D01*
X1650Y1219D01*
X1652Y1219D01*
X1652Y1221D01*
X1654Y1221D01*
X1654Y1223D01*
X1656Y1223D01*
X1656Y1225D01*
X1660Y1225D01*
X1660Y1227D01*
X1662Y1227D01*
X1662Y1229D01*
X1664Y1229D01*
X1664Y1231D01*
X1666Y1231D01*
X1666Y1233D01*
X1668Y1233D01*
X1668Y1235D01*
X1672Y1235D01*
X1672Y1237D01*
X1674Y1237D01*
X1674Y1239D01*
X1676Y1239D01*
X1676Y1241D01*
X1678Y1241D01*
X1678Y1243D01*
X1680Y1243D01*
X1680Y1245D01*
X1684Y1245D01*
X1684Y1247D01*
X1686Y1247D01*
X1686Y1249D01*
X1688Y1249D01*
X1688Y1251D01*
X1690Y1251D01*
X1690Y1253D01*
X1692Y1253D01*
X1692Y1255D01*
X1696Y1255D01*
X1696Y1257D01*
X1698Y1257D01*
X1698Y1259D01*
X1700Y1259D01*
X1700Y1261D01*
X1702Y1261D01*
X1702Y1263D01*
X1704Y1263D01*
X1704Y1265D01*
X1708Y1265D01*
X1708Y1267D01*
X1710Y1267D01*
X1710Y1269D01*
X1712Y1269D01*
X1712Y1271D01*
X1714Y1271D01*
X1714Y1273D01*
X1716Y1273D01*
X1716Y1275D01*
X1720Y1275D01*
X1720Y1277D01*
X1722Y1277D01*
X1722Y1279D01*
X1724Y1279D01*
X1724Y1281D01*
X1726Y1281D01*
X1726Y1283D01*
X1728Y1283D01*
X1728Y1285D01*
X1732Y1285D01*
X1732Y1287D01*
X1734Y1287D01*
X1734Y1289D01*
X1736Y1289D01*
X1736Y1291D01*
X1738Y1291D01*
X1738Y1293D01*
X1740Y1293D01*
X1740Y1295D01*
X1744Y1295D01*
X1744Y1297D01*
X1746Y1297D01*
X1746Y1299D01*
X1748Y1299D01*
X1748Y1301D01*
X1750Y1301D01*
X1750Y1303D01*
X1754Y1303D01*
X1754Y1305D01*
X1756Y1305D01*
X1756Y1307D01*
X1032Y1307D01*
G37*
D02*
G36*
X1032Y1305D02*
X1032Y1299D01*
X1034Y1299D01*
X1034Y1297D01*
X1038Y1297D01*
X1038Y1295D01*
X1040Y1295D01*
X1040Y1293D01*
X1042Y1293D01*
X1042Y1291D01*
X1044Y1291D01*
X1044Y1289D01*
X1046Y1289D01*
X1046Y1287D01*
X1048Y1287D01*
X1048Y1285D01*
X1050Y1285D01*
X1050Y1281D01*
X1070Y1281D01*
X1070Y1283D01*
X1072Y1283D01*
X1072Y1285D01*
X1074Y1285D01*
X1074Y1289D01*
X1076Y1289D01*
X1076Y1291D01*
X1078Y1291D01*
X1078Y1293D01*
X1082Y1293D01*
X1082Y1295D01*
X1084Y1295D01*
X1084Y1297D01*
X1086Y1297D01*
X1086Y1299D01*
X1090Y1299D01*
X1090Y1301D01*
X1094Y1301D01*
X1094Y1303D01*
X1100Y1303D01*
X1100Y1305D01*
X1032Y1305D01*
G37*
D02*
G36*
X450Y1231D02*
X450Y1229D01*
X448Y1229D01*
X448Y1227D01*
X446Y1227D01*
X446Y1225D01*
X444Y1225D01*
X444Y1223D01*
X442Y1223D01*
X442Y1221D01*
X440Y1221D01*
X440Y1219D01*
X438Y1219D01*
X438Y1217D01*
X436Y1217D01*
X436Y1215D01*
X432Y1215D01*
X432Y1213D01*
X428Y1213D01*
X428Y1211D01*
X422Y1211D01*
X422Y1209D01*
X414Y1209D01*
X414Y1207D01*
X506Y1207D01*
X506Y1209D01*
X498Y1209D01*
X498Y1211D01*
X492Y1211D01*
X492Y1213D01*
X490Y1213D01*
X490Y1215D01*
X486Y1215D01*
X486Y1217D01*
X482Y1217D01*
X482Y1219D01*
X480Y1219D01*
X480Y1221D01*
X478Y1221D01*
X478Y1223D01*
X476Y1223D01*
X476Y1225D01*
X474Y1225D01*
X474Y1227D01*
X472Y1227D01*
X472Y1231D01*
X450Y1231D01*
G37*
D02*
G36*
X550Y1231D02*
X550Y1229D01*
X548Y1229D01*
X548Y1227D01*
X546Y1227D01*
X546Y1225D01*
X544Y1225D01*
X544Y1223D01*
X542Y1223D01*
X542Y1221D01*
X540Y1221D01*
X540Y1219D01*
X538Y1219D01*
X538Y1217D01*
X536Y1217D01*
X536Y1215D01*
X532Y1215D01*
X532Y1213D01*
X528Y1213D01*
X528Y1211D01*
X522Y1211D01*
X522Y1209D01*
X514Y1209D01*
X514Y1207D01*
X606Y1207D01*
X606Y1209D01*
X598Y1209D01*
X598Y1211D01*
X592Y1211D01*
X592Y1213D01*
X590Y1213D01*
X590Y1215D01*
X586Y1215D01*
X586Y1217D01*
X582Y1217D01*
X582Y1219D01*
X580Y1219D01*
X580Y1221D01*
X578Y1221D01*
X578Y1223D01*
X576Y1223D01*
X576Y1225D01*
X574Y1225D01*
X574Y1227D01*
X572Y1227D01*
X572Y1231D01*
X550Y1231D01*
G37*
D02*
G36*
X650Y1231D02*
X650Y1229D01*
X648Y1229D01*
X648Y1227D01*
X646Y1227D01*
X646Y1225D01*
X644Y1225D01*
X644Y1223D01*
X642Y1223D01*
X642Y1221D01*
X640Y1221D01*
X640Y1219D01*
X638Y1219D01*
X638Y1217D01*
X636Y1217D01*
X636Y1215D01*
X632Y1215D01*
X632Y1213D01*
X628Y1213D01*
X628Y1211D01*
X622Y1211D01*
X622Y1209D01*
X614Y1209D01*
X614Y1207D01*
X706Y1207D01*
X706Y1209D01*
X698Y1209D01*
X698Y1211D01*
X692Y1211D01*
X692Y1213D01*
X690Y1213D01*
X690Y1215D01*
X686Y1215D01*
X686Y1217D01*
X682Y1217D01*
X682Y1219D01*
X680Y1219D01*
X680Y1221D01*
X678Y1221D01*
X678Y1223D01*
X676Y1223D01*
X676Y1225D01*
X674Y1225D01*
X674Y1227D01*
X672Y1227D01*
X672Y1231D01*
X650Y1231D01*
G37*
D02*
G36*
X750Y1231D02*
X750Y1229D01*
X748Y1229D01*
X748Y1227D01*
X746Y1227D01*
X746Y1225D01*
X744Y1225D01*
X744Y1223D01*
X742Y1223D01*
X742Y1221D01*
X740Y1221D01*
X740Y1219D01*
X738Y1219D01*
X738Y1217D01*
X736Y1217D01*
X736Y1215D01*
X732Y1215D01*
X732Y1213D01*
X728Y1213D01*
X728Y1211D01*
X722Y1211D01*
X722Y1209D01*
X714Y1209D01*
X714Y1207D01*
X806Y1207D01*
X806Y1209D01*
X798Y1209D01*
X798Y1211D01*
X792Y1211D01*
X792Y1213D01*
X790Y1213D01*
X790Y1215D01*
X786Y1215D01*
X786Y1217D01*
X782Y1217D01*
X782Y1219D01*
X780Y1219D01*
X780Y1221D01*
X778Y1221D01*
X778Y1223D01*
X776Y1223D01*
X776Y1225D01*
X774Y1225D01*
X774Y1227D01*
X772Y1227D01*
X772Y1231D01*
X750Y1231D01*
G37*
D02*
G36*
X1050Y1231D02*
X1050Y1229D01*
X1048Y1229D01*
X1048Y1227D01*
X1046Y1227D01*
X1046Y1225D01*
X1044Y1225D01*
X1044Y1223D01*
X1042Y1223D01*
X1042Y1221D01*
X1040Y1221D01*
X1040Y1219D01*
X1038Y1219D01*
X1038Y1217D01*
X1036Y1217D01*
X1036Y1215D01*
X1032Y1215D01*
X1032Y1213D01*
X1028Y1213D01*
X1028Y1211D01*
X1022Y1211D01*
X1022Y1209D01*
X1014Y1209D01*
X1014Y1207D01*
X1106Y1207D01*
X1106Y1209D01*
X1098Y1209D01*
X1098Y1211D01*
X1092Y1211D01*
X1092Y1213D01*
X1090Y1213D01*
X1090Y1215D01*
X1086Y1215D01*
X1086Y1217D01*
X1082Y1217D01*
X1082Y1219D01*
X1080Y1219D01*
X1080Y1221D01*
X1078Y1221D01*
X1078Y1223D01*
X1076Y1223D01*
X1076Y1225D01*
X1074Y1225D01*
X1074Y1227D01*
X1072Y1227D01*
X1072Y1231D01*
X1050Y1231D01*
G37*
D02*
G36*
X40Y1207D02*
X40Y1205D01*
X830Y1205D01*
X830Y1207D01*
X40Y1207D01*
G37*
D02*
G36*
X40Y1207D02*
X40Y1205D01*
X830Y1205D01*
X830Y1207D01*
X40Y1207D01*
G37*
D02*
G36*
X40Y1207D02*
X40Y1205D01*
X830Y1205D01*
X830Y1207D01*
X40Y1207D01*
G37*
D02*
G36*
X40Y1207D02*
X40Y1205D01*
X830Y1205D01*
X830Y1207D01*
X40Y1207D01*
G37*
D02*
G36*
X40Y1207D02*
X40Y1205D01*
X830Y1205D01*
X830Y1207D01*
X40Y1207D01*
G37*
D02*
G36*
X990Y1207D02*
X990Y1205D01*
X1360Y1205D01*
X1360Y1207D01*
X990Y1207D01*
G37*
D02*
G36*
X990Y1207D02*
X990Y1205D01*
X1360Y1205D01*
X1360Y1207D01*
X990Y1207D01*
G37*
D02*
G36*
X1462Y1207D02*
X1462Y1197D01*
X1482Y1197D01*
X1482Y1199D01*
X1486Y1199D01*
X1486Y1201D01*
X1490Y1201D01*
X1490Y1203D01*
X1494Y1203D01*
X1494Y1205D01*
X1498Y1205D01*
X1498Y1207D01*
X1462Y1207D01*
G37*
D02*
G36*
X40Y1205D02*
X40Y1135D01*
X908Y1135D01*
X908Y1137D01*
X902Y1137D01*
X902Y1139D01*
X898Y1139D01*
X898Y1141D01*
X896Y1141D01*
X896Y1143D01*
X894Y1143D01*
X894Y1145D01*
X892Y1145D01*
X892Y1147D01*
X890Y1147D01*
X890Y1149D01*
X888Y1149D01*
X888Y1151D01*
X886Y1151D01*
X886Y1153D01*
X884Y1153D01*
X884Y1155D01*
X882Y1155D01*
X882Y1157D01*
X880Y1157D01*
X880Y1159D01*
X878Y1159D01*
X878Y1161D01*
X876Y1161D01*
X876Y1163D01*
X874Y1163D01*
X874Y1165D01*
X872Y1165D01*
X872Y1167D01*
X870Y1167D01*
X870Y1169D01*
X868Y1169D01*
X868Y1171D01*
X866Y1171D01*
X866Y1173D01*
X864Y1173D01*
X864Y1175D01*
X862Y1175D01*
X862Y1177D01*
X860Y1177D01*
X860Y1179D01*
X858Y1179D01*
X858Y1181D01*
X856Y1181D01*
X856Y1183D01*
X854Y1183D01*
X854Y1185D01*
X852Y1185D01*
X852Y1187D01*
X850Y1187D01*
X850Y1189D01*
X848Y1189D01*
X848Y1191D01*
X846Y1191D01*
X846Y1193D01*
X844Y1193D01*
X844Y1195D01*
X840Y1195D01*
X840Y1197D01*
X838Y1197D01*
X838Y1199D01*
X836Y1199D01*
X836Y1201D01*
X834Y1201D01*
X834Y1203D01*
X832Y1203D01*
X832Y1205D01*
X40Y1205D01*
G37*
D02*
G36*
X988Y1205D02*
X988Y1203D01*
X986Y1203D01*
X986Y1201D01*
X984Y1201D01*
X984Y1199D01*
X982Y1199D01*
X982Y1197D01*
X980Y1197D01*
X980Y1195D01*
X978Y1195D01*
X978Y1193D01*
X976Y1193D01*
X976Y1191D01*
X974Y1191D01*
X974Y1189D01*
X972Y1189D01*
X972Y1187D01*
X970Y1187D01*
X970Y1185D01*
X968Y1185D01*
X968Y1183D01*
X966Y1183D01*
X966Y1181D01*
X964Y1181D01*
X964Y1179D01*
X962Y1179D01*
X962Y1177D01*
X960Y1177D01*
X960Y1175D01*
X958Y1175D01*
X958Y1173D01*
X956Y1173D01*
X956Y1171D01*
X954Y1171D01*
X954Y1169D01*
X952Y1169D01*
X952Y1167D01*
X950Y1167D01*
X950Y1165D01*
X948Y1165D01*
X948Y1163D01*
X946Y1163D01*
X946Y1161D01*
X944Y1161D01*
X944Y1159D01*
X942Y1159D01*
X942Y1157D01*
X940Y1157D01*
X940Y1155D01*
X938Y1155D01*
X938Y1153D01*
X936Y1153D01*
X936Y1151D01*
X934Y1151D01*
X934Y1149D01*
X932Y1149D01*
X932Y1147D01*
X930Y1147D01*
X930Y1145D01*
X928Y1145D01*
X928Y1143D01*
X926Y1143D01*
X926Y1141D01*
X924Y1141D01*
X924Y1139D01*
X920Y1139D01*
X920Y1137D01*
X914Y1137D01*
X914Y1135D01*
X1360Y1135D01*
X1360Y1205D01*
X988Y1205D01*
G37*
D02*
G36*
X40Y1135D02*
X40Y1133D01*
X1360Y1133D01*
X1360Y1135D01*
X40Y1135D01*
G37*
D02*
G36*
X40Y1135D02*
X40Y1133D01*
X1360Y1133D01*
X1360Y1135D01*
X40Y1135D01*
G37*
D02*
G36*
X40Y1133D02*
X40Y805D01*
X1122Y805D01*
X1122Y803D01*
X1128Y803D01*
X1128Y801D01*
X1130Y801D01*
X1130Y799D01*
X1134Y799D01*
X1134Y797D01*
X1138Y797D01*
X1138Y795D01*
X1140Y795D01*
X1140Y793D01*
X1142Y793D01*
X1142Y791D01*
X1144Y791D01*
X1144Y789D01*
X1146Y789D01*
X1146Y787D01*
X1148Y787D01*
X1148Y785D01*
X1150Y785D01*
X1150Y781D01*
X1152Y781D01*
X1152Y779D01*
X1204Y779D01*
X1204Y777D01*
X1210Y777D01*
X1210Y775D01*
X1214Y775D01*
X1214Y773D01*
X1216Y773D01*
X1216Y771D01*
X1218Y771D01*
X1218Y769D01*
X1220Y769D01*
X1220Y767D01*
X1222Y767D01*
X1222Y765D01*
X1226Y765D01*
X1226Y763D01*
X1228Y763D01*
X1228Y761D01*
X1230Y761D01*
X1230Y759D01*
X1232Y759D01*
X1232Y757D01*
X1234Y757D01*
X1234Y755D01*
X1236Y755D01*
X1236Y753D01*
X1238Y753D01*
X1238Y751D01*
X1240Y751D01*
X1240Y749D01*
X1242Y749D01*
X1242Y747D01*
X1244Y747D01*
X1244Y745D01*
X1248Y745D01*
X1248Y743D01*
X1250Y743D01*
X1250Y741D01*
X1252Y741D01*
X1252Y739D01*
X1254Y739D01*
X1254Y737D01*
X1256Y737D01*
X1256Y735D01*
X1258Y735D01*
X1258Y733D01*
X1260Y733D01*
X1260Y731D01*
X1262Y731D01*
X1262Y729D01*
X1264Y729D01*
X1264Y727D01*
X1266Y727D01*
X1266Y725D01*
X1270Y725D01*
X1270Y723D01*
X1272Y723D01*
X1272Y721D01*
X1274Y721D01*
X1274Y719D01*
X1276Y719D01*
X1276Y717D01*
X1278Y717D01*
X1278Y715D01*
X1280Y715D01*
X1280Y713D01*
X1282Y713D01*
X1282Y711D01*
X1284Y711D01*
X1284Y709D01*
X1286Y709D01*
X1286Y707D01*
X1288Y707D01*
X1288Y705D01*
X1292Y705D01*
X1292Y703D01*
X1294Y703D01*
X1294Y701D01*
X1296Y701D01*
X1296Y699D01*
X1452Y699D01*
X1452Y615D01*
X1544Y615D01*
X1544Y921D01*
X1542Y921D01*
X1542Y925D01*
X1540Y925D01*
X1540Y927D01*
X1538Y927D01*
X1538Y931D01*
X1536Y931D01*
X1536Y933D01*
X1534Y933D01*
X1534Y937D01*
X1532Y937D01*
X1532Y939D01*
X1530Y939D01*
X1530Y943D01*
X1528Y943D01*
X1528Y945D01*
X1526Y945D01*
X1526Y949D01*
X1524Y949D01*
X1524Y951D01*
X1522Y951D01*
X1522Y953D01*
X1520Y953D01*
X1520Y957D01*
X1518Y957D01*
X1518Y959D01*
X1516Y959D01*
X1516Y963D01*
X1514Y963D01*
X1514Y965D01*
X1512Y965D01*
X1512Y969D01*
X1510Y969D01*
X1510Y971D01*
X1508Y971D01*
X1508Y975D01*
X1506Y975D01*
X1506Y977D01*
X1504Y977D01*
X1504Y981D01*
X1502Y981D01*
X1502Y983D01*
X1500Y983D01*
X1500Y987D01*
X1498Y987D01*
X1498Y989D01*
X1496Y989D01*
X1496Y993D01*
X1494Y993D01*
X1494Y995D01*
X1492Y995D01*
X1492Y999D01*
X1490Y999D01*
X1490Y1001D01*
X1488Y1001D01*
X1488Y1005D01*
X1486Y1005D01*
X1486Y1007D01*
X1484Y1007D01*
X1484Y1011D01*
X1482Y1011D01*
X1482Y1013D01*
X1480Y1013D01*
X1480Y1017D01*
X1478Y1017D01*
X1478Y1019D01*
X1476Y1019D01*
X1476Y1021D01*
X1474Y1021D01*
X1474Y1025D01*
X1472Y1025D01*
X1472Y1027D01*
X1470Y1027D01*
X1470Y1031D01*
X1468Y1031D01*
X1468Y1033D01*
X1466Y1033D01*
X1466Y1037D01*
X1464Y1037D01*
X1464Y1039D01*
X1462Y1039D01*
X1462Y1043D01*
X1460Y1043D01*
X1460Y1045D01*
X1458Y1045D01*
X1458Y1049D01*
X1456Y1049D01*
X1456Y1051D01*
X1454Y1051D01*
X1454Y1055D01*
X1452Y1055D01*
X1452Y1057D01*
X1450Y1057D01*
X1450Y1061D01*
X1448Y1061D01*
X1448Y1063D01*
X1446Y1063D01*
X1446Y1067D01*
X1444Y1067D01*
X1444Y1069D01*
X1442Y1069D01*
X1442Y1073D01*
X1440Y1073D01*
X1440Y1075D01*
X1438Y1075D01*
X1438Y1079D01*
X1436Y1079D01*
X1436Y1081D01*
X1434Y1081D01*
X1434Y1085D01*
X1432Y1085D01*
X1432Y1087D01*
X1430Y1087D01*
X1430Y1091D01*
X1428Y1091D01*
X1428Y1093D01*
X1426Y1093D01*
X1426Y1095D01*
X1424Y1095D01*
X1424Y1099D01*
X1422Y1099D01*
X1422Y1101D01*
X1420Y1101D01*
X1420Y1105D01*
X1360Y1105D01*
X1360Y1133D01*
X40Y1133D01*
G37*
D02*
G36*
X40Y805D02*
X40Y707D01*
X406Y707D01*
X406Y709D01*
X398Y709D01*
X398Y711D01*
X392Y711D01*
X392Y713D01*
X390Y713D01*
X390Y715D01*
X386Y715D01*
X386Y717D01*
X382Y717D01*
X382Y719D01*
X380Y719D01*
X380Y721D01*
X378Y721D01*
X378Y723D01*
X376Y723D01*
X376Y725D01*
X374Y725D01*
X374Y727D01*
X372Y727D01*
X372Y731D01*
X370Y731D01*
X370Y733D01*
X368Y733D01*
X368Y737D01*
X366Y737D01*
X366Y741D01*
X364Y741D01*
X364Y747D01*
X362Y747D01*
X362Y767D01*
X364Y767D01*
X364Y773D01*
X366Y773D01*
X366Y777D01*
X368Y777D01*
X368Y781D01*
X370Y781D01*
X370Y783D01*
X372Y783D01*
X372Y785D01*
X374Y785D01*
X374Y789D01*
X376Y789D01*
X376Y791D01*
X378Y791D01*
X378Y793D01*
X382Y793D01*
X382Y795D01*
X384Y795D01*
X384Y797D01*
X386Y797D01*
X386Y799D01*
X390Y799D01*
X390Y801D01*
X394Y801D01*
X394Y803D01*
X400Y803D01*
X400Y805D01*
X40Y805D01*
G37*
D02*
G36*
X422Y805D02*
X422Y803D01*
X428Y803D01*
X428Y801D01*
X430Y801D01*
X430Y799D01*
X434Y799D01*
X434Y797D01*
X438Y797D01*
X438Y795D01*
X440Y795D01*
X440Y793D01*
X442Y793D01*
X442Y791D01*
X444Y791D01*
X444Y789D01*
X446Y789D01*
X446Y787D01*
X448Y787D01*
X448Y785D01*
X450Y785D01*
X450Y781D01*
X470Y781D01*
X470Y783D01*
X472Y783D01*
X472Y785D01*
X474Y785D01*
X474Y789D01*
X476Y789D01*
X476Y791D01*
X478Y791D01*
X478Y793D01*
X482Y793D01*
X482Y795D01*
X484Y795D01*
X484Y797D01*
X486Y797D01*
X486Y799D01*
X490Y799D01*
X490Y801D01*
X494Y801D01*
X494Y803D01*
X500Y803D01*
X500Y805D01*
X422Y805D01*
G37*
D02*
G36*
X522Y805D02*
X522Y803D01*
X528Y803D01*
X528Y801D01*
X530Y801D01*
X530Y799D01*
X534Y799D01*
X534Y797D01*
X538Y797D01*
X538Y795D01*
X540Y795D01*
X540Y793D01*
X542Y793D01*
X542Y791D01*
X544Y791D01*
X544Y789D01*
X546Y789D01*
X546Y787D01*
X548Y787D01*
X548Y785D01*
X550Y785D01*
X550Y781D01*
X570Y781D01*
X570Y783D01*
X572Y783D01*
X572Y785D01*
X574Y785D01*
X574Y789D01*
X576Y789D01*
X576Y791D01*
X578Y791D01*
X578Y793D01*
X582Y793D01*
X582Y795D01*
X584Y795D01*
X584Y797D01*
X586Y797D01*
X586Y799D01*
X590Y799D01*
X590Y801D01*
X594Y801D01*
X594Y803D01*
X600Y803D01*
X600Y805D01*
X522Y805D01*
G37*
D02*
G36*
X622Y805D02*
X622Y803D01*
X628Y803D01*
X628Y801D01*
X630Y801D01*
X630Y799D01*
X634Y799D01*
X634Y797D01*
X638Y797D01*
X638Y795D01*
X640Y795D01*
X640Y793D01*
X642Y793D01*
X642Y791D01*
X644Y791D01*
X644Y789D01*
X646Y789D01*
X646Y787D01*
X648Y787D01*
X648Y785D01*
X650Y785D01*
X650Y781D01*
X670Y781D01*
X670Y783D01*
X672Y783D01*
X672Y785D01*
X674Y785D01*
X674Y789D01*
X676Y789D01*
X676Y791D01*
X678Y791D01*
X678Y793D01*
X682Y793D01*
X682Y795D01*
X684Y795D01*
X684Y797D01*
X686Y797D01*
X686Y799D01*
X690Y799D01*
X690Y801D01*
X694Y801D01*
X694Y803D01*
X700Y803D01*
X700Y805D01*
X622Y805D01*
G37*
D02*
G36*
X722Y805D02*
X722Y803D01*
X728Y803D01*
X728Y801D01*
X730Y801D01*
X730Y799D01*
X734Y799D01*
X734Y797D01*
X738Y797D01*
X738Y795D01*
X740Y795D01*
X740Y793D01*
X742Y793D01*
X742Y791D01*
X744Y791D01*
X744Y789D01*
X746Y789D01*
X746Y787D01*
X748Y787D01*
X748Y785D01*
X750Y785D01*
X750Y781D01*
X770Y781D01*
X770Y783D01*
X772Y783D01*
X772Y785D01*
X774Y785D01*
X774Y789D01*
X776Y789D01*
X776Y791D01*
X778Y791D01*
X778Y793D01*
X782Y793D01*
X782Y795D01*
X784Y795D01*
X784Y797D01*
X786Y797D01*
X786Y799D01*
X790Y799D01*
X790Y801D01*
X794Y801D01*
X794Y803D01*
X800Y803D01*
X800Y805D01*
X722Y805D01*
G37*
D02*
G36*
X822Y805D02*
X822Y803D01*
X828Y803D01*
X828Y801D01*
X830Y801D01*
X830Y799D01*
X834Y799D01*
X834Y797D01*
X838Y797D01*
X838Y795D01*
X840Y795D01*
X840Y793D01*
X842Y793D01*
X842Y791D01*
X844Y791D01*
X844Y789D01*
X846Y789D01*
X846Y787D01*
X848Y787D01*
X848Y785D01*
X850Y785D01*
X850Y781D01*
X870Y781D01*
X870Y783D01*
X872Y783D01*
X872Y785D01*
X874Y785D01*
X874Y789D01*
X876Y789D01*
X876Y791D01*
X878Y791D01*
X878Y793D01*
X882Y793D01*
X882Y795D01*
X884Y795D01*
X884Y797D01*
X886Y797D01*
X886Y799D01*
X890Y799D01*
X890Y801D01*
X894Y801D01*
X894Y803D01*
X900Y803D01*
X900Y805D01*
X822Y805D01*
G37*
D02*
G36*
X922Y805D02*
X922Y803D01*
X928Y803D01*
X928Y801D01*
X930Y801D01*
X930Y799D01*
X934Y799D01*
X934Y797D01*
X938Y797D01*
X938Y795D01*
X940Y795D01*
X940Y793D01*
X942Y793D01*
X942Y791D01*
X944Y791D01*
X944Y789D01*
X946Y789D01*
X946Y787D01*
X948Y787D01*
X948Y785D01*
X950Y785D01*
X950Y781D01*
X970Y781D01*
X970Y783D01*
X972Y783D01*
X972Y785D01*
X974Y785D01*
X974Y789D01*
X976Y789D01*
X976Y791D01*
X978Y791D01*
X978Y793D01*
X982Y793D01*
X982Y795D01*
X984Y795D01*
X984Y797D01*
X986Y797D01*
X986Y799D01*
X990Y799D01*
X990Y801D01*
X994Y801D01*
X994Y803D01*
X1000Y803D01*
X1000Y805D01*
X922Y805D01*
G37*
D02*
G36*
X1022Y805D02*
X1022Y803D01*
X1028Y803D01*
X1028Y801D01*
X1030Y801D01*
X1030Y799D01*
X1034Y799D01*
X1034Y797D01*
X1038Y797D01*
X1038Y795D01*
X1040Y795D01*
X1040Y793D01*
X1042Y793D01*
X1042Y791D01*
X1044Y791D01*
X1044Y789D01*
X1046Y789D01*
X1046Y787D01*
X1048Y787D01*
X1048Y785D01*
X1050Y785D01*
X1050Y781D01*
X1070Y781D01*
X1070Y783D01*
X1072Y783D01*
X1072Y785D01*
X1074Y785D01*
X1074Y789D01*
X1076Y789D01*
X1076Y791D01*
X1078Y791D01*
X1078Y793D01*
X1082Y793D01*
X1082Y795D01*
X1084Y795D01*
X1084Y797D01*
X1086Y797D01*
X1086Y799D01*
X1090Y799D01*
X1090Y801D01*
X1094Y801D01*
X1094Y803D01*
X1100Y803D01*
X1100Y805D01*
X1022Y805D01*
G37*
D02*
G36*
X1152Y735D02*
X1152Y731D01*
X1150Y731D01*
X1150Y729D01*
X1148Y729D01*
X1148Y727D01*
X1146Y727D01*
X1146Y725D01*
X1144Y725D01*
X1144Y723D01*
X1142Y723D01*
X1142Y721D01*
X1140Y721D01*
X1140Y719D01*
X1138Y719D01*
X1138Y717D01*
X1136Y717D01*
X1136Y715D01*
X1132Y715D01*
X1132Y713D01*
X1128Y713D01*
X1128Y711D01*
X1122Y711D01*
X1122Y709D01*
X1114Y709D01*
X1114Y707D01*
X1222Y707D01*
X1222Y709D01*
X1220Y709D01*
X1220Y711D01*
X1216Y711D01*
X1216Y713D01*
X1214Y713D01*
X1214Y715D01*
X1212Y715D01*
X1212Y717D01*
X1210Y717D01*
X1210Y719D01*
X1208Y719D01*
X1208Y721D01*
X1206Y721D01*
X1206Y723D01*
X1204Y723D01*
X1204Y725D01*
X1202Y725D01*
X1202Y727D01*
X1200Y727D01*
X1200Y729D01*
X1196Y729D01*
X1196Y731D01*
X1194Y731D01*
X1194Y733D01*
X1192Y733D01*
X1192Y735D01*
X1152Y735D01*
G37*
D02*
G36*
X450Y731D02*
X450Y729D01*
X448Y729D01*
X448Y727D01*
X446Y727D01*
X446Y725D01*
X444Y725D01*
X444Y723D01*
X442Y723D01*
X442Y721D01*
X440Y721D01*
X440Y719D01*
X438Y719D01*
X438Y717D01*
X436Y717D01*
X436Y715D01*
X432Y715D01*
X432Y713D01*
X428Y713D01*
X428Y711D01*
X422Y711D01*
X422Y709D01*
X414Y709D01*
X414Y707D01*
X506Y707D01*
X506Y709D01*
X498Y709D01*
X498Y711D01*
X492Y711D01*
X492Y713D01*
X490Y713D01*
X490Y715D01*
X486Y715D01*
X486Y717D01*
X482Y717D01*
X482Y719D01*
X480Y719D01*
X480Y721D01*
X478Y721D01*
X478Y723D01*
X476Y723D01*
X476Y725D01*
X474Y725D01*
X474Y727D01*
X472Y727D01*
X472Y731D01*
X450Y731D01*
G37*
D02*
G36*
X550Y731D02*
X550Y729D01*
X548Y729D01*
X548Y727D01*
X546Y727D01*
X546Y725D01*
X544Y725D01*
X544Y723D01*
X542Y723D01*
X542Y721D01*
X540Y721D01*
X540Y719D01*
X538Y719D01*
X538Y717D01*
X536Y717D01*
X536Y715D01*
X532Y715D01*
X532Y713D01*
X528Y713D01*
X528Y711D01*
X522Y711D01*
X522Y709D01*
X514Y709D01*
X514Y707D01*
X588Y707D01*
X588Y715D01*
X586Y715D01*
X586Y717D01*
X582Y717D01*
X582Y719D01*
X580Y719D01*
X580Y721D01*
X578Y721D01*
X578Y723D01*
X576Y723D01*
X576Y725D01*
X574Y725D01*
X574Y727D01*
X572Y727D01*
X572Y731D01*
X550Y731D01*
G37*
D02*
G36*
X650Y731D02*
X650Y729D01*
X648Y729D01*
X648Y727D01*
X646Y727D01*
X646Y725D01*
X644Y725D01*
X644Y723D01*
X642Y723D01*
X642Y721D01*
X640Y721D01*
X640Y719D01*
X638Y719D01*
X638Y717D01*
X636Y717D01*
X636Y715D01*
X632Y715D01*
X632Y519D01*
X630Y519D01*
X630Y515D01*
X628Y515D01*
X628Y513D01*
X626Y513D01*
X626Y509D01*
X622Y509D01*
X622Y507D01*
X620Y507D01*
X620Y505D01*
X618Y505D01*
X618Y503D01*
X616Y503D01*
X616Y501D01*
X614Y501D01*
X614Y499D01*
X612Y499D01*
X612Y497D01*
X610Y497D01*
X610Y495D01*
X608Y495D01*
X608Y493D01*
X606Y493D01*
X606Y491D01*
X604Y491D01*
X604Y489D01*
X602Y489D01*
X602Y487D01*
X600Y487D01*
X600Y485D01*
X596Y485D01*
X596Y483D01*
X594Y483D01*
X594Y481D01*
X592Y481D01*
X592Y479D01*
X590Y479D01*
X590Y477D01*
X588Y477D01*
X588Y475D01*
X586Y475D01*
X586Y473D01*
X584Y473D01*
X584Y471D01*
X582Y471D01*
X582Y469D01*
X580Y469D01*
X580Y467D01*
X578Y467D01*
X578Y465D01*
X576Y465D01*
X576Y463D01*
X574Y463D01*
X574Y461D01*
X572Y461D01*
X572Y459D01*
X568Y459D01*
X568Y457D01*
X566Y457D01*
X566Y455D01*
X564Y455D01*
X564Y453D01*
X562Y453D01*
X562Y451D01*
X560Y451D01*
X560Y449D01*
X558Y449D01*
X558Y447D01*
X556Y447D01*
X556Y445D01*
X554Y445D01*
X554Y443D01*
X552Y443D01*
X552Y441D01*
X550Y441D01*
X550Y439D01*
X548Y439D01*
X548Y437D01*
X546Y437D01*
X546Y435D01*
X542Y435D01*
X542Y433D01*
X540Y433D01*
X540Y431D01*
X538Y431D01*
X538Y429D01*
X536Y429D01*
X536Y427D01*
X534Y427D01*
X534Y425D01*
X532Y425D01*
X532Y423D01*
X530Y423D01*
X530Y421D01*
X528Y421D01*
X528Y419D01*
X526Y419D01*
X526Y417D01*
X524Y417D01*
X524Y415D01*
X522Y415D01*
X522Y413D01*
X520Y413D01*
X520Y411D01*
X516Y411D01*
X516Y409D01*
X514Y409D01*
X514Y407D01*
X512Y407D01*
X512Y405D01*
X510Y405D01*
X510Y403D01*
X508Y403D01*
X508Y401D01*
X506Y401D01*
X506Y399D01*
X504Y399D01*
X504Y397D01*
X502Y397D01*
X502Y395D01*
X500Y395D01*
X500Y393D01*
X498Y393D01*
X498Y391D01*
X496Y391D01*
X496Y389D01*
X494Y389D01*
X494Y387D01*
X490Y387D01*
X490Y385D01*
X488Y385D01*
X488Y383D01*
X486Y383D01*
X486Y381D01*
X484Y381D01*
X484Y379D01*
X482Y379D01*
X482Y377D01*
X480Y377D01*
X480Y375D01*
X478Y375D01*
X478Y373D01*
X476Y373D01*
X476Y371D01*
X474Y371D01*
X474Y369D01*
X472Y369D01*
X472Y367D01*
X470Y367D01*
X470Y365D01*
X468Y365D01*
X468Y363D01*
X464Y363D01*
X464Y361D01*
X462Y361D01*
X462Y359D01*
X460Y359D01*
X460Y357D01*
X458Y357D01*
X458Y355D01*
X456Y355D01*
X456Y353D01*
X454Y353D01*
X454Y351D01*
X452Y351D01*
X452Y349D01*
X450Y349D01*
X450Y347D01*
X448Y347D01*
X448Y345D01*
X446Y345D01*
X446Y343D01*
X444Y343D01*
X444Y341D01*
X442Y341D01*
X442Y339D01*
X438Y339D01*
X438Y337D01*
X436Y337D01*
X436Y335D01*
X434Y335D01*
X434Y333D01*
X432Y333D01*
X432Y331D01*
X430Y331D01*
X430Y329D01*
X428Y329D01*
X428Y327D01*
X426Y327D01*
X426Y325D01*
X424Y325D01*
X424Y323D01*
X422Y323D01*
X422Y321D01*
X420Y321D01*
X420Y319D01*
X418Y319D01*
X418Y317D01*
X416Y317D01*
X416Y315D01*
X412Y315D01*
X412Y313D01*
X410Y313D01*
X410Y311D01*
X408Y311D01*
X408Y309D01*
X406Y309D01*
X406Y307D01*
X404Y307D01*
X404Y305D01*
X402Y305D01*
X402Y303D01*
X400Y303D01*
X400Y301D01*
X398Y301D01*
X398Y299D01*
X396Y299D01*
X396Y297D01*
X394Y297D01*
X394Y295D01*
X392Y295D01*
X392Y293D01*
X390Y293D01*
X390Y291D01*
X388Y291D01*
X388Y289D01*
X384Y289D01*
X384Y287D01*
X382Y287D01*
X382Y285D01*
X380Y285D01*
X380Y283D01*
X378Y283D01*
X378Y281D01*
X376Y281D01*
X376Y279D01*
X374Y279D01*
X374Y277D01*
X372Y277D01*
X372Y275D01*
X370Y275D01*
X370Y273D01*
X368Y273D01*
X368Y271D01*
X366Y271D01*
X366Y269D01*
X364Y269D01*
X364Y267D01*
X362Y267D01*
X362Y265D01*
X358Y265D01*
X358Y263D01*
X356Y263D01*
X356Y261D01*
X354Y261D01*
X354Y259D01*
X352Y259D01*
X352Y257D01*
X350Y257D01*
X350Y255D01*
X348Y255D01*
X348Y253D01*
X346Y253D01*
X346Y251D01*
X344Y251D01*
X344Y249D01*
X342Y249D01*
X342Y247D01*
X340Y247D01*
X340Y245D01*
X338Y245D01*
X338Y243D01*
X336Y243D01*
X336Y241D01*
X332Y241D01*
X332Y239D01*
X330Y239D01*
X330Y237D01*
X328Y237D01*
X328Y235D01*
X326Y235D01*
X326Y233D01*
X324Y233D01*
X324Y231D01*
X322Y231D01*
X322Y229D01*
X320Y229D01*
X320Y227D01*
X318Y227D01*
X318Y225D01*
X316Y225D01*
X316Y223D01*
X314Y223D01*
X314Y221D01*
X312Y221D01*
X312Y219D01*
X310Y219D01*
X310Y217D01*
X306Y217D01*
X306Y215D01*
X304Y215D01*
X304Y213D01*
X302Y213D01*
X302Y211D01*
X300Y211D01*
X300Y209D01*
X298Y209D01*
X298Y207D01*
X296Y207D01*
X296Y205D01*
X294Y205D01*
X294Y203D01*
X292Y203D01*
X292Y201D01*
X290Y201D01*
X290Y199D01*
X288Y199D01*
X288Y197D01*
X286Y197D01*
X286Y195D01*
X284Y195D01*
X284Y193D01*
X280Y193D01*
X280Y191D01*
X278Y191D01*
X278Y189D01*
X276Y189D01*
X276Y187D01*
X274Y187D01*
X274Y185D01*
X272Y185D01*
X272Y183D01*
X270Y183D01*
X270Y181D01*
X268Y181D01*
X268Y179D01*
X266Y179D01*
X266Y177D01*
X264Y177D01*
X264Y175D01*
X262Y175D01*
X262Y173D01*
X260Y173D01*
X260Y107D01*
X400Y107D01*
X400Y109D01*
X394Y109D01*
X394Y111D01*
X390Y111D01*
X390Y113D01*
X388Y113D01*
X388Y115D01*
X384Y115D01*
X384Y117D01*
X382Y117D01*
X382Y119D01*
X380Y119D01*
X380Y121D01*
X376Y121D01*
X376Y123D01*
X374Y123D01*
X374Y127D01*
X372Y127D01*
X372Y129D01*
X370Y129D01*
X370Y131D01*
X368Y131D01*
X368Y135D01*
X366Y135D01*
X366Y139D01*
X364Y139D01*
X364Y143D01*
X362Y143D01*
X362Y151D01*
X360Y151D01*
X360Y163D01*
X362Y163D01*
X362Y171D01*
X364Y171D01*
X364Y175D01*
X366Y175D01*
X366Y179D01*
X368Y179D01*
X368Y183D01*
X370Y183D01*
X370Y185D01*
X372Y185D01*
X372Y187D01*
X374Y187D01*
X374Y189D01*
X376Y189D01*
X376Y191D01*
X378Y191D01*
X378Y193D01*
X380Y193D01*
X380Y195D01*
X382Y195D01*
X382Y197D01*
X384Y197D01*
X384Y199D01*
X388Y199D01*
X388Y201D01*
X392Y201D01*
X392Y203D01*
X396Y203D01*
X396Y205D01*
X402Y205D01*
X402Y207D01*
X424Y207D01*
X424Y209D01*
X426Y209D01*
X426Y213D01*
X428Y213D01*
X428Y215D01*
X430Y215D01*
X430Y217D01*
X432Y217D01*
X432Y219D01*
X434Y219D01*
X434Y221D01*
X436Y221D01*
X436Y225D01*
X438Y225D01*
X438Y227D01*
X440Y227D01*
X440Y229D01*
X442Y229D01*
X442Y231D01*
X444Y231D01*
X444Y235D01*
X446Y235D01*
X446Y237D01*
X448Y237D01*
X448Y239D01*
X450Y239D01*
X450Y241D01*
X452Y241D01*
X452Y245D01*
X454Y245D01*
X454Y247D01*
X456Y247D01*
X456Y249D01*
X458Y249D01*
X458Y251D01*
X460Y251D01*
X460Y255D01*
X462Y255D01*
X462Y257D01*
X464Y257D01*
X464Y259D01*
X466Y259D01*
X466Y261D01*
X468Y261D01*
X468Y263D01*
X470Y263D01*
X470Y267D01*
X472Y267D01*
X472Y269D01*
X474Y269D01*
X474Y271D01*
X476Y271D01*
X476Y273D01*
X478Y273D01*
X478Y277D01*
X480Y277D01*
X480Y279D01*
X482Y279D01*
X482Y281D01*
X484Y281D01*
X484Y283D01*
X486Y283D01*
X486Y287D01*
X488Y287D01*
X488Y289D01*
X490Y289D01*
X490Y291D01*
X492Y291D01*
X492Y293D01*
X494Y293D01*
X494Y295D01*
X496Y295D01*
X496Y299D01*
X498Y299D01*
X498Y301D01*
X500Y301D01*
X500Y303D01*
X502Y303D01*
X502Y305D01*
X504Y305D01*
X504Y309D01*
X506Y309D01*
X506Y311D01*
X508Y311D01*
X508Y313D01*
X510Y313D01*
X510Y315D01*
X512Y315D01*
X512Y319D01*
X514Y319D01*
X514Y321D01*
X516Y321D01*
X516Y323D01*
X518Y323D01*
X518Y325D01*
X520Y325D01*
X520Y327D01*
X522Y327D01*
X522Y331D01*
X524Y331D01*
X524Y333D01*
X526Y333D01*
X526Y335D01*
X528Y335D01*
X528Y337D01*
X530Y337D01*
X530Y341D01*
X532Y341D01*
X532Y343D01*
X534Y343D01*
X534Y345D01*
X536Y345D01*
X536Y347D01*
X538Y347D01*
X538Y351D01*
X540Y351D01*
X540Y353D01*
X542Y353D01*
X542Y355D01*
X544Y355D01*
X544Y357D01*
X546Y357D01*
X546Y359D01*
X548Y359D01*
X548Y363D01*
X550Y363D01*
X550Y365D01*
X552Y365D01*
X552Y367D01*
X554Y367D01*
X554Y369D01*
X556Y369D01*
X556Y373D01*
X558Y373D01*
X558Y375D01*
X560Y375D01*
X560Y377D01*
X562Y377D01*
X562Y379D01*
X564Y379D01*
X564Y383D01*
X566Y383D01*
X566Y385D01*
X568Y385D01*
X568Y387D01*
X570Y387D01*
X570Y389D01*
X572Y389D01*
X572Y391D01*
X574Y391D01*
X574Y395D01*
X576Y395D01*
X576Y397D01*
X578Y397D01*
X578Y399D01*
X580Y399D01*
X580Y401D01*
X582Y401D01*
X582Y405D01*
X584Y405D01*
X584Y407D01*
X586Y407D01*
X586Y409D01*
X588Y409D01*
X588Y411D01*
X590Y411D01*
X590Y415D01*
X592Y415D01*
X592Y417D01*
X594Y417D01*
X594Y419D01*
X596Y419D01*
X596Y421D01*
X598Y421D01*
X598Y425D01*
X600Y425D01*
X600Y427D01*
X602Y427D01*
X602Y429D01*
X604Y429D01*
X604Y431D01*
X606Y431D01*
X606Y433D01*
X608Y433D01*
X608Y437D01*
X610Y437D01*
X610Y439D01*
X612Y439D01*
X612Y441D01*
X614Y441D01*
X614Y443D01*
X616Y443D01*
X616Y447D01*
X618Y447D01*
X618Y449D01*
X620Y449D01*
X620Y451D01*
X622Y451D01*
X622Y453D01*
X624Y453D01*
X624Y457D01*
X626Y457D01*
X626Y459D01*
X628Y459D01*
X628Y461D01*
X630Y461D01*
X630Y463D01*
X632Y463D01*
X632Y465D01*
X634Y465D01*
X634Y469D01*
X636Y469D01*
X636Y471D01*
X638Y471D01*
X638Y473D01*
X640Y473D01*
X640Y475D01*
X642Y475D01*
X642Y479D01*
X644Y479D01*
X644Y481D01*
X646Y481D01*
X646Y483D01*
X648Y483D01*
X648Y485D01*
X650Y485D01*
X650Y489D01*
X652Y489D01*
X652Y491D01*
X654Y491D01*
X654Y493D01*
X656Y493D01*
X656Y495D01*
X658Y495D01*
X658Y497D01*
X660Y497D01*
X660Y501D01*
X662Y501D01*
X662Y503D01*
X664Y503D01*
X664Y505D01*
X666Y505D01*
X666Y507D01*
X668Y507D01*
X668Y511D01*
X670Y511D01*
X670Y513D01*
X672Y513D01*
X672Y515D01*
X674Y515D01*
X674Y517D01*
X676Y517D01*
X676Y521D01*
X678Y521D01*
X678Y523D01*
X680Y523D01*
X680Y525D01*
X682Y525D01*
X682Y527D01*
X684Y527D01*
X684Y529D01*
X686Y529D01*
X686Y533D01*
X688Y533D01*
X688Y715D01*
X686Y715D01*
X686Y717D01*
X682Y717D01*
X682Y719D01*
X680Y719D01*
X680Y721D01*
X678Y721D01*
X678Y723D01*
X676Y723D01*
X676Y725D01*
X674Y725D01*
X674Y727D01*
X672Y727D01*
X672Y731D01*
X650Y731D01*
G37*
D02*
G36*
X750Y731D02*
X750Y729D01*
X748Y729D01*
X748Y727D01*
X746Y727D01*
X746Y725D01*
X744Y725D01*
X744Y723D01*
X742Y723D01*
X742Y721D01*
X740Y721D01*
X740Y719D01*
X738Y719D01*
X738Y717D01*
X736Y717D01*
X736Y715D01*
X732Y715D01*
X732Y519D01*
X730Y519D01*
X730Y515D01*
X728Y515D01*
X728Y511D01*
X726Y511D01*
X726Y509D01*
X724Y509D01*
X724Y507D01*
X722Y507D01*
X722Y505D01*
X720Y505D01*
X720Y503D01*
X718Y503D01*
X718Y499D01*
X716Y499D01*
X716Y497D01*
X714Y497D01*
X714Y495D01*
X712Y495D01*
X712Y493D01*
X710Y493D01*
X710Y489D01*
X708Y489D01*
X708Y487D01*
X706Y487D01*
X706Y485D01*
X704Y485D01*
X704Y483D01*
X702Y483D01*
X702Y479D01*
X700Y479D01*
X700Y477D01*
X698Y477D01*
X698Y475D01*
X696Y475D01*
X696Y473D01*
X694Y473D01*
X694Y469D01*
X692Y469D01*
X692Y467D01*
X690Y467D01*
X690Y465D01*
X688Y465D01*
X688Y463D01*
X686Y463D01*
X686Y461D01*
X684Y461D01*
X684Y457D01*
X682Y457D01*
X682Y455D01*
X680Y455D01*
X680Y453D01*
X678Y453D01*
X678Y451D01*
X676Y451D01*
X676Y447D01*
X674Y447D01*
X674Y445D01*
X672Y445D01*
X672Y443D01*
X670Y443D01*
X670Y441D01*
X668Y441D01*
X668Y437D01*
X666Y437D01*
X666Y435D01*
X664Y435D01*
X664Y433D01*
X662Y433D01*
X662Y431D01*
X660Y431D01*
X660Y429D01*
X658Y429D01*
X658Y425D01*
X656Y425D01*
X656Y423D01*
X654Y423D01*
X654Y421D01*
X652Y421D01*
X652Y419D01*
X650Y419D01*
X650Y415D01*
X648Y415D01*
X648Y413D01*
X646Y413D01*
X646Y411D01*
X644Y411D01*
X644Y409D01*
X642Y409D01*
X642Y405D01*
X640Y405D01*
X640Y403D01*
X638Y403D01*
X638Y401D01*
X636Y401D01*
X636Y399D01*
X634Y399D01*
X634Y397D01*
X632Y397D01*
X632Y393D01*
X630Y393D01*
X630Y391D01*
X628Y391D01*
X628Y389D01*
X626Y389D01*
X626Y387D01*
X624Y387D01*
X624Y383D01*
X622Y383D01*
X622Y381D01*
X620Y381D01*
X620Y379D01*
X618Y379D01*
X618Y377D01*
X616Y377D01*
X616Y373D01*
X614Y373D01*
X614Y371D01*
X612Y371D01*
X612Y369D01*
X610Y369D01*
X610Y367D01*
X608Y367D01*
X608Y365D01*
X606Y365D01*
X606Y361D01*
X604Y361D01*
X604Y359D01*
X602Y359D01*
X602Y357D01*
X600Y357D01*
X600Y355D01*
X598Y355D01*
X598Y351D01*
X596Y351D01*
X596Y349D01*
X594Y349D01*
X594Y347D01*
X592Y347D01*
X592Y345D01*
X590Y345D01*
X590Y341D01*
X588Y341D01*
X588Y339D01*
X586Y339D01*
X586Y337D01*
X584Y337D01*
X584Y335D01*
X582Y335D01*
X582Y333D01*
X580Y333D01*
X580Y329D01*
X578Y329D01*
X578Y327D01*
X576Y327D01*
X576Y325D01*
X574Y325D01*
X574Y323D01*
X572Y323D01*
X572Y319D01*
X570Y319D01*
X570Y317D01*
X568Y317D01*
X568Y315D01*
X566Y315D01*
X566Y313D01*
X564Y313D01*
X564Y309D01*
X562Y309D01*
X562Y307D01*
X560Y307D01*
X560Y305D01*
X558Y305D01*
X558Y303D01*
X556Y303D01*
X556Y299D01*
X554Y299D01*
X554Y297D01*
X552Y297D01*
X552Y295D01*
X550Y295D01*
X550Y293D01*
X548Y293D01*
X548Y291D01*
X546Y291D01*
X546Y287D01*
X544Y287D01*
X544Y285D01*
X542Y285D01*
X542Y283D01*
X540Y283D01*
X540Y281D01*
X538Y281D01*
X538Y277D01*
X536Y277D01*
X536Y275D01*
X534Y275D01*
X534Y273D01*
X532Y273D01*
X532Y271D01*
X530Y271D01*
X530Y267D01*
X528Y267D01*
X528Y265D01*
X526Y265D01*
X526Y263D01*
X524Y263D01*
X524Y261D01*
X522Y261D01*
X522Y259D01*
X520Y259D01*
X520Y255D01*
X518Y255D01*
X518Y253D01*
X516Y253D01*
X516Y251D01*
X514Y251D01*
X514Y249D01*
X512Y249D01*
X512Y245D01*
X510Y245D01*
X510Y243D01*
X508Y243D01*
X508Y241D01*
X506Y241D01*
X506Y239D01*
X504Y239D01*
X504Y235D01*
X502Y235D01*
X502Y233D01*
X500Y233D01*
X500Y231D01*
X498Y231D01*
X498Y229D01*
X496Y229D01*
X496Y227D01*
X494Y227D01*
X494Y223D01*
X492Y223D01*
X492Y221D01*
X490Y221D01*
X490Y219D01*
X488Y219D01*
X488Y217D01*
X486Y217D01*
X486Y213D01*
X484Y213D01*
X484Y211D01*
X482Y211D01*
X482Y209D01*
X480Y209D01*
X480Y207D01*
X478Y207D01*
X478Y203D01*
X476Y203D01*
X476Y201D01*
X474Y201D01*
X474Y199D01*
X472Y199D01*
X472Y197D01*
X470Y197D01*
X470Y195D01*
X468Y195D01*
X468Y191D01*
X466Y191D01*
X466Y189D01*
X464Y189D01*
X464Y187D01*
X462Y187D01*
X462Y185D01*
X460Y185D01*
X460Y147D01*
X458Y147D01*
X458Y141D01*
X456Y141D01*
X456Y137D01*
X454Y137D01*
X454Y133D01*
X452Y133D01*
X452Y129D01*
X450Y129D01*
X450Y127D01*
X448Y127D01*
X448Y125D01*
X446Y125D01*
X446Y123D01*
X444Y123D01*
X444Y121D01*
X442Y121D01*
X442Y119D01*
X440Y119D01*
X440Y117D01*
X436Y117D01*
X436Y115D01*
X434Y115D01*
X434Y113D01*
X430Y113D01*
X430Y111D01*
X426Y111D01*
X426Y109D01*
X420Y109D01*
X420Y107D01*
X660Y107D01*
X660Y207D01*
X718Y207D01*
X718Y209D01*
X720Y209D01*
X720Y213D01*
X722Y213D01*
X722Y215D01*
X724Y215D01*
X724Y219D01*
X726Y219D01*
X726Y221D01*
X728Y221D01*
X728Y225D01*
X730Y225D01*
X730Y227D01*
X732Y227D01*
X732Y231D01*
X734Y231D01*
X734Y233D01*
X736Y233D01*
X736Y237D01*
X738Y237D01*
X738Y239D01*
X740Y239D01*
X740Y243D01*
X742Y243D01*
X742Y245D01*
X744Y245D01*
X744Y249D01*
X746Y249D01*
X746Y251D01*
X748Y251D01*
X748Y255D01*
X750Y255D01*
X750Y257D01*
X752Y257D01*
X752Y261D01*
X754Y261D01*
X754Y263D01*
X756Y263D01*
X756Y267D01*
X758Y267D01*
X758Y269D01*
X760Y269D01*
X760Y273D01*
X762Y273D01*
X762Y275D01*
X764Y275D01*
X764Y279D01*
X766Y279D01*
X766Y281D01*
X768Y281D01*
X768Y285D01*
X770Y285D01*
X770Y287D01*
X772Y287D01*
X772Y291D01*
X774Y291D01*
X774Y293D01*
X776Y293D01*
X776Y297D01*
X778Y297D01*
X778Y299D01*
X780Y299D01*
X780Y303D01*
X782Y303D01*
X782Y305D01*
X784Y305D01*
X784Y309D01*
X786Y309D01*
X786Y311D01*
X788Y311D01*
X788Y715D01*
X786Y715D01*
X786Y717D01*
X782Y717D01*
X782Y719D01*
X780Y719D01*
X780Y721D01*
X778Y721D01*
X778Y723D01*
X776Y723D01*
X776Y725D01*
X774Y725D01*
X774Y727D01*
X772Y727D01*
X772Y731D01*
X750Y731D01*
G37*
D02*
G36*
X850Y731D02*
X850Y729D01*
X848Y729D01*
X848Y727D01*
X846Y727D01*
X846Y725D01*
X844Y725D01*
X844Y723D01*
X842Y723D01*
X842Y721D01*
X840Y721D01*
X840Y719D01*
X838Y719D01*
X838Y717D01*
X836Y717D01*
X836Y715D01*
X832Y715D01*
X832Y299D01*
X830Y299D01*
X830Y295D01*
X828Y295D01*
X828Y293D01*
X826Y293D01*
X826Y289D01*
X824Y289D01*
X824Y287D01*
X822Y287D01*
X822Y283D01*
X820Y283D01*
X820Y281D01*
X818Y281D01*
X818Y277D01*
X816Y277D01*
X816Y275D01*
X814Y275D01*
X814Y271D01*
X812Y271D01*
X812Y269D01*
X810Y269D01*
X810Y265D01*
X808Y265D01*
X808Y263D01*
X806Y263D01*
X806Y259D01*
X804Y259D01*
X804Y257D01*
X802Y257D01*
X802Y253D01*
X800Y253D01*
X800Y251D01*
X798Y251D01*
X798Y247D01*
X796Y247D01*
X796Y245D01*
X794Y245D01*
X794Y241D01*
X792Y241D01*
X792Y239D01*
X790Y239D01*
X790Y235D01*
X788Y235D01*
X788Y233D01*
X786Y233D01*
X786Y229D01*
X784Y229D01*
X784Y227D01*
X782Y227D01*
X782Y223D01*
X780Y223D01*
X780Y221D01*
X778Y221D01*
X778Y217D01*
X776Y217D01*
X776Y215D01*
X774Y215D01*
X774Y211D01*
X772Y211D01*
X772Y209D01*
X770Y209D01*
X770Y205D01*
X768Y205D01*
X768Y203D01*
X766Y203D01*
X766Y199D01*
X764Y199D01*
X764Y197D01*
X762Y197D01*
X762Y193D01*
X760Y193D01*
X760Y107D01*
X900Y107D01*
X900Y109D01*
X894Y109D01*
X894Y111D01*
X890Y111D01*
X890Y113D01*
X888Y113D01*
X888Y115D01*
X884Y115D01*
X884Y117D01*
X882Y117D01*
X882Y119D01*
X880Y119D01*
X880Y121D01*
X876Y121D01*
X876Y123D01*
X874Y123D01*
X874Y127D01*
X872Y127D01*
X872Y129D01*
X870Y129D01*
X870Y131D01*
X868Y131D01*
X868Y135D01*
X866Y135D01*
X866Y139D01*
X864Y139D01*
X864Y143D01*
X862Y143D01*
X862Y151D01*
X860Y151D01*
X860Y163D01*
X862Y163D01*
X862Y171D01*
X864Y171D01*
X864Y175D01*
X866Y175D01*
X866Y179D01*
X868Y179D01*
X868Y183D01*
X870Y183D01*
X870Y185D01*
X872Y185D01*
X872Y187D01*
X874Y187D01*
X874Y189D01*
X876Y189D01*
X876Y191D01*
X878Y191D01*
X878Y193D01*
X880Y193D01*
X880Y195D01*
X882Y195D01*
X882Y197D01*
X884Y197D01*
X884Y199D01*
X888Y199D01*
X888Y715D01*
X886Y715D01*
X886Y717D01*
X882Y717D01*
X882Y719D01*
X880Y719D01*
X880Y721D01*
X878Y721D01*
X878Y723D01*
X876Y723D01*
X876Y725D01*
X874Y725D01*
X874Y727D01*
X872Y727D01*
X872Y731D01*
X850Y731D01*
G37*
D02*
G36*
X950Y731D02*
X950Y729D01*
X948Y729D01*
X948Y727D01*
X946Y727D01*
X946Y725D01*
X944Y725D01*
X944Y723D01*
X942Y723D01*
X942Y721D01*
X940Y721D01*
X940Y719D01*
X938Y719D01*
X938Y717D01*
X936Y717D01*
X936Y715D01*
X932Y715D01*
X932Y707D01*
X1006Y707D01*
X1006Y709D01*
X998Y709D01*
X998Y711D01*
X992Y711D01*
X992Y713D01*
X990Y713D01*
X990Y715D01*
X986Y715D01*
X986Y717D01*
X982Y717D01*
X982Y719D01*
X980Y719D01*
X980Y721D01*
X978Y721D01*
X978Y723D01*
X976Y723D01*
X976Y725D01*
X974Y725D01*
X974Y727D01*
X972Y727D01*
X972Y731D01*
X950Y731D01*
G37*
D02*
G36*
X1050Y731D02*
X1050Y729D01*
X1048Y729D01*
X1048Y727D01*
X1046Y727D01*
X1046Y725D01*
X1044Y725D01*
X1044Y723D01*
X1042Y723D01*
X1042Y721D01*
X1040Y721D01*
X1040Y719D01*
X1038Y719D01*
X1038Y717D01*
X1036Y717D01*
X1036Y715D01*
X1032Y715D01*
X1032Y713D01*
X1028Y713D01*
X1028Y711D01*
X1022Y711D01*
X1022Y709D01*
X1014Y709D01*
X1014Y707D01*
X1106Y707D01*
X1106Y709D01*
X1098Y709D01*
X1098Y711D01*
X1092Y711D01*
X1092Y713D01*
X1090Y713D01*
X1090Y715D01*
X1086Y715D01*
X1086Y717D01*
X1082Y717D01*
X1082Y719D01*
X1080Y719D01*
X1080Y721D01*
X1078Y721D01*
X1078Y723D01*
X1076Y723D01*
X1076Y725D01*
X1074Y725D01*
X1074Y727D01*
X1072Y727D01*
X1072Y731D01*
X1050Y731D01*
G37*
D02*
G36*
X40Y707D02*
X40Y705D01*
X588Y705D01*
X588Y707D01*
X40Y707D01*
G37*
D02*
G36*
X40Y707D02*
X40Y705D01*
X588Y705D01*
X588Y707D01*
X40Y707D01*
G37*
D02*
G36*
X40Y707D02*
X40Y705D01*
X588Y705D01*
X588Y707D01*
X40Y707D01*
G37*
D02*
G36*
X932Y707D02*
X932Y705D01*
X1224Y705D01*
X1224Y707D01*
X932Y707D01*
G37*
D02*
G36*
X932Y707D02*
X932Y705D01*
X1224Y705D01*
X1224Y707D01*
X932Y707D01*
G37*
D02*
G36*
X932Y707D02*
X932Y705D01*
X1224Y705D01*
X1224Y707D01*
X932Y707D01*
G37*
D02*
G36*
X40Y705D02*
X40Y107D01*
X160Y107D01*
X160Y207D01*
X234Y207D01*
X234Y209D01*
X236Y209D01*
X236Y211D01*
X238Y211D01*
X238Y213D01*
X240Y213D01*
X240Y215D01*
X242Y215D01*
X242Y217D01*
X244Y217D01*
X244Y219D01*
X246Y219D01*
X246Y221D01*
X248Y221D01*
X248Y223D01*
X250Y223D01*
X250Y225D01*
X252Y225D01*
X252Y227D01*
X256Y227D01*
X256Y229D01*
X258Y229D01*
X258Y231D01*
X260Y231D01*
X260Y233D01*
X262Y233D01*
X262Y235D01*
X264Y235D01*
X264Y237D01*
X266Y237D01*
X266Y239D01*
X268Y239D01*
X268Y241D01*
X270Y241D01*
X270Y243D01*
X272Y243D01*
X272Y245D01*
X274Y245D01*
X274Y247D01*
X276Y247D01*
X276Y249D01*
X278Y249D01*
X278Y251D01*
X282Y251D01*
X282Y253D01*
X284Y253D01*
X284Y255D01*
X286Y255D01*
X286Y257D01*
X288Y257D01*
X288Y259D01*
X290Y259D01*
X290Y261D01*
X292Y261D01*
X292Y263D01*
X294Y263D01*
X294Y265D01*
X296Y265D01*
X296Y267D01*
X298Y267D01*
X298Y269D01*
X300Y269D01*
X300Y271D01*
X302Y271D01*
X302Y273D01*
X304Y273D01*
X304Y275D01*
X308Y275D01*
X308Y277D01*
X310Y277D01*
X310Y279D01*
X312Y279D01*
X312Y281D01*
X314Y281D01*
X314Y283D01*
X316Y283D01*
X316Y285D01*
X318Y285D01*
X318Y287D01*
X320Y287D01*
X320Y289D01*
X322Y289D01*
X322Y291D01*
X324Y291D01*
X324Y293D01*
X326Y293D01*
X326Y295D01*
X328Y295D01*
X328Y297D01*
X330Y297D01*
X330Y299D01*
X334Y299D01*
X334Y301D01*
X336Y301D01*
X336Y303D01*
X338Y303D01*
X338Y305D01*
X340Y305D01*
X340Y307D01*
X342Y307D01*
X342Y309D01*
X344Y309D01*
X344Y311D01*
X346Y311D01*
X346Y313D01*
X348Y313D01*
X348Y315D01*
X350Y315D01*
X350Y317D01*
X352Y317D01*
X352Y319D01*
X354Y319D01*
X354Y321D01*
X356Y321D01*
X356Y323D01*
X358Y323D01*
X358Y325D01*
X362Y325D01*
X362Y327D01*
X364Y327D01*
X364Y329D01*
X366Y329D01*
X366Y331D01*
X368Y331D01*
X368Y333D01*
X370Y333D01*
X370Y335D01*
X372Y335D01*
X372Y337D01*
X374Y337D01*
X374Y339D01*
X376Y339D01*
X376Y341D01*
X378Y341D01*
X378Y343D01*
X380Y343D01*
X380Y345D01*
X382Y345D01*
X382Y347D01*
X384Y347D01*
X384Y349D01*
X388Y349D01*
X388Y351D01*
X390Y351D01*
X390Y353D01*
X392Y353D01*
X392Y355D01*
X394Y355D01*
X394Y357D01*
X396Y357D01*
X396Y359D01*
X398Y359D01*
X398Y361D01*
X400Y361D01*
X400Y363D01*
X402Y363D01*
X402Y365D01*
X404Y365D01*
X404Y367D01*
X406Y367D01*
X406Y369D01*
X408Y369D01*
X408Y371D01*
X410Y371D01*
X410Y373D01*
X414Y373D01*
X414Y375D01*
X416Y375D01*
X416Y377D01*
X418Y377D01*
X418Y379D01*
X420Y379D01*
X420Y381D01*
X422Y381D01*
X422Y383D01*
X424Y383D01*
X424Y385D01*
X426Y385D01*
X426Y387D01*
X428Y387D01*
X428Y389D01*
X430Y389D01*
X430Y391D01*
X432Y391D01*
X432Y393D01*
X434Y393D01*
X434Y395D01*
X436Y395D01*
X436Y397D01*
X440Y397D01*
X440Y399D01*
X442Y399D01*
X442Y401D01*
X444Y401D01*
X444Y403D01*
X446Y403D01*
X446Y405D01*
X448Y405D01*
X448Y407D01*
X450Y407D01*
X450Y409D01*
X452Y409D01*
X452Y411D01*
X454Y411D01*
X454Y413D01*
X456Y413D01*
X456Y415D01*
X458Y415D01*
X458Y417D01*
X460Y417D01*
X460Y419D01*
X462Y419D01*
X462Y421D01*
X466Y421D01*
X466Y423D01*
X468Y423D01*
X468Y425D01*
X470Y425D01*
X470Y427D01*
X472Y427D01*
X472Y429D01*
X474Y429D01*
X474Y431D01*
X476Y431D01*
X476Y433D01*
X478Y433D01*
X478Y435D01*
X480Y435D01*
X480Y437D01*
X482Y437D01*
X482Y439D01*
X484Y439D01*
X484Y441D01*
X486Y441D01*
X486Y443D01*
X488Y443D01*
X488Y445D01*
X492Y445D01*
X492Y447D01*
X494Y447D01*
X494Y449D01*
X496Y449D01*
X496Y451D01*
X498Y451D01*
X498Y453D01*
X500Y453D01*
X500Y455D01*
X502Y455D01*
X502Y457D01*
X504Y457D01*
X504Y459D01*
X506Y459D01*
X506Y461D01*
X508Y461D01*
X508Y463D01*
X510Y463D01*
X510Y465D01*
X512Y465D01*
X512Y467D01*
X514Y467D01*
X514Y469D01*
X518Y469D01*
X518Y471D01*
X520Y471D01*
X520Y473D01*
X522Y473D01*
X522Y475D01*
X524Y475D01*
X524Y477D01*
X526Y477D01*
X526Y479D01*
X528Y479D01*
X528Y481D01*
X530Y481D01*
X530Y483D01*
X532Y483D01*
X532Y485D01*
X534Y485D01*
X534Y487D01*
X536Y487D01*
X536Y489D01*
X538Y489D01*
X538Y491D01*
X540Y491D01*
X540Y493D01*
X542Y493D01*
X542Y495D01*
X546Y495D01*
X546Y497D01*
X548Y497D01*
X548Y499D01*
X550Y499D01*
X550Y501D01*
X552Y501D01*
X552Y503D01*
X554Y503D01*
X554Y505D01*
X556Y505D01*
X556Y507D01*
X558Y507D01*
X558Y509D01*
X560Y509D01*
X560Y511D01*
X562Y511D01*
X562Y513D01*
X564Y513D01*
X564Y515D01*
X566Y515D01*
X566Y517D01*
X568Y517D01*
X568Y519D01*
X572Y519D01*
X572Y521D01*
X574Y521D01*
X574Y523D01*
X576Y523D01*
X576Y525D01*
X578Y525D01*
X578Y527D01*
X580Y527D01*
X580Y529D01*
X582Y529D01*
X582Y531D01*
X584Y531D01*
X584Y533D01*
X586Y533D01*
X586Y535D01*
X588Y535D01*
X588Y705D01*
X40Y705D01*
G37*
D02*
G36*
X932Y705D02*
X932Y199D01*
X936Y199D01*
X936Y197D01*
X938Y197D01*
X938Y195D01*
X942Y195D01*
X942Y193D01*
X944Y193D01*
X944Y191D01*
X946Y191D01*
X946Y189D01*
X948Y189D01*
X948Y187D01*
X950Y187D01*
X950Y183D01*
X952Y183D01*
X952Y181D01*
X954Y181D01*
X954Y177D01*
X956Y177D01*
X956Y173D01*
X958Y173D01*
X958Y167D01*
X960Y167D01*
X960Y147D01*
X958Y147D01*
X958Y141D01*
X956Y141D01*
X956Y137D01*
X954Y137D01*
X954Y133D01*
X952Y133D01*
X952Y129D01*
X950Y129D01*
X950Y127D01*
X948Y127D01*
X948Y125D01*
X946Y125D01*
X946Y123D01*
X944Y123D01*
X944Y121D01*
X942Y121D01*
X942Y119D01*
X940Y119D01*
X940Y117D01*
X936Y117D01*
X936Y115D01*
X934Y115D01*
X934Y113D01*
X930Y113D01*
X930Y111D01*
X926Y111D01*
X926Y109D01*
X920Y109D01*
X920Y107D01*
X1360Y107D01*
X1360Y191D01*
X1358Y191D01*
X1358Y193D01*
X1356Y193D01*
X1356Y197D01*
X1354Y197D01*
X1354Y199D01*
X1352Y199D01*
X1352Y201D01*
X1350Y201D01*
X1350Y205D01*
X1348Y205D01*
X1348Y207D01*
X1346Y207D01*
X1346Y209D01*
X1344Y209D01*
X1344Y213D01*
X1342Y213D01*
X1342Y215D01*
X1340Y215D01*
X1340Y219D01*
X1338Y219D01*
X1338Y221D01*
X1336Y221D01*
X1336Y223D01*
X1334Y223D01*
X1334Y227D01*
X1332Y227D01*
X1332Y229D01*
X1330Y229D01*
X1330Y233D01*
X1328Y233D01*
X1328Y235D01*
X1326Y235D01*
X1326Y237D01*
X1324Y237D01*
X1324Y241D01*
X1322Y241D01*
X1322Y243D01*
X1320Y243D01*
X1320Y247D01*
X1318Y247D01*
X1318Y249D01*
X1316Y249D01*
X1316Y251D01*
X1314Y251D01*
X1314Y255D01*
X1312Y255D01*
X1312Y257D01*
X1310Y257D01*
X1310Y259D01*
X1308Y259D01*
X1308Y263D01*
X1306Y263D01*
X1306Y265D01*
X1304Y265D01*
X1304Y269D01*
X1302Y269D01*
X1302Y271D01*
X1300Y271D01*
X1300Y273D01*
X1298Y273D01*
X1298Y277D01*
X1296Y277D01*
X1296Y279D01*
X1294Y279D01*
X1294Y283D01*
X1292Y283D01*
X1292Y285D01*
X1290Y285D01*
X1290Y291D01*
X1288Y291D01*
X1288Y623D01*
X1286Y623D01*
X1286Y625D01*
X1284Y625D01*
X1284Y627D01*
X1282Y627D01*
X1282Y629D01*
X1280Y629D01*
X1280Y631D01*
X1278Y631D01*
X1278Y633D01*
X1276Y633D01*
X1276Y635D01*
X1274Y635D01*
X1274Y639D01*
X1272Y639D01*
X1272Y643D01*
X1270Y643D01*
X1270Y649D01*
X1268Y649D01*
X1268Y667D01*
X1266Y667D01*
X1266Y669D01*
X1264Y669D01*
X1264Y671D01*
X1260Y671D01*
X1260Y673D01*
X1258Y673D01*
X1258Y675D01*
X1256Y675D01*
X1256Y677D01*
X1254Y677D01*
X1254Y679D01*
X1252Y679D01*
X1252Y681D01*
X1250Y681D01*
X1250Y683D01*
X1248Y683D01*
X1248Y685D01*
X1246Y685D01*
X1246Y687D01*
X1244Y687D01*
X1244Y689D01*
X1242Y689D01*
X1242Y691D01*
X1238Y691D01*
X1238Y693D01*
X1236Y693D01*
X1236Y695D01*
X1234Y695D01*
X1234Y697D01*
X1232Y697D01*
X1232Y699D01*
X1230Y699D01*
X1230Y701D01*
X1228Y701D01*
X1228Y703D01*
X1226Y703D01*
X1226Y705D01*
X932Y705D01*
G37*
D02*
G36*
X1320Y699D02*
X1320Y697D01*
X1324Y697D01*
X1324Y695D01*
X1328Y695D01*
X1328Y693D01*
X1332Y693D01*
X1332Y691D01*
X1334Y691D01*
X1334Y689D01*
X1336Y689D01*
X1336Y687D01*
X1340Y687D01*
X1340Y685D01*
X1342Y685D01*
X1342Y681D01*
X1344Y681D01*
X1344Y679D01*
X1346Y679D01*
X1346Y675D01*
X1348Y675D01*
X1348Y673D01*
X1368Y673D01*
X1368Y699D01*
X1320Y699D01*
G37*
D02*
G36*
X1348Y641D02*
X1348Y637D01*
X1346Y637D01*
X1346Y635D01*
X1344Y635D01*
X1344Y631D01*
X1342Y631D01*
X1342Y629D01*
X1340Y629D01*
X1340Y627D01*
X1338Y627D01*
X1338Y625D01*
X1336Y625D01*
X1336Y623D01*
X1332Y623D01*
X1332Y615D01*
X1368Y615D01*
X1368Y641D01*
X1348Y641D01*
G37*
D02*
G36*
X1332Y615D02*
X1332Y613D01*
X1544Y613D01*
X1544Y615D01*
X1332Y615D01*
G37*
D02*
G36*
X1332Y615D02*
X1332Y613D01*
X1544Y613D01*
X1544Y615D01*
X1332Y615D01*
G37*
D02*
G36*
X1332Y613D02*
X1332Y301D01*
X1334Y301D01*
X1334Y299D01*
X1336Y299D01*
X1336Y297D01*
X1338Y297D01*
X1338Y293D01*
X1340Y293D01*
X1340Y291D01*
X1342Y291D01*
X1342Y289D01*
X1344Y289D01*
X1344Y285D01*
X1346Y285D01*
X1346Y283D01*
X1348Y283D01*
X1348Y279D01*
X1350Y279D01*
X1350Y277D01*
X1352Y277D01*
X1352Y275D01*
X1354Y275D01*
X1354Y271D01*
X1356Y271D01*
X1356Y269D01*
X1358Y269D01*
X1358Y265D01*
X1360Y265D01*
X1360Y263D01*
X1362Y263D01*
X1362Y261D01*
X1364Y261D01*
X1364Y257D01*
X1366Y257D01*
X1366Y255D01*
X1368Y255D01*
X1368Y251D01*
X1370Y251D01*
X1370Y249D01*
X1372Y249D01*
X1372Y247D01*
X1374Y247D01*
X1374Y243D01*
X1376Y243D01*
X1376Y241D01*
X1378Y241D01*
X1378Y239D01*
X1380Y239D01*
X1380Y235D01*
X1382Y235D01*
X1382Y233D01*
X1384Y233D01*
X1384Y229D01*
X1386Y229D01*
X1386Y227D01*
X1388Y227D01*
X1388Y225D01*
X1390Y225D01*
X1390Y221D01*
X1392Y221D01*
X1392Y219D01*
X1394Y219D01*
X1394Y215D01*
X1396Y215D01*
X1396Y213D01*
X1398Y213D01*
X1398Y211D01*
X1400Y211D01*
X1400Y207D01*
X1430Y207D01*
X1430Y209D01*
X1432Y209D01*
X1432Y211D01*
X1434Y211D01*
X1434Y213D01*
X1436Y213D01*
X1436Y215D01*
X1438Y215D01*
X1438Y217D01*
X1440Y217D01*
X1440Y219D01*
X1442Y219D01*
X1442Y221D01*
X1444Y221D01*
X1444Y223D01*
X1446Y223D01*
X1446Y225D01*
X1448Y225D01*
X1448Y227D01*
X1450Y227D01*
X1450Y229D01*
X1452Y229D01*
X1452Y231D01*
X1454Y231D01*
X1454Y233D01*
X1456Y233D01*
X1456Y235D01*
X1458Y235D01*
X1458Y237D01*
X1460Y237D01*
X1460Y239D01*
X1462Y239D01*
X1462Y241D01*
X1464Y241D01*
X1464Y243D01*
X1466Y243D01*
X1466Y245D01*
X1468Y245D01*
X1468Y247D01*
X1470Y247D01*
X1470Y249D01*
X1472Y249D01*
X1472Y251D01*
X1474Y251D01*
X1474Y253D01*
X1476Y253D01*
X1476Y255D01*
X1478Y255D01*
X1478Y257D01*
X1480Y257D01*
X1480Y259D01*
X1482Y259D01*
X1482Y261D01*
X1484Y261D01*
X1484Y263D01*
X1486Y263D01*
X1486Y265D01*
X1488Y265D01*
X1488Y267D01*
X1490Y267D01*
X1490Y269D01*
X1492Y269D01*
X1492Y271D01*
X1494Y271D01*
X1494Y273D01*
X1496Y273D01*
X1496Y275D01*
X1498Y275D01*
X1498Y277D01*
X1500Y277D01*
X1500Y279D01*
X1502Y279D01*
X1502Y281D01*
X1504Y281D01*
X1504Y283D01*
X1506Y283D01*
X1506Y285D01*
X1508Y285D01*
X1508Y287D01*
X1510Y287D01*
X1510Y289D01*
X1512Y289D01*
X1512Y291D01*
X1514Y291D01*
X1514Y293D01*
X1516Y293D01*
X1516Y295D01*
X1518Y295D01*
X1518Y297D01*
X1520Y297D01*
X1520Y299D01*
X1522Y299D01*
X1522Y301D01*
X1524Y301D01*
X1524Y303D01*
X1526Y303D01*
X1526Y305D01*
X1528Y305D01*
X1528Y307D01*
X1530Y307D01*
X1530Y309D01*
X1532Y309D01*
X1532Y311D01*
X1534Y311D01*
X1534Y313D01*
X1536Y313D01*
X1536Y315D01*
X1538Y315D01*
X1538Y317D01*
X1540Y317D01*
X1540Y319D01*
X1542Y319D01*
X1542Y321D01*
X1544Y321D01*
X1544Y613D01*
X1332Y613D01*
G37*
D02*
G36*
X40Y107D02*
X40Y105D01*
X1430Y105D01*
X1430Y107D01*
X40Y107D01*
G37*
D02*
G36*
X40Y107D02*
X40Y105D01*
X1430Y105D01*
X1430Y107D01*
X40Y107D01*
G37*
D02*
G36*
X40Y107D02*
X40Y105D01*
X1430Y105D01*
X1430Y107D01*
X40Y107D01*
G37*
D02*
G36*
X40Y107D02*
X40Y105D01*
X1430Y105D01*
X1430Y107D01*
X40Y107D01*
G37*
D02*
G36*
X40Y107D02*
X40Y105D01*
X1430Y105D01*
X1430Y107D01*
X40Y107D01*
G37*
D02*
G36*
X40Y105D02*
X40Y41D01*
X1476Y41D01*
X1476Y61D01*
X1474Y61D01*
X1474Y63D01*
X1472Y63D01*
X1472Y65D01*
X1470Y65D01*
X1470Y67D01*
X1468Y67D01*
X1468Y69D01*
X1466Y69D01*
X1466Y71D01*
X1464Y71D01*
X1464Y73D01*
X1462Y73D01*
X1462Y75D01*
X1460Y75D01*
X1460Y77D01*
X1458Y77D01*
X1458Y79D01*
X1456Y79D01*
X1456Y81D01*
X1454Y81D01*
X1454Y83D01*
X1452Y83D01*
X1452Y85D01*
X1450Y85D01*
X1450Y87D01*
X1448Y87D01*
X1448Y89D01*
X1446Y89D01*
X1446Y91D01*
X1444Y91D01*
X1444Y93D01*
X1442Y93D01*
X1442Y95D01*
X1440Y95D01*
X1440Y97D01*
X1438Y97D01*
X1438Y99D01*
X1436Y99D01*
X1436Y101D01*
X1434Y101D01*
X1434Y103D01*
X1432Y103D01*
X1432Y105D01*
X40Y105D01*
G37*
D02*
G36*
X1484Y1211D02*
X1531Y1211D01*
X1531Y1181D01*
X1484Y1181D01*
X1484Y1211D01*
G37*
D02*
G36*
X1485Y1639D02*
X1530Y1639D01*
X1530Y1607D01*
X1485Y1607D01*
X1485Y1639D01*
G37*
D02*
G36*
X1388Y703D02*
X1427Y703D01*
X1427Y673D01*
X1388Y673D01*
X1388Y703D01*
G37*
D02*
G36*
X1388Y647D02*
X1427Y647D01*
X1427Y615D01*
X1388Y615D01*
X1388Y647D01*
G37*
D02*
G36*
X1420Y679D02*
X1452Y679D01*
X1452Y640D01*
X1420Y640D01*
X1420Y679D01*
G37*
D02*
G36*
X2386Y1109D02*
X2429Y1109D01*
X2429Y1077D01*
X2386Y1077D01*
X2386Y1109D01*
G37*
D02*
G36*
X2386Y1043D02*
X2429Y1043D01*
X2429Y1009D01*
X2386Y1009D01*
X2386Y1043D01*
G37*
D02*
G36*
X2424Y1081D02*
X2458Y1081D01*
X2458Y1038D01*
X2424Y1038D01*
X2424Y1081D01*
G37*
D02*
G36*
X1385Y1639D02*
X1430Y1639D01*
X1430Y1607D01*
X1385Y1607D01*
X1385Y1639D01*
G37*
D02*
G36*
X1585Y1639D02*
X1630Y1639D01*
X1630Y1607D01*
X1585Y1607D01*
X1585Y1639D01*
G37*
D02*
G36*
X985Y809D02*
X1030Y809D01*
X1030Y779D01*
X985Y779D01*
X985Y809D01*
G37*
D02*
G36*
X985Y741D02*
X1030Y741D01*
X1030Y707D01*
X985Y707D01*
X985Y741D01*
G37*
D02*
G36*
X1585Y211D02*
X1630Y211D01*
X1630Y179D01*
X1585Y179D01*
X1585Y211D01*
G37*
D02*
G36*
X1556Y182D02*
X1588Y182D01*
X1588Y137D01*
X1556Y137D01*
X1556Y182D01*
G37*
D02*
G36*
X1626Y182D02*
X1660Y182D01*
X1660Y137D01*
X1626Y137D01*
X1626Y182D01*
G37*
D02*
G36*
X1285Y1639D02*
X1330Y1639D01*
X1330Y1607D01*
X1285Y1607D01*
X1285Y1639D01*
G37*
D02*
G36*
X1685Y1639D02*
X1730Y1639D01*
X1730Y1607D01*
X1685Y1607D01*
X1685Y1639D01*
G37*
D02*
G36*
X1726Y1680D02*
X1760Y1680D01*
X1760Y1635D01*
X1726Y1635D01*
X1726Y1680D01*
G37*
D02*
G36*
X387Y809D02*
X432Y809D01*
X432Y779D01*
X387Y779D01*
X387Y809D01*
G37*
D02*
G36*
X387Y741D02*
X432Y741D01*
X432Y707D01*
X387Y707D01*
X387Y741D01*
G37*
D02*
G36*
X358Y782D02*
X390Y782D01*
X390Y737D01*
X358Y737D01*
X358Y782D01*
G37*
D02*
G36*
X2085Y211D02*
X2130Y211D01*
X2130Y179D01*
X2085Y179D01*
X2085Y211D01*
G37*
D02*
G36*
X2085Y141D02*
X2130Y141D01*
X2130Y107D01*
X2085Y107D01*
X2085Y141D01*
G37*
D02*
G36*
X2056Y182D02*
X2088Y182D01*
X2088Y137D01*
X2056Y137D01*
X2056Y182D01*
G37*
D02*
G36*
X2126Y182D02*
X2160Y182D01*
X2160Y137D01*
X2126Y137D01*
X2126Y182D01*
G37*
D02*
G36*
X2785Y1041D02*
X2830Y1041D01*
X2830Y1007D01*
X2785Y1007D01*
X2785Y1041D01*
G37*
D02*
G36*
X2826Y1082D02*
X2860Y1082D01*
X2860Y1037D01*
X2826Y1037D01*
X2826Y1082D01*
G37*
D02*
G36*
X87Y1905D02*
X132Y1905D01*
X132Y1877D01*
X87Y1877D01*
X87Y1905D01*
G37*
D02*
G36*
X87Y1839D02*
X132Y1839D01*
X132Y1807D01*
X87Y1807D01*
X87Y1839D01*
G37*
D02*
G36*
X58Y1880D02*
X90Y1880D01*
X90Y1835D01*
X58Y1835D01*
X58Y1880D01*
G37*
D02*
G54D19*
X1378Y689D02*
X1442Y689D01*
X1378Y688D02*
X1442Y688D01*
X1378Y687D02*
X1442Y687D01*
X1378Y686D02*
X1442Y686D01*
X1378Y685D02*
X1442Y685D01*
X1378Y684D02*
X1442Y684D01*
X1378Y683D02*
X1442Y683D01*
X1378Y682D02*
X1442Y682D01*
X1378Y681D02*
X1442Y681D01*
X1378Y680D02*
X1442Y680D01*
X1378Y679D02*
X1442Y679D01*
X1378Y678D02*
X1442Y678D01*
X1378Y677D02*
X1442Y677D01*
X1378Y676D02*
X1442Y676D01*
X1378Y675D02*
X1442Y675D01*
X1378Y674D02*
X1442Y674D01*
X1378Y673D02*
X1442Y673D01*
X1378Y672D02*
X1442Y672D01*
X1378Y671D02*
X1407Y671D01*
X1412Y671D02*
X1442Y671D01*
X1378Y670D02*
X1404Y670D01*
X1415Y670D02*
X1442Y670D01*
X1378Y669D02*
X1402Y669D01*
X1417Y669D02*
X1442Y669D01*
X1378Y668D02*
X1401Y668D01*
X1419Y668D02*
X1442Y668D01*
X1378Y667D02*
X1399Y667D01*
X1420Y667D02*
X1442Y667D01*
X1378Y666D02*
X1399Y666D01*
X1421Y666D02*
X1442Y666D01*
X1378Y665D02*
X1398Y665D01*
X1422Y665D02*
X1442Y665D01*
X1378Y664D02*
X1397Y664D01*
X1422Y664D02*
X1442Y664D01*
X1378Y663D02*
X1397Y663D01*
X1423Y663D02*
X1442Y663D01*
X1378Y662D02*
X1396Y662D01*
X1423Y662D02*
X1442Y662D01*
X1378Y661D02*
X1396Y661D01*
X1423Y661D02*
X1442Y661D01*
X1378Y660D02*
X1396Y660D01*
X1424Y660D02*
X1442Y660D01*
X1378Y659D02*
X1395Y659D01*
X1424Y659D02*
X1442Y659D01*
X1378Y658D02*
X1395Y658D01*
X1424Y658D02*
X1442Y658D01*
X1378Y657D02*
X1395Y657D01*
X1424Y657D02*
X1442Y657D01*
X1378Y656D02*
X1395Y656D01*
X1424Y656D02*
X1442Y656D01*
X1378Y655D02*
X1396Y655D01*
X1424Y655D02*
X1442Y655D01*
X1378Y654D02*
X1396Y654D01*
X1424Y654D02*
X1442Y654D01*
X1378Y653D02*
X1396Y653D01*
X1423Y653D02*
X1442Y653D01*
X1378Y652D02*
X1397Y652D01*
X1423Y652D02*
X1442Y652D01*
X1378Y651D02*
X1397Y651D01*
X1422Y651D02*
X1442Y651D01*
X1378Y650D02*
X1398Y650D01*
X1422Y650D02*
X1442Y650D01*
X1378Y649D02*
X1398Y649D01*
X1421Y649D02*
X1442Y649D01*
X1378Y648D02*
X1399Y648D01*
X1420Y648D02*
X1442Y648D01*
X1378Y647D02*
X1400Y647D01*
X1419Y647D02*
X1442Y647D01*
X1378Y646D02*
X1401Y646D01*
X1418Y646D02*
X1442Y646D01*
X1378Y645D02*
X1403Y645D01*
X1416Y645D02*
X1442Y645D01*
X1378Y644D02*
X1406Y644D01*
X1414Y644D02*
X1442Y644D01*
X1378Y643D02*
X1442Y643D01*
X1378Y642D02*
X1442Y642D01*
X1378Y641D02*
X1442Y641D01*
X1378Y640D02*
X1442Y640D01*
X1378Y639D02*
X1442Y639D01*
X1378Y638D02*
X1442Y638D01*
X1378Y637D02*
X1442Y637D01*
X1378Y636D02*
X1442Y636D01*
X1378Y635D02*
X1442Y635D01*
X1378Y634D02*
X1442Y634D01*
X1378Y633D02*
X1442Y633D01*
X1378Y632D02*
X1442Y632D01*
X1378Y631D02*
X1442Y631D01*
X1378Y630D02*
X1442Y630D01*
X1378Y629D02*
X1442Y629D01*
X1378Y628D02*
X1442Y628D01*
X1378Y627D02*
X1442Y627D01*
X1378Y626D02*
X1442Y626D01*
X1378Y625D02*
X1441Y625D01*
D02*
G04 End of Copper1*
M02*